<?xml version="1.0" standalone="no"?>
<!DOCTYPE svg PUBLIC "-//W3C//DTD SVG 1.1//EN" "http://www.w3.org/Graphics/SVG/1.1/DTD/svg11.dtd" >
<svg xmlns="http://www.w3.org/2000/svg" xmlns:xlink="http://www.w3.org/1999/xlink" version="1.1">
<metadata>
Created by FontForge 20170731 at Fri Apr  8 12:54:48 2022
 By Aleksey,,,
Copyright (c) 2015 by Glenjan. All rights reserved.
</metadata>
<defs>
<font id="LetoTextSansDefect" horiz-adv-x="1310" >
  <font-face 
    font-family="Leto Text Sans Defect"
    font-weight="400"
    font-stretch="normal"
    units-per-em="2048"
    panose-1="2 11 5 3 2 6 0 2 0 3"
    ascent="1536"
    descent="-512"
    x-height="881"
    cap-height="1331"
    bbox="-348 -655 2406 1972"
    underline-thickness="143"
    underline-position="-490"
    unicode-range="U+0020-FB06"
  />
<missing-glyph horiz-adv-x="962" 
d="M307 752l131 -131h88l129 131h29l94 -95v-28l-129 -131v-88l129 -129v-29l-94 -94h-29l-129 129h-88l-131 -129h-28l-95 94v29l131 129v88l-131 131v28l95 95h28z" />
    <glyph glyph-name=".notdef" horiz-adv-x="962" 
d="M307 752l131 -131h88l129 131h29l94 -95v-28l-129 -131v-88l129 -129v-29l-94 -94h-29l-129 129h-88l-131 -129h-28l-95 94v29l131 129v88l-131 131v28l95 95h28z" />
    <glyph glyph-name=".null" horiz-adv-x="0" 
 />
    <glyph glyph-name="nonmarkingreturn" horiz-adv-x="682" 
 />
    <glyph glyph-name="space" unicode=" " horiz-adv-x="475" 
 />
    <glyph glyph-name="exclam" unicode="!" horiz-adv-x="462" 
d="M231 244q58 0 93.5 -37t35.5 -90q0 -55 -36 -91t-93 -36q-55 0 -92 35.5t-37 91.5q0 55 36.5 91t92.5 36zM139 1434l21 20h143l21 -20v-1035l-21 -20h-143l-21 20v1035z" />
    <glyph glyph-name="quotedbl" unicode="&#x22;" horiz-adv-x="653" 
d="M102 1311l21 20h133l29 -28h88l26 28h131l21 -20v-76l-31 -270l-20 -19h-101l-20 21v94l-123 8l-12 -104l-21 -19h-100l-21 21v344z" />
    <glyph glyph-name="numbersign" unicode="#" horiz-adv-x="1185" 
d="M156 907l20 21h148l59 51l29 162l24 16l117 -20l16 -25l-18 -113l59 -71h70l59 51l27 160l25 18l116 -20l17 -25l-19 -113l60 -71h88l20 -21v-116l-20 -21h-135l-60 -51l-12 -70l59 -71h105l20 -21v-117l-20 -20h-152l-59 -51l-25 -148l-24 -16l-117 20l-17 23l17 100
l-62 72h-69l-60 -51l-22 -133l-25 -17l-116 21l-17 22l14 86l-61 72h-82l-20 20v117l20 21h131l60 51l12 69l-62 72h-98l-20 21v116zM561 770l-59 -51l-13 -70l60 -71h72l59 51l12 69l-59 72h-72z" />
    <glyph glyph-name="dollar" unicode="$" horiz-adv-x="1224" 
d="M524 1532l21 20h143l21 -20v-166l51 -59q166 -27 291 -119l4 -29l-78 -112l-29 -5q-145 109 -332 109q-260 0 -260 -193q0 -99 64 -144.5t215 -59.5q219 -21 343 -119.5t124 -267.5q0 -142 -92.5 -243t-251.5 -136l-49 -60v-161l-21 -21h-143l-21 21v155l-53 62
q-187 24 -332 131l-6 26l78 119l27 6q178 -125 372 -125q144 0 226 59t82 165q0 99 -75.5 151t-234.5 64q-213 15 -325.5 108t-112.5 258q0 136 80.5 229.5t226.5 127.5l47 59v170z" />
    <glyph glyph-name="percent" unicode="%" horiz-adv-x="1474" 
d="M1161 1260l29 2l96 -82v-31l-448 -514l80 -94q74 53 167 53q125 0 211 -89t86 -218q0 -127 -86.5 -217t-210.5 -90q-125 0 -211 89t-86 218q0 79 35 147l-100 68l-444 -510l-31 -2l-94 82l-2 28l458 527l-78 92q-64 -37 -143 -37q-126 0 -211.5 89t-85.5 218
q0 127 86.5 217t210.5 90q125 0 211 -89t86 -218q0 -61 -22 -119l102 -63zM1085 442q-63 0 -99 -42.5t-36 -112.5t36 -113t99 -43t99.5 42t36.5 114t-36.5 113.5t-99.5 41.5zM389 1145q-63 0 -99 -43.5t-36 -112.5q0 -70 36 -112.5t99 -42.5t99 41.5t36 113.5
q0 69 -35.5 112.5t-99.5 43.5z" />
    <glyph glyph-name="ampersand" unicode="&#x26;" horiz-adv-x="1349" 
d="M1190 39l-113 -98h-28l-78 88l-76 12q-130 -68 -283 -68q-219 0 -349 125.5t-130 333.5q0 219 146 359l16 59q-19 68 -19 141q0 160 110 263.5t284 103.5q225 0 362 -131l2 -29l-96 -106h-29q-100 100 -247 100q-97 0 -146 -61t-49 -154q0 -111 78 -199l338 -372l104 22
q27 82 27 180q0 80 -15 156l19 22l141 21l23 -16q16 -106 16 -179q0 -216 -100 -374l8 -74l86 -96zM770 258l-311 348l-103 -14q-30 -68 -30 -148q0 -138 83 -221.5t218 -83.5q54 0 116 19z" />
    <glyph glyph-name="quotesingle" unicode="'" horiz-adv-x="378" 
d="M102 1311l21 20h137l21 -20v-74l-33 -272l-21 -19h-104l-21 21v344z" />
    <glyph glyph-name="parenleft" unicode="(" horiz-adv-x="573" 
d="M434 1290l101 -67l6 -29q-226 -295 -226 -717q0 -198 55.5 -372.5t170.5 -346.5l-6 -28l-107 -66l-27 4q-278 326 -278 809q0 464 283 809z" />
    <glyph glyph-name="parenright" unicode=")" horiz-adv-x="573" 
d="M139 -336l-100 68l-6 28q225 294 225 717q0 198 -55 373t-170 346l6 29l106 65l27 -4q279 -327 279 -809q0 -464 -283 -809z" />
    <glyph glyph-name="asterisk" unicode="*" horiz-adv-x="784" 
d="M160 1282l30 4l99 -88l100 27l37 127l27 12l114 -41l13 -27l-48 -116l60 -84l119 6l22 -21v-120l-20 -21l-123 4l-60 -84l48 -112l-13 -29l-119 -43l-26 12l-35 127l-98 31l-103 -86l-28 4l-70 100l4 29l115 76v102l-117 86l-4 29z" />
    <glyph glyph-name="plus" unicode="+" horiz-adv-x="983" 
d="M403 1042l21 21h135l21 -21v-229l61 -61h199l20 -21v-127l-20 -20h-199l-61 -62v-229l-21 -21h-135l-21 21v229l-61 62h-199l-20 20v127l20 21h199l61 61v229z" />
    <glyph glyph-name="comma" unicode="," horiz-adv-x="462" 
d="M127 -162l33 121l-19 64q-39 36 -39 90q0 59 37 95t94 36q54 0 90.5 -35.5t36.5 -89.5q0 -47 -14 -82l-94 -238l-25 -12l-88 27z" />
    <glyph glyph-name="hyphen" unicode="-" horiz-adv-x="845" 
d="M123 524l20 21h559l21 -21v-123l-21 -20h-559l-20 20v123z" />
    <glyph glyph-name="period" unicode="." horiz-adv-x="462" 
d="M231 244q55 0 92 -35.5t37 -91.5t-37 -91.5t-92 -35.5t-92 35.5t-37 91.5t37 91.5t92 35.5z" />
    <glyph glyph-name="slash" unicode="/" horiz-adv-x="673" 
d="M563 1362l27 12l127 -43l12 -24l-616 -1766l-27 -12l-127 43l-12 27z" />
    <glyph glyph-name="zero" unicode="0" horiz-adv-x="1347" 
d="M674 1358q173 0 304 -90t199 -246t68 -356q0 -147 -41.5 -275t-115.5 -220t-181 -145t-233 -53q-173 0 -304 90t-199.5 246.5t-68.5 356.5q0 196 71 353.5t202 248t299 90.5zM674 1190q-178 0 -278.5 -144.5t-100.5 -379.5q0 -234 100.5 -379.5t278.5 -145.5t278.5 145
t100.5 380q0 234 -100.5 379t-278.5 145z" />
    <glyph glyph-name="one" unicode="1" horiz-adv-x="765" 
d="M582 1307v-1287l-21 -20h-149l-21 20v924l-96 51l-105 -71l-28 4l-70 100l4 29l369 274l14 4l84 -8z" />
    <glyph glyph-name="two" unicode="2" horiz-adv-x="1193" 
d="M1020 172l20 -20v-132l-20 -20h-842l-20 20v130l8 16l496 418q184 155 184 352q0 122 -69.5 187t-196.5 65q-163 0 -310 -129l-30 2l-84 108l2 29q186 160 426 160q210 0 332 -115.5t122 -308.5q0 -265 -243 -467l-226 -186l39 -109h412z" />
    <glyph glyph-name="three" unicode="3" horiz-adv-x="1196" 
d="M397 752l21 20h200q94 0 144.5 55.5t50.5 151.5q0 105 -62.5 158t-179.5 53q-162 0 -290 -107l-29 4l-80 107l2 27q171 137 404 137q193 0 309.5 -102.5t116.5 -272.5q0 -141 -76 -223v-94q135 -88 135 -281q0 -181 -135 -296.5t-361 -115.5q-277 0 -461 166l-2 29
l89 106l28 5q157 -138 350 -138q141 0 220 66t79 184q0 109 -60 162t-183 53h-209l-21 21v125z" />
    <glyph glyph-name="four" unicode="4" horiz-adv-x="1300" 
d="M788 1335h203l21 -20v-815l61 -62h105l20 -20v-129l-20 -21h-105l-61 -61v-187l-21 -20h-149l-21 20v187l-61 61h-627l-20 21v125l4 12l655 901zM821 920l-110 34l-291 -417l49 -99h291l61 62v420z" />
    <glyph glyph-name="five" unicode="5" horiz-adv-x="1204" 
d="M250 1313l18 18h715l21 -20v-131l-21 -21h-504l-61 -57l-10 -176l77 -64q68 19 127 19q206 0 327.5 -120t121.5 -325q0 -204 -136 -333.5t-350 -129.5q-140 0 -245.5 40.5t-202.5 131.5v31l96 105h29q144 -138 330 -138q131 0 209.5 80t78.5 213q0 135 -68 206t-196 71
q-152 0 -264 -92l-18 -5l-99 37l-14 21z" />
    <glyph glyph-name="six" unicode="6" horiz-adv-x="1249" 
d="M1049 1245l-62 -117l-29 -8q-117 66 -264 66q-130 0 -220.5 -80t-121.5 -225l86 -70q107 49 236 49q198 0 315 -118t117 -316q0 -92 -33 -174.5t-93 -144.5t-149.5 -98t-195.5 -36q-233 0 -362.5 177.5t-129.5 506.5q0 193 62.5 350.5t188 254t294.5 96.5q216 0 352 -86z
M358 582l-20 -47q6 -180 86 -288t211 -108q130 0 208.5 77.5t78.5 205.5q0 133 -70.5 202.5t-208.5 69.5q-167 0 -285 -112z" />
    <glyph glyph-name="seven" unicode="7" horiz-adv-x="1136" 
d="M123 1311l20 20h830l20 -20v-117l-465 -1180l-20 -14h-164l-18 29l432 1048l-58 84h-557l-20 21v129z" />
    <glyph glyph-name="eight" unicode="8" horiz-adv-x="1261" 
d="M631 -27q-232 0 -365 113.5t-133 304.5q0 190 135 316l6 84q-65 74 -65 200q0 157 120 262t302 105q189 0 305.5 -102t116.5 -265q0 -135 -84 -239l10 -88q149 -113 149 -283q0 -180 -138 -294t-359 -114zM485 649l-57 -8q-106 -81 -106 -250q0 -111 86 -181.5t223 -70.5
q143 0 225 64t82 178q0 101 -73.5 158t-233.5 77q-60 7 -146 33zM727 770l57 16q82 82 82 205q0 97 -62.5 149t-172.5 52q-109 0 -172.5 -53t-63.5 -148q0 -85 61.5 -138t174.5 -67q36 -4 96 -16z" />
    <glyph glyph-name="nine" unicode="9" horiz-adv-x="1249" 
d="M262 205l27 8q117 -68 266 -68q130 0 220.5 80.5t121.5 225.5l-84 71q-99 -51 -238 -51q-199 0 -315.5 118.5t-116.5 315.5q0 93 33.5 176t94 144.5t149.5 97t194 35.5q229 0 360.5 -172.5t131.5 -511.5q0 -197 -64.5 -355t-189.5 -252t-291 -94q-213 0 -352 86l-8 27z
M614 1192q-131 0 -208.5 -77.5t-77.5 -205.5q0 -133 70.5 -202.5t207.5 -69.5q164 0 285 115l20 45q-6 182 -86.5 288.5t-210.5 106.5z" />
    <glyph glyph-name="colon" unicode=":" horiz-adv-x="462" 
d="M231 244q55 0 92 -35.5t37 -91.5t-37 -91.5t-92 -35.5t-92 35.5t-37 91.5t37 91.5t92 35.5zM231 862q55 0 92 -35.5t37 -91.5t-37 -91.5t-92 -35.5t-92 35.5t-37 91.5t37 91.5t92 35.5z" />
    <glyph glyph-name="semicolon" unicode=";" horiz-adv-x="462" 
d="M127 -162l33 121l-19 64q-39 36 -39 90q0 59 37 95t94 36q54 0 90.5 -35.5t36.5 -89.5q0 -47 -14 -82l-94 -238l-25 -12l-88 27zM231 862q55 0 92 -35.5t37 -91.5t-37 -91.5t-92 -35.5t-92 35.5t-37 91.5t37 91.5t92 35.5z" />
    <glyph glyph-name="less" unicode="&#x3c;" horiz-adv-x="704" 
d="M459 1114l28 2l101 -90l2 -29l-250 -280v-82l250 -289l-2 -29l-105 -96l-28 2l-367 412l-6 14v43l6 15z" />
    <glyph glyph-name="equal" unicode="=" horiz-adv-x="921" 
d="M123 569l20 21h635l21 -21v-127l-21 -20h-635l-20 20v127zM123 936l20 20h635l21 -20v-127l-21 -21h-635l-20 21v127z" />
    <glyph glyph-name="greater" unicode="&#x3e;" horiz-adv-x="704" 
d="M248 223h-29l-100 90l-2 29l250 279v81l-250 289l2 29l104 94h29l366 -412l5 -14v-43l-5 -14z" />
    <glyph glyph-name="question" unicode="?" horiz-adv-x="1062" 
d="M498 -10q-54 0 -91.5 35.5t-37.5 91.5q0 55 36.5 91t92.5 36q58 0 93.5 -37t35.5 -90q0 -54 -37 -90.5t-92 -36.5zM567 379h-137l-20 18l-7 70q0 247 201 344q81 39 123.5 104t42.5 144q0 115 -66.5 178t-185.5 63q-86 0 -166.5 -35.5t-140.5 -99.5h-31l-94 101v28
q93 93 196 136t236 43q210 0 326.5 -111t116.5 -303q0 -121 -65 -222.5t-181 -160.5q-127 -64 -127 -227v-50z" />
    <glyph glyph-name="at" unicode="@" horiz-adv-x="1683" 
d="M1362 -51l51 -115l-8 -27q-237 -120 -543 -120q-352 0 -556 198t-204 539q0 156 54.5 296t152.5 245t243 167t316 62q204 0 365.5 -80t254.5 -231.5t93 -350.5q0 -123 -45 -225.5t-123.5 -161.5t-173.5 -59q-112 0 -176 64h-86q-77 -74 -195 -74q-128 0 -211.5 98
t-83.5 248q0 168 106 277.5t271 109.5q179 0 285 -59l10 -19v-375q0 -37 16 -64t42 -36l18 -2q79 0 120.5 71.5t41.5 202.5q0 223 -140.5 360.5t-388.5 137.5q-173 0 -305.5 -77t-203 -213.5t-70.5 -311.5q0 -260 155.5 -415.5t417.5 -155.5q256 0 473 106zM977 582l-53 59
q-36 4 -64 4q-96 0 -142 -61.5t-46 -155.5q0 -84 39 -136t100 -52q74 0 120 50.5t46 133.5v158z" />
    <glyph glyph-name="A" unicode="A" horiz-adv-x="1404" 
d="M594 1325l20 12h193l18 -14l488 -1296l-19 -27h-168l-18 14l-96 277l-58 41h-501l-58 -41l-98 -277l-18 -14h-166l-21 29zM647 1001l-149 -419l57 -82h297l57 82l-145 419h-117z" />
    <glyph glyph-name="B" unicode="B" horiz-adv-x="1290" 
d="M184 1311l21 20h448q203 0 322 -96t119 -256q0 -127 -84 -217v-94q147 -95 147 -285q0 -175 -125.5 -279t-343.5 -104h-483l-21 20v1291zM377 539v-312l61 -61h254q133 0 203 56t70 161q0 106 -68.5 161.5t-204.5 55.5h-254zM377 1104v-279l61 -61h230q110 0 172.5 54
t62.5 151q0 196 -256 196h-209z" />
    <glyph glyph-name="C" unicode="C" horiz-adv-x="1323" 
d="M1151 1176l-96 -111l-29 -2q-138 123 -313 123q-187 0 -302.5 -143.5t-115.5 -376.5q0 -229 113.5 -375t306.5 -146q190 0 342 146l28 -2l93 -105l-2 -28q-189 -183 -471 -183q-180 0 -317.5 87t-211.5 244.5t-74 361.5q0 192 77 349.5t220.5 250t325.5 92.5
q248 0 424 -154z" />
    <glyph glyph-name="D" unicode="D" horiz-adv-x="1335" 
d="M184 1311l21 20h399q291 0 460 -178.5t169 -486.5q0 -300 -174.5 -483t-462.5 -183h-391l-21 20v1291zM377 1098v-862l61 -62h158q209 0 326.5 131t117.5 361q0 493 -446 493h-156z" />
    <glyph glyph-name="E" unicode="E" horiz-adv-x="1212" 
d="M184 1311l21 20h817l20 -20v-127l-20 -21h-584l-61 -61v-275l61 -61h510l21 -21v-127l-21 -20h-510l-61 -61v-308l61 -61h621l20 -21v-127l-20 -20h-854l-21 20v1291z" />
    <glyph glyph-name="F" unicode="F" horiz-adv-x="1169" 
d="M184 1311l21 20h801l20 -20v-129l-20 -21h-568l-61 -61v-301l61 -62h494l20 -20v-125l-20 -21h-494l-61 -61v-490l-21 -20h-151l-21 20v1291z" />
    <glyph glyph-name="G" unicode="G" horiz-adv-x="1345" 
d="M770 723h422l20 -21v-550l-8 -17q-194 -162 -485 -162q-280 0 -448.5 190.5t-168.5 502.5q0 188 76.5 345t223 252t335.5 95q262 0 439 -154l2 -28l-97 -111l-28 -2q-141 123 -326 123q-194 0 -313 -145t-119 -375q0 -238 119.5 -380.5t318.5 -142.5q150 0 268 70l29 53
v232l-59 61l-201 6l-20 21v116z" />
    <glyph glyph-name="H" unicode="H" horiz-adv-x="1378" 
d="M205 1331h151l21 -20v-496l61 -61h502l61 61v496l21 20h152l20 -20v-1291l-20 -20h-152l-21 20v500l-61 62h-502l-61 -62v-500l-21 -20h-151l-21 20v1291z" />
    <glyph glyph-name="I" unicode="I" horiz-adv-x="561" 
d="M184 1311l21 20h151l21 -20v-1291l-21 -20h-151l-21 20v1291z" />
    <glyph glyph-name="J" unicode="J" horiz-adv-x="847" 
d="M483 1311l21 20h149l21 -20v-850q0 -231 -109.5 -359.5t-310.5 -128.5q-85 0 -154 17l-14 24l29 131l24 15q57 -13 109 -13q111 0 173 81t62 233v850z" />
    <glyph glyph-name="K" unicode="K" horiz-adv-x="1341" 
d="M184 1311l21 20h151l21 -20v-469l63 -62l95 6l45 25l352 512l16 8h195l16 -33l-399 -548v-74l475 -643l-16 -33h-193l-16 8l-410 578l-51 26h-111l-61 -61v-531l-21 -20h-151l-21 20v1291z" />
    <glyph glyph-name="L" unicode="L" horiz-adv-x="1128" 
d="M184 1311l21 20h151l21 -20v-1078l61 -61h578l20 -20v-132l-20 -20h-811l-21 20v1291z" />
    <glyph glyph-name="M" unicode="M" horiz-adv-x="1570" 
d="M184 1311l21 20h186l19 -10l323 -578h107l325 578l19 10h182l20 -20v-1291l-20 -20h-145l-21 20v797l-115 31l-251 -438l-19 -11h-70l-18 11l-244 434l-114 -31v-793l-21 -20h-143l-21 20v1291z" />
    <glyph glyph-name="N" unicode="N" horiz-adv-x="1402" 
d="M184 1311l21 20h141l16 -10l560 -846l112 35v801l21 20h143l21 -20v-1291l-21 -20h-160l-16 8l-541 821l-112 -32v-777l-21 -20h-143l-21 20v1291z" />
    <glyph glyph-name="O" unicode="O" horiz-adv-x="1409" 
d="M705 1358q177 0 315 -89.5t212.5 -247t74.5 -355.5q0 -195 -77.5 -353.5t-215.5 -249t-309 -90.5q-177 0 -315 90t-213 247.5t-75 355.5q0 195 77.5 353.5t216 248.5t309.5 90zM705 1190q-188 0 -299 -145.5t-111 -378.5q0 -232 111 -378.5t299 -146.5t298.5 145.5
t110.5 379.5q0 232 -110.5 378t-298.5 146z" />
    <glyph glyph-name="P" unicode="P" horiz-adv-x="1247" 
d="M184 1311l21 20h450q221 0 355.5 -122t134.5 -328q0 -204 -141.5 -327.5t-370.5 -123.5h-195l-61 -61v-349l-21 -20h-151l-21 20v1291zM377 1100v-438l61 -62h193q157 0 239 72t82 209q0 280 -309 280h-205z" />
    <glyph glyph-name="Q" unicode="Q" horiz-adv-x="1409" 
d="M1251 -184l-92 -113l-31 -2l-294 264l-52 15q-47 -7 -77 -7q-128 0 -239 49.5t-191.5 139t-126.5 219.5t-46 285q0 194 79 352.5t217 249t307 90.5q127 0 237.5 -49.5t191 -138.5t127 -219.5t46.5 -284.5q0 -176 -65.5 -326.5t-186.5 -245.5v-96l192 -154zM705 1190
q-186 0 -298 -144.5t-112 -379.5q0 -230 111.5 -377.5t298.5 -147.5q186 0 297.5 146.5t111.5 378.5q0 149 -48 267t-142 187.5t-219 69.5z" />
    <glyph glyph-name="R" unicode="R" horiz-adv-x="1288" 
d="M184 1311l21 20h442q218 0 354 -122t136 -316q0 -118 -57.5 -212.5t-166.5 -156.5l-20 -90l291 -401l-19 -33h-182l-16 8l-285 418l-51 27h-193l-61 -62v-371l-21 -20h-151l-21 20v1291zM377 1100v-416l61 -61h199q141 0 224 73t83 199q0 130 -81 198t-234 68h-191z" />
    <glyph glyph-name="S" unicode="S" horiz-adv-x="1255" 
d="M1083 1196l-82 -117l-28 -6q-154 117 -342 117q-135 0 -203 -53t-68 -150q0 -103 68 -151.5t223 -63.5q231 -23 356.5 -124.5t125.5 -268.5q0 -184 -142 -295t-373 -111q-281 0 -479 144l-6 28l80 121l29 6q183 -131 383 -131q150 0 234.5 62t84.5 172q0 100 -77.5 153
t-243.5 68q-451 41 -451 379q0 176 126.5 279.5t336.5 103.5q265 0 444 -135z" />
    <glyph glyph-name="T" unicode="T" horiz-adv-x="1175" 
d="M82 1311l20 20h971l21 -20v-131l-21 -21h-328l-61 -61v-1078l-20 -20h-152l-20 20v1078l-62 61h-328l-20 21v131z" />
    <glyph glyph-name="U" unicode="U" horiz-adv-x="1380" 
d="M174 1311l21 20h149l21 -20v-738q0 -205 84.5 -317.5t240.5 -112.5q155 0 240.5 113.5t85.5 316.5v738l20 20h150l20 -20v-738q0 -281 -139 -440.5t-377 -159.5q-245 0 -380.5 159.5t-135.5 440.5v738z" />
    <glyph glyph-name="V" unicode="V" horiz-adv-x="1345" 
d="M90 1305l19 26h176l18 -14l309 -965h119l311 965l19 14h174l18 -26l-458 -1295l-19 -14h-215l-18 14z" />
    <glyph glyph-name="W" unicode="W" horiz-adv-x="1830" 
d="M88 1305l21 26h172l20 -16l203 -873h119l208 789l21 14h133l21 -16l206 -787h119l205 873l20 16h166l21 -26l-350 -1295l-21 -14h-205l-20 14l-172 668h-119l-166 -666l-20 -16h-213l-21 14z" />
    <glyph glyph-name="X" unicode="X" horiz-adv-x="1353" 
d="M162 1300l16 31h178l19 -10l252 -436h108l240 436l18 10h181l18 -31l-365 -591v-64l394 -614l-17 -31h-178l-18 10l-283 471h-107l-264 -471l-18 -10h-186l-17 31l391 626v66z" />
    <glyph glyph-name="Y" unicode="Y" horiz-adv-x="1323" 
d="M98 1300l19 31h186l19 -12l286 -592h111l293 592l18 12h176l19 -31l-459 -851l-8 -31v-398l-21 -20h-151l-21 20v398l-8 31z" />
    <glyph glyph-name="Z" unicode="Z" horiz-adv-x="1206" 
d="M154 1311l20 20h858l21 -20v-115l-4 -12l-615 -920l51 -94h568l20 -20v-130l-20 -20h-899l-21 20v107l10 25l615 915l-51 94h-533l-20 21v129z" />
    <glyph glyph-name="bracketleft" unicode="[" horiz-adv-x="548" 
d="M123 1311l20 20h385l21 -20v-125l-21 -21h-157l-62 -61v-1307l62 -61h157l21 -21v-125l-21 -20h-385l-20 20v1721z" />
    <glyph glyph-name="backslash" unicode="\" horiz-adv-x="673" 
d="M84 1374l27 -12l616 -1765l-12 -27l-127 -43l-27 12l-616 1768l12 24z" />
    <glyph glyph-name="bracketright" unicode="]" horiz-adv-x="548" 
d="M426 -410l-20 -20h-386l-20 20v125l20 21h158l62 61v1307l-62 61h-158l-20 21v125l20 20h386l20 -20v-1721z" />
    <glyph glyph-name="asciicircum" unicode="^" horiz-adv-x="827" 
d="M403 1358h31l15 -6l311 -312l6 -18l-6 -18l-92 -84h-29l-178 180h-88l-185 -180h-28l-90 84l-9 18l7 18l321 312z" />
    <glyph glyph-name="underscore" unicode="_" horiz-adv-x="776" 
d="M61 -57h654l20 -21v-123l-20 -20h-654l-20 20v123z" />
    <glyph glyph-name="grave" unicode="`" horiz-adv-x="477" 
d="M147 1452l27 -10l150 -328l-21 -29h-121l-18 11l-150 262l9 28z" />
    <glyph glyph-name="a" unicode="a" horiz-adv-x="1054" 
d="M219 672l-57 114l8 27q158 88 336 88t270 -88.5t92 -259.5v-350l99 -70l14 -115l-12 -20q-38 -14 -86 -14q-90 0 -127 61l-90 10q-84 -75 -236 -75q-144 0 -230.5 78.5t-86.5 209.5q0 130 98.5 208.5t269.5 78.5q71 0 133 -12l72 71q-24 123 -182 123q-132 0 -256 -73z
M487 399q-188 0 -188 -127q0 -135 162 -135q88 0 153.5 49t75.5 125l-47 70q-73 18 -156 18z" />
    <glyph glyph-name="b" unicode="b" horiz-adv-x="1067" 
d="M143 1311l21 20h143l21 -20v-385l88 -56q64 31 147 31q188 0 295 -122t107 -330q0 -203 -118 -336t-294 -133q-107 0 -184 45l-70 -9l-20 -16h-115l-21 20v1291zM328 582v-320l18 -45q82 -76 205 -76q103 0 167 85.5t64 224.5q0 136 -60.5 212t-170.5 76
q-140 0 -215 -125z" />
    <glyph glyph-name="c" unicode="c" horiz-adv-x="987" 
d="M860 752l-88 -95l-29 -2q-88 82 -204 82q-112 0 -183 -82t-71 -213q0 -138 68.5 -218.5t185.5 -80.5q126 0 221 95h28l93 -91v-28q-127 -139 -349 -139q-196 0 -313 126t-117 334q0 203 124 332t311 129q208 0 323 -121v-28z" />
    <glyph glyph-name="d" unicode="d" horiz-adv-x="1101" 
d="M774 1311l21 20h143l20 -20v-1291l-20 -20h-115l-30 31l-78 4q-86 -55 -209 -55q-185 0 -294.5 125t-109.5 335q0 201 121.5 331t313.5 130q84 0 155 -22l82 57v375zM774 623l-18 43q-70 73 -207 73q-123 0 -192.5 -80t-69.5 -219q0 -134 63 -215.5t168 -81.5
q94 0 159 49.5t93 141.5l4 20v269z" />
    <glyph glyph-name="e" unicode="e" horiz-adv-x="1028" 
d="M887 371h-520l-56 -88q31 -66 93.5 -103t144.5 -37q136 0 248 82l28 -6l68 -98l-4 -29q-76 -59 -157 -85.5t-185 -26.5q-207 0 -326 122.5t-119 333.5q0 201 118 333t312 132q174 0 278.5 -113t104.5 -296q0 -51 -8 -105zM369 528h297l59 82q-24 61 -75 95t-122 34
q-73 0 -130 -33t-85 -88z" />
    <glyph glyph-name="f" unicode="f" horiz-adv-x="700" 
d="M100 877h64l57 63v47q0 164 92.5 259t251.5 95q49 0 97 -10l14 -24l-19 -121l-24 -19q-35 7 -60 7q-167 0 -167 -183v-49l61 -61h127l20 -21v-125l-20 -20h-127l-61 -62v-633l-21 -20h-143l-21 20v633l-61 62h-58l-20 20v121z" />
    <glyph glyph-name="g" unicode="g" horiz-adv-x="1091" 
d="M973 922l26 -19v-119l-20 -22h-53l-56 -82q17 -53 17 -102q0 -137 -98 -224.5t-254 -87.5q-66 0 -132 17l-77 -58q0 -114 118 -114h211q147 0 225 -68t78 -195q0 -158 -132 -261t-332 -103q-183 0 -287.5 80t-104.5 215q0 124 82 209l9 75q-37 58 -37 134q0 86 57 149
l6 72q-39 73 -39 160q0 145 101.5 234t263.5 89h145zM381 -47l-64 -29q-34 -55 -34 -123q0 -75 57 -116t160 -41q129 0 205.5 53.5t76.5 148.5q0 52 -32.5 77.5t-104.5 25.5h-242zM623 741h-99q-77 0 -122.5 -41.5t-45.5 -117.5t47 -119t127 -43q81 0 131 43.5t50 118.5
q0 81 -37 133z" />
    <glyph glyph-name="h" unicode="h" horiz-adv-x="1085" 
d="M143 1311l21 20h143l21 -20v-400l92 -53q70 43 176 43q164 0 255 -100t91 -281v-500l-20 -20h-144l-20 20v488q0 229 -180 229q-95 0 -163 -70t-87 -192v-455l-21 -20h-143l-21 20v1291z" />
    <glyph glyph-name="i" unicode="i" horiz-adv-x="471" 
d="M143 860l21 21h143l21 -21v-840l-21 -20h-143l-21 20v840zM236 1339q52 0 87 -35.5t35 -91.5q0 -55 -35 -90t-87 -35t-87.5 35t-35.5 90q0 56 35.5 91.5t87.5 35.5z" />
    <glyph glyph-name="j" unicode="j" horiz-adv-x="471" 
d="M236 1339q52 0 87 -35.5t35 -91.5q0 -55 -35 -90t-87 -35t-87.5 35t-35.5 90q0 56 35.5 91.5t87.5 35.5zM143 860l21 21h143l21 -21v-958q0 -163 -90 -258t-242 -95q-41 0 -90 11l-17 22l19 125l24 17q40 -5 50 -5q77 0 119 47.5t42 135.5v958z" />
    <glyph glyph-name="k" unicode="k" horiz-adv-x="1021" 
d="M143 1311l21 20h143l21 -20v-705l67 -61h11l40 24l226 303l16 9h182l17 -33l-260 -326v-78l319 -411l-16 -33h-176l-17 8l-260 352l-49 25h-39l-61 -61v-304l-21 -20h-143l-21 20v1291z" />
    <glyph glyph-name="l" unicode="l" horiz-adv-x="522" 
d="M143 1311l21 20h143l21 -20v-1071q0 -40 20 -62t55 -22q21 0 37 4l23 -19l16 -121l-14 -22q-46 -14 -103 -14q-108 0 -163.5 64t-55.5 188v1075z" />
    <glyph glyph-name="m" unicode="m" horiz-adv-x="1568" 
d="M143 860l21 21h119l34 -31l78 -4q79 55 174 55q61 0 118 -23t97 -63h84q95 86 230 86q157 0 242 -97t85 -274v-510l-20 -20h-145l-21 20v500q0 104 -42 160.5t-120 56.5q-55 0 -103.5 -34t-82.5 -95l-6 -35q2 -18 2 -45v-508l-21 -20h-143l-21 20v508q0 209 -161 209
q-74 0 -131.5 -68.5t-81.5 -179.5v-469l-21 -20h-143l-21 20v840z" />
    <glyph glyph-name="n" unicode="n" horiz-adv-x="1085" 
d="M164 881h119l36 -35l78 -4q74 59 199 59q164 0 255 -100t91 -281v-500l-20 -20h-144l-20 20v488q0 229 -180 229q-95 0 -163 -70t-87 -192v-455l-21 -20h-143l-21 20v840z" />
    <glyph glyph-name="o" unicode="o" horiz-adv-x="1085" 
d="M543 901q197 0 318.5 -128.5t121.5 -332.5q0 -197 -124.5 -328.5t-315.5 -131.5q-197 0 -319 128.5t-122 331.5q0 200 123 330.5t318 130.5zM543 739q-118 0 -188 -84.5t-70 -214.5q0 -132 70.5 -215.5t187.5 -83.5q118 0 188 83t70 216q0 130 -70.5 214.5t-187.5 84.5z
" />
    <glyph glyph-name="p" unicode="p" horiz-adv-x="1085" 
d="M164 881h119l36 -35l78 -4q73 59 197 59q179 0 284 -124t105 -331q0 -209 -114.5 -337.5t-301.5 -128.5q-91 0 -153 26l-86 -55v-361l-21 -20h-143l-21 20v1270zM328 516v-231l14 -39q83 -103 213 -103q119 0 181.5 81.5t62.5 228.5q0 127 -59.5 205.5t-159.5 78.5
q-91 0 -157.5 -59.5t-94.5 -161.5z" />
    <glyph glyph-name="q" unicode="q" horiz-adv-x="1062" 
d="M788 881h111l21 -21v-1270l-21 -20h-143l-21 20v363l-86 57q-68 -30 -164 -30q-179 0 -281 121.5t-102 334.5q0 210 115 337.5t309 127.5q102 0 172 -39l72 4zM735 614l-10 35q-65 90 -184 90q-117 0 -184.5 -79.5t-67.5 -223.5q0 -135 57 -212t160 -77q145 0 219 115
l10 33v319z" />
    <glyph glyph-name="r" unicode="r" horiz-adv-x="727" 
d="M143 860l21 21h119l36 -35l78 -4q73 55 189 55q19 0 51 -4l18 -21l-8 -133l-22 -20q-28 4 -54 4q-88 0 -153 -63t-90 -166v-474l-21 -20h-143l-21 20v840z" />
    <glyph glyph-name="s" unicode="s" horiz-adv-x="950" 
d="M811 791l-61 -109l-29 -8q-113 67 -236 67q-172 0 -172 -100q0 -52 44.5 -79.5t140.5 -35.5q181 -15 265.5 -80.5t84.5 -189.5q0 -132 -101.5 -204t-283.5 -72q-203 0 -344 96l-8 26l61 109l29 6q125 -78 264 -78q106 0 155.5 27.5t49.5 85.5q0 56 -44.5 82.5
t-156.5 32.5q-165 9 -250.5 76.5t-85.5 191.5q0 120 97 193t257 73q181 0 318 -84z" />
    <glyph glyph-name="t" unicode="t" horiz-adv-x="710" 
d="M72 852l18 20l60 5l55 53l22 180l21 16l127 -8l20 -22l-8 -152l62 -63h133l20 -21v-125l-20 -20h-133l-62 -62v-354q0 -76 33 -112.5t102 -36.5q32 0 62 6l24 -17l19 -121l-17 -24q-55 -14 -127 -14q-133 0 -206.5 78t-73.5 221v374l-62 62h-49l-20 20v117z" />
    <glyph glyph-name="u" unicode="u" horiz-adv-x="1075" 
d="M143 860l21 21h143l21 -21v-483q0 -69 15 -117.5t41 -72.5t53 -34t59 -10q96 0 161 66t91 190v461l20 21h143l21 -21v-840l-21 -20h-114l-37 35l-78 6q-77 -61 -207 -61q-156 0 -244 100.5t-88 281.5v498z" />
    <glyph glyph-name="v" unicode="v" horiz-adv-x="1050" 
d="M92 852l21 29h166l18 -15l174 -510h117l170 510l18 15h162l20 -29l-333 -846l-19 -12h-160l-20 12z" />
    <glyph glyph-name="w" unicode="w" horiz-adv-x="1421" 
d="M90 854l19 27h159l21 -17l110 -446h119l107 411l20 17h137l21 -15l108 -413h121l105 446l20 17h156l18 -27l-248 -846l-20 -14h-182l-21 14l-88 332h-119l-84 -332l-20 -14h-182l-19 14z" />
    <glyph glyph-name="x" unicode="x" horiz-adv-x="1052" 
d="M948 33l-16 -33h-176l-19 10l-162 260h-102l-162 -260l-18 -10h-172l-17 33l265 383v69l-236 363l17 33h176l18 -11l131 -235h107l139 235l18 11h170l17 -33l-246 -365v-69z" />
    <glyph glyph-name="y" unicode="y" horiz-adv-x="1077" 
d="M113 881h174l18 -15l197 -530h114l168 530l19 15h166l18 -27l-362 -989q-60 -162 -131 -229.5t-181 -67.5q-84 0 -151 31l-10 24l34 117l25 14q46 -12 94 -12q55 0 88.5 36t59.5 116l14 45v41l-373 872z" />
    <glyph glyph-name="z" unicode="z" horiz-adv-x="970" 
d="M147 860l21 21h653l21 -21v-112l-4 -15l-392 -471l48 -100h333l21 -21v-121l-21 -20h-684l-20 20v109l4 14l399 475l-47 101h-311l-21 20v121z" />
    <glyph glyph-name="braceleft" unicode="{" horiz-adv-x="538" 
d="M518 1331l21 -20v-125l-19 -21l-43 -4q-55 -4 -83.5 -39.5t-28.5 -93.5q0 -59 10 -104l45 -222q6 -34 6 -81q0 -86 -41 -127v-84q41 -41 41 -129q0 -41 -6 -82l-45 -222q-10 -52 -10 -104q0 -64 33 -97.5t79 -35.5l43 -2l19 -21v-127l-21 -20h-59q-126 0 -203.5 79.5
t-77.5 209.5q0 71 15 147l38 197q9 41 9 67q0 43 -21.5 70t-60.5 27h-35l-21 20v127l21 21h35q40 0 61 26.5t21 69.5q0 11 -9 67l-38 197q-15 84 -15 147q0 130 77.5 209.5t203.5 79.5h59z" />
    <glyph glyph-name="bar" unicode="|" horiz-adv-x="423" 
d="M123 1434l20 20h138l20 -20v-1659l-20 -21h-138l-20 21v1659z" />
    <glyph glyph-name="braceright" unicode="}" horiz-adv-x="538" 
d="M20 -430l-20 20v125l18 21l43 4q55 4 84 39.5t29 93.5q0 59 -10 104l-45 222q-6 34 -6 82q0 86 41 127v84q-41 41 -41 129q0 41 6 81l45 222q10 52 10 104q0 64 -33.5 97.5t-79.5 35.5l-43 2l-18 21v127l20 20h60q126 0 203 -79.5t77 -209.5q0 -76 -14 -147l-39 -197
q-8 -36 -8 -67q0 -43 21.5 -69.5t60.5 -26.5h35l20 -21v-127l-20 -20h-35q-40 0 -61 -27t-21 -70q0 -17 8 -67l39 -197q14 -79 14 -147q0 -130 -77 -209.5t-203 -79.5h-60z" />
    <glyph glyph-name="asciitilde" unicode="~" horiz-adv-x="921" 
d="M725 608l92 -76l4 -26q-81 -127 -227 -127q-46 0 -84 14t-59 31t-51 31t-62 14q-66 0 -113 -53l-28 -2l-91 75l-4 29q36 59 96 92t130 33q46 0 84 -14t59 -31t51 -31t62 -14q66 0 110 53z" />
    <glyph glyph-name="exclamdown" unicode="&#xa1;" horiz-adv-x="462" 
d="M231 637q-58 0 -93.5 37t-35.5 90q0 54 36 90.5t93 36.5q55 0 92 -35.5t37 -91.5q0 -55 -36.5 -91t-92.5 -36zM324 -553l-21 -20h-143l-21 20v1034l21 21h143l21 -21v-1034z" />
    <glyph glyph-name="sterling" unicode="&#xa3;" horiz-adv-x="1316" 
d="M760 745l31 -124l-15 -25l-196 -49l-45 -66q2 -14 2 -41q0 -81 -27 -143l45 -86q35 -5 131.5 -34.5t155.5 -29.5q182 0 182 156q0 56 -23 117l13 26l123 48l26 -11q41 -84 41 -186q0 -149 -94 -234.5t-254 -85.5q-86 0 -217.5 36t-206.5 36q-130 0 -227 -51l-29 10
l-45 88l10 27q194 106 209 285l-74 65l-61 -14l-22 16l-31 125l14 23l47 12l43 84q-53 124 -53 246q0 154 103.5 253t265.5 99q96 0 176 -33t135 -94l-2 -29l-96 -94l-29 2q-70 82 -191 82q-86 0 -131 -50t-45 -143q0 -82 52 -213l79 -36l205 51z" />
    <glyph glyph-name="currency" unicode="&#xa4;" horiz-adv-x="942" 
d="M186 1040h29l51 -51l72 -10q64 31 127 31t127 -31l72 10l51 51h28l91 -90v-28l-62 -62l-14 -67q22 -61 22 -121q0 -67 -22 -121l14 -68l62 -61v-29l-91 -90h-28l-49 51l-72 11q-64 -31 -129 -31q-67 0 -131 31l-70 -13l-49 -49h-29l-90 90v29l62 61l14 64q-22 64 -22 125
q0 67 22 125l-14 63l-62 62v28zM465 854q-68 0 -112 -52.5t-44 -129.5q0 -78 43.5 -130.5t112.5 -52.5q68 0 112 52.5t44 130.5q0 77 -44 129.5t-112 52.5z" />
    <glyph glyph-name="yen" unicode="&#xa5;" horiz-adv-x="1300" 
d="M315 367h676l21 -21v-119l-21 -20h-182l-61 -62v-125l-21 -20h-145l-21 20v125l-61 62h-185l-20 20v119zM111 1260l16 30h182l19 -10l278 -537h111l266 537l18 10h173l18 -30l-285 -504l54 -92h57l20 -21v-119l-20 -20h-729l-21 20v119l21 21h63l54 94z" />
    <glyph glyph-name="brokenbar" unicode="&#xa6;" horiz-adv-x="423" 
d="M123 1434l20 20h138l20 -20v-758l-29 -29v-86l29 -29v-757l-20 -21h-138l-20 21v757l29 29v86l-29 29v758z" />
    <glyph glyph-name="section" unicode="&#xa7;" horiz-adv-x="1019" 
d="M834 1321l-78 -102l-31 -5q-73 58 -186 58q-82 0 -126 -33t-44 -96q0 -72 44 -113.5t138 -56.5q174 -28 270.5 -120t96.5 -230q0 -135 -93 -236l-10 -72q35 -57 35 -143q0 -130 -104.5 -214.5t-266.5 -84.5q-201 0 -342 98l-6 27l70 115l28 6q113 -80 242 -80
q96 0 146.5 37t50.5 104q0 70 -50 107.5t-165 52.5q-166 22 -258.5 113.5t-92.5 232.5q0 151 101 244l12 71q-29 63 -29 129q0 136 96.5 222t247.5 86q175 0 299 -88zM397 844l-75 -25q-33 -54 -33 -117q0 -90 47 -137.5t153 -64.5q77 -12 132 -33l69 20q41 50 41 129
q0 82 -55.5 132t-161.5 65q-61 8 -117 31z" />
    <glyph glyph-name="dieresis" unicode="&#xa8;" horiz-adv-x="768" 
d="M180 1319q50 0 84.5 -33.5t34.5 -83.5t-34.5 -83.5t-84.5 -33.5t-84.5 33.5t-34.5 83.5t34.5 83.5t84.5 33.5zM588 1319q50 0 84.5 -33.5t34.5 -83.5t-34.5 -83.5t-84.5 -33.5t-84.5 33.5t-34.5 83.5t34.5 83.5t84.5 33.5z" />
    <glyph glyph-name="copyright" unicode="&#xa9;" horiz-adv-x="1687" 
d="M844 1425q152 0 287.5 -54t236 -150.5t159 -239t58.5 -309.5q0 -158 -57.5 -298t-156 -240t-236 -158t-291.5 -58q-155 0 -292 55.5t-236 153.5t-156.5 239.5t-57.5 305.5q0 157 57.5 296.5t156 239.5t236 158.5t292.5 58.5zM844 1255q-246 0 -399.5 -162t-153.5 -421
q0 -167 68.5 -299.5t195 -208.5t289.5 -76q242 0 397.5 161t155.5 423q0 165 -67 297t-194 209t-292 77zM1106 944l-74 -90l-28 -2q-63 51 -146 51q-93 0 -149 -63t-56 -168t55 -168.5t150 -63.5q80 0 146 54l28 -5l74 -90l-2 -26q-95 -92 -250 -92q-176 0 -278.5 108
t-102.5 283q0 171 108 281t273 110q149 0 250 -90z" />
    <glyph glyph-name="guillemotleft" unicode="&#xab;" horiz-adv-x="946" 
d="M344 772l29 4l92 -74l8 -53l109 -28l127 157l28 4l90 -71l4 -29l-139 -197v-69l139 -205l-6 -29l-90 -69l-28 4l-125 157l-109 -28l-6 -53l-94 -74l-29 4l-238 293l-4 12v37l4 14zM467 479l-109 43l-24 -35v-71l20 -31l113 35v59z" />
    <glyph glyph-name="logicalnot" unicode="&#xac;" horiz-adv-x="940" 
d="M102 860l21 21h694l21 -21v-446l-21 -21h-137l-21 21v237l-61 62h-475l-21 20v127z" />
    <glyph glyph-name="uni00AD" unicode="&#xad;" horiz-adv-x="845" 
d="M123 524l20 21h559l21 -21v-123l-21 -20h-559l-20 20v123z" />
    <glyph glyph-name="registered" unicode="&#xae;" horiz-adv-x="1073" 
d="M537 1489q191 0 322.5 -129.5t131.5 -325.5q0 -192 -131 -323t-323 -131q-194 0 -324.5 129t-130.5 325q0 192 131 323.5t324 131.5zM586 850h-84l-21 -23l41 -106q35 0 51 2l31 104zM682 922l23 -39l108 8q27 63 27 158l-123 10q-6 -43 -35 -72v-65zM381 1159l-117 27
q-31 -70 -31 -152q0 -79 31 -149l117 26v248z" />
    <glyph glyph-name="macron" unicode="&#xaf;" horiz-adv-x="741" 
d="M92 1247l21 21h516l20 -21v-119l-20 -20h-516l-21 20v119z" />
    <glyph glyph-name="degree" unicode="&#xb0;" horiz-adv-x="708" 
d="M354 1358q125 0 209 -83.5t84 -215.5q0 -129 -85.5 -214t-207.5 -85q-125 0 -209 83.5t-84 215.5q0 128 86.5 213.5t206.5 85.5zM354 1202q-59 0 -93 -39.5t-34 -103.5q0 -63 35 -103.5t92 -40.5q60 0 93.5 39t33.5 105q0 63 -35 103t-92 40z" />
    <glyph glyph-name="plusminus" unicode="&#xb1;" horiz-adv-x="983" 
d="M154 281l20 20h635l20 -20v-127l-20 -21h-635l-20 21v127zM403 1223l21 20h135l21 -20v-230l61 -61h199l20 -21v-127l-20 -20h-199l-61 -62v-229l-21 -20h-135l-21 20v229l-61 62h-199l-20 20v127l20 21h199l61 61v230z" />
    <glyph glyph-name="two.sup" unicode="&#xb2;" horiz-adv-x="702" 
d="M94 1413l2 29q109 86 244 86q122 0 194 -64.5t72 -171.5q0 -133 -114 -219l28 -100h70l20 -21v-92l-20 -20h-471l-21 20v76l8 16l269 201q43 32 61.5 64t18.5 75q0 46 -32.5 73.5t-88.5 27.5q-77 0 -150 -64l-30 4z" />
    <glyph glyph-name="three.sup" unicode="&#xb3;" horiz-adv-x="698" 
d="M199 1350l-33 8l-47 78l6 26q101 66 231 66q110 0 177 -53.5t67 -141.5q0 -58 -25 -100l9 -74q43 -43 43 -115q0 -99 -77 -158t-204 -59q-147 0 -260 93l-4 26l59 82l31 4q81 -69 176 -69q62 0 93.5 25.5t31.5 70.5l-45 55q-18 6 -43 6h-125l-20 21v92l20 20h131l53 50
q2 6 2 20q0 31 -23.5 50.5t-68.5 19.5q-80 0 -155 -43z" />
    <glyph glyph-name="acute" unicode="&#xb4;" horiz-adv-x="477" 
d="M258 1444l31 8l119 -72l8 -28l-150 -256l-18 -11h-123l-19 29z" />
    <glyph glyph-name="mu" unicode="&#xb5;" horiz-adv-x="1075" 
d="M143 860l21 21h143l21 -21v-465q0 -123 43.5 -187.5t128.5 -64.5q190 0 248 254v463l20 21h143l21 -21v-840l-21 -20h-114l-35 31l-80 4q-72 -55 -174 -55q-61 0 -100 16l-80 -59v-347l-21 -20h-143l-21 20v1270z" />
    <glyph glyph-name="paragraph" unicode="&#xb6;" horiz-adv-x="1077" 
d="M451 993l92 -4l20 -20v-951l103 -8q8 74 8 123v932l20 20h115l20 -20v-123l62 -61h74l20 -21v-108l-20 -21h-74l-62 -61v-537q0 -243 -106 -369t-305 -126q-141 0 -262 47l-13 24l37 105l27 12q73 -27 131 -37l70 59v480l-62 49q-10 -2 -31 -2q-106 0 -169.5 70
t-63.5 188q0 115 71.5 191.5t184.5 76.5h20l64 51l6 23zM406 698l-58 62h-10q-52 0 -81.5 -34t-29.5 -87q0 -58 26.5 -88.5t74.5 -30.5q38 0 63 25l15 35v118z" />
    <glyph glyph-name="periodcentered" unicode="&#xb7;" horiz-adv-x="462" 
d="M231 565q55 0 92 -35.5t37 -91.5t-37 -91.5t-92 -35.5t-92 35.5t-37 91.5t37 91.5t92 35.5z" />
    <glyph glyph-name="cedilla" unicode="&#xb8;" horiz-adv-x="487" 
d="M143 0l21 20h117l20 -20v-49l33 -55q92 -48 92 -164q0 -99 -72.5 -175t-203.5 -116l-25 12l-37 105l14 26q75 22 115.5 58.5t40.5 83.5q0 10 -2 14l-37 47q-19 8 -47 8h-29l-20 21v12l20 90v82z" />
    <glyph glyph-name="one.sup" unicode="&#xb9;" horiz-adv-x="497" 
d="M295 1518l14 4l68 -6l18 -21v-635l-20 -20h-113l-20 20v346l-138 45l-43 76l5 27z" />
    <glyph glyph-name="guillemotright" unicode="&#xbb;" horiz-adv-x="946" 
d="M602 123l-29 -4l-92 74l-8 53l-108 28l-127 -157l-29 -4l-90 71l-4 29l139 197v69l-139 205l6 29l90 69l29 -4l125 -157l108 28l6 53l94 74l29 -4l238 -293l4 -12v-37l-4 -14zM479 416l109 -43l24 35v71l-20 31l-113 -35v-59z" />
    <glyph glyph-name="onequarter" unicode="&#xbc;" horiz-adv-x="1533" 
d="M295 1333l14 4l68 -6l18 -20v-635l-20 -21h-113l-20 21v346l-138 45l-43 76l5 26zM1133 1343l100 -67l4 -29l-913 -1321l-29 -4l-100 68l-5 28l914 1321zM1212 678h131l21 -21v-335l61 -62h17l20 -20v-95l-20 -20h-17l-61 -62v-43l-21 -20h-110l-21 20v43l-61 62h-305
l-21 20v78l4 15l367 432z" />
    <glyph glyph-name="onehalf" unicode="&#xbd;" horiz-adv-x="1548" 
d="M295 1333l14 4l68 -6l18 -20v-635l-20 -21h-113l-20 21v346l-138 45l-43 76l5 26zM1133 1343l100 -67l4 -29l-913 -1321l-29 -4l-100 68l-5 28l914 1321zM940 573l2 29q109 86 244 86q122 0 194 -64.5t72 -170.5q0 -133 -115 -220l29 -100h70l20 -20v-93l-20 -20h-471
l-21 20v76l8 17l269 200q43 32 61 64.5t18 75.5q0 46 -32 73t-88 27q-77 0 -150 -64l-31 5z" />
    <glyph glyph-name="threequarters" unicode="&#xbe;" horiz-adv-x="1673" 
d="M199 1165l-33 9l-47 77l6 27q100 65 231 65q110 0 177 -53t67 -141q0 -58 -25 -100l9 -74q43 -43 43 -115q0 -99 -77 -158t-204 -59q-148 0 -260 92l-4 27l59 82l31 4q82 -70 176 -70q62 0 93.5 25.5t31.5 70.5l-45 56q-18 6 -43 6h-125l-20 20v93l20 20h131l53 49
q2 6 2 21q0 31 -23.5 50t-68.5 19q-80 0 -155 -43zM1272 1343l100 -67l4 -29l-913 -1321l-29 -4l-100 68l-4 28l913 1321zM1352 678h131l20 -21v-335l62 -62h16l21 -20v-95l-21 -20h-16l-62 -62v-43l-20 -20h-111l-20 20v43l-62 62h-305l-20 20v78l4 15l366 432z" />
    <glyph glyph-name="questiondown" unicode="&#xbf;" horiz-adv-x="868" 
d="M565 891q54 0 91.5 -35.5t37.5 -91.5q0 -55 -36.5 -91t-92.5 -36q-58 0 -93.5 37t-35.5 90q0 54 37 90.5t92 36.5zM496 502h137l20 -19l6 -69q0 -248 -200 -344q-81 -39 -123.5 -104t-42.5 -144q0 -115 66.5 -178.5t185.5 -63.5q86 0 166.5 35.5t140.5 99.5h31l94 -100
v-29q-93 -93 -196 -135.5t-236 -42.5q-210 0 -326.5 111t-116.5 303q0 121 65 222.5t181 160.5q127 63 127 227v49z" />
    <glyph glyph-name="Agrave" unicode="&#xc0;" horiz-adv-x="1404" 
d="M594 1325l20 12h193l18 -14l488 -1296l-19 -27h-168l-18 14l-96 277l-58 41h-501l-58 -41l-98 -277l-18 -14h-166l-21 29zM647 1001l-149 -419l57 -82h297l57 82l-145 419h-117zM412 1882l8 29l129 61l26 -8l179 -381l-19 -29h-131l-18 11z" />
    <glyph glyph-name="Aacute" unicode="&#xc1;" horiz-adv-x="1404" 
d="M594 1325l20 12h193l18 -14l488 -1296l-19 -27h-168l-18 14l-96 277l-58 41h-501l-58 -41l-98 -277l-18 -14h-166l-21 29zM647 1001l-149 -419l57 -82h297l57 82l-145 419h-117zM850 1964l27 8l129 -61l8 -29l-174 -317l-19 -11h-131l-18 29z" />
    <glyph glyph-name="Acircumflex" unicode="&#xc2;" horiz-adv-x="1404" 
d="M594 1325l20 12h193l18 -14l488 -1296l-19 -27h-168l-18 14l-96 277l-58 41h-501l-58 -41l-98 -277l-18 -14h-166l-21 29zM647 1001l-149 -419l57 -82h297l57 82l-145 419h-117zM678 1855l12 5h33l14 -5l260 -208l9 -21l-7 -20l-75 -80l-27 -4l-154 116h-73l-154 -114
l-27 2l-73 82l-6 20l8 19z" />
    <glyph glyph-name="Atilde" unicode="&#xc3;" horiz-adv-x="1404" 
d="M594 1325l20 12h193l18 -14l488 -1296l-19 -27h-168l-18 14l-96 277l-58 41h-501l-58 -41l-98 -277l-18 -14h-166l-21 29zM647 1001l-149 -419l57 -82h297l57 82l-145 419h-117zM954 1778l90 -70l5 -27q-77 -125 -218 -125q-47 0 -84 13t-57 29t-48 29t-60 13
q-58 0 -95 -49l-28 -4l-90 70l-4 26q78 125 217 125q46 0 83 -13t57 -29t48.5 -29t60.5 -13q57 0 95 50z" />
    <glyph glyph-name="Adieresis" unicode="&#xc4;" horiz-adv-x="1404" 
d="M594 1325l20 12h193l18 -14l488 -1296l-19 -27h-168l-18 14l-96 277l-58 41h-501l-58 -41l-98 -277l-18 -14h-166l-21 29zM647 1001l-149 -419l57 -82h297l57 82l-145 419h-117zM467 1798q55 0 91 -35.5t36 -89.5t-36.5 -89.5t-90.5 -35.5q-55 0 -91 35.5t-36 89.5
t36.5 89.5t90.5 35.5zM948 1798q55 0 91 -35.5t36 -89.5t-36.5 -89.5t-90.5 -35.5q-55 0 -91 35.5t-36 89.5t36.5 89.5t90.5 35.5z" />
    <glyph glyph-name="Aring" unicode="&#xc5;" horiz-adv-x="1404" 
d="M594 1325l20 12h193l18 -14l488 -1296l-19 -27h-168l-18 14l-96 277l-58 41h-501l-58 -41l-98 -277l-18 -14h-166l-21 29zM647 1001l-149 -419l57 -82h297l57 82l-145 419h-117zM702 1939q103 0 171.5 -67t68.5 -162t-68.5 -162t-171.5 -67q-102 0 -170.5 67t-68.5 162
t68.5 162t170.5 67zM702 1804q-40 0 -67 -26.5t-27 -67.5t27 -67.5t67 -26.5t67.5 26.5t27.5 67.5t-27.5 67.5t-67.5 26.5z" />
    <glyph glyph-name="AE" unicode="&#xc6;" horiz-adv-x="2027" 
d="M90 31l758 1290l18 10h961l20 -20v-127l-20 -21h-574l-61 -61v-275l61 -61h500l21 -21v-127l-21 -20h-500l-61 -61v-308l61 -61h611l20 -21v-127l-20 -20h-836l-20 20v230l-62 61h-438l-55 -30l-150 -271l-18 -10h-179zM1008 1028l-115 29l-279 -492l54 -92h278l62 62
v493z" />
    <glyph glyph-name="Ccedilla" unicode="&#xc7;" horiz-adv-x="1323" 
d="M1151 1176l-96 -111l-29 -2q-138 123 -313 123q-190 0 -304 -146t-114 -374q0 -229 113.5 -375t306.5 -146q190 0 342 146l28 -2l93 -105l-2 -28q-156 -147 -359 -174l-22 -115q49 -26 75.5 -77t26.5 -116q0 -127 -95 -213t-259 -116l-25 14l-24 113l16 24
q217 39 217 166q0 107 -121 107h-16l-21 20v8l17 97v40l-45 60q-206 54 -322.5 234.5t-116.5 437.5q0 192 77 349.5t220.5 250t325.5 92.5q248 0 424 -154z" />
    <glyph glyph-name="Egrave" unicode="&#xc8;" horiz-adv-x="1212" 
d="M184 1311l21 20h817l20 -20v-127l-20 -21h-584l-61 -61v-275l61 -61h510l21 -21v-127l-21 -20h-510l-61 -61v-308l61 -61h621l20 -21v-127l-20 -20h-854l-21 20v1291zM377 1882l8 29l129 61l27 -8l178 -381l-19 -29h-131l-18 11z" />
    <glyph glyph-name="Eacute" unicode="&#xc9;" horiz-adv-x="1212" 
d="M184 1311l21 20h817l20 -20v-127l-20 -21h-584l-61 -61v-275l61 -61h510l21 -21v-127l-21 -20h-510l-61 -61v-308l61 -61h621l20 -21v-127l-20 -20h-854l-21 20v1291zM729 1964l27 8l129 -61l8 -29l-174 -317l-19 -11h-131l-18 29z" />
    <glyph glyph-name="Ecircumflex" unicode="&#xca;" horiz-adv-x="1212" 
d="M184 1311l21 20h817l20 -20v-127l-20 -21h-584l-61 -61v-275l61 -61h510l21 -21v-127l-21 -20h-510l-61 -61v-308l61 -61h621l20 -21v-127l-20 -20h-854l-21 20v1291zM612 1855l13 5h32l15 -5l260 -208l8 -21l-6 -20l-76 -80l-27 -4l-153 116h-74l-153 -114l-27 2l-74 82
l-6 20l8 19z" />
    <glyph glyph-name="Edieresis" unicode="&#xcb;" horiz-adv-x="1212" 
d="M184 1311l21 20h817l20 -20v-127l-20 -21h-584l-61 -61v-275l61 -61h510l21 -21v-127l-21 -20h-510l-61 -61v-308l61 -61h621l20 -21v-127l-20 -20h-854l-21 20v1291zM391 1798q55 0 91 -35.5t36 -89.5t-36.5 -89.5t-90.5 -35.5q-55 0 -91 35.5t-36 89.5t36.5 89.5
t90.5 35.5zM872 1798q55 0 91 -35.5t36 -89.5t-36.5 -89.5t-90.5 -35.5q-55 0 -91 35.5t-36 89.5t36.5 89.5t90.5 35.5z" />
    <glyph glyph-name="Igrave" unicode="&#xcc;" horiz-adv-x="561" 
d="M184 1311l21 20h151l21 -20v-1291l-21 -20h-151l-21 20v1291zM20 1882l9 29l129 61l26 -8l178 -381l-18 -29h-131l-18 11z" />
    <glyph glyph-name="Iacute" unicode="&#xcd;" horiz-adv-x="561" 
d="M184 1311l21 20h151l21 -20v-1291l-21 -20h-151l-21 20v1291zM395 1964l27 8l129 -61l8 -29l-174 -317l-18 -11h-131l-19 29z" />
    <glyph glyph-name="Icircumflex" unicode="&#xce;" horiz-adv-x="561" 
d="M184 1311l21 20h151l21 -20v-1291l-21 -20h-151l-21 20v1291zM252 1855l12 5h33l14 -5l260 -208l9 -21l-7 -20l-75 -80l-27 -4l-154 116h-73l-154 -114l-27 2l-73 82l-6 20l8 19z" />
    <glyph glyph-name="Idieresis" unicode="&#xcf;" horiz-adv-x="561" 
d="M184 1311l21 20h151l21 -20v-1291l-21 -20h-151l-21 20v1291zM86 1798q55 0 91 -35.5t36 -89.5t-36.5 -89.5t-90.5 -35.5q-55 0 -91 35.5t-36 89.5t36.5 89.5t90.5 35.5zM475 1798q55 0 91 -35.5t36 -89.5t-36.5 -89.5t-90.5 -35.5q-55 0 -91 35.5t-36 89.5t36.5 89.5
t90.5 35.5z" />
    <glyph glyph-name="Eth" unicode="&#xd0;" horiz-adv-x="1355" 
d="M205 1311l20 20h400q295 0 461.5 -180.5t166.5 -484.5q0 -300 -174.5 -483t-462.5 -183h-391l-20 20v502l-62 62h-71l-21 20v129l21 21h71l62 61v496zM397 1098v-283l62 -61h241l21 -21v-129l-21 -20h-241l-62 -62v-286l62 -62h157q209 0 327 131.5t118 360.5
q0 493 -447 493h-155z" />
    <glyph glyph-name="Ntilde" unicode="&#xd1;" horiz-adv-x="1402" 
d="M184 1311l21 20h141l16 -10l560 -846l112 35v801l21 20h143l21 -20v-1291l-21 -20h-160l-16 8l-541 821l-112 -32v-777l-21 -20h-143l-21 20v1291zM948 1778l90 -70l4 -27q-77 -125 -217 -125q-47 0 -84 13t-57 29t-48.5 29t-60.5 13q-57 0 -94 -49l-28 -4l-91 70l-4 26
q78 125 217 125q46 0 83 -13t57.5 -29t49 -29t60.5 -13q57 0 95 50z" />
    <glyph glyph-name="Ograve" unicode="&#xd2;" horiz-adv-x="1409" 
d="M705 1358q177 0 315 -89.5t212.5 -247t74.5 -355.5q0 -195 -77.5 -353.5t-215.5 -249t-309 -90.5q-177 0 -315 90t-213 247.5t-75 355.5q0 195 77.5 353.5t216 248.5t309.5 90zM705 1190q-188 0 -299 -145.5t-111 -378.5q0 -232 111 -378.5t299 -146.5t298.5 145.5
t110.5 379.5q0 232 -110.5 378t-298.5 146zM473 1882l8 29l129 61l27 -8l178 -381l-18 -29h-131l-19 11z" />
    <glyph glyph-name="Oacute" unicode="&#xd3;" horiz-adv-x="1409" 
d="M705 1358q177 0 315 -89.5t212.5 -247t74.5 -355.5q0 -195 -77.5 -353.5t-215.5 -249t-309 -90.5q-177 0 -315 90t-213 247.5t-75 355.5q0 195 77.5 353.5t216 248.5t309.5 90zM705 1190q-188 0 -299 -145.5t-111 -378.5q0 -232 111 -378.5t299 -146.5t298.5 145.5
t110.5 379.5q0 232 -110.5 378t-298.5 146zM829 1964l27 8l129 -61l8 -29l-174 -317l-18 -11h-131l-19 29z" />
    <glyph glyph-name="Ocircumflex" unicode="&#xd4;" horiz-adv-x="1409" 
d="M705 1358q177 0 315 -89.5t212.5 -247t74.5 -355.5q0 -195 -77.5 -353.5t-215.5 -249t-309 -90.5q-177 0 -315 90t-213 247.5t-75 355.5q0 195 77.5 353.5t216 248.5t309.5 90zM705 1190q-188 0 -299 -145.5t-111 -378.5q0 -232 111 -378.5t299 -146.5t298.5 145.5
t110.5 379.5q0 232 -110.5 378t-298.5 146zM676 1855l12 5h33l14 -5l260 -208l9 -21l-7 -20l-75 -80l-27 -4l-154 116h-73l-154 -114l-27 2l-73 82l-6 20l8 19z" />
    <glyph glyph-name="Otilde" unicode="&#xd5;" horiz-adv-x="1409" 
d="M705 1358q177 0 315 -89.5t212.5 -247t74.5 -355.5q0 -195 -77.5 -353.5t-215.5 -249t-309 -90.5q-177 0 -315 90t-213 247.5t-75 355.5q0 195 77.5 353.5t216 248.5t309.5 90zM705 1190q-188 0 -299 -145.5t-111 -378.5q0 -232 111 -378.5t299 -146.5t298.5 145.5
t110.5 379.5q0 232 -110.5 378t-298.5 146zM952 1778l90 -70l5 -27q-77 -125 -218 -125q-47 0 -84 13t-57 29t-48 29t-60 13q-58 0 -95 -49l-28 -4l-90 70l-5 26q78 125 218 125q46 0 83 -13t57 -29t48.5 -29t60.5 -13q57 0 95 50z" />
    <glyph glyph-name="Odieresis" unicode="&#xd6;" horiz-adv-x="1409" 
d="M705 1358q177 0 315 -89.5t212.5 -247t74.5 -355.5q0 -195 -77.5 -353.5t-215.5 -249t-309 -90.5q-177 0 -315 90t-213 247.5t-75 355.5q0 195 77.5 353.5t216 248.5t309.5 90zM705 1190q-188 0 -299 -145.5t-111 -378.5q0 -232 111 -378.5t299 -146.5t298.5 145.5
t110.5 379.5q0 232 -110.5 378t-298.5 146zM465 1798q55 0 91 -35.5t36 -89.5t-36.5 -89.5t-90.5 -35.5q-55 0 -91 35.5t-36 89.5t36.5 89.5t90.5 35.5zM946 1798q55 0 91 -35.5t36 -89.5t-36.5 -89.5t-90.5 -35.5q-55 0 -91 35.5t-36 89.5t36.5 89.5t90.5 35.5z" />
    <glyph glyph-name="multiply" unicode="&#xd7;" horiz-adv-x="954" 
d="M698 1008h29l90 -90v-29l-176 -176v-90l176 -177v-28l-90 -90h-29l-178 178h-86l-178 -178h-29l-90 90v28l178 179v86l-178 178v29l90 90h29l178 -179h86z" />
    <glyph glyph-name="Oslash" unicode="&#xd8;" horiz-adv-x="1409" 
d="M1075 1452l27 8l121 -74l8 -28l-86 -137l6 -72q76 -93 116 -218.5t40 -264.5q0 -146 -46.5 -274.5t-126 -220.5t-191.5 -145t-238 -53q-123 0 -230 43l-76 -24l-59 -96l-29 -7l-118 74l-9 29l76 121l-4 71q-154 193 -154 482q0 194 79 352.5t217 249t307 90.5
q121 0 225 -43l76 24zM965 922l-410 -674l35 -90q60 -17 115 -17q186 0 297.5 146.5t111.5 378.5q0 131 -39 243zM442 414l408 669l-35 91q-59 16 -110 16q-186 0 -298 -144.5t-112 -379.5q0 -133 37 -240z" />
    <glyph glyph-name="Ugrave" unicode="&#xd9;" horiz-adv-x="1380" 
d="M174 1311l21 20h149l21 -20v-738q0 -205 84.5 -317.5t240.5 -112.5q155 0 240.5 113.5t85.5 316.5v738l20 20h150l20 -20v-738q0 -281 -139 -440.5t-377 -159.5q-245 0 -380.5 159.5t-135.5 440.5v738zM446 1882l9 29l129 61l26 -8l178 -381l-18 -29h-131l-18 11z" />
    <glyph glyph-name="Uacute" unicode="&#xda;" horiz-adv-x="1380" 
d="M174 1311l21 20h149l21 -20v-738q0 -205 84.5 -317.5t240.5 -112.5q155 0 240.5 113.5t85.5 316.5v738l20 20h150l20 -20v-738q0 -281 -139 -440.5t-377 -159.5q-245 0 -380.5 159.5t-135.5 440.5v738zM786 1964l27 8l129 -61l8 -29l-174 -317l-18 -11h-131l-19 29z" />
    <glyph glyph-name="Ucircumflex" unicode="&#xdb;" horiz-adv-x="1380" 
d="M174 1311l21 20h149l21 -20v-738q0 -205 84.5 -317.5t240.5 -112.5q155 0 240.5 113.5t85.5 316.5v738l20 20h150l20 -20v-738q0 -281 -139 -440.5t-377 -159.5q-245 0 -380.5 159.5t-135.5 440.5v738zM662 1855l12 5h33l14 -5l260 -208l8 -21l-6 -20l-76 -80l-26 -4
l-154 116h-74l-153 -114l-27 2l-74 82l-6 20l8 19z" />
    <glyph glyph-name="Udieresis" unicode="&#xdc;" horiz-adv-x="1380" 
d="M174 1311l21 20h149l21 -20v-738q0 -205 84.5 -317.5t240.5 -112.5q155 0 240.5 113.5t85.5 316.5v738l20 20h150l20 -20v-738q0 -281 -139 -440.5t-377 -159.5q-245 0 -380.5 159.5t-135.5 440.5v738zM451 1798q55 0 91 -35.5t36 -89.5t-36.5 -89.5t-90.5 -35.5
q-55 0 -91 35.5t-36 89.5t36.5 89.5t90.5 35.5zM932 1798q55 0 91 -35.5t36 -89.5t-36.5 -89.5t-90.5 -35.5q-55 0 -91 35.5t-36 89.5t36.5 89.5t90.5 35.5z" />
    <glyph glyph-name="Yacute" unicode="&#xdd;" horiz-adv-x="1323" 
d="M98 1300l19 31h186l19 -12l286 -592h111l293 592l18 12h176l19 -31l-459 -851l-8 -31v-398l-21 -20h-151l-21 20v398l-8 31zM760 1964l26 8l129 -61l9 -29l-174 -317l-19 -11h-131l-18 29z" />
    <glyph glyph-name="Thorn" unicode="&#xde;" horiz-adv-x="1226" 
d="M184 1311l21 20h155l21 -20v-123l61 -62h187q225 0 360 -121.5t135 -320.5q0 -207 -144 -332t-366 -125h-172l-61 -61v-146l-21 -20h-155l-21 20v1291zM381 895v-436l61 -62h162q160 0 244 73.5t84 211.5q0 134 -81.5 204t-234.5 70h-174z" />
    <glyph glyph-name="germandbls" unicode="&#xdf;" horiz-adv-x="1198" 
d="M143 20v971q0 163 96.5 259t254.5 96q138 0 227.5 -88t89.5 -218q0 -140 -84 -221q-65 -65 -65 -139q0 -58 32.5 -83.5t100.5 -37.5q141 -25 221 -98.5t80 -184.5q0 -137 -97.5 -216.5t-261.5 -79.5q-149 0 -266 67l-8 27l55 110l29 9q94 -52 198 -52q76 0 122 35t46 96
q0 32 -13.5 54.5t-42 36t-52 20t-64.5 14.5q-260 49 -260 271q0 122 84 209q66 66 66 157q0 66 -40 105t-106 39q-157 0 -157 -183v-975l-21 -20h-143z" />
    <glyph glyph-name="agrave" unicode="&#xe0;" horiz-adv-x="1054" 
d="M219 672l-57 114l8 27q158 88 336 88t270 -88.5t92 -259.5v-350l99 -70l14 -115l-12 -20q-38 -14 -86 -14q-90 0 -127 61l-90 10q-84 -75 -236 -75q-144 0 -230.5 78.5t-86.5 209.5q0 130 98.5 208.5t269.5 78.5q71 0 133 -12l72 71q-24 123 -182 123q-132 0 -256 -73z
M487 399q-188 0 -188 -127q0 -135 162 -135q88 0 153.5 49t75.5 125l-47 70q-73 18 -156 18zM424 1452l27 -10l149 -328l-20 -29h-121l-19 11l-149 262l8 28z" />
    <glyph glyph-name="aacute" unicode="&#xe1;" horiz-adv-x="1054" 
d="M219 672l-57 114l8 27q158 88 336 88t270 -88.5t92 -259.5v-350l99 -70l14 -115l-12 -20q-38 -14 -86 -14q-90 0 -127 61l-90 10q-84 -75 -236 -75q-144 0 -230.5 78.5t-86.5 209.5q0 130 98.5 208.5t269.5 78.5q71 0 133 -12l72 71q-24 123 -182 123q-132 0 -256 -73z
M487 399q-188 0 -188 -127q0 -135 162 -135q88 0 153.5 49t75.5 125l-47 70q-73 18 -156 18zM592 1444l31 8l119 -72l8 -28l-150 -256l-18 -11h-123l-19 29z" />
    <glyph glyph-name="acircumflex" unicode="&#xe2;" horiz-adv-x="1054" 
d="M219 672l-57 114l8 27q158 88 336 88t270 -88.5t92 -259.5v-350l99 -70l14 -115l-12 -20q-38 -14 -86 -14q-90 0 -127 61l-90 10q-84 -75 -236 -75q-144 0 -230.5 78.5t-86.5 209.5q0 130 98.5 208.5t269.5 78.5q71 0 133 -12l72 71q-24 123 -182 123q-132 0 -256 -73z
M487 399q-188 0 -188 -127q0 -135 162 -135q88 0 153.5 49t75.5 125l-47 70q-73 18 -156 18zM680 1055l-133 98h-74l-131 -98l-29 2l-67 80l-4 22l8 17l235 198l15 4h28l15 -4l229 -198l8 -17l-4 -20l-67 -82z" />
    <glyph glyph-name="atilde" unicode="&#xe3;" horiz-adv-x="1054" 
d="M219 672l-57 114l8 27q158 88 336 88t270 -88.5t92 -259.5v-350l99 -70l14 -115l-12 -20q-38 -14 -86 -14q-90 0 -127 61l-90 10q-84 -75 -236 -75q-144 0 -230.5 78.5t-86.5 209.5q0 130 98.5 208.5t269.5 78.5q71 0 133 -12l72 71q-24 123 -182 123q-132 0 -256 -73z
M487 399q-188 0 -188 -127q0 -135 162 -135q88 0 153.5 49t75.5 125l-47 70q-73 18 -156 18zM193 1171l-5 25q78 123 213 123q48 0 87.5 -20.5t73.5 -41t67 -20.5q62 0 92 47l29 2l81 -67l5 -29q-75 -117 -203 -117q-39 0 -74.5 13t-56.5 28t-49 28t-54 13q-59 0 -100 -47
l-29 -2z" />
    <glyph glyph-name="adieresis" unicode="&#xe4;" horiz-adv-x="1054" 
d="M219 672l-57 114l8 27q158 88 336 88t270 -88.5t92 -259.5v-350l99 -70l14 -115l-12 -20q-38 -14 -86 -14q-90 0 -127 61l-90 10q-84 -75 -236 -75q-144 0 -230.5 78.5t-86.5 209.5q0 130 98.5 208.5t269.5 78.5q71 0 133 -12l72 71q-24 123 -182 123q-132 0 -256 -73z
M487 399q-188 0 -188 -127q0 -135 162 -135q88 0 153.5 49t75.5 125l-47 70q-73 18 -156 18zM307 1319q50 0 84.5 -33.5t34.5 -83.5t-34.5 -83.5t-84.5 -33.5t-84.5 33.5t-34.5 83.5t34.5 83.5t84.5 33.5zM715 1319q50 0 84.5 -33.5t34.5 -83.5t-34.5 -83.5t-84.5 -33.5
t-84.5 33.5t-34.5 83.5t34.5 83.5t84.5 33.5z" />
    <glyph glyph-name="aring" unicode="&#xe5;" horiz-adv-x="1054" 
d="M219 672l-57 114l8 27q158 88 336 88t270 -88.5t92 -259.5v-350l99 -70l14 -115l-12 -20q-38 -14 -86 -14q-90 0 -127 61l-90 10q-84 -75 -236 -75q-144 0 -230.5 78.5t-86.5 209.5q0 130 98.5 208.5t269.5 78.5q71 0 133 -12l72 71q-24 123 -182 123q-132 0 -256 -73z
M487 399q-188 0 -188 -127q0 -135 162 -135q88 0 153.5 49t75.5 125l-47 70q-73 18 -156 18zM531 1464q96 0 158.5 -61t62.5 -150t-62.5 -150t-158.5 -61t-159 61t-63 150t63 150t159 61zM531 1337q-37 0 -60.5 -23t-23.5 -61t23.5 -61t60.5 -23t60.5 23t23.5 61t-23.5 61
t-60.5 23z" />
    <glyph glyph-name="ae" unicode="&#xe6;" horiz-adv-x="1562" 
d="M162 784l8 27q156 90 324 90q160 0 249 -92h84q103 92 244 92q174 0 276.5 -113t102.5 -299q0 -36 -8 -102l-21 -16h-501l-56 -86q28 -66 86.5 -104t132.5 -38q75 0 131.5 19t116.5 61l29 -4l67 -98l-4 -29q-76 -60 -153.5 -86t-177.5 -26q-184 0 -297 102h-86
q-102 -102 -277 -102q-148 0 -233.5 79t-85.5 215q0 134 100 207.5t258 73.5q65 0 123 -12l72 73q-27 121 -168 121q-131 0 -250 -73l-29 8zM670 313l-45 68q-71 18 -148 18q-178 0 -178 -127q0 -65 40.5 -100t109.5 -35q85 0 148 49.5t73 126.5zM924 528h278l58 80
q-15 55 -64 93t-125 38q-67 0 -119.5 -31.5t-83.5 -89.5z" />
    <glyph glyph-name="ccedilla" unicode="&#xe7;" horiz-adv-x="987" 
d="M367 -442l14 26q82 28 119 61t37 89l-39 53q-16 8 -47 8h-29l-21 21v12l21 82v35l-43 59q-130 43 -203.5 159.5t-73.5 276.5q0 204 125 332.5t310 128.5q208 0 323 -121v-28l-88 -95l-29 -2q-88 82 -204 82q-112 0 -183 -82t-71 -213q0 -138 68.5 -218.5t185.5 -80.5
q126 0 221 95h28l93 -91v-28q-93 -104 -224 -127l-22 -111q70 -51 70 -149q0 -99 -73 -175t-204 -116l-25 12z" />
    <glyph glyph-name="egrave" unicode="&#xe8;" horiz-adv-x="1028" 
d="M887 371h-520l-56 -88q31 -66 93.5 -103t144.5 -37q136 0 248 82l28 -6l68 -98l-4 -29q-76 -59 -157 -85.5t-185 -26.5q-207 0 -326 122.5t-119 333.5q0 201 118 333t312 132q174 0 278.5 -113t104.5 -296q0 -51 -8 -105zM369 528h297l59 82q-24 61 -75 95t-122 34
q-73 0 -130 -33t-85 -88zM452 1452l27 -10l150 -328l-21 -29h-121l-18 11l-150 262l9 28z" />
    <glyph glyph-name="eacute" unicode="&#xe9;" horiz-adv-x="1028" 
d="M887 371h-520l-56 -88q31 -66 93.5 -103t144.5 -37q136 0 248 82l28 -6l68 -98l-4 -29q-76 -59 -157 -85.5t-185 -26.5q-207 0 -326 122.5t-119 333.5q0 201 118 333t312 132q174 0 278.5 -113t104.5 -296q0 -51 -8 -105zM369 528h297l59 82q-24 61 -75 95t-122 34
q-73 0 -130 -33t-85 -88zM620 1444l31 8l119 -72l8 -28l-150 -256l-18 -11h-123l-19 29z" />
    <glyph glyph-name="ecircumflex" unicode="&#xea;" horiz-adv-x="1028" 
d="M887 371h-520l-56 -88q31 -66 93.5 -103t144.5 -37q136 0 248 82l28 -6l68 -98l-4 -29q-76 -59 -157 -85.5t-185 -26.5q-207 0 -326 122.5t-119 333.5q0 201 118 333t312 132q174 0 278.5 -113t104.5 -296q0 -51 -8 -105zM369 528h297l59 82q-24 61 -75 95t-122 34
q-73 0 -130 -33t-85 -88zM705 1055l-133 98h-74l-131 -98l-29 2l-67 80l-5 22l9 17l235 198l15 4h28l15 -4l229 -198l8 -17l-4 -20l-68 -82z" />
    <glyph glyph-name="edieresis" unicode="&#xeb;" horiz-adv-x="1028" 
d="M887 371h-520l-56 -88q31 -66 93.5 -103t144.5 -37q136 0 248 82l28 -6l68 -98l-4 -29q-76 -59 -157 -85.5t-185 -26.5q-207 0 -326 122.5t-119 333.5q0 201 118 333t312 132q174 0 278.5 -113t104.5 -296q0 -51 -8 -105zM369 528h297l59 82q-24 61 -75 95t-122 34
q-73 0 -130 -33t-85 -88zM336 1319q50 0 84.5 -33.5t34.5 -83.5t-34.5 -83.5t-84.5 -33.5t-84.5 33.5t-34.5 83.5t34.5 83.5t84.5 33.5zM744 1319q50 0 84.5 -33.5t34.5 -83.5t-34.5 -83.5t-84.5 -33.5t-84.5 33.5t-34.5 83.5t34.5 83.5t84.5 33.5z" />
    <glyph glyph-name="igrave" unicode="&#xec;" horiz-adv-x="471" 
d="M143 860l21 21h143l21 -21v-840l-21 -20h-143l-21 20v840zM135 1452l27 -10l150 -328l-21 -29h-121l-18 11l-150 262l9 28z" />
    <glyph glyph-name="iacute" unicode="&#xed;" horiz-adv-x="471" 
d="M143 860l21 21h143l21 -21v-840l-21 -20h-143l-21 20v840zM321 1444l31 8l119 -72l8 -28l-150 -256l-18 -11h-123l-19 29z" />
    <glyph glyph-name="icircumflex" unicode="&#xee;" horiz-adv-x="471" 
d="M143 860l21 21h143l21 -21v-840l-21 -20h-143l-21 20v840zM406 1055l-133 98h-74l-131 -98l-29 2l-67 80l-5 22l9 17l235 198l15 4h28l15 -4l229 -198l8 -17l-4 -20l-68 -82z" />
    <glyph glyph-name="idieresis" unicode="&#xef;" horiz-adv-x="471" 
d="M143 860l21 21h143l21 -21v-840l-21 -20h-143l-21 20v840zM63 1319q50 0 84.5 -33.5t34.5 -83.5t-34.5 -83.5t-84.5 -33.5t-84 33t-34 84t34 84t84 33zM410 1319q50 0 84 -33t34 -84t-34 -84t-84 -33t-84.5 33.5t-34.5 83.5t34.5 83.5t84.5 33.5z" />
    <glyph glyph-name="eth" unicode="&#xf0;" horiz-adv-x="1075" 
d="M483 1417l27 10l108 -49l11 -26l-35 -74l22 -78q180 -106 263.5 -273t83.5 -419q0 -237 -119.5 -382.5t-315.5 -145.5q-197 0 -311.5 115.5t-114.5 316.5q0 177 112 300.5t288 123.5q60 0 123 -17l65 99q-51 60 -139 114l-88 -26l-25 -54l-26 -10l-111 51l-10 27l28 55
l-30 84l-90 41l-11 27l62 131l26 10l93 -45l82 29zM524 674q-108 0 -173.5 -72.5t-65.5 -191.5q0 -124 64.5 -196.5t176.5 -72.5q117 0 183 85t69 229l-2 16q-23 96 -89 149.5t-163 53.5z" />
    <glyph glyph-name="ntilde" unicode="&#xf1;" horiz-adv-x="1085" 
d="M164 881h119l36 -35l78 -4q74 59 199 59q164 0 255 -100t91 -281v-500l-20 -20h-144l-20 20v488q0 229 -180 229q-95 0 -163 -70t-87 -192v-455l-21 -20h-143l-21 20v840zM223 1171l-4 25q78 123 213 123q48 0 87.5 -20.5t73.5 -41t67 -20.5q62 0 92 47l29 2l81 -67
l5 -29q-75 -117 -203 -117q-39 0 -74.5 13t-56.5 28t-49 28t-54 13q-59 0 -100 -47l-29 -2z" />
    <glyph glyph-name="ograve" unicode="&#xf2;" horiz-adv-x="1085" 
d="M543 901q197 0 318.5 -128.5t121.5 -332.5q0 -197 -124.5 -328.5t-315.5 -131.5q-197 0 -319 128.5t-122 331.5q0 200 123 330.5t318 130.5zM543 739q-118 0 -188 -84.5t-70 -214.5q0 -132 70.5 -215.5t187.5 -83.5q118 0 188 83t70 216q0 130 -70.5 214.5t-187.5 84.5z
M458 1452l27 -10l150 -328l-21 -29h-121l-18 11l-150 262l9 28z" />
    <glyph glyph-name="oacute" unicode="&#xf3;" horiz-adv-x="1085" 
d="M543 901q197 0 318.5 -128.5t121.5 -332.5q0 -197 -124.5 -328.5t-315.5 -131.5q-197 0 -319 128.5t-122 331.5q0 200 123 330.5t318 130.5zM543 739q-118 0 -188 -84.5t-70 -214.5q0 -132 70.5 -215.5t187.5 -83.5q118 0 188 83t70 216q0 130 -70.5 214.5t-187.5 84.5z
M631 1444l31 8l119 -72l8 -28l-150 -256l-18 -11h-123l-19 29z" />
    <glyph glyph-name="ocircumflex" unicode="&#xf4;" horiz-adv-x="1085" 
d="M543 901q197 0 318.5 -128.5t121.5 -332.5q0 -197 -124.5 -328.5t-315.5 -131.5q-197 0 -319 128.5t-122 331.5q0 200 123 330.5t318 130.5zM543 739q-118 0 -188 -84.5t-70 -214.5q0 -132 70.5 -215.5t187.5 -83.5q118 0 188 83t70 216q0 130 -70.5 214.5t-187.5 84.5z
M713 1055l-133 98h-74l-131 -98l-29 2l-67 80l-5 22l9 17l235 198l15 4h28l15 -4l229 -198l8 -17l-4 -20l-68 -82z" />
    <glyph glyph-name="otilde" unicode="&#xf5;" horiz-adv-x="1085" 
d="M543 901q197 0 318.5 -128.5t121.5 -332.5q0 -197 -124.5 -328.5t-315.5 -131.5q-197 0 -319 128.5t-122 331.5q0 200 123 330.5t318 130.5zM543 739q-118 0 -188 -84.5t-70 -214.5q0 -132 70.5 -215.5t187.5 -83.5q118 0 188 83t70 216q0 130 -70.5 214.5t-187.5 84.5z
M223 1171l-4 25q78 123 213 123q38 0 71.5 -13t53.5 -28t47.5 -28t54.5 -13q63 0 93 47l28 2l82 -67l4 -29q-75 -117 -202 -117q-39 0 -74.5 13t-56.5 28t-49 28t-54 13q-59 0 -100 -47l-29 -2z" />
    <glyph glyph-name="odieresis" unicode="&#xf6;" horiz-adv-x="1085" 
d="M543 901q197 0 318.5 -128.5t121.5 -332.5q0 -197 -124.5 -328.5t-315.5 -131.5q-197 0 -319 128.5t-122 331.5q0 200 123 330.5t318 130.5zM543 739q-118 0 -188 -84.5t-70 -214.5q0 -132 70.5 -215.5t187.5 -83.5q118 0 188 83t70 216q0 130 -70.5 214.5t-187.5 84.5z
M340 1319q50 0 84.5 -33.5t34.5 -83.5t-34.5 -83.5t-84.5 -33.5t-84.5 33.5t-34.5 83.5t34.5 83.5t84.5 33.5zM748 1319q50 0 84 -33t34 -84t-34 -84t-84 -33t-84.5 33.5t-34.5 83.5t34.5 83.5t84.5 33.5z" />
    <glyph glyph-name="divide" unicode="&#xf7;" horiz-adv-x="921" 
d="M461 176q-54 0 -91.5 35.5t-37.5 91.5q0 55 36.5 91t92.5 36q58 0 93.5 -37t35.5 -90q0 -54 -37 -90.5t-92 -36.5zM123 731l20 21h635l21 -21v-127l-21 -20h-635l-20 20v127zM461 905q-54 0 -91.5 35.5t-37.5 91.5q0 55 36.5 91t92.5 36q58 0 93.5 -37t35.5 -90
q0 -54 -37 -90.5t-92 -36.5z" />
    <glyph glyph-name="oslash" unicode="&#xf8;" horiz-adv-x="1085" 
d="M780 989l27 6l111 -63l8 -29l-52 -82l5 -71q104 -120 104 -310q0 -195 -125 -327.5t-315 -132.5q-68 0 -125 14l-68 -27l-41 -67l-28 -6l-111 65l-8 29l45 71l-4 72q-48 54 -74.5 135t-26.5 174q0 127 53 231.5t154.5 167t233.5 62.5q61 0 123 -16l67 28zM684 512
l-168 -276l59 -93q102 10 164 92t62 205q0 21 -4 49zM399 373l168 270l-59 94q-101 -13 -162 -95t-61 -202q0 -29 2 -41z" />
    <glyph glyph-name="ugrave" unicode="&#xf9;" horiz-adv-x="1075" 
d="M143 860l21 21h143l21 -21v-483q0 -69 15 -117.5t41 -72.5t53 -34t59 -10q96 0 161 66t91 190v461l20 21h143l21 -21v-840l-21 -20h-114l-37 35l-78 6q-77 -61 -207 -61q-156 0 -244 100.5t-88 281.5v498zM442 1452l27 -10l150 -328l-21 -29h-121l-18 11l-150 262l9 28z
" />
    <glyph glyph-name="uacute" unicode="&#xfa;" horiz-adv-x="1075" 
d="M143 860l21 21h143l21 -21v-483q0 -69 15 -117.5t41 -72.5t53 -34t59 -10q96 0 161 66t91 190v461l20 21h143l21 -21v-840l-21 -20h-114l-37 35l-78 6q-77 -61 -207 -61q-156 0 -244 100.5t-88 281.5v498zM614 1444l31 8l119 -72l8 -28l-150 -256l-18 -11h-123l-19 29z
" />
    <glyph glyph-name="ucircumflex" unicode="&#xfb;" horiz-adv-x="1075" 
d="M143 860l21 21h143l21 -21v-483q0 -69 15 -117.5t41 -72.5t53 -34t59 -10q96 0 161 66t91 190v461l20 21h143l21 -21v-840l-21 -20h-114l-37 35l-78 6q-77 -61 -207 -61q-156 0 -244 100.5t-88 281.5v498zM707 1055l-134 98h-73l-131 -98l-29 2l-68 80l-4 22l8 17
l236 198l14 4h29l14 -4l230 -198l8 -17l-4 -20l-68 -82z" />
    <glyph glyph-name="udieresis" unicode="&#xfc;" horiz-adv-x="1075" 
d="M143 860l21 21h143l21 -21v-483q0 -69 15 -117.5t41 -72.5t53 -34t59 -10q96 0 161 66t91 190v461l20 21h143l21 -21v-840l-21 -20h-114l-37 35l-78 6q-77 -61 -207 -61q-156 0 -244 100.5t-88 281.5v498zM334 1319q50 0 84.5 -33.5t34.5 -83.5t-34.5 -83.5t-84.5 -33.5
t-84.5 33.5t-34.5 83.5t34.5 83.5t84.5 33.5zM742 1319q50 0 84.5 -33.5t34.5 -83.5t-34.5 -83.5t-84.5 -33.5t-84.5 33.5t-34.5 83.5t34.5 83.5t84.5 33.5z" />
    <glyph glyph-name="yacute" unicode="&#xfd;" horiz-adv-x="1077" 
d="M113 881h174l18 -15l197 -530h114l168 530l19 15h166l18 -27l-362 -989q-60 -162 -131 -229.5t-181 -67.5q-84 0 -151 31l-10 24l34 117l25 14q46 -12 94 -12q55 0 88.5 36t59.5 116l14 45v41l-373 872zM627 1444l31 8l119 -72l8 -28l-150 -256l-18 -11h-123l-19 29z" />
    <glyph glyph-name="thorn" unicode="&#xfe;" horiz-adv-x="1085" 
d="M143 1311l21 20h143l21 -20v-404l94 -51q71 45 176 45q174 0 279.5 -123.5t105.5 -331.5q0 -209 -114.5 -337.5t-301.5 -128.5q-91 0 -153 26l-86 -55v-361l-21 -20h-143l-21 20v1721zM328 473v-188l14 -39q83 -103 213 -103q119 0 181.5 81.5t62.5 228.5
q0 127 -59.5 205.5t-159.5 78.5q-97 0 -165 -71.5t-87 -192.5z" />
    <glyph glyph-name="ydieresis" unicode="&#xff;" horiz-adv-x="1077" 
d="M113 881h174l18 -15l197 -530h114l168 530l19 15h166l18 -27l-362 -989q-60 -162 -131 -229.5t-181 -67.5q-84 0 -151 31l-10 24l34 117l25 14q46 -12 94 -12q55 0 88.5 36t59.5 116l14 45v41l-373 872zM342 1319q50 0 84.5 -33.5t34.5 -83.5t-34.5 -83.5t-84.5 -33.5
t-84.5 33.5t-34.5 83.5t34.5 83.5t84.5 33.5zM750 1319q50 0 84.5 -33.5t34.5 -83.5t-34.5 -83.5t-84.5 -33.5t-84.5 33.5t-34.5 83.5t34.5 83.5t84.5 33.5z" />
    <glyph glyph-name="Amacron" unicode="&#x100;" horiz-adv-x="1404" 
d="M594 1325l20 12h193l18 -14l488 -1296l-19 -27h-168l-18 14l-96 277l-58 41h-501l-58 -41l-98 -277l-18 -14h-166l-21 29zM647 1001l-149 -419l57 -82h297l57 82l-145 419h-117zM356 1733l21 20h653l21 -20v-121l-21 -21h-653l-21 21v121z" />
    <glyph glyph-name="amacron" unicode="&#x101;" horiz-adv-x="1054" 
d="M219 672l-57 114l8 27q158 88 336 88t270 -88.5t92 -259.5v-350l99 -70l14 -115l-12 -20q-38 -14 -86 -14q-90 0 -127 61l-90 10q-84 -75 -236 -75q-144 0 -230.5 78.5t-86.5 209.5q0 130 98.5 208.5t269.5 78.5q71 0 133 -12l72 71q-24 123 -182 123q-132 0 -256 -73z
M487 399q-188 0 -188 -127q0 -135 162 -135q88 0 153.5 49t75.5 125l-47 70q-73 18 -156 18zM244 1247l21 21h516l20 -21v-119l-20 -20h-516l-21 20v119z" />
    <glyph glyph-name="Abreve" unicode="&#x102;" horiz-adv-x="1404" 
d="M594 1325l20 12h193l18 -14l488 -1296l-19 -27h-168l-18 14l-96 277l-58 41h-501l-58 -41l-98 -277l-18 -14h-166l-21 29zM647 1001l-149 -419l57 -82h297l57 82l-145 419h-117zM438 1841h123l21 -18q6 -61 40 -98t87 -37q54 0 87.5 37t39.5 98l20 18h123l20 -22
q-9 -123 -89 -202t-201 -79q-122 0 -203.5 78t-87.5 203z" />
    <glyph glyph-name="abreve" unicode="&#x103;" horiz-adv-x="1054" 
d="M219 672l-57 114l8 27q158 88 336 88t270 -88.5t92 -259.5v-350l99 -70l14 -115l-12 -20q-38 -14 -86 -14q-90 0 -127 61l-90 10q-84 -75 -236 -75q-144 0 -230.5 78.5t-86.5 209.5q0 130 98.5 208.5t269.5 78.5q71 0 133 -12l72 71q-24 123 -182 123q-132 0 -256 -73z
M487 399q-188 0 -188 -127q0 -135 162 -135q88 0 153.5 49t75.5 125l-47 70q-73 18 -156 18zM272 1327h115l21 -18q6 -53 34.5 -81t75.5 -28q48 0 76.5 29t34.5 80l18 18h117l20 -22q-9 -113 -82.5 -182.5t-183.5 -69.5q-113 0 -186.5 70t-79.5 182z" />
    <glyph glyph-name="Aogonek" unicode="&#x104;" horiz-adv-x="1404" 
d="M594 1325l20 12h193l18 -14l488 -1296l-19 -27h-26q-46 0 -75.5 -32t-29.5 -79q0 -128 140 -155l16 -25l-29 -119l-22 -16q-130 20 -201.5 96t-71.5 193q0 101 68 172l14 63l-65 193l-58 41h-501l-58 -41l-98 -277l-18 -14h-166l-21 29zM647 1001l-149 -419l57 -82h297
l57 82l-145 419h-117z" />
    <glyph glyph-name="aogonek" unicode="&#x105;" horiz-adv-x="1054" 
d="M162 786l8 27q158 88 336 88t270 -88.5t92 -259.5v-350l99 -70l14 -108l-18 -23q-117 -13 -117 -121q0 -96 117 -121l16 -24l-21 -98l-22 -17q-116 15 -177 78t-61 166q0 39 17 88l-88 74q-80 -47 -197 -47q-144 0 -230.5 78.5t-86.5 209.5q0 130 98.5 208.5t269.5 78.5
q71 0 133 -12l72 71q-24 123 -182 123q-132 0 -256 -73l-29 8zM690 311l-47 70q-73 18 -156 18q-188 0 -188 -127q0 -65 42 -100t120 -35q88 0 153.5 49t75.5 125z" />
    <glyph glyph-name="Cacute" unicode="&#x106;" horiz-adv-x="1323" 
d="M1151 1176l-96 -111l-29 -2q-138 123 -313 123q-187 0 -302.5 -143.5t-115.5 -376.5q0 -229 113.5 -375t306.5 -146q190 0 342 146l28 -2l93 -105l-2 -28q-189 -183 -471 -183q-180 0 -317.5 87t-211.5 244.5t-74 361.5q0 192 77 349.5t220.5 250t325.5 92.5
q248 0 424 -154zM848 1964l26 8l130 -61l8 -29l-174 -317l-19 -11h-131l-18 29z" />
    <glyph glyph-name="cacute" unicode="&#x107;" horiz-adv-x="987" 
d="M860 752l-88 -95l-29 -2q-88 82 -204 82q-112 0 -183 -82t-71 -213q0 -138 68.5 -218.5t185.5 -80.5q126 0 221 95h28l93 -91v-28q-127 -139 -349 -139q-196 0 -313 126t-117 334q0 203 124 332t311 129q208 0 323 -121v-28zM629 1444l31 8l119 -72l8 -28l-150 -256
l-18 -11h-123l-19 29z" />
    <glyph glyph-name="Ccircumflex" unicode="&#x108;" horiz-adv-x="1323" 
d="M1151 1176l-96 -111l-29 -2q-138 123 -313 123q-187 0 -302.5 -143.5t-115.5 -376.5q0 -229 113.5 -375t306.5 -146q190 0 342 146l28 -2l93 -105l-2 -28q-189 -183 -471 -183q-180 0 -317.5 87t-211.5 244.5t-74 361.5q0 192 77 349.5t220.5 250t325.5 92.5
q248 0 424 -154zM684 1855l12 5h33l14 -5l261 -208l8 -21l-6 -20l-76 -80l-27 -4l-153 116h-74l-154 -114l-26 2l-74 82l-6 20l8 19z" />
    <glyph glyph-name="ccircumflex" unicode="&#x109;" horiz-adv-x="987" 
d="M860 752l-88 -95l-29 -2q-88 82 -204 82q-112 0 -183 -82t-71 -213q0 -138 68.5 -218.5t185.5 -80.5q126 0 221 95h28l93 -91v-28q-127 -139 -349 -139q-196 0 -313 126t-117 334q0 203 124 332t311 129q208 0 323 -121v-28zM717 1055l-133 98h-74l-131 -98l-29 2l-67 80
l-5 22l9 17l235 198l15 4h28l15 -4l229 -198l8 -17l-4 -20l-68 -82z" />
    <glyph glyph-name="Cdotaccent" unicode="&#x10a;" horiz-adv-x="1323" 
d="M1151 1176l-96 -111l-29 -2q-138 123 -313 123q-187 0 -302.5 -143.5t-115.5 -376.5q0 -229 113.5 -375t306.5 -146q190 0 342 146l28 -2l93 -105l-2 -28q-189 -183 -471 -183q-180 0 -317.5 87t-211.5 244.5t-74 361.5q0 192 77 349.5t220.5 250t325.5 92.5
q248 0 424 -154zM729 1806q58 0 94.5 -37t36.5 -92t-37 -92t-94 -37q-58 0 -94.5 37t-36.5 92t37 92t94 37z" />
    <glyph glyph-name="cdotaccent" unicode="&#x10b;" horiz-adv-x="987" 
d="M860 752l-88 -95l-29 -2q-88 82 -204 82q-112 0 -183 -82t-71 -213q0 -138 68.5 -218.5t185.5 -80.5q126 0 221 95h28l93 -91v-28q-127 -139 -349 -139q-196 0 -313 126t-117 334q0 203 124 332t311 129q208 0 323 -121v-28zM549 1339q52 0 87.5 -35.5t35.5 -91.5
q0 -55 -35.5 -90t-87.5 -35t-87.5 35t-35.5 90q0 56 35.5 91.5t87.5 35.5z" />
    <glyph glyph-name="Ccaron" unicode="&#x10c;" horiz-adv-x="1323" 
d="M1151 1176l-96 -111l-29 -2q-138 123 -313 123q-187 0 -302.5 -143.5t-115.5 -376.5q0 -229 113.5 -375t306.5 -146q190 0 342 146l28 -2l93 -105l-2 -28q-189 -183 -471 -183q-180 0 -317.5 87t-211.5 244.5t-74 361.5q0 192 77 349.5t220.5 250t325.5 92.5
q248 0 424 -154zM516 1845l27 2l153 -114h74l154 114l26 -2l74 -82l6 -20l-8 -19l-260 -208l-14 -5h-33l-13 5l-260 208l-8 21l6 20z" />
    <glyph glyph-name="ccaron" unicode="&#x10d;" horiz-adv-x="987" 
d="M860 752l-88 -95l-29 -2q-88 82 -204 82q-112 0 -183 -82t-71 -213q0 -138 68.5 -218.5t185.5 -80.5q126 0 221 95h28l93 -91v-28q-127 -139 -349 -139q-196 0 -313 126t-117 334q0 203 124 332t311 129q208 0 323 -121v-28zM571 1057l-14 -4h-29l-14 4l-233 198l-7 23
l5 14l67 82l29 2l133 -100h74l131 100l28 -2l68 -80l4 -22l-8 -17z" />
    <glyph glyph-name="Dcaron" unicode="&#x10e;" horiz-adv-x="1335" 
d="M184 1311l21 20h399q291 0 460 -178.5t169 -486.5q0 -300 -174.5 -483t-462.5 -183h-391l-21 20v1291zM377 1098v-862l61 -62h158q209 0 326.5 131t117.5 361q0 493 -446 493h-156zM422 1845l27 2l153 -114h74l153 114l27 -2l74 -82l6 -20l-8 -19l-260 -208l-15 -5h-32
l-13 5l-260 208l-8 21l6 20z" />
    <glyph glyph-name="dcaron" unicode="&#x10f;" horiz-adv-x="1333" 
d="M774 1311l21 20h143l20 -20v-1291l-20 -20h-115l-30 31l-78 4q-86 -55 -209 -55q-185 0 -294.5 125t-109.5 335q0 201 121.5 331t313.5 130q84 0 155 -22l82 57v375zM774 623l-18 43q-70 73 -207 73q-123 0 -192.5 -80t-69.5 -219q0 -134 63 -215.5t168 -81.5
q94 0 159 49.5t93 141.5l4 20v269zM1241 936l-27 -12l-79 24l-15 27l35 102l-16 64q-35 30 -35 86q0 47 32 79.5t81 32.5q53 0 84.5 -32t31.5 -82q0 -43 -18 -90z" />
    <glyph glyph-name="Dcroat" unicode="&#x110;" horiz-adv-x="1355" 
d="M205 1311l20 20h400q295 0 461.5 -180.5t166.5 -484.5q0 -300 -174.5 -483t-462.5 -183h-391l-20 20v502l-62 62h-71l-21 20v129l21 21h71l62 61v496zM397 1098v-283l62 -61h241l21 -21v-129l-21 -20h-241l-62 -62v-286l62 -62h157q209 0 327 131.5t118 360.5
q0 493 -447 493h-155z" />
    <glyph glyph-name="dcroat" unicode="&#x111;" horiz-adv-x="1112" 
d="M774 1311l21 20h143l20 -20v-80l62 -62h51l21 -20v-119l-21 -20h-51l-62 -62v-928l-20 -20h-115l-30 31l-80 4q-77 -55 -207 -55q-185 0 -294.5 125t-109.5 335q0 203 122.5 332t312.5 129q91 0 155 -22l82 57v12l-61 62h-164l-21 20v119l21 20h164l61 62v80zM549 739
q-123 0 -192.5 -80t-69.5 -219q0 -134 63 -215.5t168 -81.5q94 0 159 49.5t93 141.5l4 20v269l-18 43q-70 73 -207 73z" />
    <glyph glyph-name="Emacron" unicode="&#x112;" horiz-adv-x="1212" 
d="M184 1311l21 20h817l20 -20v-127l-20 -21h-584l-61 -61v-275l61 -61h510l21 -21v-127l-21 -20h-510l-61 -61v-308l61 -61h621l20 -21v-127l-20 -20h-854l-21 20v1291zM283 1733l20 20h653l21 -20v-121l-21 -21h-653l-20 21v121z" />
    <glyph glyph-name="emacron" unicode="&#x113;" horiz-adv-x="1028" 
d="M887 371h-520l-56 -88q31 -66 93.5 -103t144.5 -37q136 0 248 82l28 -6l68 -98l-4 -29q-76 -59 -157 -85.5t-185 -26.5q-207 0 -326 122.5t-119 333.5q0 201 118 333t312 132q174 0 278.5 -113t104.5 -296q0 -51 -8 -105zM369 528h297l59 82q-24 61 -75 95t-122 34
q-73 0 -130 -33t-85 -88zM260 1247l21 21h516l20 -21v-119l-20 -20h-516l-21 20v119z" />
    <glyph glyph-name="Ebreve" unicode="&#x114;" horiz-adv-x="1212" 
d="M184 1311l21 20h817l20 -20v-127l-20 -21h-584l-61 -61v-275l61 -61h510l21 -21v-127l-21 -20h-510l-61 -61v-308l61 -61h621l20 -21v-127l-20 -20h-854l-21 20v1291zM360 1841h123l21 -18q6 -61 40 -98t87 -37q54 0 87.5 37t39.5 98l20 18h123l21 -22q-9 -123 -89 -202
t-202 -79t-203.5 78t-87.5 203z" />
    <glyph glyph-name="ebreve" unicode="&#x115;" horiz-adv-x="1028" 
d="M887 371h-520l-56 -88q31 -66 93.5 -103t144.5 -37q136 0 248 82l28 -6l68 -98l-4 -29q-76 -59 -157 -85.5t-185 -26.5q-207 0 -326 122.5t-119 333.5q0 201 118 333t312 132q174 0 278.5 -113t104.5 -296q0 -51 -8 -105zM369 528h297l59 82q-24 61 -75 95t-122 34
q-73 0 -130 -33t-85 -88zM287 1327h114l21 -18q6 -53 34.5 -81t75.5 -28q48 0 76.5 29t34.5 80l19 18h116l21 -22q-9 -113 -83 -182.5t-184 -69.5q-113 0 -186.5 70t-79.5 182z" />
    <glyph glyph-name="Edotaccent" unicode="&#x116;" horiz-adv-x="1212" 
d="M184 1311l21 20h817l20 -20v-127l-20 -21h-584l-61 -61v-275l61 -61h510l21 -21v-127l-21 -20h-510l-61 -61v-308l61 -61h621l20 -21v-127l-20 -20h-854l-21 20v1291zM631 1806q58 0 94.5 -37t36.5 -92t-37 -92t-94 -37q-58 0 -94.5 37t-36.5 92t37 92t94 37z" />
    <glyph glyph-name="edotaccent" unicode="&#x117;" horiz-adv-x="1028" 
d="M887 371h-520l-56 -88q31 -66 93.5 -103t144.5 -37q136 0 248 82l28 -6l68 -98l-4 -29q-76 -59 -157 -85.5t-185 -26.5q-207 0 -326 122.5t-119 333.5q0 201 118 333t312 132q174 0 278.5 -113t104.5 -296q0 -51 -8 -105zM369 528h297l59 82q-24 61 -75 95t-122 34
q-73 0 -130 -33t-85 -88zM543 1339q52 0 87.5 -35.5t35.5 -91.5q0 -55 -35.5 -90t-87.5 -35t-87.5 35t-35.5 90q0 56 35.5 91.5t87.5 35.5z" />
    <glyph glyph-name="Eogonek" unicode="&#x118;" horiz-adv-x="1212" 
d="M184 1311l21 20h817l20 -20v-127l-20 -21h-584l-61 -61v-275l61 -61h510l21 -21v-127l-21 -20h-510l-61 -61v-308l61 -61h621l20 -21v-127l-22 -20q-54 0 -84.5 -29.5t-30.5 -81.5q0 -72 40.5 -108t98.5 -47l17 -25l-29 -119l-22 -16q-125 19 -196 93t-71 183q0 41 8 72
l-59 78h-524l-21 20v1291z" />
    <glyph glyph-name="eogonek" unicode="&#x119;" horiz-adv-x="1028" 
d="M887 371h-520l-56 -88q31 -66 94.5 -103t143.5 -37q136 0 248 82l28 -6l66 -96l-6 -29q-83 -49 -116.5 -90.5t-33.5 -93.5q0 -100 113 -121l16 -25l-20 -100l-23 -16q-122 17 -177.5 82.5t-55.5 179.5l-60 70q-198 6 -312 127.5t-114 328.5q0 212 122 338.5t308 126.5
q174 0 278.5 -113t104.5 -296q0 -61 -8 -105zM369 528h297l59 82q-50 129 -197 129q-75 0 -131 -33t-84 -90z" />
    <glyph glyph-name="Ecaron" unicode="&#x11a;" horiz-adv-x="1212" 
d="M184 1311l21 20h817l20 -20v-127l-20 -21h-584l-61 -61v-275l61 -61h510l21 -21v-127l-21 -20h-510l-61 -61v-308l61 -61h621l20 -21v-127l-20 -20h-854l-21 20v1291zM426 1845l27 2l153 -114h74l154 114l26 -2l74 -82l6 -20l-8 -19l-260 -208l-15 -5h-32l-13 5l-260 208
l-8 21l6 20z" />
    <glyph glyph-name="ecaron" unicode="&#x11b;" horiz-adv-x="1028" 
d="M887 371h-520l-56 -88q31 -66 93.5 -103t144.5 -37q136 0 248 82l28 -6l68 -98l-4 -29q-76 -59 -157 -85.5t-185 -26.5q-207 0 -326 122.5t-119 333.5q0 201 118 333t312 132q174 0 278.5 -113t104.5 -296q0 -51 -8 -105zM369 528h297l59 82q-24 61 -75 95t-122 34
q-73 0 -130 -33t-85 -88zM557 1057l-14 -4h-29l-14 4l-233 198l-7 23l5 14l67 82l29 2l133 -100h74l131 100l28 -2l68 -80l4 -22l-8 -17z" />
    <glyph glyph-name="Gcircumflex" unicode="&#x11c;" horiz-adv-x="1345" 
d="M770 723h422l20 -21v-550l-8 -17q-194 -162 -485 -162q-280 0 -448.5 190.5t-168.5 502.5q0 188 76.5 345t223 252t335.5 95q262 0 439 -154l2 -28l-97 -111l-28 -2q-141 123 -326 123q-194 0 -313 -145t-119 -375q0 -238 119.5 -380.5t318.5 -142.5q150 0 268 70l29 53
v232l-59 61l-201 6l-20 21v116zM700 1855l13 5h32l15 -5l260 -208l8 -21l-6 -20l-76 -80l-26 -4l-154 116h-74l-153 -114l-27 2l-74 82l-6 20l8 19z" />
    <glyph glyph-name="gcircumflex" unicode="&#x11d;" horiz-adv-x="1091" 
d="M973 922l26 -19v-119l-20 -22h-53l-56 -82q17 -53 17 -102q0 -137 -98 -224.5t-254 -87.5q-66 0 -132 17l-77 -58q0 -114 118 -114h211q147 0 225 -68t78 -195q0 -158 -132 -261t-332 -103q-183 0 -287.5 80t-104.5 215q0 124 82 209l9 75q-37 58 -37 134q0 86 57 149
l6 72q-39 73 -39 160q0 145 101.5 234t263.5 89h145zM381 -47l-64 -29q-34 -55 -34 -123q0 -75 57 -116t160 -41q129 0 205.5 53.5t76.5 148.5q0 52 -32.5 77.5t-104.5 25.5h-242zM623 741h-99q-77 0 -122.5 -41.5t-45.5 -117.5t47 -119t127 -43q81 0 131 43.5t50 118.5
q0 81 -37 133zM739 1055l-133 98h-74l-131 -98l-28 2l-68 80l-4 22l8 17l236 198l14 4h29l14 -4l229 -198l9 -17l-4 -20l-68 -82z" />
    <glyph glyph-name="Gbreve" unicode="&#x11e;" horiz-adv-x="1345" 
d="M770 723h422l20 -21v-550l-8 -17q-194 -162 -485 -162q-280 0 -448.5 190.5t-168.5 502.5q0 188 76.5 345t223 252t335.5 95q262 0 439 -154l2 -28l-97 -111l-28 -2q-141 123 -326 123q-194 0 -313 -145t-119 -375q0 -238 119.5 -380.5t318.5 -142.5q150 0 268 70l29 53
v232l-59 61l-201 6l-20 21v116zM459 1841h123l20 -18q6 -61 40 -98t87 -37q54 0 87.5 37t39.5 98l21 18h122l21 -22q-9 -123 -89 -202t-202 -79t-203.5 78t-87.5 203z" />
    <glyph glyph-name="gbreve" unicode="&#x11f;" horiz-adv-x="1091" 
d="M973 922l26 -19v-119l-20 -22h-53l-56 -82q17 -53 17 -102q0 -137 -98 -224.5t-254 -87.5q-66 0 -132 17l-77 -58q0 -114 118 -114h211q147 0 225 -68t78 -195q0 -158 -132 -261t-332 -103q-183 0 -287.5 80t-104.5 215q0 124 82 209l9 75q-37 58 -37 134q0 86 57 149
l6 72q-39 73 -39 160q0 145 101.5 234t263.5 89h145zM381 -47l-64 -29q-34 -55 -34 -123q0 -75 57 -116t160 -41q129 0 205.5 53.5t76.5 148.5q0 52 -32.5 77.5t-104.5 25.5h-242zM623 741h-99q-77 0 -122.5 -41.5t-45.5 -117.5t47 -119t127 -43q81 0 131 43.5t50 118.5
q0 81 -37 133zM321 1333h115l21 -18q6 -53 34.5 -81t75.5 -28q48 0 76.5 29t34.5 80l18 18h117l20 -22q-9 -113 -82.5 -182.5t-183.5 -69.5q-113 0 -186.5 70t-79.5 182z" />
    <glyph glyph-name="Gdotaccent" unicode="&#x120;" horiz-adv-x="1345" 
d="M770 723h422l20 -21v-550l-8 -17q-194 -162 -485 -162q-280 0 -448.5 190.5t-168.5 502.5q0 188 76.5 345t223 252t335.5 95q262 0 439 -154l2 -28l-97 -111l-28 -2q-141 123 -326 123q-194 0 -313 -145t-119 -375q0 -238 119.5 -380.5t318.5 -142.5q150 0 268 70l29 53
v232l-59 61l-201 6l-20 21v116zM741 1806q58 0 94.5 -37t36.5 -92t-37 -92t-94 -37q-58 0 -94.5 37t-36.5 92t37 92t94 37z" />
    <glyph glyph-name="gdotaccent" unicode="&#x121;" horiz-adv-x="1091" 
d="M973 922l26 -19v-119l-20 -22h-53l-56 -82q17 -53 17 -102q0 -137 -98 -224.5t-254 -87.5q-66 0 -132 17l-77 -58q0 -114 118 -114h211q147 0 225 -68t78 -195q0 -158 -132 -261t-332 -103q-183 0 -287.5 80t-104.5 215q0 124 82 209l9 75q-37 58 -37 134q0 86 57 149
l6 72q-39 73 -39 160q0 145 101.5 234t263.5 89h145zM381 -47l-64 -29q-34 -55 -34 -123q0 -75 57 -116t160 -41q129 0 205.5 53.5t76.5 148.5q0 52 -32.5 77.5t-104.5 25.5h-242zM623 741h-99q-77 0 -122.5 -41.5t-45.5 -117.5t47 -119t127 -43q81 0 131 43.5t50 118.5
q0 81 -37 133zM568 1339q52 0 87 -35.5t35 -91.5q0 -55 -35 -90t-87 -35t-87.5 35t-35.5 90q0 56 35.5 91.5t87.5 35.5z" />
    <glyph glyph-name="Gcommaaccent" unicode="&#x122;" horiz-adv-x="1345" 
d="M770 723h422l20 -21v-550l-8 -17q-194 -162 -485 -162q-280 0 -448.5 190.5t-168.5 502.5q0 188 76.5 345t223 252t335.5 95q262 0 439 -154l2 -28l-97 -111l-28 -2q-141 123 -326 123q-194 0 -313 -145t-119 -375q0 -238 119.5 -380.5t318.5 -142.5q150 0 268 70l29 53
v232l-59 61l-201 6l-20 21v116zM645 -526l31 108l-19 62q-36 33 -36 90q0 51 34 86t86 35q54 0 89.5 -34.5t35.5 -88.5q0 -46 -18 -90l-82 -207l-25 -13l-84 27z" />
    <glyph glyph-name="gcommaaccent" unicode="&#x123;" horiz-adv-x="1091" 
d="M973 922l26 -19v-119l-20 -22h-53l-56 -82q17 -53 17 -102q0 -137 -98 -224.5t-254 -87.5q-66 0 -132 17l-77 -58q0 -114 118 -114h211q147 0 225 -68t78 -195q0 -158 -132 -261t-332 -103q-183 0 -287.5 80t-104.5 215q0 124 82 209l9 75q-37 58 -37 134q0 86 57 149
l6 72q-39 73 -39 160q0 145 101.5 234t263.5 89h145zM381 -47l-64 -29q-34 -55 -34 -123q0 -75 57 -116t160 -41q129 0 205.5 53.5t76.5 148.5q0 52 -32.5 77.5t-104.5 25.5h-242zM623 741h-99q-77 0 -122.5 -41.5t-45.5 -117.5t47 -119t127 -43q81 0 131 43.5t50 118.5
q0 81 -37 133zM535 1419l26 13l80 -25l14 -27l-34 -102l16 -64q35 -30 35 -86q0 -47 -32 -79.5t-81 -32.5q-53 0 -85 32t-32 82q0 42 19 91z" />
    <glyph glyph-name="Hcircumflex" unicode="&#x124;" horiz-adv-x="1378" 
d="M205 1331h151l21 -20v-496l61 -61h502l61 61v496l21 20h152l20 -20v-1291l-20 -20h-152l-21 20v500l-61 62h-502l-61 -62v-500l-21 -20h-151l-21 20v1291zM659 1855l13 5h33l14 -5l260 -208l8 -21l-6 -20l-76 -80l-26 -4l-154 116h-74l-153 -114l-27 2l-74 82l-6 20l8 19
z" />
    <glyph glyph-name="hcircumflex" unicode="&#x125;" horiz-adv-x="1085" 
d="M143 1311l21 20h143l21 -20v-400l92 -53q70 43 176 43q164 0 255 -100t91 -281v-500l-20 -20h-144l-20 20v488q0 229 -180 229q-95 0 -163 -70t-87 -192v-455l-21 -20h-143l-21 20v1291zM410 1469l-133 98h-74l-131 -98l-29 2l-67 80l-5 22l9 17l235 198l15 4h28l15 -4
l229 -198l8 -17l-4 -20l-68 -82z" />
    <glyph glyph-name="Hbar" unicode="&#x126;" horiz-adv-x="1419" 
d="M205 1311l20 20h152l20 -20v-152l62 -61h502l61 61v152l20 20h152l20 -20v-152l62 -61h51l21 -21v-123l-21 -20h-51l-62 -62v-852l-20 -20h-152l-20 20v480l-61 61h-502l-62 -61v-480l-20 -20h-152l-20 20v852l-62 62h-51l-20 20v123l20 21h51l62 61v152zM397 793l62 -62
h502l61 62v79l-61 62h-502l-62 -62v-79z" />
    <glyph glyph-name="hbar" unicode="&#x127;" horiz-adv-x="1095" 
d="M154 1311l20 20h143l21 -20v-80l61 -62h164l21 -20v-119l-21 -20h-164l-61 -62v-37l92 -53q73 43 176 43q164 0 255 -100t91 -281v-500l-20 -20h-144l-20 20v488q0 229 -180 229q-95 0 -163 -70t-87 -192v-455l-21 -20h-143l-20 20v928l-62 62h-51l-21 20v119l21 20h51
l62 62v80z" />
    <glyph glyph-name="Itilde" unicode="&#x128;" horiz-adv-x="561" 
d="M184 1311l21 20h151l21 -20v-1291l-21 -20h-151l-21 20v1291zM479 1784l82 -64l6 -22q-51 -127 -172 -127q-38 0 -67.5 10t-44.5 21.5t-37.5 21.5t-48.5 10q-55 0 -86 -45l-29 -4l-82 62l-6 24q59 127 172 127q54 0 87.5 -16t58 -31.5t53.5 -15.5q57 0 86 45z" />
    <glyph glyph-name="itilde" unicode="&#x129;" horiz-adv-x="471" 
d="M143 860l21 21h143l21 -21v-840l-21 -20h-143l-21 20v840zM-33 1147l-8 27q53 133 176 133q34 0 62.5 -12t44 -27t35.5 -27t40 -12q42 0 66 37l27 8l92 -43l10 -27q-51 -139 -186 -139q-42 0 -75 19.5t-59.5 39t-50.5 19.5q-46 0 -69 -39l-29 -6z" />
    <glyph glyph-name="Imacron" unicode="&#x12a;" horiz-adv-x="561" 
d="M184 1311l21 20h151l21 -20v-1291l-21 -20h-151l-21 20v1291zM6 1733l21 20h510l20 -20v-121l-20 -21h-510l-21 21v121z" />
    <glyph glyph-name="imacron" unicode="&#x12b;" horiz-adv-x="471" 
d="M143 860l21 21h143l21 -21v-840l-21 -20h-143l-21 20v840zM12 1247l21 21h405l21 -21v-119l-21 -20h-405l-21 20v119z" />
    <glyph glyph-name="Ibreve" unicode="&#x12c;" horiz-adv-x="561" 
d="M184 1311l21 20h151l21 -20v-1291l-21 -20h-151l-21 20v1291zM10 1841h123l21 -18q6 -61 40 -98t87 -37q54 0 87.5 37t39.5 98l20 18h123l20 -22q-9 -123 -89 -202t-201 -79q-122 0 -203.5 78t-87.5 203z" />
    <glyph glyph-name="ibreve" unicode="&#x12d;" horiz-adv-x="471" 
d="M143 860l21 21h143l21 -21v-840l-21 -20h-143l-21 20v840zM-10 1327h114l21 -18q6 -52 35 -80.5t76 -28.5q48 0 76 29t34 80l19 18h116l21 -22q-9 -113 -82.5 -182.5t-183.5 -69.5q-113 0 -187 70t-80 182z" />
    <glyph glyph-name="Iogonek" unicode="&#x12e;" horiz-adv-x="561" 
d="M184 1311l21 20h151l21 -20v-1291l-21 -20h-12q-35 0 -59.5 -33t-24.5 -78q0 -128 139 -155l17 -25l-29 -119l-22 -16q-130 20 -201.5 96t-71.5 193q0 110 74 178l18 45v1225z" />
    <glyph glyph-name="iogonek" unicode="&#x12f;" horiz-adv-x="471" 
d="M143 860l21 21h143l21 -21v-842l-17 -18q-42 -10 -67 -44t-25 -79q0 -111 123 -131l16 -22l-16 -103l-23 -16q-119 15 -183 79t-64 166q0 91 55 146l16 43v821zM236 1339q52 0 87 -35.5t35 -91.5q0 -55 -35 -90t-87 -35t-87.5 35t-35.5 90q0 56 35.5 91.5t87.5 35.5z" />
    <glyph glyph-name="Idotaccent" unicode="&#x130;" horiz-adv-x="561" 
d="M184 1311l21 20h151l21 -20v-1291l-21 -20h-151l-21 20v1291zM281 1806q58 0 94.5 -37t36.5 -92t-37 -92t-94 -37q-58 0 -94.5 37t-36.5 92t37 92t94 37z" />
    <glyph glyph-name="dotlessi" unicode="&#x131;" horiz-adv-x="471" 
d="M143 860l21 21h143l21 -21v-840l-21 -20h-143l-21 20v840z" />
    <glyph glyph-name="Jcircumflex" unicode="&#x134;" horiz-adv-x="847" 
d="M483 1311l21 20h149l21 -20v-850q0 -231 -109.5 -359.5t-310.5 -128.5q-85 0 -154 17l-14 24l29 131l24 15q57 -13 109 -13q111 0 173 81t62 233v850zM551 1855l12 5h33l14 -5l260 -208l9 -21l-7 -20l-75 -80l-27 -4l-154 116h-73l-154 -114l-27 2l-73 82l-6 20l8 19z
" />
    <glyph glyph-name="jcircumflex" unicode="&#x135;" horiz-adv-x="471" 
d="M143 860l21 21h143l21 -21v-958q0 -163 -90 -258t-242 -95q-41 0 -90 11l-17 22l19 125l24 17q40 -5 50 -5q77 0 119 47.5t42 135.5v958zM406 1055l-134 98h-73l-131 -98l-29 2l-68 80l-4 22l8 17l236 198l14 4h29l14 -4l230 -198l8 -17l-4 -20l-68 -82z" />
    <glyph glyph-name="Kcommaaccent" unicode="&#x136;" horiz-adv-x="1341" 
d="M184 1311l21 20h151l21 -20v-469l63 -62l95 6l45 25l352 512l16 8h195l16 -33l-399 -548v-74l475 -643l-16 -33h-193l-16 8l-410 578l-51 26h-111l-61 -61v-531l-21 -20h-151l-21 20v1291zM565 -485l31 108l-18 62q-37 34 -37 90q0 51 34.5 86t86.5 35q54 0 89 -34.5
t35 -88.5q0 -47 -18 -90l-82 -207l-24 -13l-84 27z" />
    <glyph glyph-name="kcommaaccent" unicode="&#x137;" horiz-adv-x="1021" 
d="M143 1311l21 20h143l21 -20v-705l67 -61h11l40 24l226 303l16 9h182l17 -33l-260 -326v-78l319 -411l-16 -33h-176l-17 8l-260 352l-49 25h-39l-61 -61v-304l-21 -20h-143l-21 20v1291zM549 -518l-27 -12l-80 24l-14 27l35 102l-17 64q-34 30 -34 86q0 47 31.5 79.5
t80.5 32.5q53 0 85 -32t32 -82q0 -43 -18 -90z" />
    <glyph glyph-name="kgreenlandic" unicode="&#x138;" horiz-adv-x="1009" 
d="M143 860l21 21h143l21 -21v-262l67 -61l29 4l45 26l207 305l16 9h172l17 -33l-248 -344v-74l291 -397l-17 -33h-170l-16 8l-234 340l-51 27h-47l-61 -62v-293l-21 -20h-143l-21 20v840z" />
    <glyph glyph-name="Lacute" unicode="&#x139;" horiz-adv-x="1128" 
d="M184 1311l21 20h151l21 -20v-1078l61 -61h578l20 -20v-132l-20 -20h-811l-21 20v1291zM403 1964l27 8l129 -61l8 -29l-174 -317l-18 -11h-131l-19 29z" />
    <glyph glyph-name="lacute" unicode="&#x13a;" horiz-adv-x="522" 
d="M143 1311l21 20h143l21 -20v-1071q0 -40 20 -62t55 -22q21 0 37 4l23 -19l16 -121l-14 -22q-46 -14 -103 -14q-108 0 -163.5 64t-55.5 188v1075zM330 1874l31 8l119 -72l8 -28l-150 -256l-18 -11h-123l-19 29z" />
    <glyph glyph-name="Lcommaaccent" unicode="&#x13b;" horiz-adv-x="1128" 
d="M184 1311l21 20h151l21 -20v-1078l61 -61h578l20 -20v-132l-20 -20h-811l-21 20v1291zM532 -526l31 108l-18 62q-37 34 -37 90q0 51 34.5 86t86.5 35q54 0 89.5 -34.5t35.5 -88.5q0 -44 -19 -90l-82 -207l-24 -13l-84 27z" />
    <glyph glyph-name="lcommaaccent" unicode="&#x13c;" horiz-adv-x="522" 
d="M143 1311l21 20h143l21 -20v-1071q0 -40 20 -62t55 -22q21 0 37 4l23 -19l16 -121l-14 -22q-46 -14 -103 -14q-108 0 -163.5 64t-55.5 188v1075zM350 -518l-26 -12l-80 24l-15 27l35 102l-16 64q-35 30 -35 86q0 47 32 79.5t81 32.5q53 0 84.5 -32t31.5 -82
q0 -43 -18 -90z" />
    <glyph glyph-name="Lcaron" unicode="&#x13d;" horiz-adv-x="1128" 
d="M184 1311l21 20h151l21 -20v-1078l61 -61h578l20 -20v-132l-20 -20h-811l-21 20v1291zM834 969l30 108l-18 62q-37 34 -37 90q0 51 34.5 86t86.5 35q54 0 89.5 -34.5t35.5 -88.5q0 -44 -19 -90l-82 -207l-24 -12l-84 26z" />
    <glyph glyph-name="lcaron" unicode="&#x13e;" horiz-adv-x="733" 
d="M143 1311l21 20h143l21 -20v-1071q0 -40 20 -62t55 -22q21 0 37 4l23 -19l16 -121l-14 -22q-46 -14 -103 -14q-108 0 -163.5 64t-55.5 188v1075zM641 936l-27 -12l-79 24l-15 27l35 102l-16 64q-35 30 -35 86q0 47 31.5 79.5t80.5 32.5q53 0 85 -32t32 -82q0 -43 -18 -90
z" />
    <glyph glyph-name="Ldot" unicode="&#x13f;" horiz-adv-x="1128" 
d="M184 1311l21 20h151l21 -20v-1078l61 -61h578l20 -20v-132l-20 -20h-811l-21 20v1291zM829 842q58 0 95 -37t37 -92q0 -54 -37.5 -91.5t-94.5 -37.5q-58 0 -94.5 37t-36.5 92t37 92t94 37z" />
    <glyph glyph-name="ldot" unicode="&#x140;" horiz-adv-x="714" 
d="M143 1311l21 20h143l21 -20v-1071q0 -40 20 -62t55 -22q21 0 37 4l23 -19l16 -121l-14 -22q-46 -14 -103 -14q-108 0 -163.5 64t-55.5 188v1075zM592 717q52 0 87.5 -35.5t35.5 -91.5q0 -55 -35.5 -90t-87.5 -35t-87.5 35t-35.5 90q0 56 35.5 91.5t87.5 35.5z" />
    <glyph glyph-name="Lslash" unicode="&#x141;" horiz-adv-x="1128" 
d="M184 1311l21 20h151l21 -20v-477l86 -56l172 72l27 -10l51 -119l-11 -27l-288 -119l-37 -57v-285l61 -61h578l20 -20v-132l-20 -20h-811l-21 20v396l-108 45l-47 112l10 27l106 43l39 57v611z" />
    <glyph glyph-name="lslash" unicode="&#x142;" horiz-adv-x="604" 
d="M174 1311l21 20h143l20 -20v-496l88 -53l21 10l27 -10l55 -109l-8 -28l-150 -76l-33 -53v-256q0 -39 20 -61.5t56 -22.5q23 0 35 4l23 -19l18 -121l-14 -22q-46 -14 -103 -14q-108 0 -163.5 64t-55.5 188v126l-55 52l-13 -6l-28 8l-55 108l10 27l106 55l35 53v652z" />
    <glyph glyph-name="Nacute" unicode="&#x143;" horiz-adv-x="1402" 
d="M184 1311l21 20h141l16 -10l560 -846l112 35v801l21 20h143l21 -20v-1291l-21 -20h-160l-16 8l-541 821l-112 -32v-777l-21 -20h-143l-21 20v1291zM782 1964l27 8l129 -61l8 -29l-174 -317l-18 -11h-131l-19 29z" />
    <glyph glyph-name="nacute" unicode="&#x144;" horiz-adv-x="1085" 
d="M164 881h119l36 -35l78 -4q74 59 199 59q164 0 255 -100t91 -281v-500l-20 -20h-144l-20 20v488q0 229 -180 229q-95 0 -163 -70t-87 -192v-455l-21 -20h-143l-21 20v840zM655 1444l31 8l119 -72l8 -28l-150 -256l-18 -11h-123l-19 29z" />
    <glyph glyph-name="Ncommaaccent" unicode="&#x145;" horiz-adv-x="1402" 
d="M184 1311l21 20h141l16 -10l560 -846l112 35v801l21 20h143l21 -20v-1291l-21 -20h-160l-16 8l-541 821l-112 -32v-777l-21 -20h-143l-21 20v1291zM602 -485l31 108l-19 62q-36 33 -36 90q0 51 34 86t86 35q54 0 89.5 -34.5t35.5 -88.5q0 -47 -18 -90l-82 -207l-25 -13
l-84 27z" />
    <glyph glyph-name="ncommaaccent" unicode="&#x146;" horiz-adv-x="1085" 
d="M164 881h119l36 -35l78 -4q74 59 199 59q164 0 255 -100t91 -281v-500l-20 -20h-144l-20 20v488q0 229 -180 229q-95 0 -163 -70t-87 -192v-455l-21 -20h-143l-21 20v840zM565 -502l-26 -12l-80 25l-15 26l35 103l-16 63q-35 30 -35 86q0 47 32 80t81 33q53 0 84.5 -32.5
t31.5 -82.5q0 -43 -18 -90z" />
    <glyph glyph-name="Ncaron" unicode="&#x147;" horiz-adv-x="1402" 
d="M184 1311l21 20h141l16 -10l560 -846l112 35v801l21 20h143l21 -20v-1291l-21 -20h-160l-16 8l-541 821l-112 -32v-777l-21 -20h-143l-21 20v1291zM485 1845l27 2l154 -114h73l154 114l27 -2l73 -82l6 -20l-8 -19l-260 -208l-14 -5h-33l-12 5l-260 208l-9 21l7 20z" />
    <glyph glyph-name="ncaron" unicode="&#x148;" horiz-adv-x="1085" 
d="M164 881h119l36 -35l78 -4q74 59 199 59q164 0 255 -100t91 -281v-500l-20 -20h-144l-20 20v488q0 229 -180 229q-95 0 -163 -70t-87 -192v-455l-21 -20h-143l-21 20v840zM602 1057l-14 -4h-29l-14 4l-234 198l-6 23l4 14l68 82l29 2l133 -100h73l131 100l29 -2l68 -80
l4 -22l-8 -17z" />
    <glyph glyph-name="napostrophe" unicode="&#x149;" horiz-adv-x="1265" 
d="M344 881h119l37 -35l78 -4q74 59 198 59q164 0 255 -100t91 -281v-500l-20 -20h-144l-20 20v488q0 229 -180 229q-95 0 -163 -70t-87 -192v-455l-21 -20h-143l-20 20v840zM137 936l-26 -12l-80 24l-15 27l35 102l-16 64q-35 30 -35 86q0 47 32 79.5t81 32.5
q53 0 84.5 -32t31.5 -82q0 -43 -18 -90z" />
    <glyph glyph-name="Omacron" unicode="&#x14c;" horiz-adv-x="1409" 
d="M705 1358q177 0 315 -89.5t212.5 -247t74.5 -355.5q0 -195 -77.5 -353.5t-215.5 -249t-309 -90.5q-177 0 -315 90t-213 247.5t-75 355.5q0 195 77.5 353.5t216 248.5t309.5 90zM705 1190q-188 0 -299 -145.5t-111 -378.5q0 -232 111 -378.5t299 -146.5t298.5 145.5
t110.5 379.5q0 232 -110.5 378t-298.5 146zM358 1733l21 20h653l21 -20v-121l-21 -21h-653l-21 21v121z" />
    <glyph glyph-name="omacron" unicode="&#x14d;" horiz-adv-x="1085" 
d="M543 901q197 0 318.5 -128.5t121.5 -332.5q0 -197 -124.5 -328.5t-315.5 -131.5q-197 0 -319 128.5t-122 331.5q0 200 123 330.5t318 130.5zM543 739q-118 0 -188 -84.5t-70 -214.5q0 -132 70.5 -215.5t187.5 -83.5q118 0 188 83t70 216q0 130 -70.5 214.5t-187.5 84.5z
M264 1247l21 21h516l20 -21v-119l-20 -20h-516l-21 20v119z" />
    <glyph glyph-name="Obreve" unicode="&#x14e;" horiz-adv-x="1409" 
d="M705 1358q177 0 315 -89.5t212.5 -247t74.5 -355.5q0 -195 -77.5 -353.5t-215.5 -249t-309 -90.5q-177 0 -315 90t-213 247.5t-75 355.5q0 195 77.5 353.5t216 248.5t309.5 90zM705 1190q-188 0 -299 -145.5t-111 -378.5q0 -232 111 -378.5t299 -146.5t298.5 145.5
t110.5 379.5q0 232 -110.5 378t-298.5 146zM434 1841h123l21 -18q6 -61 40 -98t87 -37q54 0 87 36.5t39 98.5l21 18h123l20 -22q-9 -123 -89 -202t-201 -79q-122 0 -203.5 78t-87.5 203z" />
    <glyph glyph-name="obreve" unicode="&#x14f;" horiz-adv-x="1085" 
d="M543 901q197 0 318.5 -128.5t121.5 -332.5q0 -197 -124.5 -328.5t-315.5 -131.5q-197 0 -319 128.5t-122 331.5q0 200 123 330.5t318 130.5zM543 739q-118 0 -188 -84.5t-70 -214.5q0 -132 70.5 -215.5t187.5 -83.5q118 0 188 83t70 216q0 130 -70.5 214.5t-187.5 84.5z
M297 1327h115l20 -18q6 -52 35 -80.5t76 -28.5q48 0 76 29t34 80l19 18h116l21 -22q-9 -113 -82.5 -182.5t-183.5 -69.5q-113 0 -187 70t-80 182z" />
    <glyph glyph-name="Ohungarumlaut" unicode="&#x150;" horiz-adv-x="1409" 
d="M705 1358q177 0 315 -89.5t212.5 -247t74.5 -355.5q0 -195 -77.5 -353.5t-215.5 -249t-309 -90.5q-177 0 -315 90t-213 247.5t-75 355.5q0 195 77.5 353.5t216 248.5t309.5 90zM705 1190q-188 0 -299 -145.5t-111 -378.5q0 -232 111 -378.5t299 -146.5t298.5 145.5
t110.5 379.5q0 232 -110.5 378t-298.5 146zM631 1925l26 12l127 -49l13 -24l110 -52l37 78l27 11l121 -66l8 -29l-142 -241l-18 -11h-117l-18 33l-96 37l-23 -57l-18 -13h-123l-19 27z" />
    <glyph glyph-name="ohungarumlaut" unicode="&#x151;" horiz-adv-x="1085" 
d="M543 901q197 0 318.5 -128.5t121.5 -332.5q0 -197 -124.5 -328.5t-315.5 -131.5q-197 0 -319 128.5t-122 331.5q0 200 123 330.5t318 130.5zM543 739q-118 0 -188 -84.5t-70 -214.5q0 -132 70.5 -215.5t187.5 -83.5q118 0 188 83t70 216q0 130 -70.5 214.5t-187.5 84.5z
M479 1430l28 10l121 -58l8 -30l91 -49l51 96l28 8l113 -70l6 -28l-145 -215l-17 -9h-116l-19 31l-90 45l-33 -65l-18 -11h-117l-18 29z" />
    <glyph glyph-name="OE" unicode="&#x152;" horiz-adv-x="1972" 
d="M981 1331h791l20 -20v-127l-20 -21h-564l-61 -61v-275l61 -61h490l20 -21v-127l-20 -20h-490l-61 -61v-308l61 -61h600l21 -21v-127l-21 -20h-827l-16 16l-74 11q-89 -54 -227 -54q-264 0 -413 186t-149 507q0 195 65 350.5t194.5 248.5t302.5 93q134 0 231 -51l72 10z
M961 993l-5 21q-29 83 -108 130.5t-184 47.5q-172 0 -271.5 -141.5t-99.5 -384.5q0 -238 100.5 -382.5t270.5 -144.5q213 0 292 187l5 24v643z" />
    <glyph glyph-name="oe" unicode="&#x153;" horiz-adv-x="1652" 
d="M1511 371h-499l-56 -88q34 -67 92 -103.5t132 -36.5q75 0 129.5 20t111.5 62l29 -6l68 -98l-5 -29q-78 -60 -158.5 -86t-185.5 -26q-173 0 -284 102h-84q-111 -102 -271 -102q-185 0 -306.5 126t-121.5 334q0 196 122 328.5t306 132.5q160 0 277 -108h86q45 50 117.5 79
t150.5 29q172 0 275.5 -113.5t103.5 -298.5q0 -36 -8 -102zM530 739q-108 0 -176.5 -85t-68.5 -214q0 -132 68 -215.5t177 -83.5q110 0 175 81.5t65 215.5q0 133 -64.5 217t-175.5 84zM1014 528h276l60 80q-47 131 -189 131q-69 0 -123 -33t-80 -90z" />
    <glyph glyph-name="Racute" unicode="&#x154;" horiz-adv-x="1288" 
d="M184 1311l21 20h442q218 0 354 -122t136 -316q0 -118 -57.5 -212.5t-166.5 -156.5l-20 -90l291 -401l-19 -33h-182l-16 8l-285 418l-51 27h-193l-61 -62v-371l-21 -20h-151l-21 20v1291zM377 1100v-416l61 -61h199q141 0 224 73t83 199q0 130 -81 198t-234 68h-191z
M717 1964l26 8l129 -61l9 -29l-174 -317l-19 -11h-131l-18 29z" />
    <glyph glyph-name="racute" unicode="&#x155;" horiz-adv-x="727" 
d="M143 860l21 21h119l36 -35l78 -4q73 55 189 55q19 0 51 -4l18 -21l-8 -133l-22 -20q-28 4 -54 4q-88 0 -153 -63t-90 -166v-474l-21 -20h-143l-21 20v840zM498 1444l31 8l119 -72l8 -28l-150 -256l-18 -11h-123l-19 29z" />
    <glyph glyph-name="Rcommaaccent" unicode="&#x156;" horiz-adv-x="1288" 
d="M184 1311l21 20h442q218 0 354 -122t136 -316q0 -118 -57.5 -212.5t-166.5 -156.5l-20 -90l291 -401l-19 -33h-182l-16 8l-285 418l-51 27h-193l-61 -62v-371l-21 -20h-151l-21 20v1291zM377 1100v-416l61 -61h199q141 0 224 73t83 199q0 130 -81 198t-234 68h-191z
M565 -485l31 108l-18 62q-37 34 -37 90q0 51 34.5 86t86.5 35q54 0 89 -34.5t35 -88.5q0 -47 -18 -90l-82 -207l-24 -13l-84 27z" />
    <glyph glyph-name="rcommaaccent" unicode="&#x157;" horiz-adv-x="727" 
d="M143 860l21 21h119l36 -35l78 -4q73 55 189 55q19 0 51 -4l18 -21l-8 -133l-22 -20q-28 4 -54 4q-88 0 -153 -63t-90 -166v-474l-21 -20h-143l-21 20v840zM266 -518l-26 -12l-80 24l-15 27l35 102l-16 64q-35 30 -35 86q0 47 32 79.5t81 32.5q53 0 84.5 -32t31.5 -82
q0 -43 -18 -90z" />
    <glyph glyph-name="Rcaron" unicode="&#x158;" horiz-adv-x="1288" 
d="M184 1311l21 20h442q218 0 354 -122t136 -316q0 -118 -57.5 -212.5t-166.5 -156.5l-20 -90l291 -401l-19 -33h-182l-16 8l-285 418l-51 27h-193l-61 -62v-371l-21 -20h-151l-21 20v1291zM377 1100v-416l61 -61h199q141 0 224 73t83 199q0 130 -81 198t-234 68h-191z
M410 1845l26 2l154 -114h74l153 114l27 -2l74 -82l6 -20l-9 -19l-260 -208l-14 -5h-33l-12 5l-260 208l-8 21l6 20z" />
    <glyph glyph-name="rcaron" unicode="&#x159;" horiz-adv-x="727" 
d="M143 860l21 21h119l36 -35l78 -4q73 55 189 55q19 0 51 -4l18 -21l-8 -133l-22 -20q-28 4 -54 4q-88 0 -153 -63t-90 -166v-474l-21 -20h-143l-21 20v840zM428 1057l-14 -4h-29l-14 4l-234 198l-6 23l4 14l68 82l28 2l134 -100h73l131 100l29 -2l68 -80l4 -22l-8 -17z
" />
    <glyph glyph-name="Sacute" unicode="&#x15a;" horiz-adv-x="1255" 
d="M1083 1196l-82 -117l-28 -6q-154 117 -342 117q-135 0 -203 -53t-68 -150q0 -103 68 -151.5t223 -63.5q231 -23 356.5 -124.5t125.5 -268.5q0 -184 -142 -295t-373 -111q-281 0 -479 144l-6 28l80 121l29 6q183 -131 383 -131q150 0 234.5 62t84.5 172q0 100 -77.5 153
t-243.5 68q-451 41 -451 379q0 176 126.5 279.5t336.5 103.5q265 0 444 -135zM758 1964l26 8l129 -61l9 -29l-174 -317l-19 -11h-131l-18 29z" />
    <glyph glyph-name="sacute" unicode="&#x15b;" horiz-adv-x="950" 
d="M811 791l-61 -109l-29 -8q-113 67 -236 67q-172 0 -172 -100q0 -52 44.5 -79.5t140.5 -35.5q181 -15 265.5 -80.5t84.5 -189.5q0 -132 -101.5 -204t-283.5 -72q-203 0 -344 96l-8 26l61 109l29 6q125 -78 264 -78q106 0 155.5 27.5t49.5 85.5q0 56 -44.5 82.5
t-156.5 32.5q-165 9 -250.5 76.5t-85.5 191.5q0 120 97 193t257 73q181 0 318 -84zM565 1444l31 8l119 -72l8 -28l-150 -256l-18 -11h-123l-19 29z" />
    <glyph glyph-name="Scircumflex" unicode="&#x15c;" horiz-adv-x="1255" 
d="M1083 1196l-82 -117l-28 -6q-154 117 -342 117q-135 0 -203 -53t-68 -150q0 -103 68 -151.5t223 -63.5q231 -23 356.5 -124.5t125.5 -268.5q0 -184 -142 -295t-373 -111q-281 0 -479 144l-6 28l80 121l29 6q183 -131 383 -131q150 0 234.5 62t84.5 172q0 100 -77.5 153
t-243.5 68q-451 41 -451 379q0 176 126.5 279.5t336.5 103.5q265 0 444 -135zM639 1855l12 5h33l14 -5l260 -208l9 -21l-6 -20l-76 -80l-27 -4l-153 116h-74l-154 -114l-26 2l-74 82l-6 20l8 19z" />
    <glyph glyph-name="scircumflex" unicode="&#x15d;" horiz-adv-x="950" 
d="M811 791l-61 -109l-29 -8q-113 67 -236 67q-172 0 -172 -100q0 -52 44.5 -79.5t140.5 -35.5q181 -15 265.5 -80.5t84.5 -189.5q0 -132 -101.5 -204t-283.5 -72q-203 0 -344 96l-8 26l61 109l29 6q125 -78 264 -78q106 0 155.5 27.5t49.5 85.5q0 56 -44.5 82.5
t-156.5 32.5q-165 9 -250.5 76.5t-85.5 191.5q0 120 97 193t257 73q181 0 318 -84zM676 1055l-133 98h-74l-131 -98l-29 2l-67 80l-5 22l9 17l235 198l15 4h28l15 -4l229 -198l8 -17l-4 -20l-68 -82z" />
    <glyph glyph-name="Scedilla" unicode="&#x15e;" horiz-adv-x="1255" 
d="M483 -655l-24 14l-25 113l17 24q217 39 217 166q0 52 -31 79.5t-90 27.5h-17l-20 20v8l16 97v28l-53 62q-189 26 -334 133l-6 28l80 121l29 6q183 -131 383 -131q150 0 234.5 62t84.5 172q0 100 -77.5 153t-243.5 68q-451 41 -451 379q0 176 126.5 279.5t336.5 103.5
q263 0 444 -133l4 -29l-82 -117l-28 -6q-154 117 -342 117q-131 0 -201 -52t-70 -151q0 -103 68 -151.5t223 -63.5q229 -24 355.5 -124t126.5 -269q0 -153 -103.5 -259.5t-277.5 -135.5l-21 -115q51 -26 79 -77.5t28 -117.5q0 -127 -95.5 -213t-259.5 -116z" />
    <glyph glyph-name="scedilla" unicode="&#x15f;" horiz-adv-x="950" 
d="M811 791l-61 -109l-29 -8q-113 67 -236 67q-172 0 -172 -100q0 -55 44 -81t141 -34q180 -13 265 -79.5t85 -190.5q0 -101 -63 -169t-179 -93l-22 -111q71 -50 71 -151q0 -99 -72.5 -175t-203.5 -116l-25 12l-37 105l15 26q78 23 116.5 58t38.5 92l-38 53q-16 8 -48 8h-28
l-21 21v12l21 90v12l-49 62q-115 21 -205 84l-8 26l61 109l29 6q124 -78 264 -78q107 0 156 27t49 86q0 57 -42.5 83t-154.5 32q-340 18 -340 268q0 122 98.5 194t255.5 72q185 0 318 -84z" />
    <glyph glyph-name="Scaron" unicode="&#x160;" horiz-adv-x="1255" 
d="M1083 1196l-82 -117l-28 -6q-154 117 -342 117q-135 0 -203 -53t-68 -150q0 -103 68 -151.5t223 -63.5q231 -23 356.5 -124.5t125.5 -268.5q0 -184 -142 -295t-373 -111q-281 0 -479 144l-6 28l80 121l29 6q183 -131 383 -131q150 0 234.5 62t84.5 172q0 100 -77.5 153
t-243.5 68q-451 41 -451 379q0 176 126.5 279.5t336.5 103.5q265 0 444 -135zM444 1845l27 2l154 -114h73l154 114l27 -2l73 -82l6 -20l-8 -19l-260 -208l-14 -5h-33l-12 5l-260 208l-9 21l7 20z" />
    <glyph glyph-name="scaron" unicode="&#x161;" horiz-adv-x="950" 
d="M811 791l-61 -109l-29 -8q-113 67 -236 67q-172 0 -172 -100q0 -52 44.5 -79.5t140.5 -35.5q181 -15 265.5 -80.5t84.5 -189.5q0 -132 -101.5 -204t-283.5 -72q-203 0 -344 96l-8 26l61 109l29 6q125 -78 264 -78q106 0 155.5 27.5t49.5 85.5q0 56 -44.5 82.5
t-156.5 32.5q-165 9 -250.5 76.5t-85.5 191.5q0 120 97 193t257 73q181 0 318 -84zM524 1057l-14 -4h-29l-14 4l-234 198l-6 23l4 14l68 82l29 2l133 -100h74l131 100l28 -2l68 -80l4 -22l-8 -17z" />
    <glyph glyph-name="Tcommaaccent" unicode="&#x162;" horiz-adv-x="1175" 
d="M82 1311l20 20h971l21 -20v-131l-21 -21h-328l-61 -61v-1078l-20 -20h-152l-20 20v1078l-62 61h-328l-20 21v131zM487 -526l31 108l-18 62q-37 34 -37 90q0 51 34.5 86t86.5 35q54 0 89.5 -34.5t35.5 -88.5q0 -44 -19 -90l-82 -207l-24 -13l-84 27z" />
    <glyph glyph-name="tcommaaccent" unicode="&#x163;" horiz-adv-x="710" 
d="M72 852l18 20l60 5l55 53l22 180l21 16l127 -8l20 -22l-8 -152l62 -63h133l20 -21v-125l-20 -20h-133l-62 -62v-354q0 -76 33 -112.5t102 -36.5q32 0 62 6l24 -17l19 -121l-17 -24q-55 -14 -127 -14q-133 0 -206.5 78t-73.5 221v374l-62 62h-49l-20 20v117zM455 -518
l-27 -12l-80 24l-14 27l35 102l-17 64q-35 30 -35 86q0 47 32 79.5t81 32.5q53 0 85 -32t32 -82q0 -41 -19 -90z" />
    <glyph glyph-name="Tcaron" unicode="&#x164;" horiz-adv-x="1175" 
d="M82 1311l20 20h971l21 -20v-131l-21 -21h-328l-61 -61v-1078l-20 -20h-152l-20 20v1078l-62 61h-328l-20 21v131zM373 1845l26 2l154 -114h74l153 114l27 -2l74 -82l6 -20l-8 -19l-261 -208l-14 -5h-33l-12 5l-260 208l-8 21l6 20z" />
    <glyph glyph-name="tcaron" unicode="&#x165;" horiz-adv-x="915" 
d="M72 852l18 20l60 5l55 53l22 180l21 16l127 -8l20 -22l-8 -152l62 -63h133l20 -21v-125l-20 -20h-133l-62 -62v-354q0 -76 33 -112.5t102 -36.5q32 0 62 6l24 -17l19 -121l-17 -24q-55 -14 -127 -14q-133 0 -206.5 78t-73.5 221v374l-62 62h-49l-20 20v117zM823 936
l-26 -12l-80 24l-15 27l35 102l-16 64q-35 30 -35 86q0 47 32 79.5t81 32.5q53 0 84.5 -32t31.5 -82q0 -43 -18 -90z" />
    <glyph glyph-name="Tbar" unicode="&#x166;" horiz-adv-x="1175" 
d="M82 1311l20 20h971l21 -20v-131l-21 -21h-328l-61 -61v-281l61 -61h164l21 -21v-123l-21 -20h-164l-61 -62v-510l-20 -20h-152l-20 20v510l-62 62h-164l-20 20v123l20 21h164l62 61v281l-62 61h-328l-20 21v131z" />
    <glyph glyph-name="tbar" unicode="&#x167;" horiz-adv-x="710" 
d="M72 852l18 20l60 5l55 53l22 180l21 16l127 -8l20 -22l-8 -152l62 -63h133l20 -21v-125l-20 -20h-133l-62 -62v-47l62 -61h102l20 -21v-116l-20 -21h-102l-62 -61v-27q0 -76 33 -112.5t102 -36.5q32 0 62 6l24 -17l19 -121l-17 -24q-55 -14 -127 -14q-133 0 -206.5 78
t-73.5 221v47l-62 61h-28l-21 21v116l21 21h28l62 61v47l-62 62h-49l-20 20v117z" />
    <glyph glyph-name="Utilde" unicode="&#x168;" horiz-adv-x="1380" 
d="M174 1311l21 20h149l21 -20v-738q0 -205 84.5 -317.5t240.5 -112.5q155 0 240.5 113.5t85.5 316.5v738l20 20h150l20 -20v-738q0 -281 -139 -440.5t-377 -159.5q-245 0 -380.5 159.5t-135.5 440.5v738zM938 1778l90 -70l4 -27q-77 -125 -217 -125q-47 0 -84 13t-57 29
t-48.5 29t-60.5 13q-57 0 -94 -49l-29 -4l-90 70l-4 26q78 125 217 125q46 0 83 -13t57.5 -29t49 -29t60.5 -13q56 0 94 50z" />
    <glyph glyph-name="utilde" unicode="&#x169;" horiz-adv-x="1075" 
d="M143 860l21 21h143l21 -21v-483q0 -69 15 -117.5t41 -72.5t53 -34t59 -10q96 0 161 66t91 190v461l20 21h143l21 -21v-840l-21 -20h-114l-37 35l-78 6q-77 -61 -207 -61q-156 0 -244 100.5t-88 281.5v498zM217 1171l-4 25q78 123 213 123q38 0 71.5 -13t53.5 -28
t47.5 -28t54.5 -13q62 0 92 47l29 2l82 -67l4 -29q-75 -117 -203 -117q-50 0 -91 20.5t-75.5 41t-66.5 20.5q-59 0 -100 -47l-29 -2z" />
    <glyph glyph-name="Umacron" unicode="&#x16a;" horiz-adv-x="1380" 
d="M174 1311l21 20h149l21 -20v-738q0 -205 84.5 -317.5t240.5 -112.5q155 0 240.5 113.5t85.5 316.5v738l20 20h150l20 -20v-738q0 -281 -139 -440.5t-377 -159.5q-245 0 -380.5 159.5t-135.5 440.5v738zM344 1733l21 20h653l20 -20v-121l-20 -21h-653l-21 21v121z" />
    <glyph glyph-name="umacron" unicode="&#x16b;" horiz-adv-x="1075" 
d="M143 860l21 21h143l21 -21v-483q0 -69 15 -117.5t41 -72.5t53 -34t59 -10q96 0 161 66t91 190v461l20 21h143l21 -21v-840l-21 -20h-114l-37 35l-78 6q-77 -61 -207 -61q-156 0 -244 100.5t-88 281.5v498zM258 1247l21 21h516l20 -21v-119l-20 -20h-516l-21 20v119z" />
    <glyph glyph-name="Ubreve" unicode="&#x16c;" horiz-adv-x="1380" 
d="M174 1311l21 20h149l21 -20v-738q0 -205 84.5 -317.5t240.5 -112.5q155 0 240.5 113.5t85.5 316.5v738l20 20h150l20 -20v-738q0 -281 -139 -440.5t-377 -159.5q-245 0 -380.5 159.5t-135.5 440.5v738zM420 1841h123l20 -18q6 -61 40 -98t87 -37q54 0 87.5 37t39.5 98
l21 18h123l20 -22q-9 -123 -89 -202t-202 -79t-203.5 78t-87.5 203z" />
    <glyph glyph-name="ubreve" unicode="&#x16d;" horiz-adv-x="1075" 
d="M143 860l21 21h143l21 -21v-483q0 -69 15 -117.5t41 -72.5t53 -34t59 -10q96 0 161 66t91 190v461l20 21h143l21 -21v-840l-21 -20h-114l-37 35l-78 6q-77 -61 -207 -61q-156 0 -244 100.5t-88 281.5v498zM291 1327h115l20 -18q6 -52 35 -80.5t76 -28.5q48 0 76 29t34 80
l19 18h116l21 -22q-9 -113 -82.5 -182.5t-183.5 -69.5q-113 0 -187 70t-80 182z" />
    <glyph glyph-name="Uring" unicode="&#x16e;" horiz-adv-x="1380" 
d="M174 1311l21 20h149l21 -20v-738q0 -205 84.5 -317.5t240.5 -112.5q155 0 240.5 113.5t85.5 316.5v738l20 20h150l20 -20v-738q0 -281 -139 -440.5t-377 -159.5q-245 0 -380.5 159.5t-135.5 440.5v738zM690 1939q103 0 171.5 -67t68.5 -162t-68.5 -162t-171.5 -67
q-102 0 -170.5 67t-68.5 162t68.5 162t170.5 67zM690 1804q-40 0 -67 -26.5t-27 -67.5t27 -67.5t67 -26.5t67 26.5t27 67.5t-27 67.5t-67 26.5z" />
    <glyph glyph-name="uring" unicode="&#x16f;" horiz-adv-x="1075" 
d="M143 860l21 21h143l21 -21v-483q0 -69 15 -117.5t41 -72.5t53 -34t59 -10q96 0 161 66t91 190v461l20 21h143l21 -21v-840l-21 -20h-114l-37 35l-78 6q-77 -61 -207 -61q-156 0 -244 100.5t-88 281.5v498zM537 1464q96 0 158.5 -61t62.5 -150t-62.5 -150t-158.5 -61
t-159 61t-63 150t63 150t159 61zM537 1337q-37 0 -60.5 -23t-23.5 -61t23.5 -61t60.5 -23t60.5 23t23.5 61t-23.5 61t-60.5 23z" />
    <glyph glyph-name="Uhungarumlaut" unicode="&#x170;" horiz-adv-x="1380" 
d="M174 1311l21 20h149l21 -20v-738q0 -205 84.5 -317.5t240.5 -112.5q155 0 240.5 113.5t85.5 316.5v738l20 20h150l20 -20v-738q0 -281 -139 -440.5t-377 -159.5q-245 0 -380.5 159.5t-135.5 440.5v738zM575 1925l27 12l127 -49l12 -24l111 -52l37 78l26 11l121 -66l8 -29
l-141 -241l-18 -11h-117l-18 33l-97 37l-22 -57l-19 -13h-123l-18 27z" />
    <glyph glyph-name="uhungarumlaut" unicode="&#x171;" horiz-adv-x="1075" 
d="M143 860l21 21h143l21 -21v-483q0 -69 15 -117.5t41 -72.5t53 -34t59 -10q96 0 161 66t91 190v461l20 21h143l21 -21v-840l-21 -20h-114l-37 35l-78 6q-77 -61 -207 -61q-156 0 -244 100.5t-88 281.5v498zM449 1430l28 10l121 -58l8 -30l90 -49l52 96l28 8l113 -70l6 -28
l-145 -215l-17 -9h-117l-18 31l-90 45l-33 -65l-18 -11h-117l-18 29z" />
    <glyph glyph-name="Uogonek" unicode="&#x172;" horiz-adv-x="1380" 
d="M174 1311l21 20h149l21 -20v-738q0 -205 84.5 -317.5t240.5 -112.5q155 0 240.5 113.5t85.5 316.5v738l20 20h150l20 -20v-738q0 -235 -100.5 -388.5t-282.5 -196.5q-40 -9 -63 -37.5t-23 -69.5q0 -130 140 -155l16 -25l-29 -119l-22 -16q-126 17 -199.5 94.5
t-73.5 194.5q0 33 9 63l-43 76q-172 46 -266.5 196.5t-94.5 382.5v738z" />
    <glyph glyph-name="uogonek" unicode="&#x173;" horiz-adv-x="1075" 
d="M143 860l21 21h143l21 -21v-483q0 -114 42.5 -174t125.5 -60q97 0 161.5 65.5t90.5 190.5v461l20 21h143l21 -21v-846l-12 -18q-76 -31 -76 -117q0 -99 112 -123l17 -22l-21 -96l-22 -17q-113 15 -173.5 78t-60.5 162q0 49 21 96l-53 72q-81 -49 -189 -49
q-156 0 -244 100.5t-88 281.5v498z" />
    <glyph glyph-name="Wcircumflex" unicode="&#x174;" horiz-adv-x="1830" 
d="M88 1305l21 26h172l20 -16l203 -873h119l208 789l21 14h133l21 -16l206 -787h119l205 873l20 16h166l21 -26l-350 -1295l-21 -14h-205l-20 14l-172 668h-119l-166 -666l-20 -16h-213l-21 14zM887 1855l12 5h33l14 -5l260 -208l8 -21l-6 -20l-75 -80l-27 -4l-154 116h-73
l-154 -114l-27 2l-73 82l-7 20l9 19z" />
    <glyph glyph-name="wcircumflex" unicode="&#x175;" horiz-adv-x="1421" 
d="M90 854l19 27h159l21 -17l110 -446h119l107 411l20 17h137l21 -15l108 -413h121l105 446l20 17h156l18 -27l-248 -846l-20 -14h-182l-21 14l-88 332h-119l-84 -332l-20 -14h-182l-19 14zM881 1055l-133 98h-74l-131 -98l-29 2l-67 80l-5 22l9 17l235 198l15 4h28l15 -4
l229 -198l8 -17l-4 -20l-68 -82z" />
    <glyph glyph-name="Ycircumflex" unicode="&#x176;" horiz-adv-x="1323" 
d="M98 1300l19 31h186l19 -12l286 -592h111l293 592l18 12h176l19 -31l-459 -851l-8 -31v-398l-21 -20h-151l-21 20v398l-8 31zM633 1855l12 5h33l14 -5l260 -208l9 -21l-7 -20l-75 -80l-27 -4l-154 116h-73l-154 -114l-27 2l-73 82l-6 20l8 19z" />
    <glyph glyph-name="ycircumflex" unicode="&#x177;" horiz-adv-x="1077" 
d="M113 881h174l18 -15l197 -530h114l168 530l19 15h166l18 -27l-362 -989q-60 -162 -131 -229.5t-181 -67.5q-84 0 -151 31l-10 24l34 117l25 14q46 -12 94 -12q55 0 88.5 36t59.5 116l14 45v41l-373 872zM721 1055l-133 98h-74l-131 -98l-29 2l-67 80l-4 22l8 17l235 198
l15 4h28l15 -4l229 -198l8 -17l-4 -20l-67 -82z" />
    <glyph glyph-name="Ydieresis" unicode="&#x178;" horiz-adv-x="1323" 
d="M98 1300l19 31h186l19 -12l286 -592h111l293 592l18 12h176l19 -31l-459 -851l-8 -31v-398l-21 -20h-151l-21 20v398l-8 31zM422 1798q55 0 91 -35.5t36 -89.5t-36.5 -89.5t-90.5 -35.5q-55 0 -91 35.5t-36 89.5t36.5 89.5t90.5 35.5zM903 1798q55 0 91 -35.5t36 -89.5
t-36.5 -89.5t-90.5 -35.5q-55 0 -91 35.5t-36 89.5t36.5 89.5t90.5 35.5z" />
    <glyph glyph-name="Zacute" unicode="&#x179;" horiz-adv-x="1206" 
d="M154 1311l20 20h858l21 -20v-115l-4 -12l-615 -920l51 -94h568l20 -20v-130l-20 -20h-899l-21 20v107l10 25l615 915l-51 94h-533l-20 21v129zM707 1964l26 8l129 -61l8 -29l-174 -317l-18 -11h-131l-19 29z" />
    <glyph glyph-name="zacute" unicode="&#x17a;" horiz-adv-x="970" 
d="M147 860l21 21h653l21 -21v-112l-4 -15l-392 -471l48 -100h333l21 -21v-121l-21 -20h-684l-20 20v109l4 14l399 475l-47 101h-311l-21 20v121zM559 1444l31 8l119 -72l8 -28l-150 -256l-18 -11h-123l-19 29z" />
    <glyph glyph-name="Zdotaccent" unicode="&#x17b;" horiz-adv-x="1206" 
d="M154 1311l20 20h858l21 -20v-115l-4 -12l-615 -920l51 -94h568l20 -20v-130l-20 -20h-899l-21 20v107l10 25l615 915l-51 94h-533l-20 21v129zM598 1806q58 0 94.5 -37t36.5 -92t-37.5 -92t-93.5 -37q-58 0 -94.5 37t-36.5 92t37.5 92t93.5 37z" />
    <glyph glyph-name="zdotaccent" unicode="&#x17c;" horiz-adv-x="970" 
d="M147 860l21 21h653l21 -21v-112l-4 -15l-392 -471l48 -100h333l21 -21v-121l-21 -20h-684l-20 20v109l4 14l399 475l-47 101h-311l-21 20v121zM488 1339q52 0 87 -35.5t35 -91.5q0 -55 -35 -90t-87 -35t-87.5 35t-35.5 90q0 56 35.5 91.5t87.5 35.5z" />
    <glyph glyph-name="Zcaron" unicode="&#x17d;" horiz-adv-x="1206" 
d="M154 1311l20 20h858l21 -20v-115l-4 -12l-615 -920l51 -94h568l20 -20v-130l-20 -20h-899l-21 20v107l10 25l615 915l-51 94h-533l-20 21v129zM373 1845l26 2l154 -114h74l153 114l27 -2l74 -82l6 -20l-8 -19l-261 -208l-14 -5h-33l-12 5l-260 208l-8 21l6 20z" />
    <glyph glyph-name="zcaron" unicode="&#x17e;" horiz-adv-x="970" 
d="M147 860l21 21h653l21 -21v-112l-4 -15l-392 -471l48 -100h333l21 -21v-121l-21 -20h-684l-20 20v109l4 14l399 475l-47 101h-311l-21 20v121zM520 1057l-14 -4h-29l-14 4l-234 198l-6 23l4 14l68 82l29 2l133 -100h73l132 100l28 -2l68 -80l4 -22l-8 -17z" />
    <glyph glyph-name="longs" unicode="&#x17f;" horiz-adv-x="501" 
d="M143 20v967q0 164 93.5 259t250.5 95q49 0 97 -10l14 -24l-18 -121l-25 -19q-40 7 -59 7q-83 0 -125.5 -46.5t-42.5 -136.5v-971l-21 -20h-143z" />
    <glyph glyph-name="AEacute" unicode="&#x1fc;" horiz-adv-x="2027" 
d="M848 1321l-758 -1290l16 -31h179l18 10l150 271l55 30h438l62 -61v-230l20 -20h836l20 20v127l-20 21h-611l-61 61v308l61 61h500l21 20v127l-21 21h-500l-61 61v275l61 61h574l20 21v127l-20 20h-961zM893 1057l115 -29v-493l-62 -62h-278l-54 92zM1266 1964l26 8
l129 -61l9 -29l-175 -317l-18 -11h-131l-19 29z" />
    <glyph glyph-name="aeacute" unicode="&#x1fd;" horiz-adv-x="1562" 
d="M162 784l8 27q156 90 324 90q160 0 249 -92h84q103 92 244 92q174 0 276.5 -113t102.5 -299q0 -36 -8 -102l-21 -16h-501l-56 -86q28 -66 86.5 -104t132.5 -38q75 0 131.5 19t116.5 61l29 -4l67 -98l-4 -29q-76 -60 -153.5 -86t-177.5 -26q-184 0 -297 102h-86
q-102 -102 -277 -102q-148 0 -233.5 79t-85.5 215q0 134 100 207.5t258 73.5q65 0 123 -12l72 73q-27 121 -168 121q-131 0 -250 -73l-29 8zM670 313l-45 68q-71 18 -148 18q-178 0 -178 -127q0 -65 40.5 -100t109.5 -35q85 0 148 49.5t73 126.5zM924 528h278l58 80
q-15 55 -64 93t-125 38q-67 0 -119.5 -31.5t-83.5 -89.5zM879 1444l31 8l119 -72l8 -28l-150 -256l-18 -11h-123l-19 29z" />
    <glyph glyph-name="Oslashacute" unicode="&#x1fe;" horiz-adv-x="1409" 
d="M1075 1452l27 8l121 -74l8 -28l-86 -137l6 -72q76 -93 116 -218.5t40 -264.5q0 -146 -46.5 -274.5t-126 -220.5t-191.5 -145t-238 -53q-123 0 -230 43l-76 -24l-59 -96l-29 -7l-118 74l-9 29l76 121l-4 71q-154 193 -154 482q0 194 79 352.5t217 249t307 90.5
q121 0 225 -43l76 24zM965 922l-410 -674l35 -90q60 -17 115 -17q186 0 297.5 146.5t111.5 378.5q0 131 -39 243zM442 414l408 669l-35 91q-59 16 -110 16q-186 0 -298 -144.5t-112 -379.5q0 -133 37 -240zM846 1964l26 8l129 -61l9 -29l-174 -317l-19 -11h-131l-18 29z" />
    <glyph glyph-name="oslashacute" unicode="&#x1ff;" horiz-adv-x="1085" 
d="M780 989l27 6l111 -63l8 -29l-52 -82l5 -71q104 -120 104 -310q0 -195 -125 -327.5t-315 -132.5q-68 0 -125 14l-68 -27l-41 -67l-28 -6l-111 65l-8 29l45 71l-4 72q-48 54 -74.5 135t-26.5 174q0 127 53 231.5t154.5 167t233.5 62.5q61 0 123 -16l67 28zM684 512
l-168 -276l59 -93q102 10 164 92t62 205q0 21 -4 49zM399 373l168 270l-59 94q-101 -13 -162 -95t-61 -202q0 -29 2 -41zM618 1444l31 8l119 -72l8 -28l-149 -256l-19 -11h-123l-18 29z" />
    <glyph glyph-name="Adblgrave" unicode="&#x200;" horiz-adv-x="1404" 
d="M594 1325l20 12h193l18 -14l488 -1296l-19 -27h-168l-18 14l-96 277l-58 41h-501l-58 -41l-98 -277l-18 -14h-166l-21 29zM647 1001l-149 -419l57 -82h297l57 82l-145 419h-117zM772 1937l27 -12l104 -344l-18 -27h-123l-19 13l-22 57l-96 -37l-19 -33h-117l-18 11
l-141 241l8 29l121 66l26 -11l37 -78l111 52l12 24z" />
    <glyph glyph-name="adblgrave" unicode="&#x201;" horiz-adv-x="1054" 
d="M219 672l-57 114l8 27q158 88 336 88t270 -88.5t92 -259.5v-350l99 -70l14 -115l-12 -20q-38 -14 -86 -14q-90 0 -127 61l-90 10q-84 -75 -236 -75q-144 0 -230.5 78.5t-86.5 209.5q0 130 98.5 208.5t269.5 78.5q71 0 133 -12l72 71q-24 123 -182 123q-132 0 -256 -73z
M487 399q-188 0 -188 -127q0 -135 162 -135q88 0 153.5 49t75.5 125l-47 70q-73 18 -156 18zM578 1440l28 -10l127 -316l-18 -29h-117l-18 11l-33 65l-90 -45l-19 -31h-116l-17 9l-145 215l6 28l113 70l28 -8l51 -96l91 49l8 30z" />
    <glyph glyph-name="Acircum" unicode="&#x202;" horiz-adv-x="1404" 
d="M594 1325l20 12h193l18 -14l488 -1296l-19 -27h-168l-18 14l-96 277l-58 41h-501l-58 -41l-98 -277l-18 -14h-166l-21 29zM647 1001l-149 -419l57 -82h297l57 82l-145 419h-117zM678 1855l12 5h33l14 -5l260 -208l9 -21l-7 -20l-75 -80l-27 -4l-154 116h-73l-154 -114
l-27 2l-73 82l-6 20l8 19z" />
    <glyph glyph-name="acircum" unicode="&#x203;" horiz-adv-x="1054" 
d="M219 672l-57 114l8 27q158 88 336 88t270 -88.5t92 -259.5v-350l99 -70l14 -115l-12 -20q-38 -14 -86 -14q-90 0 -127 61l-90 10q-84 -75 -236 -75q-144 0 -230.5 78.5t-86.5 209.5q0 130 98.5 208.5t269.5 78.5q71 0 133 -12l72 71q-24 123 -182 123q-132 0 -256 -73z
M487 399q-188 0 -188 -127q0 -135 162 -135q88 0 153.5 49t75.5 125l-47 70q-73 18 -156 18zM680 1055l-133 98h-74l-131 -98l-29 2l-67 80l-5 22l9 17l235 198l15 4h28l15 -4l229 -198l8 -17l-4 -20l-68 -82z" />
    <glyph glyph-name="Edblgrave" unicode="&#x204;" horiz-adv-x="1212" 
d="M184 1311l21 20h817l20 -20v-127l-20 -21h-584l-61 -61v-275l61 -61h510l21 -21v-127l-21 -20h-510l-61 -61v-308l61 -61h621l20 -21v-127l-20 -20h-854l-21 20v1291zM713 1937l26 -12l105 -344l-19 -27h-123l-18 13l-22 57l-97 -37l-18 -33h-117l-18 11l-142 241l9 29
l120 66l27 -11l37 -78l110 52l13 24z" />
    <glyph glyph-name="edblgrave" unicode="&#x205;" horiz-adv-x="1028" 
d="M887 371h-520l-56 -88q31 -66 93.5 -103t144.5 -37q136 0 248 82l28 -6l68 -98l-4 -29q-76 -59 -157 -85.5t-185 -26.5q-207 0 -326 122.5t-119 333.5q0 201 118 333t312 132q174 0 278.5 -113t104.5 -296q0 -51 -8 -105zM369 528h297l59 82q-24 61 -75 95t-122 34
q-73 0 -130 -33t-85 -88zM602 1440l29 -10l127 -316l-19 -29h-116l-19 11l-33 65l-90 -45l-18 -31h-117l-16 9l-146 215l6 28l113 70l29 -8l51 -96l90 49l8 30z" />
    <glyph glyph-name="Ecircum" unicode="&#x206;" horiz-adv-x="1212" 
d="M184 1311l21 20h817l20 -20v-127l-20 -21h-584l-61 -61v-275l61 -61h510l21 -21v-127l-21 -20h-510l-61 -61v-308l61 -61h621l20 -21v-127l-20 -20h-854l-21 20v1291zM602 1855l12 5h33l15 -5l260 -208l8 -21l-6 -20l-76 -80l-27 -4l-153 116h-74l-154 -114l-26 2l-74 82
l-6 20l8 19z" />
    <glyph glyph-name="ecircum" unicode="&#x207;" horiz-adv-x="1028" 
d="M887 371h-520l-56 -88q31 -66 93.5 -103t144.5 -37q136 0 248 82l28 -6l68 -98l-4 -29q-76 -59 -157 -85.5t-185 -26.5q-207 0 -326 122.5t-119 333.5q0 201 118 333t312 132q174 0 278.5 -113t104.5 -296q0 -51 -8 -105zM369 528h297l59 82q-24 61 -75 95t-122 34
q-73 0 -130 -33t-85 -88zM705 1055l-133 98h-74l-131 -98l-29 2l-67 80l-5 22l9 17l235 198l15 4h28l15 -4l229 -198l8 -17l-4 -20l-68 -82z" />
    <glyph glyph-name="Idblgrave" unicode="&#x208;" horiz-adv-x="561" 
d="M184 1311l21 20h151l21 -20v-1291l-21 -20h-151l-21 20v1291zM365 1937l26 -12l105 -344l-19 -27h-123l-18 13l-23 57l-96 -37l-18 -33h-117l-19 11l-141 241l8 29l121 66l27 -11l37 -78l110 52l13 24z" />
    <glyph glyph-name="idblgrave" unicode="&#x209;" horiz-adv-x="471" 
d="M143 860l21 21h143l21 -21v-840l-21 -20h-143l-21 20v840zM289 1440l28 -10l127 -316l-18 -29h-117l-18 11l-33 65l-90 -45l-18 -31h-117l-17 9l-145 215l6 28l113 70l28 -8l52 -96l90 49l8 30z" />
    <glyph glyph-name="Icircum" unicode="&#x20a;" horiz-adv-x="561" 
d="M184 1311l21 20h151l21 -20v-1291l-21 -20h-151l-21 20v1291zM252 1855l12 5h33l14 -5l260 -208l9 -21l-7 -20l-75 -80l-27 -4l-154 116h-73l-154 -114l-27 2l-73 82l-6 20l8 19z" />
    <glyph glyph-name="icircum" unicode="&#x20b;" horiz-adv-x="471" 
d="M143 860l21 21h143l21 -21v-840l-21 -20h-143l-21 20v840zM406 1055l-133 98h-74l-131 -98l-29 2l-67 80l-5 22l9 17l235 198l15 4h28l15 -4l229 -198l8 -17l-4 -20l-68 -82z" />
    <glyph glyph-name="Odblgrave" unicode="&#x20c;" horiz-adv-x="1409" 
d="M705 1358q177 0 315 -89.5t212.5 -247t74.5 -355.5q0 -195 -77.5 -353.5t-215.5 -249t-309 -90.5q-177 0 -315 90t-213 247.5t-75 355.5q0 195 77.5 353.5t216 248.5t309.5 90zM705 1190q-188 0 -299 -145.5t-111 -378.5q0 -232 111 -378.5t299 -146.5t298.5 145.5
t110.5 379.5q0 232 -110.5 378t-298.5 146zM803 1937l26 -12l105 -344l-19 -27h-122l-19 13l-22 57l-97 -37l-18 -33h-117l-18 11l-142 241l9 29l120 66l27 -11l37 -78l111 52l12 24z" />
    <glyph glyph-name="odblgrave" unicode="&#x20d;" horiz-adv-x="1085" 
d="M543 901q197 0 318.5 -128.5t121.5 -332.5q0 -197 -124.5 -328.5t-315.5 -131.5q-197 0 -319 128.5t-122 331.5q0 200 123 330.5t318 130.5zM543 739q-118 0 -188 -84.5t-70 -214.5q0 -132 70.5 -215.5t187.5 -83.5q118 0 188 83t70 216q0 130 -70.5 214.5t-187.5 84.5z
M600 1440l29 -10l127 -316l-19 -29h-116l-19 11l-33 65l-90 -45l-18 -31h-117l-16 9l-146 215l6 28l113 70l29 -8l51 -96l90 49l8 30z" />
    <glyph glyph-name="Ocircum" unicode="&#x20e;" horiz-adv-x="1409" 
d="M705 1358q177 0 315 -89.5t212.5 -247t74.5 -355.5q0 -195 -77.5 -353.5t-215.5 -249t-309 -90.5q-177 0 -315 90t-213 247.5t-75 355.5q0 195 77.5 353.5t216 248.5t309.5 90zM705 1190q-188 0 -299 -145.5t-111 -378.5q0 -232 111 -378.5t299 -146.5t298.5 145.5
t110.5 379.5q0 232 -110.5 378t-298.5 146zM676 1855l12 5h33l14 -5l260 -208l9 -21l-7 -20l-75 -80l-27 -4l-154 116h-73l-154 -114l-27 2l-73 82l-6 20l8 19z" />
    <glyph glyph-name="ocircum" unicode="&#x20f;" horiz-adv-x="1085" 
d="M543 901q197 0 318.5 -128.5t121.5 -332.5q0 -197 -124.5 -328.5t-315.5 -131.5q-197 0 -319 128.5t-122 331.5q0 200 123 330.5t318 130.5zM543 739q-118 0 -188 -84.5t-70 -214.5q0 -132 70.5 -215.5t187.5 -83.5q118 0 188 83t70 216q0 130 -70.5 214.5t-187.5 84.5z
M713 1055l-133 98h-74l-131 -98l-29 2l-67 80l-5 22l9 17l235 198l15 4h28l15 -4l229 -198l8 -17l-4 -20l-68 -82z" />
    <glyph glyph-name="Rdblgrave" unicode="&#x210;" horiz-adv-x="1288" 
d="M184 1311l21 20h442q218 0 354 -122t136 -316q0 -118 -57.5 -212.5t-166.5 -156.5l-20 -90l291 -401l-19 -33h-182l-16 8l-285 418l-51 27h-193l-61 -62v-371l-21 -20h-151l-21 20v1291zM377 1100v-416l61 -61h199q141 0 224 73t83 199q0 130 -81 198t-234 68h-191z
M711 1937l26 -12l105 -344l-19 -27h-123l-18 13l-23 57l-96 -37l-18 -33h-117l-18 11l-142 241l8 29l121 66l27 -11l37 -78l110 52l13 24z" />
    <glyph glyph-name="rdblgrave" unicode="&#x211;" horiz-adv-x="727" 
d="M143 860l21 21h119l36 -35l78 -4q73 55 189 55q19 0 51 -4l18 -21l-8 -133l-22 -20q-28 4 -54 4q-88 0 -153 -63t-90 -166v-474l-21 -20h-143l-21 20v840zM449 1440l28 -10l127 -316l-18 -29h-117l-18 11l-33 65l-90 -45l-19 -31h-116l-17 9l-145 215l6 28l113 70l28 -8
l51 -96l90 49l9 30z" />
    <glyph glyph-name="Rcircum" unicode="&#x212;" horiz-adv-x="1288" 
d="M184 1311l21 20h442q218 0 354 -122t136 -316q0 -118 -57.5 -212.5t-166.5 -156.5l-20 -90l291 -401l-19 -33h-182l-16 8l-285 418l-51 27h-193l-61 -62v-371l-21 -20h-151l-21 20v1291zM377 1100v-416l61 -61h199q141 0 224 73t83 199q0 130 -81 198t-234 68h-191z
M623 1855l12 5h33l14 -5l260 -208l8 -21l-6 -20l-76 -80l-26 -4l-154 116h-74l-153 -114l-27 2l-74 82l-6 20l8 19z" />
    <glyph glyph-name="rcircum" unicode="&#x213;" horiz-adv-x="727" 
d="M143 860l21 21h119l36 -35l78 -4q73 55 189 55q19 0 51 -4l18 -21l-8 -133l-22 -20q-28 4 -54 4q-88 0 -153 -63t-90 -166v-474l-21 -20h-143l-21 20v840zM578 1055l-133 98h-74l-131 -98l-29 2l-67 80l-5 22l9 17l235 198l15 4h28l15 -4l229 -198l8 -17l-4 -20l-68 -82z
" />
    <glyph glyph-name="Udblgrave" unicode="&#x214;" horiz-adv-x="1380" 
d="M174 1311l21 20h149l21 -20v-738q0 -205 84.5 -317.5t240.5 -112.5q155 0 240.5 113.5t85.5 316.5v738l20 20h150l20 -20v-738q0 -281 -139 -440.5t-377 -159.5q-245 0 -380.5 159.5t-135.5 440.5v738zM784 1937l27 -12l104 -344l-18 -27h-123l-18 13l-23 57l-96 -37
l-19 -33h-116l-19 11l-141 241l8 29l121 66l27 -11l37 -78l110 52l12 24z" />
    <glyph glyph-name="udblgrave" unicode="&#x215;" horiz-adv-x="1075" 
d="M143 860l21 21h143l21 -21v-483q0 -69 15 -117.5t41 -72.5t53 -34t59 -10q96 0 161 66t91 190v461l20 21h143l21 -21v-840l-21 -20h-114l-37 35l-78 6q-77 -61 -207 -61q-156 0 -244 100.5t-88 281.5v498zM592 1440l29 -10l127 -316l-19 -29h-117l-18 11l-33 65l-90 -45
l-18 -31h-117l-17 9l-145 215l6 28l113 70l29 -8l51 -96l90 49l8 30z" />
    <glyph glyph-name="Ucircum" unicode="&#x216;" horiz-adv-x="1380" 
d="M174 1311l21 20h149l21 -20v-738q0 -205 84.5 -317.5t240.5 -112.5q155 0 240.5 113.5t85.5 316.5v738l20 20h150l20 -20v-738q0 -281 -139 -440.5t-377 -159.5q-245 0 -380.5 159.5t-135.5 440.5v738zM662 1855l12 5h33l14 -5l260 -208l8 -21l-6 -20l-76 -80l-26 -4
l-154 116h-74l-153 -114l-27 2l-74 82l-6 20l8 19z" />
    <glyph glyph-name="ucircum" unicode="&#x217;" horiz-adv-x="1075" 
d="M143 860l21 21h143l21 -21v-483q0 -69 15 -117.5t41 -72.5t53 -34t59 -10q96 0 161 66t91 190v461l20 21h143l21 -21v-840l-21 -20h-114l-37 35l-78 6q-77 -61 -207 -61q-156 0 -244 100.5t-88 281.5v498zM707 1055l-133 98h-74l-131 -98l-29 2l-67 80l-5 22l9 17
l235 198l15 4h28l15 -4l229 -198l8 -17l-4 -20l-68 -82z" />
    <glyph glyph-name="Scommaaccent" unicode="&#x218;" horiz-adv-x="1255" 
d="M1083 1196l-82 -117l-28 -6q-154 117 -342 117q-135 0 -203 -53t-68 -150q0 -103 68 -151.5t223 -63.5q231 -23 356.5 -124.5t125.5 -268.5q0 -184 -142 -295t-373 -111q-281 0 -479 144l-6 28l80 121l29 6q183 -131 383 -131q150 0 234.5 62t84.5 172q0 100 -77.5 153
t-243.5 68q-451 41 -451 379q0 176 126.5 279.5t336.5 103.5q265 0 444 -135zM524 -526l31 108l-18 62q-37 34 -37 90q0 51 34.5 86t86.5 35q54 0 89 -34.5t35 -88.5q0 -46 -18 -90l-82 -207l-24 -13l-84 27z" />
    <glyph glyph-name="scommaaccent" unicode="&#x219;" horiz-adv-x="950" 
d="M811 791l-61 -109l-29 -8q-113 67 -236 67q-172 0 -172 -100q0 -52 44.5 -79.5t140.5 -35.5q181 -15 265.5 -80.5t84.5 -189.5q0 -132 -101.5 -204t-283.5 -72q-203 0 -344 96l-8 26l61 109l29 6q125 -78 264 -78q106 0 155.5 27.5t49.5 85.5q0 56 -44.5 82.5
t-156.5 32.5q-165 9 -250.5 76.5t-85.5 191.5q0 120 97 193t257 73q181 0 318 -84zM489 -518l-26 -12l-80 24l-14 27l34 102l-16 64q-35 30 -35 86q0 47 32 79.5t81 32.5q53 0 85 -32t32 -82q0 -41 -19 -90z" />
    <glyph glyph-name="Tcedilla" unicode="&#x21a;" horiz-adv-x="1175" 
d="M82 1311l20 20h971l21 -20v-131l-21 -21h-328l-61 -61v-1073l27 -52q84 -58 84 -186t-95 -214t-262 -116l-24 15l-25 112l17 25q217 40 217 166q0 106 -121 106h-17l-20 21v8l27 90v1098l-62 61h-328l-20 21v131z" />
    <glyph glyph-name="tcedilla" unicode="&#x21b;" horiz-adv-x="710" 
d="M72 852l18 20l60 5l55 53l22 180l21 16l127 -8l20 -22l-8 -152l62 -63h133l20 -21v-125l-20 -20h-133l-62 -62v-354q0 -76 33 -112.5t102 -36.5q32 0 62 6l24 -17l19 -121l-17 -22q-20 -7 -49 -10l-18 -105q59 -53 59 -149q0 -99 -72.5 -175t-203.5 -116l-25 12l-37 105
l15 26q75 22 115 58.5t40 83.5q0 16 -2 22l-53 47h-39l-21 21v8l21 78v73l-27 52q-110 67 -110 252v374l-62 62h-49l-20 20v117z" />
    <glyph glyph-name="dotlessj" unicode="&#x237;" horiz-adv-x="471" 
d="M143 860l21 21h143l21 -21v-958q0 -163 -90 -258t-242 -95q-41 0 -90 11l-17 22l19 125l24 17q40 -5 50 -5q77 0 119 47.5t42 135.5v958z" />
    <glyph glyph-name="circumflex" unicode="&#x2c6;" horiz-adv-x="579" 
d="M459 1055l-133 98h-74l-131 -98l-29 2l-67 80l-5 22l9 17l235 198l15 4h28l15 -4l229 -198l8 -17l-4 -20l-68 -82z" />
    <glyph glyph-name="caron" unicode="&#x2c7;" horiz-adv-x="579" 
d="M317 1057l-14 -4h-29l-14 4l-233 198l-7 23l5 14l67 82l29 2l133 -100h74l131 100l28 -2l68 -80l4 -22l-8 -17z" />
    <glyph glyph-name="breve" unicode="&#x2d8;" horiz-adv-x="696" 
d="M102 1327h115l21 -18q6 -53 34.5 -81t75.5 -28q48 0 76.5 29t34.5 80l18 18h117l20 -22q-9 -113 -82.5 -182.5t-183.5 -69.5q-113 0 -186.5 70t-79.5 182z" />
    <glyph glyph-name="dotaccent" unicode="&#x2d9;" horiz-adv-x="471" 
d="M236 1339q52 0 87 -35.5t35 -91.5q0 -55 -35 -90t-87 -35t-87.5 35t-35.5 90q0 56 35.5 91.5t87.5 35.5z" />
    <glyph glyph-name="ring" unicode="&#x2da;" horiz-adv-x="565" 
d="M283 1464q96 0 158.5 -61t62.5 -150t-62.5 -150t-158.5 -61t-159 61t-63 150t63 150t159 61zM283 1337q-37 0 -60.5 -23t-23.5 -61t23.5 -61t60.5 -23t60.5 23t23.5 61t-23.5 61t-60.5 23z" />
    <glyph glyph-name="ogonek" unicode="&#x2db;" horiz-adv-x="464" 
d="M358 -362l-22 -17q-113 15 -173.5 78t-60.5 162q0 119 101 176l16 2l72 -25l6 -34q-47 -35 -47 -101q0 -99 112 -123l17 -22z" />
    <glyph glyph-name="tilde" unicode="&#x2dc;" horiz-adv-x="768" 
d="M63 1171l-4 25q78 123 213 123q48 0 87.5 -20.5t73.5 -41t67 -20.5q62 0 92 47l29 2l81 -67l5 -29q-75 -117 -203 -117q-39 0 -74.5 13t-56.5 28t-49 28t-54 13q-59 0 -100 -47l-29 -2z" />
    <glyph glyph-name="hungarumlaut" unicode="&#x2dd;" horiz-adv-x="600" 
d="M205 1430l28 10l121 -58l8 -30l91 -49l51 96l28 8l113 -70l6 -28l-145 -215l-17 -9h-116l-19 31l-90 45l-33 -65l-18 -11h-117l-18 29z" />
    <glyph glyph-name="afii10023" unicode="&#x401;" horiz-adv-x="1212" 
d="M184 1311l21 20h817l20 -20v-127l-20 -21h-584l-61 -61v-275l61 -61h510l21 -21v-127l-21 -20h-510l-61 -61v-308l61 -61h621l20 -21v-127l-20 -20h-854l-21 20v1291zM391 1798q55 0 91 -35.5t36 -89.5t-36.5 -89.5t-90.5 -35.5q-55 0 -91 35.5t-36 89.5t36.5 89.5
t90.5 35.5zM872 1798q55 0 91 -35.5t36 -89.5t-36.5 -89.5t-90.5 -35.5q-55 0 -91 35.5t-36 89.5t36.5 89.5t90.5 35.5z" />
    <glyph glyph-name="afii10051" unicode="&#x402;" horiz-adv-x="1564" 
d="M82 1311l20 20h951l20 -20v-131l-20 -21h-348l-62 -61v-209l94 -51q94 63 236 63q194 0 311 -124.5t117 -323.5v-254q0 -233 -110 -365.5t-310 -132.5q-82 0 -154 16l-14 23l29 133l24 14q53 -12 109 -12q112 0 173.5 86t61.5 238v254q0 130 -68 203t-188 73
q-100 0 -180.5 -58.5t-126.5 -162.5l-4 -25v-463l-20 -20h-152l-20 20v1078l-62 61h-287l-20 21v131z" />
    <glyph glyph-name="afii10052" unicode="&#x403;" horiz-adv-x="1157" 
d="M184 1311l21 20h809l20 -20v-129l-20 -21h-576l-61 -61v-1080l-21 -20h-151l-21 20v1291zM727 1964l27 8l129 -61l8 -29l-174 -317l-19 -11h-131l-18 29z" />
    <glyph glyph-name="afii10053" unicode="&#x404;" horiz-adv-x="1323" 
d="M1151 1176l-96 -111l-29 -2q-138 123 -313 123q-146 0 -251.5 -91t-146.5 -251l60 -76h471l20 -20v-130l-20 -20h-479l-60 -72q31 -175 139.5 -278t268.5 -103q190 0 342 146l28 -2l93 -105l-2 -28q-189 -183 -471 -183q-180 0 -317.5 87t-211.5 244.5t-74 361.5
q0 144 45.5 271t126 220t197.5 147t254 54q248 0 424 -154z" />
    <glyph glyph-name="afii10054" unicode="&#x405;" horiz-adv-x="1255" 
d="M1083 1196l-82 -117l-28 -6q-154 117 -342 117q-135 0 -203 -53t-68 -150q0 -103 68 -151.5t223 -63.5q231 -23 356.5 -124.5t125.5 -268.5q0 -184 -142 -295t-373 -111q-281 0 -479 144l-6 28l80 121l29 6q183 -131 383 -131q150 0 234.5 62t84.5 172q0 100 -77.5 153
t-243.5 68q-451 41 -451 379q0 176 126.5 279.5t336.5 103.5q265 0 444 -135z" />
    <glyph glyph-name="afii10055" unicode="&#x406;" horiz-adv-x="561" 
d="M184 1311l21 20h151l21 -20v-1291l-21 -20h-151l-21 20v1291z" />
    <glyph glyph-name="afii10056" unicode="&#x407;" horiz-adv-x="561" 
d="M184 1311l21 20h151l21 -20v-1291l-21 -20h-151l-21 20v1291zM86 1798q55 0 91 -35.5t36 -89.5t-36.5 -89.5t-90.5 -35.5q-55 0 -91 35.5t-36 89.5t36.5 89.5t90.5 35.5zM475 1798q55 0 91 -35.5t36 -89.5t-36.5 -89.5t-90.5 -35.5q-55 0 -91 35.5t-36 89.5t36.5 89.5
t90.5 35.5z" />
    <glyph glyph-name="afii10057" unicode="&#x408;" horiz-adv-x="847" 
d="M483 1311l21 20h149l21 -20v-850q0 -231 -109.5 -359.5t-310.5 -128.5q-85 0 -154 17l-14 24l29 131l24 15q57 -13 109 -13q111 0 173 81t62 233v850z" />
    <glyph glyph-name="afii10058" unicode="&#x409;" horiz-adv-x="2084" 
d="M410 1311l20 20h789l20 -20v-350l61 -62h160q226 0 364 -123t138 -327q0 -191 -142 -320t-358 -129h-393l-20 20v1080l-62 61h-325l-62 -61v-66q0 -685 -137 -913q-84 -141 -268 -141q-80 0 -136 22l-12 23l33 131l26 14q27 -8 64 -8q84 0 129 63q57 79 84 285t27 612
v189zM1239 670v-441l61 -61h138q159 0 246.5 73.5t87.5 207.5q0 138 -87.5 210t-248.5 72h-136z" />
    <glyph glyph-name="afii10059" unicode="&#x40a;" horiz-adv-x="2013" 
d="M184 1311l21 20h151l21 -20v-496l61 -61h475l62 61v496l20 20h152l20 -20v-350l62 -62h160q227 0 364 -123t137 -327q0 -192 -140.5 -320.5t-358.5 -128.5h-396l-20 20v500l-62 62h-475l-61 -62v-500l-21 -20h-151l-21 20v1291zM1167 670v-441l62 -61h137
q161 0 247.5 73.5t86.5 207.5q0 138 -87 210t-249 72h-135z" />
    <glyph glyph-name="afii10060" unicode="&#x40b;" horiz-adv-x="1564" 
d="M82 1311l20 20h951l20 -20v-131l-20 -21h-348l-62 -61v-209l94 -51q97 63 236 63q194 0 311 -124.5t117 -323.5v-433l-21 -20h-149l-21 20v433q0 130 -68 203t-188 73q-104 0 -183.5 -60t-123.5 -165l-4 -25v-459l-20 -20h-152l-20 20v1078l-62 61h-287l-20 21v131z" />
    <glyph glyph-name="afii10061" unicode="&#x40c;" horiz-adv-x="1341" 
d="M184 1311l21 20h151l21 -20v-469l63 -62l95 6l45 25l352 512l16 8h195l16 -33l-399 -548v-74l475 -643l-16 -33h-193l-16 8l-410 578l-51 26h-111l-61 -61v-531l-21 -20h-151l-21 20v1291zM739 1964l27 8l129 -61l8 -29l-174 -317l-18 -11h-131l-19 29z" />
    <glyph glyph-name="afii10062" unicode="&#x40e;" horiz-adv-x="1302" 
d="M117 1303l18 28h182l21 -12l291 -664h112l256 664l21 12h172l18 -28l-458 -1072q-110 -258 -324 -258q-91 0 -168 25l-12 27l41 133l26 12q46 -18 105 -18q104 0 149 116l11 27v57zM395 1841h123l21 -18q6 -61 40 -98t87 -37q54 0 87.5 37t39.5 98l20 18h123l20 -22
q-9 -123 -89 -202t-201 -79q-122 0 -203.5 78t-87.5 203z" />
    <glyph glyph-name="afii10145" unicode="&#x40f;" horiz-adv-x="1390" 
d="M184 1311l21 20h151l21 -20v-1078l61 -61h514l62 61v1078l20 20h152l20 -20v-1291l-20 -20h-338l-62 -59l-8 -228l-20 -20h-125l-21 20l-8 228l-61 59h-338l-21 20v1291z" />
    <glyph glyph-name="afii10017" unicode="&#x410;" horiz-adv-x="1404" 
d="M594 1325l20 12h193l18 -14l488 -1296l-19 -27h-168l-18 14l-96 277l-58 41h-501l-58 -41l-98 -277l-18 -14h-166l-21 29zM647 1001l-149 -419l57 -82h297l57 82l-145 419h-117z" />
    <glyph glyph-name="afii10018" unicode="&#x411;" horiz-adv-x="1275" 
d="M184 1311l21 20h833l21 -20v-129l-21 -21h-600l-61 -61v-191l61 -61h217q235 0 366.5 -112.5t131.5 -309.5q0 -194 -136 -310t-358 -116h-454l-21 20v1291zM377 616v-385l61 -61h217q147 0 227.5 67.5t80.5 188.5t-79 186.5t-225 65.5h-221z" />
    <glyph glyph-name="afii10019" unicode="&#x412;" horiz-adv-x="1290" 
d="M184 1311l21 20h448q203 0 322 -96t119 -256q0 -127 -84 -217v-94q147 -95 147 -285q0 -175 -125.5 -279t-343.5 -104h-483l-21 20v1291zM377 539v-312l61 -61h254q133 0 203 56t70 161q0 106 -68.5 161.5t-204.5 55.5h-254zM377 1104v-279l61 -61h230q110 0 172.5 54
t62.5 151q0 196 -256 196h-209z" />
    <glyph glyph-name="afii10020" unicode="&#x413;" horiz-adv-x="1157" 
d="M184 1311l21 20h809l20 -20v-129l-20 -21h-576l-61 -61v-1080l-21 -20h-151l-21 20v1291z" />
    <glyph glyph-name="afii10021" unicode="&#x414;" horiz-adv-x="1511" 
d="M420 1311l20 20h787l20 -20v-1080l62 -61h90l20 -20v-66l-16 -371l-21 -20h-122l-21 20l-10 228l-62 59h-817l-61 -57l-13 -232l-20 -18h-129l-21 20l-14 365v72l21 20h32q82 0 140 106q65 120 100 369t35 545v121zM666 1161l-62 -61v-45q0 -251 -32 -458t-91 -341
l56 -86h456l62 61v869l-62 61h-327z" />
    <glyph glyph-name="afii10022" unicode="&#x415;" horiz-adv-x="1212" 
d="M184 1311l21 20h817l20 -20v-127l-20 -21h-584l-61 -61v-275l61 -61h510l21 -21v-127l-21 -20h-510l-61 -61v-308l61 -61h621l20 -21v-127l-20 -20h-854l-21 20v1291z" />
    <glyph glyph-name="afii10024" unicode="&#x416;" horiz-adv-x="1945" 
d="M182 1300l19 31h170l18 -10l293 -506l51 -31l82 -2l64 62v467l20 20h148l20 -20v-467l63 -62l84 2l52 31l297 506l18 10h176l19 -31l-344 -561v-65l411 -643l-16 -31h-174l-19 10l-352 576l-53 30h-101l-61 -61v-535l-20 -20h-148l-20 20v535l-62 61h-96l-53 -28
l-357 -578l-18 -10h-174l-17 31l412 645v65z" />
    <glyph glyph-name="afii10025" unicode="&#x417;" horiz-adv-x="1239" 
d="M406 750l20 20h225q95 0 150 55t55 150q0 108 -66.5 163.5t-191.5 55.5q-167 0 -303 -115l-29 2l-80 105l2 28q179 144 412 144q203 0 325 -103.5t122 -271.5q0 -133 -84 -223v-96q143 -94 143 -283q0 -183 -141.5 -295.5t-380.5 -112.5q-141 0 -252 40.5t-215 129.5
l-2 27l84 111l30 4q165 -146 369 -146q148 0 231.5 65.5t83.5 182.5q0 219 -254 219h-233l-20 21v123z" />
    <glyph glyph-name="afii10026" unicode="&#x418;" horiz-adv-x="1390" 
d="M184 1311l21 20h149l21 -20v-797l112 -35l539 842l16 10h144l20 -20v-1291l-20 -20h-150l-20 20v773l-113 34l-528 -817l-17 -10h-153l-21 20v1291z" />
    <glyph glyph-name="afii10027" unicode="&#x419;" horiz-adv-x="1390" 
d="M184 1311l21 20h149l21 -20v-797l112 -35l539 842l16 10h144l20 -20v-1291l-20 -20h-150l-20 20v773l-113 34l-528 -817l-17 -10h-153l-21 20v1291zM424 1841h123l20 -18q6 -61 40 -98t87 -37q54 0 87.5 37t39.5 98l21 18h123l20 -22q-9 -123 -89 -202t-202 -79
t-203.5 78t-87.5 203z" />
    <glyph glyph-name="afii10028" unicode="&#x41a;" horiz-adv-x="1341" 
d="M184 1311l21 20h151l21 -20v-469l63 -62l95 6l45 25l352 512l16 8h195l16 -33l-399 -548v-74l475 -643l-16 -33h-193l-16 8l-410 578l-51 26h-111l-61 -61v-531l-21 -20h-151l-21 20v1291z" />
    <glyph glyph-name="afii10029" unicode="&#x41b;" horiz-adv-x="1452" 
d="M410 1311l20 20h817l21 -20v-1291l-21 -20h-149l-21 20v1080l-61 61h-354l-62 -61v-66q0 -371 -36 -598.5t-118 -337.5q-85 -118 -241 -118q-90 0 -146 22l-12 23l33 131l26 14q27 -8 64 -8q78 0 123 53q63 72 90 279.5t27 627.5v189z" />
    <glyph glyph-name="afii10030" unicode="&#x41c;" horiz-adv-x="1570" 
d="M184 1311l21 20h186l19 -10l323 -578h107l325 578l19 10h182l20 -20v-1291l-20 -20h-145l-21 20v797l-115 31l-251 -438l-19 -11h-70l-18 11l-244 434l-114 -31v-793l-21 -20h-143l-21 20v1291z" />
    <glyph glyph-name="afii10031" unicode="&#x41d;" horiz-adv-x="1378" 
d="M205 1331h151l21 -20v-496l61 -61h502l61 61v496l21 20h152l20 -20v-1291l-20 -20h-152l-21 20v500l-61 62h-502l-61 -62v-500l-21 -20h-151l-21 20v1291z" />
    <glyph glyph-name="afii10032" unicode="&#x41e;" horiz-adv-x="1409" 
d="M705 1358q177 0 315 -89.5t212.5 -247t74.5 -355.5q0 -195 -77.5 -353.5t-215.5 -249t-309 -90.5q-177 0 -315 90t-213 247.5t-75 355.5q0 195 77.5 353.5t216 248.5t309.5 90zM705 1190q-188 0 -299 -145.5t-111 -378.5q0 -232 111 -378.5t299 -146.5t298.5 145.5
t110.5 379.5q0 232 -110.5 378t-298.5 146z" />
    <glyph glyph-name="afii10033" unicode="&#x41f;" horiz-adv-x="1376" 
d="M184 1311l21 20h966l21 -20v-1291l-21 -20h-151l-21 20v1078l-61 61h-500l-61 -61v-1078l-21 -20h-151l-21 20v1291z" />
    <glyph glyph-name="afii10034" unicode="&#x420;" horiz-adv-x="1247" 
d="M184 1311l21 20h450q221 0 355.5 -122t134.5 -328q0 -204 -141.5 -327.5t-370.5 -123.5h-195l-61 -61v-349l-21 -20h-151l-21 20v1291zM377 1100v-438l61 -62h193q157 0 239 72t82 209q0 280 -309 280h-205z" />
    <glyph glyph-name="afii10035" unicode="&#x421;" horiz-adv-x="1323" 
d="M1151 1176l-96 -111l-29 -2q-138 123 -313 123q-187 0 -302.5 -143.5t-115.5 -376.5q0 -229 113.5 -375t306.5 -146q190 0 342 146l28 -2l93 -105l-2 -28q-189 -183 -471 -183q-180 0 -317.5 87t-211.5 244.5t-74 361.5q0 192 77 349.5t220.5 250t325.5 92.5
q248 0 424 -154z" />
    <glyph glyph-name="afii10036" unicode="&#x422;" horiz-adv-x="1175" 
d="M82 1311l20 20h971l21 -20v-131l-21 -21h-328l-61 -61v-1078l-20 -20h-152l-20 20v1078l-62 61h-328l-20 21v131z" />
    <glyph glyph-name="afii10037" unicode="&#x423;" horiz-adv-x="1302" 
d="M117 1303l18 28h182l21 -12l291 -664h112l256 664l21 12h172l18 -28l-458 -1072q-110 -258 -324 -258q-91 0 -168 25l-12 27l41 133l26 12q46 -18 105 -18q104 0 149 116l11 27v57z" />
    <glyph glyph-name="afii10038" unicode="&#x424;" horiz-adv-x="1597" 
d="M705 1339l20 21h147l21 -21v-100l61 -61h41q225 0 362.5 -134.5t137.5 -357.5q0 -221 -141.5 -360.5t-358.5 -139.5h-41l-61 -61v-105l-21 -20h-147l-20 20v105l-62 61h-37q-227 0 -365.5 134t-138.5 358q0 218 142 359t362 141h37l62 61v100zM893 948v-532l61 -62h29
q153 0 239.5 88t86.5 244q0 151 -87 237.5t-239 86.5h-29zM705 416v532l-62 62h-25q-155 0 -242 -87.5t-87 -244.5q0 -154 87 -239t242 -85h25z" />
    <glyph glyph-name="afii10039" unicode="&#x425;" horiz-adv-x="1353" 
d="M162 1300l16 31h178l19 -10l252 -436h108l240 436l18 10h181l18 -31l-365 -591v-64l394 -614l-17 -31h-178l-18 10l-283 471h-107l-264 -471l-18 -10h-186l-17 31l391 626v66z" />
    <glyph glyph-name="afii10040" unicode="&#x426;" horiz-adv-x="1427" 
d="M184 1311l21 20h151l21 -20v-1080l61 -61h473l62 61v1080l20 20h152l20 -20v-1080l62 -61h88l20 -20v-64l-16 -375l-23 -18h-125l-20 20l-10 228l-62 59h-874l-21 20v1291z" />
    <glyph glyph-name="afii10041" unicode="&#x427;" horiz-adv-x="1308" 
d="M143 1311l21 20h151l21 -20v-363q0 -198 76 -290.5t235 -92.5q142 0 256 66l29 53v627l20 20h152l20 -20v-1291l-20 -20h-152l-20 20v351l-82 59q-104 -37 -229 -37q-235 0 -356.5 136.5t-121.5 408.5v373z" />
    <glyph glyph-name="afii10042" unicode="&#x428;" horiz-adv-x="1816" 
d="M184 1311l21 20h149l21 -20v-1080l61 -61h316l61 61v1080l21 20h149l21 -20v-1080l61 -61h315l62 61v1080l20 20h150l20 -20v-1291l-20 -20h-1407l-21 20v1291z" />
    <glyph glyph-name="afii10043" unicode="&#x429;" horiz-adv-x="1894" 
d="M184 1311l21 20h149l21 -20v-1080l61 -61h316l61 61v1080l21 20h149l21 -20v-1080l61 -61h315l62 61v1080l20 20h150l20 -20v-1080l62 -61h88l20 -20v-64l-16 -375l-23 -18h-125l-20 20l-10 228l-62 59h-1341l-21 20v1291z" />
    <glyph glyph-name="afii10044" unicode="&#x42a;" horiz-adv-x="1392" 
d="M61 1311l21 20h430l20 -20v-350l62 -62h174q227 0 364.5 -122t137.5 -328q0 -194 -142 -321.5t-358 -127.5h-408l-20 20v1078l-61 61h-199l-21 21v131zM532 670v-441l62 -61h151q163 0 248.5 73t85.5 208q0 138 -87.5 210t-248.5 72h-149z" />
    <glyph glyph-name="afii10045" unicode="&#x42b;" horiz-adv-x="1662" 
d="M1288 1311l21 20h149l21 -20v-1291l-21 -20h-149l-21 20v1291zM184 1311l21 20h149l21 -20v-350l61 -62h164q228 0 365 -123t137 -327q0 -193 -141 -321t-359 -128h-397l-21 20v1291zM375 670v-441l61 -61h142q162 0 247.5 73.5t85.5 207.5q0 138 -87 210t-249 72h-139z
" />
    <glyph glyph-name="afii10046" unicode="&#x42c;" horiz-adv-x="1245" 
d="M184 1311l21 20h149l21 -20v-350l61 -62h185q227 0 364 -123t137 -327q0 -192 -140.5 -320.5t-358.5 -128.5h-418l-21 20v1291zM375 670v-441l61 -61h162q161 0 247.5 73.5t86.5 207.5q0 138 -87 210t-249 72h-160z" />
    <glyph glyph-name="afii10047" unicode="&#x42d;" horiz-adv-x="1271" 
d="M492 748l20 20h381l61 74q-34 165 -130.5 254.5t-239.5 89.5q-175 0 -318 -119l-30 2l-86 105l4 28q187 156 440 156q260 0 417.5 -187.5t157.5 -496.5q0 -143 -40.5 -270t-114.5 -223t-186 -152t-248 -56q-148 0 -258 40.5t-205 129.5l-2 29l98 109l29 2
q84 -74 159.5 -106t167.5 -32q160 0 263 102.5t129 289.5l-60 69h-389l-20 21v121z" />
    <glyph glyph-name="afii10048" unicode="&#x42e;" horiz-adv-x="1841" 
d="M184 1311l21 20h149l21 -20v-498l61 -61h123l62 53q37 252 186 402.5t369 150.5q122 0 225.5 -47.5t178.5 -134.5t117 -218.5t42 -291.5q0 -200 -69 -357.5t-198 -246.5t-296 -89q-225 0 -373 149t-182 410l-62 54h-123l-61 -62v-504l-21 -20h-149l-21 20v1291z
M1176 1190q-174 0 -272.5 -140.5t-98.5 -383.5q0 -232 101.5 -378.5t269.5 -146.5q174 0 272 140t98 385q0 240 -99.5 382t-270.5 142z" />
    <glyph glyph-name="afii10049" unicode="&#x42f;" horiz-adv-x="1284" 
d="M1079 1331l21 -20v-1291l-21 -20h-149l-21 20v347l-61 61h-191l-49 -25l-289 -395l-16 -8h-180l-17 33l289 375l-20 90q-105 62 -162 162t-57 225q0 195 134.5 320.5t360.5 125.5h428zM848 1161h-184q-149 0 -231.5 -72t-82.5 -204q0 -135 83.5 -211t230.5 -76h184l61 61
v441z" />
    <glyph glyph-name="afii10065" unicode="&#x430;" horiz-adv-x="1054" 
d="M219 672l-57 114l8 27q158 88 336 88t270 -88.5t92 -259.5v-350l99 -70l14 -115l-12 -20q-38 -14 -86 -14q-90 0 -127 61l-90 10q-84 -75 -236 -75q-144 0 -230.5 78.5t-86.5 209.5q0 130 98.5 208.5t269.5 78.5q71 0 133 -12l72 71q-24 123 -182 123q-132 0 -256 -73z
M487 399q-188 0 -188 -127q0 -135 162 -135q88 0 153.5 49t75.5 125l-47 70q-73 18 -156 18z" />
    <glyph glyph-name="afii10066" unicode="&#x431;" horiz-adv-x="1095" 
d="M793 1360l127 20l26 -14q10 -45 10 -88q0 -87 -52.5 -148.5t-139.5 -74.5l-172 -29q-149 -23 -225 -133l63 -96q73 39 176 39q175 0 281 -116.5t106 -309.5q0 -188 -122 -309t-310 -121q-209 0 -323.5 148.5t-114.5 410.5q0 264 109 433t315 214l147 33q35 7 55 26.5
t24.5 34t4.5 29.5q0 18 -2 26zM578 674q-98 0 -166 -54.5t-99 -156.5l-2 -19q3 -134 72 -218.5t176 -84.5q113 0 181.5 72.5t68.5 194.5q0 126 -59 196t-172 70z" />
    <glyph glyph-name="afii10067" unicode="&#x432;" horiz-adv-x="976" 
d="M143 860l21 21h377q133 0 216 -66t83 -172q0 -82 -43 -137v-80q77 -56 77 -174q0 -120 -86 -186t-237 -66h-387l-21 20v840zM387 369l-61 -62v-86l61 -61h180q57 0 91 27.5t34 80.5q0 101 -129 101h-176zM387 721l-61 -62v-73l61 -62h162q49 0 78.5 27.5t29.5 73.5
q0 45 -30.5 70.5t-89.5 25.5h-150z" />
    <glyph glyph-name="afii10068" unicode="&#x433;" horiz-adv-x="892" 
d="M143 860l21 21h596l20 -21v-123l-20 -20h-371l-61 -62v-635l-21 -20h-143l-21 20v840z" />
    <glyph glyph-name="afii10069" unicode="&#x434;" horiz-adv-x="1136" 
d="M293 860l20 21h600l21 -21v-635l61 -61h39l21 -21v-61l-13 -285l-20 -20h-121l-20 18l-7 146l-63 59h-485l-62 -57l-8 -148l-20 -18h-121l-21 20l-12 285v59l12 21l39 6q80 13 121 174q39 153 39 410v108zM528 719l-61 -62q-9 -276 -55 -411l57 -82h221l62 61v432l-62 62
h-162z" />
    <glyph glyph-name="afii10070" unicode="&#x435;" horiz-adv-x="1028" 
d="M887 371h-520l-56 -88q31 -66 93.5 -103t144.5 -37q136 0 248 82l28 -6l68 -98l-4 -29q-76 -59 -157 -85.5t-185 -26.5q-207 0 -326 122.5t-119 333.5q0 201 118 333t312 132q174 0 278.5 -113t104.5 -296q0 -51 -8 -105zM369 528h297l59 82q-24 61 -75 95t-122 34
q-73 0 -130 -33t-85 -88z" />
    <glyph glyph-name="afii10072" unicode="&#x436;" horiz-adv-x="1452" 
d="M657 881h138l20 -21v-264l66 -61l26 2l45 30l176 303l19 11h166l16 -31l-227 -356v-66l258 -397l-17 -31h-159l-19 10l-209 338l-49 29h-30l-62 -62v-295l-20 -20h-138l-20 20v295l-62 62h-28l-49 -31l-203 -336l-19 -10h-165l-19 31l260 393v65l-229 361l16 31h164
l19 -11l182 -305l43 -28l22 -2l68 61v264z" />
    <glyph glyph-name="afii10073" unicode="&#x437;" horiz-adv-x="919" 
d="M317 524h175q53 0 80.5 27t27.5 74q0 56 -42 87t-116 31q-114 0 -217 -69l-28 4l-68 94l4 29q130 100 318 100q146 0 238.5 -68.5t92.5 -187.5q0 -81 -43 -137v-76q78 -61 78 -172q0 -130 -102 -205t-283 -75q-107 0 -190 28t-156 90l-4 27l74 98l28 4q114 -90 260 -90
q95 0 143 32.5t48 92.5q0 107 -123 107h-195l-20 20v115z" />
    <glyph glyph-name="afii10074" unicode="&#x438;" horiz-adv-x="1060" 
d="M143 860l21 21h141l21 -21v-391l110 -37l314 440l16 9h131l21 -21v-840l-21 -20h-141l-21 20v377l-108 41l-308 -430l-16 -8h-139l-21 20v840z" />
    <glyph glyph-name="afii10075" unicode="&#x439;" horiz-adv-x="1060" 
d="M143 860l21 21h141l21 -21v-391l110 -37l314 440l16 9h131l21 -21v-840l-21 -20h-141l-21 20v377l-108 41l-308 -430l-16 -8h-139l-21 20v840zM285 1327h114l21 -18q6 -53 34.5 -81t75.5 -28q48 0 76.5 29t34.5 80l18 18h117l21 -22q-9 -113 -83 -182.5t-184 -69.5
q-113 0 -186.5 70t-79.5 182z" />
    <glyph glyph-name="afii10076" unicode="&#x43a;" horiz-adv-x="1009" 
d="M143 860l21 21h143l21 -21v-262l67 -61l29 4l45 26l207 305l16 9h172l17 -33l-248 -344v-74l291 -397l-17 -33h-170l-16 8l-234 340l-51 27h-47l-61 -62v-293l-21 -20h-143l-21 20v840z" />
    <glyph glyph-name="afii10077" unicode="&#x43b;" horiz-adv-x="1085" 
d="M168 -14q-67 0 -123 26l-10 25l28 110l27 17q38 -12 64 -12q49 0 77.5 52t43 185.5t14.5 370.5v100l20 21h613l20 -21v-840l-20 -20h-144l-20 20v637l-62 62h-170l-61 -62q0 -167 -14 -287.5t-37.5 -194t-62.5 -116.5t-81.5 -58t-101.5 -15z" />
    <glyph glyph-name="afii10078" unicode="&#x43c;" horiz-adv-x="1179" 
d="M143 860l21 21h170l18 -11l187 -319h104l188 319l19 11h166l20 -21v-840l-20 -20h-135l-21 20v379l-115 33l-106 -172l-18 -10h-68l-18 10l-101 166l-115 -31v-375l-20 -20h-135l-21 20v840z" />
    <glyph glyph-name="afii10079" unicode="&#x43d;" horiz-adv-x="1048" 
d="M143 860l21 21h143l21 -21v-274l61 -62h270l62 62v274l20 21h144l20 -21v-840l-20 -20h-144l-20 20v277l-62 61h-270l-61 -61v-277l-21 -20h-143l-21 20v840z" />
    <glyph glyph-name="afii10080" unicode="&#x43e;" horiz-adv-x="1085" 
d="M543 901q197 0 318.5 -128.5t121.5 -332.5q0 -197 -124.5 -328.5t-315.5 -131.5q-197 0 -319 128.5t-122 331.5q0 200 123 330.5t318 130.5zM543 739q-118 0 -188 -84.5t-70 -214.5q0 -132 70.5 -215.5t187.5 -83.5q118 0 188 83t70 216q0 130 -70.5 214.5t-187.5 84.5z
" />
    <glyph glyph-name="afii10081" unicode="&#x43f;" horiz-adv-x="1042" 
d="M143 860l21 21h715l20 -21v-840l-20 -20h-144l-20 20v637l-62 62h-264l-61 -62v-637l-21 -20h-143l-21 20v840z" />
    <glyph glyph-name="afii10082" unicode="&#x440;" horiz-adv-x="1085" 
d="M164 881h119l36 -35l78 -4q73 59 197 59q179 0 284 -124t105 -331q0 -209 -114.5 -337.5t-301.5 -128.5q-91 0 -153 26l-86 -55v-361l-21 -20h-143l-21 20v1270zM328 516v-231l14 -39q83 -103 213 -103q119 0 181.5 81.5t62.5 228.5q0 127 -59.5 205.5t-159.5 78.5
q-91 0 -157.5 -59.5t-94.5 -161.5z" />
    <glyph glyph-name="afii10083" unicode="&#x441;" horiz-adv-x="987" 
d="M860 752l-88 -95l-29 -2q-88 82 -204 82q-112 0 -183 -82t-71 -213q0 -138 68.5 -218.5t185.5 -80.5q126 0 221 95h28l93 -91v-28q-127 -139 -349 -139q-196 0 -313 126t-117 334q0 203 124 332t311 129q208 0 323 -121v-28z" />
    <glyph glyph-name="afii10084" unicode="&#x442;" horiz-adv-x="901" 
d="M82 860l20 21h697l20 -21v-123l-20 -20h-195l-61 -62v-635l-21 -20h-143l-21 20v635l-61 62h-195l-20 20v123z" />
    <glyph glyph-name="afii10085" unicode="&#x443;" horiz-adv-x="1077" 
d="M113 881h174l18 -15l197 -530h114l168 530l19 15h166l18 -27l-362 -989q-60 -162 -131 -229.5t-181 -67.5q-84 0 -151 31l-10 24l34 117l25 14q46 -12 94 -12q55 0 88.5 36t59.5 116l14 45v41l-373 872z" />
    <glyph glyph-name="afii10086" unicode="&#x444;" horiz-adv-x="1533" 
d="M838 -430h-142l-20 20v351l-82 57q-50 -18 -117 -18q-174 0 -274.5 122.5t-100.5 335.5q0 205 107 334t280 129q54 0 107 -16l80 59v326l20 20h142l20 -20v-330l82 -57q52 18 117 18q173 0 274 -123.5t101 -335.5q0 -205 -108 -333.5t-280 -128.5q-62 0 -106 16l-80 -59
v-347zM1038 739q-60 0 -106 -29t-68 -81l-6 -25v-368l23 -48q56 -47 137 -47q108 0 168.5 80t60.5 225q0 141 -55 217t-154 76zM516 739q-108 0 -168.5 -80t-60.5 -225q0 -142 54.5 -217.5t154.5 -75.5q128 0 174 111l6 24v369l-23 47q-56 47 -137 47z" />
    <glyph glyph-name="afii10087" unicode="&#x445;" horiz-adv-x="1052" 
d="M948 33l-16 -33h-176l-19 10l-162 260h-102l-162 -260l-18 -10h-172l-17 33l265 383v69l-236 363l17 33h176l18 -11l131 -235h107l139 235l18 11h170l17 -33l-246 -365v-69z" />
    <glyph glyph-name="afii10088" unicode="&#x446;" horiz-adv-x="1081" 
d="M143 860l21 21h143l21 -21v-637l61 -61h244l61 61v637l21 21h143l21 -21v-637l61 -61h39l20 -21v-57l-12 -287l-20 -20h-117l-21 18l-8 146l-61 59h-596l-21 20v840z" />
    <glyph glyph-name="afii10089" unicode="&#x447;" horiz-adv-x="993" 
d="M123 860l20 21h144l20 -21v-266q0 -193 168 -193q119 0 187 68l18 43v348l20 21h144l20 -21v-840l-20 -20h-144l-20 20v183l-84 57q-61 -22 -137 -22q-157 0 -246.5 89t-89.5 246v287z" />
    <glyph glyph-name="afii10090" unicode="&#x448;" horiz-adv-x="1431" 
d="M143 860l21 21h141l21 -21v-637l61 -61h176l62 61v637l20 21h141l21 -21v-637l61 -61h176l62 61v637l20 21h142l20 -21v-840l-20 -20h-1104l-21 20v840z" />
    <glyph glyph-name="afii10091" unicode="&#x449;" horiz-adv-x="1490" 
d="M143 860l21 21h141l21 -21v-637l61 -61h176l62 61v637l20 21h141l21 -21v-637l61 -61h176l62 61v637l20 21h142l20 -21v-637l62 -61h39l20 -21v-65l-12 -279l-21 -20h-119l-18 18l-8 146l-62 59h-1005l-21 20v840z" />
    <glyph glyph-name="afii10092" unicode="&#x44a;" horiz-adv-x="1038" 
d="M41 860l20 21h363l20 -21v-186l80 -58q63 17 117 17q143 0 229 -84t86 -225t-100.5 -232.5t-261.5 -91.5h-313l-21 20v639l-61 62h-138l-20 20v119zM444 389v-168l62 -61h72q95 0 145.5 41.5t50.5 122.5q0 73 -43 112t-127 39q-65 0 -129 -31z" />
    <glyph glyph-name="afii10093" unicode="&#x44b;" horiz-adv-x="1277" 
d="M950 860l21 21h143l21 -21v-840l-21 -20h-143l-21 20v840zM143 860l21 21h143l21 -21v-184l80 -60q59 17 112 17q139 0 221 -84t82 -225q0 -145 -97.5 -234.5t-256.5 -89.5h-305l-21 20v840zM328 389v-168l61 -61h64q188 0 188 164q0 75 -41 113t-117 38q-66 0 -127 -33z
" />
    <glyph glyph-name="afii10094" unicode="&#x44c;" horiz-adv-x="927" 
d="M143 860l21 21h143l21 -21v-186l78 -60q65 19 126 19q143 0 228.5 -84t85.5 -225q0 -144 -100 -234t-265 -90h-317l-21 20v840zM328 389v-168l61 -61h76q199 0 199 164q0 151 -168 151q-72 0 -136 -33z" />
    <glyph glyph-name="afii10095" unicode="&#x44d;" horiz-adv-x="946" 
d="M336 508l20 20h224l55 86q-58 125 -209 125q-122 0 -211 -80l-31 5l-73 94l2 26q129 117 311 117q197 0 308.5 -123t111.5 -334q0 -210 -114.5 -337t-305.5 -127q-107 0 -187 30t-151 99l-2 28l82 90h29q100 -86 223 -86q164 0 223 144l-57 84h-228l-20 20v119z" />
    <glyph glyph-name="afii10096" unicode="&#x44e;" horiz-adv-x="1370" 
d="M143 860l21 21h139l21 -21v-274l61 -62h25l59 47q38 155 142 242.5t245 87.5q187 0 299.5 -127.5t112.5 -337.5q0 -198 -113.5 -327t-298.5 -129q-151 0 -253 88t-134 245l-61 49h-23l-61 -61v-281l-21 -20h-139l-21 20v840zM856 739q-99 0 -160 -82t-61 -219
q0 -136 60 -216.5t161 -80.5q104 0 166.5 82.5t62.5 216.5q0 137 -61 218t-168 81z" />
    <glyph glyph-name="afii10097" unicode="&#x44f;" horiz-adv-x="991" 
d="M827 881l21 -21v-840l-21 -20h-143l-20 20v197l-78 57q-53 -12 -82 -14l-43 -27l-156 -225l-16 -8h-166l-17 33l156 207l-12 86q-117 91 -117 243q0 139 102.5 225.5t264.5 86.5h327zM602 719h-94q-93 0 -142 -39t-49 -113q0 -71 43.5 -110t122.5 -39q77 0 144 28l37 56
v155z" />
    <glyph glyph-name="afii10071" unicode="&#x451;" horiz-adv-x="1028" 
d="M887 371h-520l-56 -88q31 -66 93.5 -103t144.5 -37q136 0 248 82l28 -6l68 -98l-4 -29q-76 -59 -157 -85.5t-185 -26.5q-207 0 -326 122.5t-119 333.5q0 201 118 333t312 132q174 0 278.5 -113t104.5 -296q0 -51 -8 -105zM369 528h297l59 82q-24 61 -75 95t-122 34
q-73 0 -130 -33t-85 -88zM336 1319q50 0 84.5 -33.5t34.5 -83.5t-34.5 -83.5t-84.5 -33.5t-84.5 33.5t-34.5 83.5t34.5 83.5t84.5 33.5zM744 1319q50 0 84.5 -33.5t34.5 -83.5t-34.5 -83.5t-84.5 -33.5t-84.5 33.5t-34.5 83.5t34.5 83.5t84.5 33.5z" />
    <glyph glyph-name="afii10099" unicode="&#x452;" horiz-adv-x="1095" 
d="M154 1311l20 20h143l21 -20v-80l61 -62h164l21 -20v-119l-21 -20h-164l-61 -62v-37l92 -53q72 43 176 43q166 0 256 -99.5t90 -281.5v-522q0 -162 -89.5 -259t-241.5 -97q-46 0 -91 10l-16 22l18 125l25 17q32 -4 49 -4q87 0 124.5 51.5t37.5 134.5v510q0 229 -180 229
q-95 0 -163 -70t-87 -192v-455l-21 -20h-143l-20 20v928l-62 62h-51l-21 20v119l21 20h51l62 62v80z" />
    <glyph glyph-name="afii10100" unicode="&#x453;" horiz-adv-x="892" 
d="M143 860l21 21h596l20 -21v-123l-20 -20h-371l-61 -62v-635l-21 -20h-143l-21 20v840zM563 1444l31 8l119 -72l8 -28l-150 -256l-18 -11h-123l-18 29z" />
    <glyph glyph-name="afii10101" unicode="&#x454;" horiz-adv-x="987" 
d="M643 506v-119l-20 -20h-254l-56 -86q26 -65 86.5 -101.5t139.5 -36.5q126 0 221 95h28l93 -91v-28q-127 -139 -349 -139q-197 0 -313.5 126t-116.5 334q0 201 124 331t311 130q208 0 323 -121v-28l-88 -95l-29 -2q-88 82 -204 82q-67 0 -123.5 -31t-89.5 -88l53 -92h244z
" />
    <glyph glyph-name="afii10102" unicode="&#x455;" horiz-adv-x="950" 
d="M811 791l-61 -109l-29 -8q-113 67 -236 67q-172 0 -172 -100q0 -52 44.5 -79.5t140.5 -35.5q181 -15 265.5 -80.5t84.5 -189.5q0 -132 -101.5 -204t-283.5 -72q-203 0 -344 96l-8 26l61 109l29 6q125 -78 264 -78q106 0 155.5 27.5t49.5 85.5q0 56 -44.5 82.5
t-156.5 32.5q-165 9 -250.5 76.5t-85.5 191.5q0 120 97 193t257 73q181 0 318 -84z" />
    <glyph glyph-name="afii10103" unicode="&#x456;" horiz-adv-x="471" 
d="M143 860l21 21h143l21 -21v-840l-21 -20h-143l-21 20v840zM236 1339q52 0 87 -35.5t35 -91.5q0 -55 -35 -90t-87 -35t-87.5 35t-35.5 90q0 56 35.5 91.5t87.5 35.5z" />
    <glyph glyph-name="afii10104" unicode="&#x457;" horiz-adv-x="471" 
d="M143 860l21 21h143l21 -21v-840l-21 -20h-143l-21 20v840zM63 1319q50 0 84.5 -33.5t34.5 -83.5t-34.5 -83.5t-84.5 -33.5t-84 33t-34 84t34 84t84 33zM410 1319q50 0 84 -33t34 -84t-34 -84t-84 -33t-84.5 33.5t-34.5 83.5t34.5 83.5t84.5 33.5z" />
    <glyph glyph-name="afii10105" unicode="&#x458;" horiz-adv-x="471" 
d="M236 1339q52 0 87 -35.5t35 -91.5q0 -55 -35 -90t-87 -35t-87.5 35t-35.5 90q0 56 35.5 91.5t87.5 35.5zM143 860l21 21h143l21 -21v-958q0 -163 -90 -258t-242 -95q-41 0 -90 11l-17 22l19 125l24 17q40 -5 50 -5q77 0 119 47.5t42 135.5v958z" />
    <glyph glyph-name="afii10106" unicode="&#x459;" horiz-adv-x="1521" 
d="M289 860l20 21h602l21 -21v-186l78 -60q62 19 123 19q139 0 223 -83.5t84 -225.5t-99.5 -233t-259.5 -91h-313l-20 20v637l-62 62h-160l-61 -62q-2 -167 -15.5 -286.5t-36 -194t-59.5 -117t-78.5 -58t-99.5 -15.5q-75 0 -131 26l-10 25l28 110l27 17q38 -12 64 -12
q71 0 103 139.5t32 468.5v100zM932 387v-166l61 -61h72q92 0 142 41.5t50 122.5q0 74 -41 112.5t-120 38.5q-75 0 -131 -33z" />
    <glyph glyph-name="afii10107" unicode="&#x45a;" horiz-adv-x="1478" 
d="M143 860l21 21h143l21 -21v-274l61 -62h250l61 62v274l21 21h143l21 -21v-186l78 -60q65 19 127 19q138 0 222.5 -84t84.5 -225q0 -142 -99.5 -233t-259.5 -91h-317l-21 20v277l-61 61h-250l-61 -61v-277l-21 -20h-143l-21 20v840zM885 387v-166l61 -61h76q92 0 142 41.5
t50 122.5q0 74 -41 112.5t-120 38.5q-67 0 -135 -33z" />
    <glyph glyph-name="afii10108" unicode="&#x45b;" horiz-adv-x="1095" 
d="M154 1311l20 20h143l21 -20v-80l61 -62h164l21 -20v-119l-21 -20h-164l-61 -62v-37l92 -53q73 43 176 43q164 0 255 -100t91 -281v-500l-20 -20h-144l-20 20v488q0 229 -180 229q-95 0 -163 -70t-87 -192v-455l-21 -20h-143l-20 20v928l-62 62h-51l-21 20v119l21 20h51
l62 62v80z" />
    <glyph glyph-name="afii10109" unicode="&#x45c;" horiz-adv-x="1009" 
d="M143 860l21 21h143l21 -21v-262l67 -61l29 4l45 26l207 305l16 9h172l17 -33l-248 -344v-74l291 -397l-17 -33h-170l-16 8l-234 340l-51 27h-47l-61 -62v-293l-21 -20h-143l-21 20v840zM573 1444l31 8l119 -72l8 -28l-149 -256l-19 -11h-123l-18 29z" />
    <glyph glyph-name="afii10110" unicode="&#x45e;" horiz-adv-x="1077" 
d="M113 881h174l18 -15l197 -530h114l168 530l19 15h166l18 -27l-362 -989q-60 -162 -131 -229.5t-181 -67.5q-84 0 -151 31l-10 24l34 117l25 14q46 -12 94 -12q55 0 88.5 36t59.5 116l14 45v41l-373 872zM311 1327h115l21 -18q6 -53 34.5 -81t75.5 -28q48 0 76.5 29
t34.5 80l18 18h117l20 -22q-9 -113 -82.5 -182.5t-183.5 -69.5q-113 0 -186.5 70t-79.5 182z" />
    <glyph glyph-name="afii10193" unicode="&#x45f;" horiz-adv-x="1044" 
d="M143 860l21 21h143l21 -21v-637l61 -61h266l62 61v637l20 21h144l20 -21v-840l-20 -20h-207l-62 -59l-8 -146l-20 -18h-123l-21 18l-8 146l-61 59h-207l-21 20v840z" />
    <glyph glyph-name="afii10050" unicode="&#x490;" horiz-adv-x="1157" 
d="M184 1311l21 20h588l61 60l10 247l21 21h129l20 -21v-456l-20 -21h-576l-61 -61v-1080l-21 -20h-151l-21 20v1291z" />
    <glyph glyph-name="afii10098" unicode="&#x491;" horiz-adv-x="892" 
d="M143 860l21 21h381l61 59v139l27 21h127l20 -21v-342l-20 -20h-371l-61 -62v-635l-21 -20h-143l-21 20v840z" />
    <glyph glyph-name="Wgrave" unicode="&#x1e80;" horiz-adv-x="1830" 
d="M88 1305l21 26h172l20 -16l203 -873h119l208 789l21 14h133l21 -16l206 -787h119l205 873l20 16h166l21 -26l-350 -1295l-21 -14h-205l-20 14l-172 668h-119l-166 -666l-20 -16h-213l-21 14zM651 1882l8 29l129 61l27 -8l178 -381l-18 -29h-131l-19 11z" />
    <glyph glyph-name="wgrave" unicode="&#x1e81;" horiz-adv-x="1421" 
d="M90 854l19 27h159l21 -17l110 -446h119l107 411l20 17h137l21 -15l108 -413h121l105 446l20 17h156l18 -27l-248 -846l-20 -14h-182l-21 14l-88 332h-119l-84 -332l-20 -14h-182l-19 14zM624 1452l27 -10l150 -328l-21 -29h-121l-18 11l-150 262l9 28z" />
    <glyph glyph-name="Wacute" unicode="&#x1e82;" horiz-adv-x="1830" 
d="M88 1305l21 26h172l20 -16l203 -873h119l208 789l21 14h133l21 -16l206 -787h119l205 873l20 16h166l21 -26l-350 -1295l-21 -14h-205l-20 14l-172 668h-119l-166 -666l-20 -16h-213l-21 14zM1016 1964l26 8l129 -61l9 -29l-174 -317l-19 -11h-131l-18 29z" />
    <glyph glyph-name="wacute" unicode="&#x1e83;" horiz-adv-x="1421" 
d="M90 854l19 27h159l21 -17l110 -446h119l107 411l20 17h137l21 -15l108 -413h121l105 446l20 17h156l18 -27l-248 -846l-20 -14h-182l-21 14l-88 332h-119l-84 -332l-20 -14h-182l-19 14zM803 1444l31 8l119 -72l8 -28l-150 -256l-18 -11h-123l-19 29z" />
    <glyph glyph-name="Wdieresis" unicode="&#x1e84;" horiz-adv-x="1830" 
d="M88 1305l21 26h172l20 -16l203 -873h119l208 789l21 14h133l21 -16l206 -787h119l205 873l20 16h166l21 -26l-350 -1295l-21 -14h-205l-20 14l-172 668h-119l-166 -666l-20 -16h-213l-21 14zM676 1798q55 0 91 -35.5t36 -89.5t-36.5 -89.5t-90.5 -35.5q-55 0 -91 35.5
t-36 89.5t36.5 89.5t90.5 35.5zM1157 1798q55 0 91 -35.5t36 -89.5t-36.5 -89.5t-90.5 -35.5q-55 0 -91 35.5t-36 89.5t36.5 89.5t90.5 35.5z" />
    <glyph glyph-name="wdieresis" unicode="&#x1e85;" horiz-adv-x="1421" 
d="M90 854l19 27h159l21 -17l110 -446h119l107 411l20 17h137l21 -15l108 -413h121l105 446l20 17h156l18 -27l-248 -846l-20 -14h-182l-21 14l-88 332h-119l-84 -332l-20 -14h-182l-19 14zM508 1319q50 0 84.5 -33.5t34.5 -83.5t-34.5 -83.5t-84.5 -33.5t-84.5 33.5
t-34.5 83.5t34.5 83.5t84.5 33.5zM915 1319q50 0 84.5 -33.5t34.5 -83.5t-34.5 -83.5t-84.5 -33.5t-84 33t-34 84t34 84t84 33z" />
    <glyph glyph-name="Germandbls" unicode="&#x1e9e;" horiz-adv-x="1355" 
d="M174 20v838q0 221 129.5 360.5t339.5 139.5q299 0 463 -203l4 -12v-41l-4 -12l-174 -213l37 -99q121 -26 192.5 -127t71.5 -243q0 -193 -117.5 -310.5t-320.5 -117.5q-168 0 -281 61l-10 29l65 120l29 9q90 -52 207 -52q110 0 173.5 64.5t63.5 179.5q0 238 -229 238
q-61 0 -141 -23l-25 12l-39 97l2 18l250 322l-20 92q-76 43 -197 43q-133 0 -204.5 -88.5t-71.5 -247.5v-834l-21 -20h-151z" />
    <glyph glyph-name="Ygrave" unicode="&#x1ef2;" horiz-adv-x="1323" 
d="M98 1300l19 31h186l19 -12l286 -592h111l293 592l18 12h176l19 -31l-459 -851l-8 -31v-398l-21 -20h-151l-21 20v398l-8 31zM397 1882l9 29l129 61l26 -8l178 -381l-18 -29h-131l-19 11z" />
    <glyph glyph-name="ygrave" unicode="&#x1ef3;" horiz-adv-x="1077" 
d="M113 881h174l18 -15l197 -530h114l168 530l19 15h166l18 -27l-362 -989q-60 -162 -131 -229.5t-181 -67.5q-84 0 -151 31l-10 24l34 117l25 14q46 -12 94 -12q55 0 88.5 36t59.5 116l14 45v41l-373 872zM442 1452l27 -10l149 -328l-20 -29h-121l-18 11l-150 262l8 28z
" />
    <glyph glyph-name="endash" unicode="&#x2013;" horiz-adv-x="1234" 
d="M184 524l21 21h825l21 -21v-123l-21 -20h-825l-21 20v123z" />
    <glyph glyph-name="emdash" unicode="&#x2014;" horiz-adv-x="1705" 
d="M225 524l21 21h1214l21 -21v-123l-21 -20h-1214l-21 20v123z" />
    <glyph glyph-name="quoteleft" unicode="&#x2018;" horiz-adv-x="454" 
d="M326 1333l-29 -116l16 -60q39 -36 39 -90q0 -59 -35.5 -94t-91.5 -35q-55 0 -89 35t-34 90q0 41 15 78l88 229l24 12l82 -22z" />
    <glyph glyph-name="quoteright" unicode="&#x2019;" horiz-adv-x="454" 
d="M129 1001l29 117l-17 60q-39 36 -39 90q0 59 35.5 94t91.5 35q55 0 89 -35t34 -90q0 -43 -14 -78l-88 -229l-25 -13l-82 23z" />
    <glyph glyph-name="quotesinglbase" unicode="&#x201a;" horiz-adv-x="454" 
d="M129 -166l29 117l-17 59q-39 36 -39 90q0 59 35.5 94t91.5 35q55 0 89 -35t34 -90q0 -42 -14 -77l-88 -230l-25 -12l-82 22z" />
    <glyph glyph-name="quotedblleft" unicode="&#x201c;" horiz-adv-x="780" 
d="M643 1313l-22 -99l18 -57q39 -36 39 -90q0 -59 -34 -94t-91 -35q-73 0 -107 61l-108 2q-31 -63 -113 -63q-55 0 -89 34t-34 91q0 43 15 78l100 248l25 12l86 -25l14 -26l-39 -138l16 -57q14 -14 17 -20l110 8l76 207l25 10l82 -25z" />
    <glyph glyph-name="quotedblright" unicode="&#x201d;" horiz-adv-x="780" 
d="M137 1022l23 98l-19 58q-39 36 -39 90q0 59 34 94t91 35q72 0 107 -62l108 -2q15 30 45.5 47t67.5 17q55 0 89 -34.5t34 -90.5q0 -46 -14 -78l-101 -248l-24 -12l-86 24l-15 27l39 137l-16 58q-14 14 -17 20l-110 -8l-76 -207l-25 -10l-81 24z" />
    <glyph glyph-name="quotedblbase" unicode="&#x201e;" horiz-adv-x="780" 
d="M137 -145l23 98l-19 57q-39 36 -39 90q0 59 34 94t91 35q73 0 107 -61l108 -2q31 63 113 63q55 0 89 -34.5t34 -90.5q0 -45 -14 -77l-101 -248l-24 -12l-86 24l-15 27l39 137l-16 57q-13 13 -17 21l-110 -8l-76 -207l-25 -11l-81 25z" />
    <glyph glyph-name="dagger" unicode="&#x2020;" horiz-adv-x="811" 
d="M315 1090l21 20h139l21 -20v-148l61 -61h131l21 -21v-127l-21 -20h-131l-61 -62v-631l-21 -20h-139l-21 20v631l-61 62h-131l-21 20v127l21 21h131l61 61v148z" />
    <glyph glyph-name="daggerdbl" unicode="&#x2021;" horiz-adv-x="811" 
d="M315 1090l21 20h139l21 -20v-148l61 -61h131l21 -21v-127l-21 -20h-131l-61 -62v-192l61 -62h131l21 -20v-127l-21 -21h-131l-61 -61v-148l-21 -20h-139l-21 20v148l-61 61h-131l-21 21v127l21 20h131l61 62v192l-61 62h-131l-21 20v127l21 21h131l61 61v148z" />
    <glyph glyph-name="bullet" unicode="&#x2022;" horiz-adv-x="655" 
d="M328 575q59 0 101 -39.5t42 -103.5q0 -60 -42.5 -101.5t-100.5 -41.5q-59 0 -101.5 41t-42.5 102q0 64 42 103.5t102 39.5z" />
    <glyph glyph-name="ellipsis" unicode="&#x2026;" horiz-adv-x="1241" 
d="M227 236q54 0 89.5 -33.5t35.5 -89.5q0 -55 -36 -89t-89 -34t-89 34t-36 89t36 89t89 34zM621 236q54 0 89 -33.5t35 -89.5q0 -55 -35.5 -89t-88.5 -34t-89 34t-36 89t36 89t89 34zM1014 236q54 0 89.5 -33.5t35.5 -89.5q0 -55 -36 -89t-89 -34t-89 34t-36 89t36 89
t89 34z" />
    <glyph glyph-name="perthousand" unicode="&#x2030;" horiz-adv-x="2144" 
d="M1190 1262l94 -84l2 -29l-450 -518l82 -90q74 53 167 53t168 -52.5t109 -142.5h117q32 88 108 141.5t168 53.5q126 0 211.5 -89t85.5 -218q0 -127 -87 -217t-210 -90q-93 0 -167.5 51t-110.5 143h-115q-32 -88 -109 -141t-168 -53q-125 0 -211 89t-86 218q0 79 35 147
l-100 68l-444 -510l-31 -2l-94 82l-2 28l458 527l-78 92q-64 -37 -143 -37q-126 0 -211.5 89t-85.5 218t87 218t210 89q125 0 211 -89t86 -218q0 -61 -22 -119l102 -63l395 453zM1755 442q-66 0 -100.5 -43.5t-34.5 -111.5t34 -112t101 -44t101 45t34 111q0 68 -34.5 111.5
t-100.5 43.5zM1085 442q-66 0 -100.5 -44t-34.5 -111q0 -66 35 -111t100 -45q66 0 101 45t35 111t-34.5 110.5t-101.5 44.5zM389 1145q-67 0 -101 -44.5t-34 -111.5q0 -68 34 -111.5t101 -43.5q65 0 100 43.5t35 111.5q0 67 -34 111.5t-101 44.5z" />
    <glyph glyph-name="guilsinglleft" unicode="&#x2039;" horiz-adv-x="614" 
d="M377 799l29 2l92 -82l4 -27l-154 -200v-76l154 -203l-4 -29l-92 -82l-29 2l-268 310l-7 14v41l7 12z" />
    <glyph glyph-name="guilsinglright" unicode="&#x203a;" horiz-adv-x="614" 
d="M238 104l-29 -2l-92 82l-4 27l153 201v75l-153 203l4 29l92 82l29 -2l268 -310l6 -14v-41l-6 -12z" />
    <glyph glyph-name="fraction" unicode="&#x2044;" horiz-adv-x="307" 
d="M594 1343l100 -67l4 -29l-913 -1321l-29 -4l-100 68l-4 28l913 1321z" />
    <glyph glyph-name="zero.sup" unicode="&#x2070;" horiz-adv-x="802" 
d="M401 1528q145 0 232.5 -94.5t87.5 -255.5q0 -155 -89.5 -253t-230.5 -98q-147 0 -233 94t-86 257q0 153 90 251.5t229 98.5zM401 1393q-78 0 -121.5 -59t-43.5 -156q0 -98 43.5 -156.5t121.5 -58.5q79 0 122.5 58t43.5 157q0 98 -44 156.5t-122 58.5z" />
    <glyph glyph-name="four.sup" unicode="&#x2074;" horiz-adv-x="770" 
d="M449 1518h131l20 -21v-336l62 -61h16l20 -21v-94l-20 -20h-16l-62 -62v-43l-20 -20h-111l-20 20v43l-62 62h-305l-21 20v78l5 14l366 432z" />
    <glyph glyph-name="five.sup" unicode="&#x2075;" horiz-adv-x="702" 
d="M143 1497l21 19h409l21 -21v-92l-21 -21h-45l-24 -116q117 -58 117 -197q0 -106 -77 -174t-204 -68q-152 0 -252 76l-4 29l53 76l29 6q85 -56 176 -56q55 0 90 28t35 83q0 49 -32 73.5t-87 24.5q-77 0 -129 -34l-39 2l-43 14l-14 20z" />
    <glyph glyph-name="six.sup" unicode="&#x2076;" horiz-adv-x="735" 
d="M618 1456l-40 -82l-23 -8l-39 -96q127 -53 127 -203q0 -109 -76 -174.5t-196 -65.5q-132 0 -205.5 91t-73.5 256q0 159 85 256.5t226 97.5q123 0 205 -43zM377 1163q-55 0 -96 -18l-35 -66q5 -52 37.5 -86.5t87.5 -34.5q57 0 90 28.5t33 76.5q0 100 -117 100z" />
    <glyph glyph-name="seven.sup" unicode="&#x2077;" horiz-adv-x="665" 
d="M72 1495l20 21h471l21 -21v-90l-240 -553l-20 -12h-117l-19 28l195 430l-55 86h-236l-20 21v90z" />
    <glyph glyph-name="eight.sup" unicode="&#x2078;" horiz-adv-x="735" 
d="M367 827q-128 0 -206.5 59.5t-78.5 160.5q0 77 51 137l8 67q-20 36 -20 82q0 85 69 140t177 55q114 0 180.5 -53t66.5 -142q0 -46 -22 -92l12 -76q49 -46 49 -123q0 -93 -80 -154t-206 -61zM307 1135l-67 -35q-9 -20 -9 -53q0 -89 136 -89q71 0 104 21t33 68l-33 51
q-40 18 -164 37zM393 1249l70 49q2 10 2 39l-33 45q-26 15 -65 15q-35 0 -64 -13l-33 -53v-12l25 -43q27 -17 98 -27z" />
    <glyph glyph-name="nine.sup" unicode="&#x2079;" horiz-adv-x="735" 
d="M332 827q-123 0 -205 43l-10 27l41 84l22 8l33 101q-121 55 -121 198q0 106 76 173t197 67q133 0 205.5 -90.5t72.5 -255.5q0 -160 -84.5 -257.5t-226.5 -97.5zM365 1397q-58 0 -90.5 -29t-32.5 -76q0 -100 116 -100q56 0 97 18l34 66q-6 58 -40.5 89.5t-83.5 31.5z" />
    <glyph glyph-name="parenleft.sup" unicode="&#x207d;" horiz-adv-x="399" 
d="M258 1587l78 -43l8 -31q-108 -131 -108 -335q0 -188 106 -340l-6 -29l-82 -43l-25 4q-147 172 -147 408q0 224 151 405z" />
    <glyph glyph-name="parenright.sup" unicode="&#x207e;" horiz-adv-x="399" 
d="M63 1544l82 43l25 -4q147 -172 147 -407q0 -225 -151 -406l-25 -4l-78 43l-8 31q109 132 109 336q0 187 -107 340z" />
    <glyph glyph-name="zero.inf" unicode="&#x2080;" horiz-adv-x="802" 
d="M401 422q145 0 232.5 -94.5t87.5 -255.5q0 -155 -89.5 -253t-230.5 -98q-147 0 -233 94t-86 257q0 153 90 251.5t229 98.5zM401 287q-78 0 -121.5 -59t-43.5 -156q0 -98 43.5 -156.5t121.5 -58.5q79 0 122.5 58t43.5 157q0 98 -44 156.5t-122 58.5z" />
    <glyph glyph-name="one.inf" unicode="&#x2081;" horiz-adv-x="497" 
d="M295 412l14 4l68 -6l18 -21v-635l-20 -20h-113l-20 20v346l-138 45l-43 76l5 27z" />
    <glyph glyph-name="two.inf" unicode="&#x2082;" horiz-adv-x="702" 
d="M94 307l2 29q109 86 244 86q122 0 194 -64.5t72 -171.5q0 -133 -114 -219l28 -100h70l20 -21v-92l-20 -20h-471l-21 20v76l8 16l269 201q43 32 61.5 64t18.5 75q0 46 -32.5 73.5t-88.5 27.5q-77 0 -150 -64l-30 4z" />
    <glyph glyph-name="three.inf" unicode="&#x2083;" horiz-adv-x="698" 
d="M199 244l-33 8l-47 78l6 26q101 66 231 66q110 0 177 -53.5t67 -141.5q0 -58 -25 -100l9 -74q43 -43 43 -114q0 -99 -77 -158.5t-204 -59.5q-147 0 -260 93l-4 26l59 82l31 4q81 -69 176 -69q62 0 93.5 25.5t31.5 70.5l-45 55q-18 6 -43 6h-125l-20 21v92l20 20h131
l53 50q2 6 2 20q0 31 -23.5 50.5t-68.5 19.5q-80 0 -155 -43z" />
    <glyph glyph-name="four.inf" unicode="&#x2084;" horiz-adv-x="770" 
d="M449 412h131l20 -21v-336l62 -61h16l20 -21v-94l-20 -20h-16l-62 -62v-43l-20 -20h-111l-20 20v43l-62 62h-305l-21 20v78l5 14l366 432z" />
    <glyph glyph-name="five.inf" unicode="&#x2085;" horiz-adv-x="702" 
d="M143 391l21 19h409l21 -21v-92l-21 -21h-45l-24 -116q117 -58 117 -197q0 -106 -77 -174t-204 -68q-152 0 -252 76l-4 29l53 76l29 6q83 -55 176 -55q55 0 90 27.5t35 82.5q0 49 -32 73.5t-87 24.5q-77 0 -129 -34l-39 2l-43 14l-14 20z" />
    <glyph glyph-name="six.inf" unicode="&#x2086;" horiz-adv-x="735" 
d="M618 350l-40 -82l-23 -8l-39 -96q127 -53 127 -203q0 -109 -76 -174.5t-196 -65.5q-132 0 -205.5 91t-73.5 256q0 159 85 256.5t226 97.5q123 0 205 -43zM377 57q-55 0 -96 -18l-35 -66q5 -52 37.5 -86t87.5 -34q57 0 90 28.5t33 75.5q0 100 -117 100z" />
    <glyph glyph-name="seven.inf" unicode="&#x2087;" horiz-adv-x="665" 
d="M72 389l20 21h471l21 -21v-90l-240 -553l-20 -12h-117l-19 28l195 431l-55 86h-236l-20 20v90z" />
    <glyph glyph-name="eight.inf" unicode="&#x2088;" horiz-adv-x="735" 
d="M367 -279q-128 0 -206.5 59.5t-78.5 160.5q0 77 51 137l8 67q-20 36 -20 82q0 85 69 140t177 55q114 0 180.5 -53t66.5 -142q0 -46 -22 -92l12 -76q49 -46 49 -122q0 -93 -80 -154.5t-206 -61.5zM307 29l-67 -35q-9 -20 -9 -53q0 -88 136 -88q71 0 104 20.5t33 67.5
l-33 51q-40 18 -164 37zM393 143l70 50q2 10 2 38l-33 45q-26 15 -65 15q-37 0 -64 -12l-33 -54v-12l25 -43q27 -17 98 -27z" />
    <glyph glyph-name="nine.inf" unicode="&#x2089;" horiz-adv-x="735" 
d="M332 -279q-123 0 -205 43l-10 27l41 84l22 8l33 101q-121 55 -121 198q0 106 76 173t197 67q133 0 205.5 -90.5t72.5 -255.5q0 -160 -84.5 -257.5t-226.5 -97.5zM365 291q-58 0 -90.5 -29t-32.5 -76q0 -100 116 -100q56 0 97 18l34 66q-6 58 -40.5 89.5t-83.5 31.5z" />
    <glyph glyph-name="parenleft.inf" unicode="&#x208d;" horiz-adv-x="399" 
d="M258 481l78 -43l8 -30q-108 -131 -108 -336q0 -188 106 -340l-6 -29l-82 -43l-25 4q-147 172 -147 408q0 224 151 405z" />
    <glyph glyph-name="parenright.inf" unicode="&#x208e;" horiz-adv-x="399" 
d="M63 438l82 43l25 -4q147 -172 147 -407q0 -225 -151 -406l-25 -4l-78 43l-8 31q109 132 109 336q0 187 -107 340z" />
    <glyph glyph-name="Euro" unicode="&#x20ac;" horiz-adv-x="1413" 
d="M92 543l21 20h696l20 -20l-8 -125l-20 -21h-248l-51 -94q106 -160 307 -160q187 0 330 140l28 -2l90 -101v-26q-181 -181 -458 -181q-196 0 -335.5 99.5t-197.5 283.5l-59 41h-94l-21 21v125zM92 854l21 20h96l57 44q65 183 212 291t339 108q242 0 412 -148l2 -28
l-92 -107l-31 -2q-126 117 -301 117q-105 0 -187 -46.5t-133 -135.5l54 -93h297l20 -22l-10 -125l-21 -18h-714l-21 20v125z" />
    <glyph glyph-name="rur" unicode="&#x20bd;" horiz-adv-x="1247" 
d="M254 1270l20 20h426q208 0 331.5 -109t123.5 -296t-131 -297.5t-344 -110.5h-176l-62 -61v-25l62 -61h252l20 -21v-125l-20 -20h-252l-62 -62v-82l-20 -20h-148l-20 20v82l-61 62h-101l-20 20v125l20 21h101l61 61v25l-61 61h-101l-20 21v125l20 20h101l61 62v565z
M504 1124l-62 -61v-358l62 -62h174q289 0 289 242q0 124 -68.5 181.5t-210.5 57.5h-184z" />
    <glyph glyph-name="afii61352" unicode="&#x2116;" horiz-adv-x="1988" 
d="M184 1270l21 20h141l16 -8l496 -784l115 30v742l20 20h144l20 -20v-1250l-20 -20h-158l-18 10l-480 758l-112 -33v-715l-21 -20h-143l-21 20v1250zM1382 338h463l21 -21v-118l-21 -21h-463l-20 21v118zM1614 1083q128 0 210.5 -84.5t82.5 -214.5q0 -125 -84 -212
t-209 -87q-127 0 -210 84t-83 215q0 126 85 212.5t208 86.5zM1614 928q-58 0 -92.5 -39.5t-34.5 -104.5t36 -104t91 -39q59 0 93 38t34 105q0 65 -35 104.5t-92 39.5z" />
    <glyph glyph-name="trademark" unicode="&#x2122;" horiz-adv-x="1243" 
d="M61 1311l21 20h610l17 -8l102 -135h98l105 135l16 8h111l20 -20v-543l-20 -20h-101l-20 20v229l-78 23l-55 -70l-17 -8h-20l-16 8l-56 70l-78 -23v-229l-20 -20h-98l-21 20v371l-61 61h-56l-61 -61v-371l-21 -20h-102l-20 20v371l-62 61h-96l-21 21v90z" />
    <glyph glyph-name="onethird" unicode="&#x2153;" horiz-adv-x="1546" 
d="M295 1333l14 4l68 -6l18 -20v-635l-20 -21h-113l-20 21v346l-138 45l-43 76l5 26zM1133 1343l100 -67l4 -29l-913 -1321l-29 -4l-100 68l-5 28l914 1321zM1047 510l-33 8l-47 78l6 27q100 65 231 65q110 0 177 -53t67 -141q0 -59 -25 -101l9 -74q43 -43 43 -114
q0 -99 -77 -158t-204 -59q-148 0 -260 92l-4 26l59 82l31 5q82 -70 176 -70q62 0 93.5 25.5t31.5 70.5l-45 55q-21 7 -43 7h-125l-21 20v92l21 21h131l53 49q2 6 2 20q0 31 -23.5 50.5t-68.5 19.5q-80 0 -155 -43z" />
    <glyph glyph-name="twothirds" unicode="&#x2154;" horiz-adv-x="1693" 
d="M94 1229l2 28q109 86 244 86q122 0 194 -64.5t72 -170.5q0 -133 -114 -219l28 -101h70l20 -20v-92l-20 -21h-471l-21 21v76l8 16l269 201q43 32 61.5 64t18.5 75q0 46 -32 73t-89 27q-78 0 -150 -63l-30 4zM1288 1343l101 -67l4 -29l-914 -1321l-28 -4l-101 68l-4 28
l914 1321zM1194 510l-33 8l-47 78l6 27q100 65 232 65q110 0 176.5 -53t66.5 -141q0 -60 -24 -101l8 -74q43 -43 43 -114q0 -99 -77 -158t-204 -59q-148 0 -260 92l-4 26l60 82l30 5q82 -70 176 -70q62 0 93.5 25.5t31.5 70.5l-45 55q-21 7 -43 7h-125l-20 20v92l20 21h131
l54 49q2 6 2 20q0 31 -23.5 50.5t-68.5 19.5q-81 0 -156 -43z" />
    <glyph glyph-name="oneeighth" unicode="&#x215b;" horiz-adv-x="1595" 
d="M295 1333l14 4l68 -6l18 -20v-635l-20 -21h-113l-20 21v346l-138 45l-43 76l5 26zM1133 1343l100 -67l4 -29l-913 -1321l-29 -4l-100 68l-5 28l914 1321zM1227 -12q-129 0 -207 59.5t-78 159.5q0 77 51 137l8 68q-20 36 -20 82q0 85 69 139.5t177 54.5q115 0 181.5 -53
t66.5 -141q0 -45 -23 -93l12 -75q49 -46 49 -123q0 -93 -80 -154t-206 -61zM1167 295l-67 -35q-8 -18 -8 -53q0 -88 135 -88q71 0 104 20.5t33 67.5l-33 51q-40 18 -164 37zM1253 410l70 49q2 10 2 39l-33 45q-24 14 -65 14q-37 0 -64 -12l-33 -53v-13l25 -43q25 -16 98 -26
z" />
    <glyph glyph-name="threeeighths" unicode="&#x215c;" horiz-adv-x="1734" 
d="M199 1165l-33 9l-47 77l6 27q100 65 231 65q110 0 177 -53t67 -141q0 -58 -25 -100l9 -74q43 -43 43 -115q0 -99 -77 -158t-204 -59q-148 0 -260 92l-4 27l59 82l31 4q82 -70 176 -70q62 0 93.5 25.5t31.5 70.5l-45 56q-18 6 -43 6h-125l-20 20v93l20 20h131l53 49
q2 6 2 21q0 31 -23.5 50t-68.5 19q-80 0 -155 -43zM1272 1343l100 -67l4 -29l-913 -1321l-29 -4l-100 68l-4 28l913 1321zM1366 -12q-129 0 -207 59.5t-78 159.5q0 76 52 137l8 68q-21 38 -21 82q0 85 69 139.5t177 54.5q115 0 181.5 -53t66.5 -141q0 -45 -23 -93l13 -75
q49 -46 49 -123q0 -93 -80.5 -154t-206.5 -61zM1307 295l-68 -35q-8 -18 -8 -53q0 -88 135 -88q71 0 104 20.5t33 67.5l-33 51q-40 18 -163 37zM1393 410l69 49q2 10 2 39l-32 45q-24 14 -66 14q-36 0 -63 -12l-33 -53v-13l24 -43q25 -16 99 -26z" />
    <glyph glyph-name="fiveeighths" unicode="&#x215d;" horiz-adv-x="1693" 
d="M143 1313l21 18h409l21 -20v-92l-21 -21h-45l-24 -117q117 -59 117 -196q0 -106 -77 -174t-204 -68q-152 0 -252 76l-4 29l53 75l29 6q83 -55 176 -55q55 0 90 28t35 83q0 49 -32 73.5t-87 24.5q-76 0 -129 -35l-39 2l-43 15l-14 20zM1231 1343l100 -67l4 -29l-913 -1321
l-29 -4l-100 68l-4 28l913 1321zM1325 -12q-129 0 -207 59.5t-78 159.5q0 76 52 137l8 68q-21 38 -21 82q0 85 69 139.5t177 54.5q115 0 181.5 -53t66.5 -141q0 -45 -23 -93l13 -75q49 -46 49 -123q0 -93 -80.5 -154t-206.5 -61zM1266 295l-68 -35q-8 -18 -8 -53
q0 -88 135 -88q71 0 104 20.5t33 67.5l-32 51q-40 18 -164 37zM1352 410l69 49q2 10 2 39l-32 45q-25 14 -66 14q-36 0 -63 -12l-33 -53v-13l24 -43q25 -16 99 -26z" />
    <glyph glyph-name="seveneighths" unicode="&#x215e;" horiz-adv-x="1570" 
d="M72 1311l20 20h471l21 -20v-90l-240 -553l-20 -13h-117l-19 29l195 430l-55 86h-236l-20 21v90zM1108 1343l100 -67l4 -29l-913 -1321l-29 -4l-100 68l-4 28l913 1321zM1202 -12q-128 0 -206 59t-78 160q0 77 51 137l8 68q-21 38 -21 82q0 85 69 139.5t177 54.5
q115 0 181.5 -53t66.5 -141q0 -45 -23 -93l13 -75q49 -46 49 -123q0 -93 -80.5 -154t-206.5 -61zM1143 295l-68 -35q-8 -18 -8 -53q0 -88 135 -88q71 0 104 20.5t33 67.5l-32 51q-40 18 -164 37zM1229 410l69 49q2 10 2 39l-32 45q-25 14 -66 14q-36 0 -63 -12l-33 -53v-13
l24 -43q25 -16 99 -26z" />
    <glyph glyph-name="arrowleft" unicode="&#x2190;" horiz-adv-x="1720" 
d="M578 1147l30 2l97 -90l2 -29l-160 -174l45 -102h944l20 -21v-131l-20 -20h-944l-45 -105l160 -172l-2 -29l-97 -92l-28 2l-430 465l-7 17l7 16z" />
    <glyph glyph-name="arrowup" unicode="&#x2191;" horiz-adv-x="1318" 
d="M1143 948l-92 -100l-29 -2l-168 158l-104 -46v-938l-21 -20h-139l-21 20v938l-102 46l-168 -156l-31 2l-90 98l2 29l463 430l16 6l17 -6l465 -432z" />
    <glyph glyph-name="arrowright" unicode="&#x2192;" horiz-adv-x="1720" 
d="M1141 1147l430 -463l6 -16l-6 -17l-430 -465l-29 -2l-96 92v29l158 174l-48 103h-942l-20 20v131l20 21h942l48 102l-158 172v29l96 92z" />
    <glyph glyph-name="arrowdown" unicode="&#x2193;" horiz-adv-x="1318" 
d="M590 1331h139l21 -20v-940l102 -45l170 157l29 -2l92 -98l-2 -29l-465 -432l-17 -4l-16 4l-463 432l-2 29l90 98l31 2l168 -157l102 45v940z" />
    <glyph glyph-name="uni2196" unicode="&#x2196;" horiz-adv-x="1525" 
d="M932 1188l20 -21v-127l-20 -20h-242l-45 -105l662 -661v-29l-99 -98h-28l-662 661l-104 -45v-241l-21 -21h-127l-20 21v659l8 19l18 8h660z" />
    <glyph glyph-name="uni2197" unicode="&#x2197;" horiz-adv-x="1525" 
d="M573 1167l21 21h659l19 -8l8 -19v-659l-20 -21h-127l-21 21v241l-104 45l-662 -661h-29l-98 98v29l662 661l-45 105h-242l-21 20v127z" />
    <glyph glyph-name="uni2198" unicode="&#x2198;" horiz-adv-x="1525" 
d="M594 143l-21 21v127l21 20h242l45 105l-662 661v29l98 98h29l662 -661l104 45v241l21 21h127l20 -21v-659l-8 -18l-19 -9h-659z" />
    <glyph glyph-name="uni2199" unicode="&#x2199;" horiz-adv-x="1525" 
d="M952 164l-20 -21h-660l-18 9l-8 18v659l20 21h127l21 -21v-241l104 -45l662 661h28l99 -98v-29l-662 -661l45 -105h242l20 -20v-127z" />
    <glyph glyph-name="minus" unicode="&#x2212;" horiz-adv-x="921" 
d="M123 731l20 21h635l21 -21v-127l-21 -20h-635l-20 20v127z" />
    <glyph glyph-name="approxequal" unicode="&#x2248;" horiz-adv-x="921" 
d="M725 608l92 -76l4 -26q-85 -127 -227 -127q-46 0 -84 14t-59 31t-51 31t-62 14q-66 0 -113 -53l-28 -2l-91 75l-4 29q36 59 96 92t130 33q47 0 85 -14t58.5 -31t50 -31t62.5 -14q68 0 112 53zM725 971l92 -76l4 -27q-85 -127 -227 -127q-46 0 -84 14t-59 31t-51 31
t-62 14q-66 0 -113 -53l-28 -2l-91 76l-4 29q36 59 96 92t130 33q47 0 85 -14t58.5 -31.5t50 -31.5t62.5 -14q67 0 112 54z" />
    <glyph glyph-name="notequal" unicode="&#x2260;" horiz-adv-x="921" 
d="M123 936l20 20h246l60 48l30 116l25 15l125 -31l16 -27l-12 -43l59 -78h86l21 -20v-127l-21 -21h-160l-61 -47l-18 -75l61 -76h178l21 -21v-127l-21 -20h-252l-59 -47l-31 -123l-24 -14l-127 30l-15 25l13 53l-60 76h-80l-20 20v127l20 21h154l59 47l19 76l-60 75h-172
l-20 21v127z" />
    <glyph glyph-name="lessequal" unicode="&#x2264;" horiz-adv-x="745" 
d="M506 1266l29 -2l94 -95v-28l-260 -240v-98l243 -199l2 -29l-88 -108l-55 -6l-39 -105l158 -133l2 -28l-90 -103l-29 -2l-383 320l-8 16v33l6 14l78 86h41l35 111l-152 123l-8 16v53l8 15z" />
    <glyph glyph-name="greaterequal" unicode="&#x2265;" horiz-adv-x="745" 
d="M231 1253h29l397 -376l7 -15v-53l-7 -16l-149 -121l35 -111h37l79 -88l5 -14v-33l-7 -16l-383 -320l-28 2l-92 103l2 28l129 111l-33 106l-51 6l-88 109l2 31l264 219v94l-240 231v29z" />
    <glyph glyph-name="ff.l" unicode="&#xfb00;" horiz-adv-x="1306" 
d="M100 874l64 5l57 59q6 174 117 277.5t299 103.5q132 0 235 -47l66 8q90 78 233 78q49 0 97 -10l16 -25l-20 -121l-25 -18q-34 6 -59 6q-83 0 -125.5 -47t-42.5 -135v-66l61 -61h127l21 -21v-125l-21 -20h-127l-61 -62v-633l-21 -20h-143l-21 20v633l-61 62h-299l-61 -62
v-633l-21 -20h-143l-21 20v633l-61 62h-58l-20 20v119zM635 1151q-116 0 -171 -56.5t-58 -150.5l61 -63h299l61 61v62q0 37 2 53l-34 61q-62 33 -160 33z" />
    <glyph glyph-name="fl.l" unicode="&#xfb02;" horiz-adv-x="1212" 
d="M100 877l64 4l57 59v8q0 185 120 297.5t316 112.5q207 0 351 -103l10 -16v-999q0 -38 19.5 -61t56.5 -23q22 0 34 4l23 -19l18 -121l-14 -22q-49 -14 -102 -14q-108 0 -163.5 64t-55.5 188v872l-39 57q-67 25 -140 25q-122 0 -185.5 -62.5t-63.5 -177.5v-8l61 -61h127
l20 -21v-125l-20 -20h-127l-61 -62v-633l-21 -20h-143l-21 20v633l-61 62h-58l-20 20v119z" />
    <glyph glyph-name="ffl.l" unicode="&#xfb04;" horiz-adv-x="1818" 
d="M82 856l18 18l64 5l57 59q8 176 118 278.5t298 102.5q153 0 262 -62l68 7q117 94 297 94q206 0 350 -103l10 -16v-999q0 -40 20.5 -62t55.5 -22q15 0 35 4l24 -19l17 -121l-15 -22q-49 -14 -102 -14q-108 0 -163.5 64t-55.5 188v872l-39 57q-67 25 -139 25
q-121 0 -185.5 -62t-64.5 -178v-8l61 -61h127l21 -21v-125l-21 -20h-127l-61 -62v-633l-21 -20h-143l-21 20v633l-61 62h-299l-61 -62v-633l-21 -20h-143l-21 20v633l-61 62h-58l-20 20v121zM635 1151q-219 0 -229 -207l61 -63h299l61 61v8q0 56 11 99l-35 69
q-84 33 -168 33z" />
    <glyph glyph-name="lst.l" unicode="&#xfb05;" horiz-adv-x="1234" 
d="M614 872l58 5l57 53l19 166l-33 61q-68 33 -146 33q-118 0 -179.5 -63t-61.5 -185v-922l-21 -20h-143l-21 20v922q0 188 113.5 302t304.5 114q202 0 354 -123l9 -16l-13 -275l62 -63h133l20 -21v-125l-20 -20h-133l-62 -62v-354q0 -149 136 -149q34 0 61 6l25 -17
l18 -119l-14 -24q-55 -16 -129 -16q-135 0 -208 79t-73 220v374l-61 62h-50l-20 20v117z" />
    <glyph glyph-name="st.l" unicode="&#xfb06;" horiz-adv-x="1660" 
d="M813 795l-63 -113l-29 -8q-116 67 -236 67q-172 0 -172 -100q0 -53 43.5 -79t141.5 -34q180 -13 265 -80.5t85 -191.5q0 -131 -102.5 -203.5t-282.5 -72.5q-106 0 -188 22.5t-158 73.5l-6 26l61 109l29 6q128 -78 264 -78q107 0 156 27t49 86q0 57 -44 83t-153 32
q-172 9 -256 74.5t-84 193.5q0 123 99.5 194.5t254.5 71.5l84 68q-2 14 -2 45q0 149 107 246.5t276 97.5q253 0 391 -199l5 -12l-9 -203l60 -63h133l20 -21v-125l-20 -20h-133l-62 -62v-354q0 -149 136 -149q32 0 59 6l24 -17l19 -121l-14 -24q-57 -14 -127 -14
q-135 0 -208 79t-73 220v374l-61 62h-50l-20 20v117l18 20l58 5l57 53l16 139l-14 49q-77 86 -201 86q-101 0 -158 -54t-57 -149q0 -108 70 -184z" />
    <glyph glyph-name="dblgrave" horiz-adv-x="606" 
d="M369 1440l28 -10l127 -316l-18 -29h-117l-18 11l-33 65l-90 -45l-19 -31h-116l-17 9l-145 215l6 28l113 70l28 -8l52 -96l90 49l8 30z" />
    <glyph glyph-name="commaaccent" horiz-adv-x="434" 
d="M240 -518l-27 -12l-80 24l-14 27l35 102l-17 64q-35 30 -35 86q0 47 32 79.5t81 32.5q53 0 85 -32t32 -82q0 -41 -19 -90z" />
    <glyph glyph-name="dieresisi" horiz-adv-x="706" 
d="M180 1319q50 0 84.5 -33.5t34.5 -83.5t-34.5 -83.5t-84.5 -33.5t-84.5 33.5t-34.5 83.5t34.5 83.5t84.5 33.5zM526 1319q50 0 84.5 -33.5t34.5 -83.5t-34.5 -83.5t-84.5 -33.5t-84 33t-34 84t34 84t84 33z" />
    <glyph glyph-name="macroni" horiz-adv-x="630" 
d="M92 1247l21 21h405l21 -21v-119l-21 -20h-405l-21 20v119z" />
    <glyph glyph-name="Dieresisi" horiz-adv-x="806" 
d="M209 1798q55 0 91 -35.5t36 -89.5t-36.5 -89.5t-90.5 -35.5q-55 0 -91 35.5t-36 89.5t36.5 89.5t90.5 35.5zM598 1798q55 0 91 -35.5t36 -89.5t-36.5 -89.5t-90.5 -35.5q-55 0 -91 35.5t-36 89.5t36.5 89.5t90.5 35.5z" />
    <glyph glyph-name="Macroni" horiz-adv-x="673" 
d="M61 1733l21 20h510l20 -20v-121l-20 -21h-510l-21 21v121z" />
    <glyph glyph-name="Acute" horiz-adv-x="319" 
d="M238 1964l26 8l129 -61l8 -29l-174 -317l-18 -11h-131l-19 29z" />
    <glyph glyph-name="Breve" horiz-adv-x="724" 
d="M92 1841h123l21 -18q6 -61 39.5 -98t86.5 -37q54 0 87.5 37t39.5 98l21 18h123l20 -22q-9 -123 -89 -202t-202 -79t-203 78t-87 203z" />
    <glyph glyph-name="Caron" horiz-adv-x="677" 
d="M123 1845l27 2l153 -114h74l153 114l27 -2l74 -82l6 -20l-8 -19l-260 -208l-15 -5h-32l-13 5l-260 208l-8 21l6 20z" />
    <glyph glyph-name="Cedilla" horiz-adv-x="489" 
d="M137 0l21 20h123l20 -20v-72l35 -55q52 -25 82.5 -78t30.5 -121q0 -127 -95.5 -213t-259.5 -116l-24 14l-25 113l16 24q113 22 165.5 62t52.5 104q0 107 -121 107h-17l-20 20v8l16 97v106z" />
    <glyph glyph-name="Commaaccent" horiz-adv-x="421" 
d="M119 -526l31 108l-19 62q-37 34 -37 90q0 51 34.5 86t86.5 35q54 0 89.5 -34.5t35.5 -88.5q0 -46 -18 -90l-82 -207l-25 -13l-84 27z" />
    <glyph glyph-name="Circumflex" horiz-adv-x="638" 
d="M289 1855l12 5h33l14 -5l260 -208l8 -21l-6 -20l-75 -80l-27 -4l-154 116h-73l-154 -114l-27 2l-73 82l-7 20l9 19z" />
    <glyph glyph-name="Dieresis" horiz-adv-x="899" 
d="M209 1798q55 0 91 -35.5t36 -89.5t-36.5 -89.5t-90.5 -35.5q-55 0 -91 35.5t-36 89.5t36.5 89.5t90.5 35.5zM690 1798q55 0 91 -35.5t36 -89.5t-36.5 -89.5t-90.5 -35.5q-55 0 -91 35.5t-36 89.5t36.5 89.5t90.5 35.5z" />
    <glyph glyph-name="Dotaccent" horiz-adv-x="630" 
d="M315 1806q58 0 94.5 -37t36.5 -92t-37 -92t-94 -37q-58 0 -94.5 37t-36.5 92t37 92t94 37z" />
    <glyph glyph-name="Hungarumlaut" horiz-adv-x="571" 
d="M182 1925l27 12l127 -49l12 -24l111 -52l37 78l26 11l121 -66l8 -29l-141 -241l-18 -11h-117l-19 33l-96 37l-22 -57l-19 -13h-123l-18 27z" />
    <glyph glyph-name="Grave" horiz-adv-x="319" 
d="M-94 1882l8 29l129 61l27 -8l178 -381l-19 -29h-131l-18 11z" />
    <glyph glyph-name="Dblgrave" horiz-adv-x="573" 
d="M379 1937l27 -12l104 -344l-18 -27h-123l-19 13l-22 57l-97 -37l-18 -33h-117l-18 11l-141 241l8 29l121 66l26 -11l37 -78l111 52l12 24z" />
    <glyph glyph-name="Macron" horiz-adv-x="817" 
d="M61 1733l21 20h653l21 -20v-121l-21 -21h-653l-21 21v121z" />
    <glyph glyph-name="Ogonek" horiz-adv-x="471" 
d="M406 -291l-29 -119l-23 -16q-130 20 -201 96t-71 193q0 75 39.5 137.5t107.5 89.5l19 -2l80 -59l-6 -35q-34 -10 -53 -38.5t-19 -66.5q0 -131 139 -155z" />
    <glyph glyph-name="Ring" horiz-adv-x="602" 
d="M301 1939q103 0 171.5 -67t68.5 -162t-68.5 -162t-171.5 -67q-102 0 -171 67t-69 162t69 162t171 67zM301 1804q-40 0 -67 -26.5t-27 -67.5t27 -67.5t67 -26.5t67 26.5t27 67.5t-27 67.5t-67 26.5z" />
    <glyph glyph-name="Tilde" horiz-adv-x="765" 
d="M631 1778l90 -70l4 -27q-77 -125 -217 -125q-47 0 -84 13t-57 29t-48.5 29t-60.5 13q-57 0 -94 -49l-29 -4l-90 70l-4 26q78 125 217 125q46 0 83 -13t57.5 -29t49 -29t60.5 -13q56 0 94 50z" />
    <glyph glyph-name="tildei" horiz-adv-x="585" 
d="M25 1147l-9 27q53 133 177 133q34 0 62.5 -12t44 -27t35.5 -27t40 -12q41 0 65 37l27 8l92 -43l10 -27q-51 -139 -186 -139q-33 0 -61.5 12t-44.5 27t-37 27t-41 12q-47 0 -70 -39l-29 -6z" />
    <glyph glyph-name="Tildei" horiz-adv-x="647" 
d="M522 1784l82 -64l6 -22q-51 -127 -172 -127q-38 0 -67.5 10t-44.5 21.5t-37.5 21.5t-48.5 10q-55 0 -86 -45l-29 -4l-82 62l-6 24q59 127 172 127q54 0 87.5 -16t58 -31.5t53.5 -15.5q57 0 86 45z" />
    <glyph glyph-name="gjlogo" horiz-adv-x="2555" 
d="M410 713h14l12 -15v-28l39 -39h17l12 -15v-16l-12 -12h-17l-39 -39v-193q0 -94 -42 -144t-126 -50q-47 0 -82 14l-6 17l8 16l17 8q22 -10 51 -10l41 39v147l-47 39q-41 0 -64.5 26.5t-23.5 73.5q0 46 26 76.5t66 30.5h12zM295 555l-37 41q-22 0 -35.5 -16.5t-13.5 -47.5
q0 -20 4 -32l31 -25h14l33 23q4 12 4 22v35zM1782 561h18l15 -14v-201q0 -71 -56 -104l-18 4l-8 12l6 21q28 19 28 69v199zM846 506l-17 -2q-24 18 -53 18q-40 0 -59 -25t-19 -61q0 -37 21 -60.5t61 -23.5l41 41v35l15 14h18l14 -14v-84l-6 -10q-44 -23 -88 -23
q-56 0 -89.5 33t-33.5 92q0 56 35 91.5t92 35.5q48 0 78 -24l2 -19zM2122 330l-13 -17h-22l-12 9l-33 81h-74l-31 -79l-12 -11h-24l-11 19l90 221l13 8h24l13 -8zM1470 561h15l10 -6l57 -74l68 27v39l14 14h17l14 -14v-219l-14 -15h-17l-10 4l-55 72l-70 -24v-37l-14 -15
h-15l-14 15v219zM1212 561h142l14 -14v-15l-27 -24v-47l15 -15v-14l-15 -14v-43l33 -33v-16l-12 -13h-150l-14 15v219zM965 561h18l14 -14v-150l41 -41h70l14 -14v-14l-14 -15h-143l-15 15v219zM2212 561h14l10 -6l58 -74l67 27v39l15 14h16l14 -14v-219l-14 -15h-16l-11 4
l-55 72l-69 -24v-37l-15 -15h-14l-14 15v219z" />
    <glyph glyph-name="idotaccent" horiz-adv-x="471" 
d="M143 860l21 21h143l21 -21v-840l-21 -20h-143l-21 20v840zM236 1339q52 0 87 -35.5t35 -91.5q0 -55 -35 -90t-87 -35t-87.5 35t-35.5 90q0 56 35.5 91.5t87.5 35.5z" />
    <glyph glyph-name="Q.1" horiz-adv-x="1409" 
d="M1307 -119l-99 -98h-28l-154 149q-94 91 -178 128.5t-189 37.5q-153 0 -251 -67l-25 2q-136 108 -208.5 272t-72.5 361q0 194 77 352.5t215.5 249t310.5 90.5q128 0 238.5 -49.5t191 -138t126.5 -219t46 -285.5q0 -149 -47 -280.5t-136 -227.5l4 -86l177 -160zM893 223
l63 13q77 71 117.5 181.5t40.5 248.5q0 230 -110 377t-299 147q-185 0 -297.5 -143.5t-112.5 -380.5q0 -238 117 -408l71 -25q85 33 189 33q114 0 221 -43z" />
    <glyph glyph-name="Dotlessi" horiz-adv-x="561" 
d="M184 1311l21 20h151l21 -20v-1291l-21 -20h-151l-21 20v1291z" />
    <glyph glyph-name="Dotlessj" horiz-adv-x="847" 
d="M483 1311l21 20h149l21 -20v-850q0 -231 -109.5 -359.5t-310.5 -128.5q-85 0 -154 17l-14 24l29 131l24 15q57 -13 109 -13q111 0 173 81t62 233v850z" />
    <glyph glyph-name="Kgreenlandic" horiz-adv-x="1341" 
d="M184 1311l21 20h151l21 -20v-469l63 -62l95 6l45 25l352 512l16 8h195l16 -33l-399 -548v-74l475 -643l-16 -33h-193l-16 8l-410 578l-51 26h-111l-61 -61v-531l-21 -20h-151l-21 20v1291z" />
    <glyph glyph-name="Napostrophe" horiz-adv-x="1640" 
d="M422 1311l20 20h142l16 -10l559 -846l113 35v801l20 20h144l20 -20v-1291l-20 -20h-160l-16 8l-541 821l-113 -32v-777l-20 -20h-144l-20 20v1291zM25 1034l30 109l-18 61q-37 34 -37 90q0 51 34.5 86t86.5 35q54 0 89.5 -34.5t35.5 -88.5q0 -44 -19 -90l-82 -207
l-24 -12l-84 27z" />
    <glyph glyph-name="Longs" horiz-adv-x="1255" 
d="M1083 1196l-82 -117l-28 -6q-154 117 -342 117q-135 0 -203 -53t-68 -150q0 -103 68 -151.5t223 -63.5q231 -23 356.5 -124.5t125.5 -268.5q0 -184 -142 -295t-373 -111q-281 0 -479 144l-6 28l80 121l29 6q183 -131 383 -131q150 0 234.5 62t84.5 172q0 100 -77.5 153
t-243.5 68q-451 41 -451 379q0 176 126.5 279.5t336.5 103.5q265 0 444 -135z" />
    <glyph glyph-name="Germandbls.1" horiz-adv-x="2478" 
d="M1083 1196l-82 -117l-28 -6q-154 117 -342 117q-135 0 -203 -53t-68 -150q0 -103 68 -151.5t223 -63.5q231 -23 356.5 -124.5t125.5 -268.5q0 -184 -142 -295t-373 -111q-281 0 -479 144l-6 28l80 121l29 6q183 -131 383 -131q150 0 234.5 62t84.5 172q0 100 -77.5 153
t-243.5 68q-451 41 -451 379q0 176 126.5 279.5t336.5 103.5q265 0 444 -135zM2306 1196l-82 -117l-29 -6q-154 117 -342 117q-135 0 -202.5 -53t-67.5 -150q0 -103 68 -151.5t223 -63.5q231 -23 356 -124.5t125 -268.5q0 -184 -141.5 -295t-372.5 -111q-281 0 -479 144
l-6 28l80 121l28 6q183 -131 383 -131q150 0 235 62t85 172q0 100 -78 153t-244 68q-450 41 -450 379q0 176 126.5 279.5t336.5 103.5q265 0 444 -135z" />
    <glyph glyph-name="zero.slash" horiz-adv-x="1347" 
d="M674 1358q259 0 415 -192t156 -500q0 -191 -68 -347.5t-199.5 -251t-303.5 -94.5q-123 0 -228 48.5t-181 136.5t-119.5 219t-43.5 289q0 194 69.5 350.5t201 249t301.5 92.5zM918 891l-388 -639l33 -94q60 -17 111 -17q176 0 277.5 143.5t101.5 381.5q0 104 -23 204z
M432 440l389 645l-33 86q-55 19 -114 19q-176 0 -277.5 -143t-101.5 -381q0 -116 24 -211z" />
    <glyph glyph-name="a.sc" horiz-adv-x="1210" 
d="M508 1077l20 13h172l19 -13l397 -1048l-20 -29h-154l-18 14l-72 205l-57 41h-375l-58 -41l-73 -205l-19 -14h-157l-21 29zM551 745l-86 -241l59 -82h170l58 82l-84 241h-117z" />
    <glyph glyph-name="aacute.sc" horiz-adv-x="1210" 
d="M508 1077l20 13h172l19 -13l397 -1048l-20 -29h-154l-18 14l-72 205l-57 41h-375l-58 -41l-73 -205l-19 -14h-157l-21 29zM551 745l-86 -241l59 -82h170l58 82l-84 241h-117zM745 1698l27 8l129 -61l8 -29l-174 -318l-18 -10h-131l-19 29z" />
    <glyph glyph-name="abreve.sc" horiz-adv-x="1210" 
d="M508 1077l20 13h172l19 -13l397 -1048l-20 -29h-154l-18 14l-72 205l-57 41h-375l-58 -41l-73 -205l-19 -14h-157l-21 29zM551 745l-86 -241l59 -82h170l58 82l-84 241h-117zM340 1575h123l20 -19q6 -61 40 -98t87 -37q54 0 87.5 37t39.5 98l21 19h123l20 -23
q-9 -123 -89 -201.5t-202 -78.5t-203.5 77.5t-87.5 202.5z" />
    <glyph glyph-name="acircumflex.sc" horiz-adv-x="1210" 
d="M508 1077l20 13h172l19 -13l397 -1048l-20 -29h-154l-18 14l-72 205l-57 41h-375l-58 -41l-73 -205l-19 -14h-157l-21 29zM551 745l-86 -241l59 -82h170l58 82l-84 241h-117zM578 1589l12 4h33l14 -4l260 -209l8 -20l-6 -21l-76 -79l-26 -5l-154 117h-74l-153 -115l-27 3
l-74 81l-6 21l8 18z" />
    <glyph glyph-name="adieresis.sc" horiz-adv-x="1210" 
d="M508 1077l20 13h172l19 -13l397 -1048l-20 -29h-154l-18 14l-72 205l-57 41h-375l-58 -41l-73 -205l-19 -14h-157l-21 29zM551 745l-86 -241l59 -82h170l58 82l-84 241h-117zM367 1532q55 0 91 -35.5t36 -89.5t-36.5 -89.5t-90.5 -35.5q-55 0 -91 35.5t-36 89.5
t36.5 89.5t90.5 35.5zM848 1532q55 0 91 -35.5t36 -89.5t-36.5 -89.5t-90.5 -35.5q-55 0 -91 35.5t-36 89.5t36.5 89.5t90.5 35.5z" />
    <glyph glyph-name="agrave.sc" horiz-adv-x="1210" 
d="M508 1077l20 13h172l19 -13l397 -1048l-20 -29h-154l-18 14l-72 205l-57 41h-375l-58 -41l-73 -205l-19 -14h-157l-21 29zM551 745l-86 -241l59 -82h170l58 82l-84 241h-117zM317 1616l9 29l129 61l26 -8l178 -381l-18 -29h-131l-18 10z" />
    <glyph glyph-name="amacron.sc" horiz-adv-x="1210" 
d="M508 1077l20 13h172l19 -13l397 -1048l-20 -29h-154l-18 14l-72 205l-57 41h-375l-58 -41l-73 -205l-19 -14h-157l-21 29zM551 745l-86 -241l59 -82h170l58 82l-84 241h-117zM260 1466l21 21h653l20 -21v-120l-20 -21h-653l-21 21v120z" />
    <glyph glyph-name="aogonek.sc" horiz-adv-x="1210" 
d="M508 1077l20 13h172l19 -13l397 -1048l-20 -29q-55 0 -87 -30.5t-32 -80.5q0 -129 139 -155l14 -27l-26 -106l-23 -17q-127 19 -198.5 92.5t-71.5 186.5q0 103 68 174l14 63l-41 119l-57 41h-375l-58 -41l-73 -205l-19 -14h-157l-21 29zM551 745l-86 -241l59 -82h170
l58 82l-84 241h-117z" />
    <glyph glyph-name="aring.sc" horiz-adv-x="1210" 
d="M508 1077l20 13h172l19 -13l397 -1048l-20 -29h-154l-18 14l-72 205l-57 41h-375l-58 -41l-73 -205l-19 -14h-157l-21 29zM551 745l-86 -241l59 -82h170l58 82l-84 241h-117zM606 1673q103 0 171.5 -67t68.5 -162t-68.5 -162.5t-171.5 -67.5q-102 0 -170.5 67.5
t-68.5 162.5t68.5 162t170.5 67zM606 1538q-40 0 -67 -26.5t-27 -67.5t27 -67.5t67 -26.5t67 26.5t27 67.5t-27 67.5t-67 26.5z" />
    <glyph glyph-name="atilde.sc" horiz-adv-x="1210" 
d="M508 1077l20 13h172l19 -13l397 -1048l-20 -29h-154l-18 14l-72 205l-57 41h-375l-58 -41l-73 -205l-19 -14h-157l-21 29zM551 745l-86 -241l59 -82h170l58 82l-84 241h-117zM854 1511l90 -69l4 -27q-77 -125 -217 -125q-47 0 -84 13t-57 29t-48.5 29t-60.5 13
q-57 0 -94 -49l-29 -4l-90 70l-4 26q78 125 217 125q46 0 83 -13t57.5 -29t49 -29t60.5 -13q57 0 94 49z" />
    <glyph glyph-name="adblgrave.sc" horiz-adv-x="1210" 
d="M508 1077l20 13h172l19 -13l397 -1048l-20 -29h-154l-18 14l-72 205l-57 41h-375l-58 -41l-73 -205l-19 -14h-157l-21 29zM551 745l-86 -241l59 -82h170l58 82l-84 241h-117zM694 1671l27 -12l104 -344l-18 -27h-123l-18 12l-23 58l-96 -37l-19 -33h-116l-19 10l-141 242
l8 29l121 65l27 -10l36 -78l111 51l12 25z" />
    <glyph glyph-name="acircum.sc" horiz-adv-x="1210" 
d="M508 1077l20 13h172l19 -13l397 -1048l-20 -29h-154l-18 14l-72 205l-57 41h-375l-58 -41l-73 -205l-19 -14h-157l-21 29zM551 745l-86 -241l59 -82h170l58 82l-84 241h-117zM578 1589l12 4h33l14 -4l260 -209l8 -20l-6 -21l-76 -79l-26 -5l-154 117h-74l-153 -115l-27 3
l-74 81l-6 21l8 18z" />
    <glyph glyph-name="ae.sc" horiz-adv-x="1695" 
d="M717 1075l18 10h789l20 -20v-121l-20 -20h-453l-61 -62v-164l61 -61h393l21 -21v-120l-21 -21h-393l-61 -61v-189l61 -61h481l21 -21v-123l-21 -20h-706l-21 20v158l-61 62h-322l-53 -31l-115 -199l-18 -10h-168l-18 31zM711 758l-154 -264l51 -93h156l61 62v262z" />
    <glyph glyph-name="aeacute.sc" horiz-adv-x="1695" 
d="M717 1075l18 10h789l20 -20v-121l-20 -20h-453l-61 -62v-164l61 -61h393l21 -21v-120l-21 -21h-393l-61 -61v-189l61 -61h481l21 -21v-123l-21 -20h-706l-21 20v158l-61 62h-322l-53 -31l-115 -199l-18 -10h-168l-18 31zM711 758l-154 -264l51 -93h156l61 62v262z
M1092 1698l26 8l129 -61l8 -29l-174 -318l-18 -10h-131l-19 29z" />
    <glyph glyph-name="b.sc" horiz-adv-x="1116" 
d="M164 1065l20 20h391q164 0 265.5 -82.5t101.5 -216.5q0 -100 -49 -157v-88q100 -77 100 -226q0 -145 -105.5 -230t-285.5 -85h-418l-20 20v1045zM352 410v-185l62 -61h192q199 0 199 151q0 156 -199 156h-192zM352 860v-166l62 -61h178q79 0 120.5 37t41.5 108
q0 144 -185 144h-155z" />
    <glyph glyph-name="c.sc" horiz-adv-x="1114" 
d="M977 952l-90 -104l-29 -2q-104 98 -240 98q-148 0 -238.5 -110.5t-90.5 -290.5q0 -177 90.5 -289.5t234.5 -112.5q150 0 267 111l28 -2l88 -94v-29q-81 -81 -173 -116.5t-218 -35.5q-222 0 -363 156t-141 412q0 158 64 287t184 204.5t273 75.5q214 0 352 -129z" />
    <glyph glyph-name="cacute.sc" horiz-adv-x="1114" 
d="M977 952l-90 -104l-29 -2q-104 98 -240 98q-148 0 -238.5 -110.5t-90.5 -290.5q0 -177 90.5 -289.5t234.5 -112.5q150 0 267 111l28 -2l88 -94v-29q-81 -81 -173 -116.5t-218 -35.5q-222 0 -363 156t-141 412q0 158 64 287t184 204.5t273 75.5q214 0 352 -129zM723 1698
l27 8l129 -61l8 -29l-174 -318l-19 -10h-131l-18 29z" />
    <glyph glyph-name="ccaron.sc" horiz-adv-x="1114" 
d="M977 952l-90 -104l-29 -2q-104 98 -240 98q-148 0 -238.5 -110.5t-90.5 -290.5q0 -177 90.5 -289.5t234.5 -112.5q150 0 267 111l28 -2l88 -94v-29q-81 -81 -173 -116.5t-218 -35.5q-222 0 -363 156t-141 412q0 158 64 287t184 204.5t273 75.5q214 0 352 -129zM414 1599
l26 3l154 -115h74l153 115l27 -3l74 -81l6 -21l-8 -18l-261 -209l-14 -4h-33l-12 4l-260 209l-8 20l6 21z" />
    <glyph glyph-name="ccedilla.sc" horiz-adv-x="1114" 
d="M977 952l-90 -104l-31 -2q-104 98 -238 98q-149 0 -239 -110.5t-90 -290.5q0 -177 90.5 -289.5t234.5 -112.5q150 0 267 111l28 -2l88 -94v-29q-104 -107 -254 -139l-24 -109q65 -50 65 -147q0 -100 -71.5 -175.5t-202.5 -115.5l-27 12l-34 105l12 26q75 22 115 58.5
t40 83.5q0 10 -2 14l-36 47q-13 8 -48 8h-28l-21 21v12l21 84v25l-45 59q-163 47 -259 194.5t-96 352.5q0 118 37.5 222t104.5 180.5t165 120.5t214 44q220 0 352 -129z" />
    <glyph glyph-name="ccircumflex.sc" horiz-adv-x="1114" 
d="M977 952l-90 -104l-29 -2q-104 98 -240 98q-148 0 -238.5 -110.5t-90.5 -290.5q0 -177 90.5 -289.5t234.5 -112.5q150 0 267 111l28 -2l88 -94v-29q-81 -81 -173 -116.5t-218 -35.5q-222 0 -363 156t-141 412q0 158 64 287t184 204.5t273 75.5q214 0 352 -129zM598 1610
l12 4h33l14 -4l261 -209l8 -21l-6 -20l-76 -80l-27 -4l-153 117h-74l-154 -115l-26 2l-74 82l-6 20l8 19z" />
    <glyph glyph-name="cdotaccent.sc" horiz-adv-x="1114" 
d="M977 952l-90 -104l-29 -2q-104 98 -240 98q-148 0 -238.5 -110.5t-90.5 -290.5q0 -177 90.5 -289.5t234.5 -112.5q150 0 267 111l28 -2l88 -94v-29q-81 -81 -173 -116.5t-218 -35.5q-222 0 -363 156t-141 412q0 158 64 287t184 204.5t273 75.5q214 0 352 -129zM639 1540
q58 0 94.5 -37t36.5 -92t-37 -92t-94 -37q-58 0 -94.5 37t-36.5 92t37 92t94 37z" />
    <glyph glyph-name="d.sc" horiz-adv-x="1148" 
d="M164 1065l20 20h340q243 0 383 -147t140 -399q0 -244 -143.5 -391.5t-385.5 -147.5h-334l-20 20v1045zM352 858v-631l62 -61h104q159 0 250.5 99.5t91.5 273.5q0 186 -87.5 283.5t-256.5 97.5h-102z" />
    <glyph glyph-name="dcaron.sc" horiz-adv-x="1148" 
d="M164 1065l20 20h340q243 0 383 -147t140 -399q0 -244 -143.5 -391.5t-385.5 -147.5h-334l-20 20v1045zM352 858v-631l62 -61h104q159 0 250.5 99.5t91.5 273.5q0 186 -87.5 283.5t-256.5 97.5h-102zM342 1579l27 2l153 -115h74l154 115l26 -2l74 -82l6 -20l-8 -19
l-260 -209l-15 -4h-32l-13 4l-260 209l-8 21l6 20z" />
    <glyph glyph-name="dcroat.sc" horiz-adv-x="1169" 
d="M184 1065l21 20h340q244 0 383 -146.5t139 -399.5q0 -244 -143 -391.5t-385 -147.5h-334l-21 20v379l-61 62h-51l-21 20v121l21 21h51l61 61v381zM582 461h-148l-61 -62v-172l61 -61h105q158 0 250 98t92 275q0 188 -88 284.5t-256 96.5h-103l-61 -62v-174l61 -61h148
l20 -21v-121z" />
    <glyph glyph-name="e.sc" horiz-adv-x="1044" 
d="M164 1065l20 20h688l21 -20v-121l-21 -20h-460l-62 -62v-164l62 -61h401l21 -21v-120l-21 -21h-401l-62 -61v-189l62 -61h489l21 -21v-123l-21 -20h-717l-20 20v1045z" />
    <glyph glyph-name="eacute.sc" horiz-adv-x="1044" 
d="M164 1065l20 20h688l21 -20v-121l-21 -20h-460l-62 -62v-164l62 -61h401l21 -21v-120l-21 -21h-401l-62 -61v-189l62 -61h489l21 -21v-123l-21 -20h-717l-20 20v1045zM635 1698l27 8l129 -61l8 -29l-174 -318l-19 -10h-131l-18 29z" />
    <glyph glyph-name="ebreve.sc" horiz-adv-x="1044" 
d="M164 1065l20 20h688l21 -20v-121l-21 -20h-460l-62 -62v-164l62 -61h401l21 -21v-120l-21 -21h-401l-62 -61v-189l62 -61h489l21 -21v-123l-21 -20h-717l-20 20v1045zM293 1575h123l20 -19q6 -61 40 -98t87 -37q54 0 87.5 37t39.5 98l21 19h123l20 -23
q-9 -123 -89 -201.5t-202 -78.5t-203.5 77.5t-87.5 202.5z" />
    <glyph glyph-name="ecaron.sc" horiz-adv-x="1044" 
d="M164 1065l20 20h688l21 -20v-121l-21 -20h-460l-62 -62v-164l62 -61h401l21 -21v-120l-21 -21h-401l-62 -61v-189l62 -61h489l21 -21v-123l-21 -20h-717l-20 20v1045zM346 1599l27 3l153 -115h74l154 115l26 -3l74 -81l6 -21l-8 -18l-260 -209l-14 -4h-33l-13 4l-260 209
l-8 20l6 21z" />
    <glyph glyph-name="ecircumflex.sc" horiz-adv-x="1044" 
d="M164 1065l20 20h688l21 -20v-121l-21 -20h-460l-62 -62v-164l62 -61h401l21 -21v-120l-21 -21h-401l-62 -61v-189l62 -61h489l21 -21v-123l-21 -20h-717l-20 20v1045zM528 1610l13 4h32l15 -4l260 -209l8 -21l-6 -20l-76 -80l-26 -4l-154 117h-74l-153 -115l-27 2l-74 82
l-6 20l8 19z" />
    <glyph glyph-name="edieresis.sc" horiz-adv-x="1044" 
d="M164 1065l20 20h688l21 -20v-121l-21 -20h-460l-62 -62v-164l62 -61h401l21 -21v-120l-21 -21h-401l-62 -61v-189l62 -61h489l21 -21v-123l-21 -20h-717l-20 20v1045zM303 1532q55 0 91 -35.5t36 -89.5t-36.5 -89.5t-90.5 -35.5q-55 0 -91 35.5t-36 89.5t36.5 89.5
t90.5 35.5zM784 1532q55 0 91 -35.5t36 -89.5t-36.5 -89.5t-90.5 -35.5q-55 0 -91 35.5t-36 89.5t36.5 89.5t90.5 35.5z" />
    <glyph glyph-name="edotaccent.sc" horiz-adv-x="1044" 
d="M164 1065l20 20h688l21 -20v-121l-21 -20h-460l-62 -62v-164l62 -61h401l21 -21v-120l-21 -21h-401l-62 -61v-189l62 -61h489l21 -21v-123l-21 -20h-717l-20 20v1045zM553 1540q58 0 94.5 -37t36.5 -92t-37 -92t-94 -37q-58 0 -94.5 37t-36.5 92t37 92t94 37z" />
    <glyph glyph-name="egrave.sc" horiz-adv-x="1044" 
d="M164 1065l20 20h688l21 -20v-121l-21 -20h-460l-62 -62v-164l62 -61h401l21 -21v-120l-21 -21h-401l-62 -61v-189l62 -61h489l21 -21v-123l-21 -20h-717l-20 20v1045zM279 1616l8 29l129 61l26 -8l179 -381l-19 -29h-131l-18 10z" />
    <glyph glyph-name="emacron.sc" horiz-adv-x="1044" 
d="M164 1065l20 20h688l21 -20v-121l-21 -20h-460l-62 -62v-164l62 -61h401l21 -21v-120l-21 -21h-401l-62 -61v-189l62 -61h489l21 -21v-123l-21 -20h-717l-20 20v1045zM195 1466l20 21h653l21 -21v-120l-21 -21h-653l-20 21v120z" />
    <glyph glyph-name="eogonek.sc" horiz-adv-x="1044" 
d="M164 1065l20 20h688l21 -20v-121l-21 -20h-460l-62 -62v-164l62 -61h401l21 -21v-120l-21 -21h-401l-62 -61v-189l62 -61h489l21 -21v-123l-21 -20h-18q-54 0 -84.5 -30t-30.5 -81q0 -66 37.5 -105t101.5 -50l15 -27l-27 -104l-23 -17q-123 19 -193.5 94t-70.5 185
q0 32 6 59l-59 76h-371l-20 20v1045z" />
    <glyph glyph-name="edblgrave.sc" horiz-adv-x="1044" 
d="M164 1065l20 20h688l21 -20v-121l-21 -20h-460l-62 -62v-164l62 -61h401l21 -21v-120l-21 -21h-401l-62 -61v-189l62 -61h489l21 -21v-123l-21 -20h-717l-20 20v1045zM639 1671l27 -12l104 -344l-18 -27h-123l-19 12l-22 58l-96 -37l-19 -33h-117l-18 10l-141 242l8 29
l121 65l26 -10l37 -78l111 51l12 25z" />
    <glyph glyph-name="ecircum.sc" horiz-adv-x="1044" 
d="M164 1065l20 20h688l21 -20v-121l-21 -20h-460l-62 -62v-164l62 -61h401l21 -21v-120l-21 -21h-401l-62 -61v-189l62 -61h489l21 -21v-123l-21 -20h-717l-20 20v1045zM528 1610l13 4h32l15 -4l260 -209l8 -21l-6 -20l-76 -80l-26 -4l-154 117h-74l-153 -115l-27 2l-74 82
l-6 20l8 19z" />
    <glyph glyph-name="f.sc" horiz-adv-x="1003" 
d="M164 1065l20 20h676l21 -20v-123l-21 -20h-448l-62 -62v-182l62 -62h387l20 -20v-121l-20 -20h-387l-62 -62v-373l-20 -20h-146l-20 20v1045z" />
    <glyph glyph-name="g.sc" horiz-adv-x="1146" 
d="M616 578l21 20h367l20 -20v-455l-8 -17q-162 -131 -408 -131q-222 0 -364 153t-142 411q0 161 64.5 290.5t186 205t278.5 75.5q213 0 366 -129l2 -31l-92 -102l-28 -2q-50 47 -118 72.5t-138 25.5q-152 0 -243 -111.5t-91 -293.5q0 -174 90.5 -286t236.5 -112
q118 0 197 43l33 54v139l-60 61h-149l-21 25v115z" />
    <glyph glyph-name="gbreve.sc" horiz-adv-x="1146" 
d="M616 578l21 20h367l20 -20v-455l-8 -17q-162 -131 -408 -131q-222 0 -364 153t-142 411q0 161 64.5 290.5t186 205t278.5 75.5q213 0 366 -129l2 -31l-92 -102l-28 -2q-50 47 -118 72.5t-138 25.5q-152 0 -243 -111.5t-91 -293.5q0 -174 90.5 -286t236.5 -112
q118 0 197 43l33 54v139l-60 61h-149l-21 25v115zM362 1575h123l21 -19q6 -61 40 -98t87 -37q54 0 87.5 37t39.5 98l20 19h123l21 -23q-9 -123 -89 -201.5t-202 -78.5t-203.5 77.5t-87.5 202.5z" />
    <glyph glyph-name="gcircumflex.sc" horiz-adv-x="1146" 
d="M616 578l21 20h367l20 -20v-455l-8 -17q-162 -131 -408 -131q-222 0 -364 153t-142 411q0 161 64.5 290.5t186 205t278.5 75.5q213 0 366 -129l2 -31l-92 -102l-28 -2q-50 47 -118 72.5t-138 25.5q-152 0 -243 -111.5t-91 -293.5q0 -174 90.5 -286t236.5 -112
q118 0 197 43l33 54v139l-60 61h-149l-21 25v115zM606 1610l12 4h33l15 -4l260 -209l8 -21l-6 -20l-76 -80l-27 -4l-153 117h-74l-154 -115l-26 2l-74 82l-6 20l8 19z" />
    </font>
</defs>
</svg>
