<svg xmlns="http://www.w3.org/2000/svg">
<defs>
<font id="bBatmanRobinson" horiz-adv-x="714" >
  <font-face 
    font-family="b Batman Robinson"
    font-weight="400"
    font-stretch="normal"
    units-per-em="2048"
    panose-1="2 0 5 3 0 0 0 0 0 0"
    ascent="1597"
    descent="-451"
    x-height="825"
    cap-height="1409"
    bbox="-168 -489 1952 1690"
    underline-thickness="102"
    underline-position="-307"
    unicode-range="U+0020-007E"
  />
<missing-glyph horiz-adv-x="1198" 
d="M487 705q8 2 23 2q35 0 58.5 -28.5t23.5 -68.5q0 -28 -12 -55q-18 -43 -39 -43q-19 0 -45 33q-25 31 -25 53q0 24 33 57q26 29 26 33q0 2 -4 2q-5 0 -38 -16.5t-44 -16.5q-8 0 -8 7q0 6 2 10q3 8 17.5 17.5t31.5 13.5zM326 631q20 -11 77 -88q47 -64 80.5 -83.5
t98.5 -19.5h6q101 0 158 50.5t57 138.5q0 23 -2 35q-6 52 -32 92.5t-52 40.5q-12 0 -12 -13q0 -19 16 -63q10 -30 10 -64q0 -45 -15 -80t-42 -38h-12q-15 0 -21 12t-10 53q-10 87 -42 137t-75 50q-9 0 -18 -3q-83 -19 -105 -83q-12 -39 -51 -48h-1l-2 -1q-28 -7 -28 -11
q1 -4 17 -14zM332 199q8 0 67 45q73 55 107 55q23 0 35 -18q18 -25 18 -54q0 -12 4.5 -17t10 -4.5t9 -0.5t1.5 -8q-3 -11 -35.5 -34.5t-114.5 -76.5q-8 -5 -8 -10q0 -8 72 -8h88v-45q0 -35 -17 -51.5t-55 -16.5q-3 0 -8 1t-8 1q-17 1 -30 -2t-13 -8q0 -1 -41 -7t-41 -18
q0 -7 12 -16t12 -19q0 -16 -18 -51q-5 -10 -10.5 -22t-8 -17t-2.5 -8q0 -4 4 -4t37 20q39 23 142 23q68 0 95.5 5.5t57.5 27.5q49 32 49 55q0 8 -14 8q-5 0 -19.5 16t-27.5 37q-25 36 -25 50q0 16 45 68q2 3 3 4l3 3t3 4q34 39 34 84q0 53 -49 95t-110 65q-25 9 -42.5 20
t-17.5 17q0 4 -1.5 5.5t-6.5 1.5t-13 -2t-22 -7q-11 -4 -45 -7.5t-61.5 -9t-32.5 -14.5q-3 -6 3 -9t18 -3q24 0 24 -8q0 -9 -22 -41q-15 -22 -27 -49t-12 -39q0 -6 4 -6zM469 997q-23 20 -23 27q0 2 3 2q10 0 32.5 -15.5t22.5 -25.5q0 -2 -2 -4q-7 -7 -33 16zM461 1208
q45 45 84 45q38 0 65 -53q27 -56 27 -82q0 -19 -12 -28q-12 -8 -4 -29q2 -4 2 -10q0 -17 -15.5 -32t-34.5 -15q-26 0 -53.5 34.5t-46.5 89.5q-19 54 -22 54q-2 0 -2 -4q0 -11 6 -44.5t12 -61.5l6 -28q-7 0 -32 44.5t-25 58.5q0 16 45 61zM354 1151q13 -31 36.5 -93.5

<glyph glyph-name=".notdef" horiz-adv-x="1198" 
d="M487 705q8 2 23 2q35 0 58.5 -28.5t23.5 -68.5q0 -28 -12 -55q-18 -43 -39 -43q-19 0 -45 33q-25 31 -25 53q0 24 33 57q26 29 26 33q0 2 -4 2q-5 0 -38 -16.5t-44 -16.5q-8 0 -8 7q0 6 2 10q3 8 17.5 17.5t31.5 13.5zM326 631q20 -11 77 -88q47 -64 80.5 -83.5
t98.5 -19.5h6q101 0 158 50.5t57 138.5q0 23 -2 35q-6 52 -32 92.5t-52 40.5q-12 0 -12 -13q0 -19 16 -63q10 -30 10 -64q0 -45 -15 -80t-42 -38h-12q-15 0 -21 12t-10 53q-10 87 -42 137t-75 50q-9 0 -18 -3q-83 -19 -105 -83q-12 -39 -51 -48h-1l-2 -1q-28 -7 -28 -11
q1 -4 17 -14zM332 199q8 0 67 45q73 55 107 55q23 0 35 -18q18 -25 18 -54q0 -12 4.5 -17t10 -4.5t9 -0.5t1.5 -8q-3 -11 -35.5 -34.5t-114.5 -76.5q-8 -5 -8 -10q0 -8 72 -8h88v-45q0 -35 -17 -51.5t-55 -16.5q-3 0 -8 1t-8 1q-17 1 -30 -2t-13 -8q0 -1 -41 -7t-41 -18
q0 -7 12 -16t12 -19q0 -16 -18 -51q-5 -10 -10.5 -22t-8 -17t-2.5 -8q0 -4 4 -4t37 20q39 23 142 23q68 0 95.5 5.5t57.5 27.5q49 32 49 55q0 8 -14 8q-5 0 -19.5 16t-27.5 37q-25 36 -25 50q0 16 45 68q2 3 3 4l3 3t3 4q34 39 34 84q0 53 -49 95t-110 65q-25 9 -42.5 20
t-17.5 17q0 4 -1.5 5.5t-6.5 1.5t-13 -2t-22 -7q-11 -4 -45 -7.5t-61.5 -9t-32.5 -14.5q-3 -6 3 -9t18 -3q24 0 24 -8q0 -9 -22 -41q-15 -22 -27 -49t-12 -39q0 -6 4 -6zM469 997q-23 20 -23 27q0 2 3 2q10 0 32.5 -15.5t22.5 -25.5q0 -2 -2 -4q-7 -7 -33 16zM461 1208
q45 45 84 45q38 0 65 -53q27 -56 27 -82q0 -19 -12 -28q-12 -8 -4 -29q2 -4 2 -10q0 -17 -15.5 -32t-34.5 -15q-26 0 -53.5 34.5t-46.5 89.5q-19 54 -22 54q-2 0 -2 -4q0 -11 6 -44.5t12 -61.5l6 -28q-7 0 -32 44.5t-25 58.5q0 16 45 61zM354 1151q13 -31 36.5 -93.5
t35.5 -92.5h-31q-26 0 -26 -9q0 -13 69.5 -51t69.5 -43q0 -14 20 -14q19 0 27 -19q3 -6 8 -6q13 0 43 33q4 4 10.5 11t9 9t7.5 7t7.5 6.5t7 4t8 3.5t8.5 1.5t10 0.5q6 0 23 -2.5t28 -3.5q77 -8 100 -14q19 -4 20.5 4.5t-4 18.5t4.5 11q10 0 18 -20q6 -19 15 -19q15 0 36 62
q23 67 23 80q0 14 -14 14q-12 0 -52 -16q-50 -21 -84 -21q-40 0 -40 29q0 8 2 12q8 21 8 58q0 83 -35 133q-28 39 -76 65.5t-98 26.5q-52 0 -94 -29q-19 -12 -40 -37t-32 -47zM92 1544h1014v-1960h-1014v1960z" />
    <glyph glyph-name=".null" horiz-adv-x="0" 
 />
    <glyph glyph-name="nonmarkingreturn" horiz-adv-x="682" 
 />
    <glyph glyph-name="space" unicode=" " horiz-adv-x="567" 
 />
    <glyph glyph-name="exclam" unicode="!" horiz-adv-x="579" 
d="M365 1481q6 17 12 2q12 -24 16 -25q8 0 8 -18q0 -28 -28 -131q-11 -37 -11 -72q0 -78 68 -92q40 -9 19 -15q-17 -3 -17 -16q0 -17 31 -43.5t43 -26.5q13 0 24 -4.5t11 -9.5q0 -10 -29 -10q-63 0 -63 -14q0 -9 16 -17q20 -10 20.5 -12t-12.5 -4h-4q-5 0 -13 -1
q-57 -3 -67 -11q-5 -3 -14 -15q-10 -14 -19 -24q-21 -24 -26 -57t-11 -191q-11 -316 -32 -316q-10 0 -25 19q-14 17 -53 29l-39 14l23 59q18 43 18 60q0 15 -12 39q-19 38 -19 55t-12 29q-10 10 -34 124.5t-36 210.5q-11 97 -18 279l-6 178l80 4h20h74q107 0 117 23zM55 266
q-2 4 -2 10q0 9 10 9q25 0 78 -33q3 -2 24 -14t44.5 -26t48.5 -29.5t41 -28t16 -17.5q0 -2 -2 -7.5t-2 -8.5q0 -13 18.5 -47t18.5 -51q0 -21 -6 -22.5t-29 15.5q-31 25 -71 25q-16 0 -27.5 -6.5t-11.5 -16.5q0 -20 -15 -43q-8 -12 -12 -12q-7 0 -19 29.5t-53 142.5
q-10 25 -21.5 57t-18.5 51t-9 23z" />
    <glyph glyph-name="quotedbl" unicode="&#x22;" horiz-adv-x="737" 
d="M643 1346q37 -3 37 -19q0 -11 -21.5 -26.5t-52.5 -28.5q-56 -23 -78 -66t-24 -129q-1 -55 -7.5 -156.5t-7.5 -142.5v-16q-3 0 -8.5 35.5t-11 92t-8.5 109.5q-3 55 -29 207t-26 160q0 1 -6 12t-10.5 23.5t-0.5 17.5q4 7 10 9t9 -3q8 -9 107 -42.5t128 -36.5zM315 1346
q37 -3 37 -19q0 -12 -21 -27t-52 -28q-57 -23 -79 -66t-24 -129q-1 -55 -7 -156.5t-7 -142.5v-16q-3 0 -8.5 35.5t-11.5 92t-9 109.5q-3 55 -29 207t-26 160q0 1 -6 12t-10.5 23.5t-0.5 17.5q4 7 10 9t9 -3q8 -9 107 -42.5t128 -36.5z" />
    <glyph glyph-name="numbersign" unicode="#" horiz-adv-x="1480" 
d="M1118 426q84 11 84 23q0 4 -14 4q-35 0 -86 -19l-43 -16zM1030 758q0 2 -12 2q-62 0 -289 -55q-67 -15 -83.5 -24.5t-35.5 -43.5q-24 -46 -37 -59q-9 -10 -53.5 -102.5t-44.5 -100.5q0 -2 21 -2q24 0 36 2q312 31 344 40q19 5 28 20q2 3 3 5q12 19 67.5 162.5t55.5 155.5
zM1032 793h-26q-172 -4 -172 -25q0 -6 30 -6q59 0 125 16q43 12 43 15zM854 1034q43 64 43 70q-26 0 -65.5 -39.5t-61.5 -75.5q-61 -107 -61 -110h2q7 0 41 34q43 40 102 121zM825 1200h9q10 0 17.5 3t11.5 6t5 3q2 0 4 -10q5 -24 33 -24q13 0 42 7t40 7q19 0 25 -14
q0 -1 1 -3.5t1 -3.5q0 -12 -15 -16q-11 -3 -47.5 -61t-40.5 -62l-170 -205q0 -6 150 -6l164 -2l26 64q4 9 21.5 52t36.5 87.5t38.5 91t33.5 76t16 29.5v-2q0 -9 -13.5 -82t-13.5 -82q0 -4 2 -4q5 0 34.5 58t45.5 58q4 0 12 -8q13 -18 49.5 -29.5t79.5 -11.5h47l-118 -123
q-133 -137 -140 -147q-10 -13 -10 -19t25 -6h43q33 0 80 -6.5t80.5 -14.5t33.5 -12q0 -2 -16 -2q-39 0 -39 -12q0 -8 22.5 -24t22.5 -19q0 -2 -4 -2h-2q-16 0 -90 8.5t-140 16.5l-67 8q-4 0 -4 -25q0 -42 10.5 -119t20.5 -102q12 -32 28 -46.5t41 -14.5t49 8l45 12
q-11 -12 -34 -35.5t-35 -36.5l90 7q54 4 57 4q17 0 17 -4q0 -2 -9 -7q-12 -7 -35 -27.5t-43 -29t-53 -8.5q-3 0 -9.5 1t-10.5 1q-16 2 -39 2q-33 0 -45 -18q-1 -1 -38.5 -44t-68 -82.5t-30.5 -52.5q0 -10 -6 -19t-11 -9q-8 0 -8 18q0 19 -36.5 78t-65.5 59q-15 0 -23 -14
q-3 -4 -30.5 -63t-55.5 -112.5t-37 -53.5q-10 0 -43 -42t-41 -42q-12 0 -12 20q0 49 55 139q38 64 67.5 125.5t29.5 75.5q0 12 -107.5 24.5t-175.5 12.5q-5 0 -15 -1t-12 -1l-71 -6l-43 -74q-6 -11 -33 -69t-52.5 -99t-41.5 -41q-9 0 -18.5 -6.5t-12.5 -15.5
q-4 -15 -36 -52.5t-40 -37.5v2q0 1 27 61q7 13 35 72t49.5 99.5t38.5 66.5q30 42 30 77q0 17 -15 22.5t-83 14.5q-117 17 -194 17q-76 0 -76 6q0 18 162 18q56 0 142 -3t93 -3l6 55q4 28 4 45q0 36 -5.5 65.5t-12.5 29.5t-39 -41q-29 -39 -49 -39q-13 0 -35 31
q-21 30 -136.5 120t-123.5 97q-33 29 -33 39q0 6 12 6q10 0 46 -8.5t53 -10.5q20 -2 45 -2q18 0 18 6q0 13 -18.5 21t-18.5 10q0 9 23 20t33 11q22 0 22 -17q0 -24 21 -24q7 0 25 3t26 3h8q8 -2 53 -2q97 0 152 4l172 12l39 90q26 64 59 138q23 51 23 57q0 11 -19 33
q-12 12 -12 18q0 4 8 4q12 0 40.5 18.5t49.5 18.5z" />
    <glyph glyph-name="dollar" unicode="$" horiz-adv-x="768" 
d="M430 217q0 12 -6 12q-5 0 -11.5 -12t5.5 -12q4 0 8 3.5t4 8.5zM471 242q7 12 2 12q-9 -1 -23 -16q-7 -9 -1 -9q13 0 22 13zM483 395q-7 15 -22 15q-12 0 -22.5 -14.5t-10.5 -28.5q0 -19 18 -19q13 0 26 13.5t13 25.5q0 6 -2 8zM375 651q6 6 6 113q0 209 -33 209
q-2 0 -8.5 -5.5t-16 -15.5t-16.5 -22q-55 -82 -55 -197q0 -27 8.5 -36.5t48.5 -26.5q51 -19 62 -19h4zM201 848q65 138 65 158l-2 4q-19 0 -58 -42t-48 -71q-8 -28 -8 -35q0 -16 18 -59q20 -51 31 -51q2 0 2 6q0 2 -4 26q-7 37 4 64zM479 1354l15 63q1 -28 3 -85t3 -85l37 6
h14q29 0 62 -24.5t54.5 -51t53 -70t41.5 -56.5q37 -42 37 -70q0 -37 -68 -37q-45 0 -106 15.5t-93 31.5q-34 17 -45 10q-4 -2 -4 -40q0 -85 11 -136q3 -21 61 -82l55 -57q-17 2 -47 7t-47 7l-37 -129l60 -47q54 -41 113 -125t67 -129q4 -16 4 -26q0 -77 -119 -119
q-77 -27 -84 -51q-3 -14 -16.5 -18.5t-54.5 -4.5q-46 0 -58 -4.5t-16 -26.5q-2 -4 -2 -16q0 -32 53 -205q5 -14 2 -16t-22 2q-24 6 -68 6q-22 0 -29.5 3t-7.5 13q0 13 2 23q6 29 14 125l7 88l-66 -4q-8 0 -19 -1t-14 -1q-20 0 -26 3.5t-6 12.5q0 20 -64 53q-70 35 -91.5 60
t-21.5 76q0 5 1 14.5t1 15.5q5 78 25.5 123t52.5 45q16 0 29 -8q22 -12 63 -75t41 -85q0 -14 17.5 -23.5t29.5 -2.5q5 2 5 12q0 41 -70 121q-41 49 -41 59q0 6 7 9.5t22 10.5t28 17q23 17 23 35q0 8 -10 53q-9 41 -16.5 55.5t-24.5 18.5q-29 7 -64.5 38t-52.5 64
q-19 44 -19 68q0 35 21.5 79t71.5 115q67 93 110 121q41 26 41 47q0 9 -2 15q-12 62 -12 98q0 61 39 61h8q2 0 5.5 -1t4.5 -1q13 0 28 7.5t17 7.5q11 0 11 -43q0 -55 -11 -84q-8 -21 -6 -24t19 1q37 8 71 148z" />
    <glyph glyph-name="percent" unicode="%" horiz-adv-x="907" 
d="M256 1083q0 21 -14 36.5t-25 15.5q-8 0 -8 -9q0 -12 22 -39q20 -26 23 -21q2 3 2 17zM387 1012q0 -42 -38.5 -73.5t-86.5 -31.5h-6q-59 3 -72.5 11t-30.5 49q-4 9 -6 14q-18 43 -18 90q0 83 45 182q31 72 43 72q4 0 4 -4q0 -1 1 -2t1 -2q0 -7 -7 -30.5t-7 -31.5
q0 -14 12 -14q13 0 35 -18q10 -10 37 -13.5t98 -3.5h55q172 3 179 15q9 12 10 2q0 -14 37 -21q63 -10 96 -29.5t33 -56.5q0 -26 -21 -67q-30 -57 -59.5 -100t-93.5 -118q-61 -73 -80 -110.5t-19 -89.5q0 -66 37 -193q3 -9 -8 -15t-37 -11q-46 -8 -84.5 -27t-48.5 -41
q-8 -16 -93.5 -72t-94.5 -71q-23 -38 -66.5 -86t-71.5 -84q-55 -74 -69 -74q-2 0 -2 4q0 13 20.5 70t20.5 69q0 17 22 35q31 28 31 105q0 35 -4 53l-10 51h39q30 0 49.5 1t44.5 5.5t41 16t22 28.5q13 37 87.5 165.5t90.5 172.5q1 4 39.5 98t63 168t24.5 111q0 2 -1 6t-1 6
q-3 24 1 33t18 12q22 7 22 17q0 6 -59 6q-66 0 -149.5 -7t-92.5 -14q-10 -10 4 -10t44 -59.5t30 -87.5zM823 307q0 17 9.5 41t9.5 35q0 17 -19 33q-29 22 -73 22q-28 0 -37 -5.5t-13 -26.5q-4 -20 -4 -33q0 -49 21 -70q10 -10 10 -39v-26l49 22q47 24 47 47zM731 592
q16 41 23 41q4 0 14 -19q3 -7 28 -51.5t39 -73t28 -74.5t14 -83q0 -35 -17 -74q-24 -50 -24 -78q0 -37 -103 -37q-21 0 -45 4t-33 13t-14 33q-16 78 -16 94q0 21 22 37q21 13 15 19q-1 1 -3 1q-12 0 -12 18q0 19 12.5 57.5t27 72t29 66t15.5 34.5z" />
    <glyph glyph-name="ampersand" unicode="&#x26;" horiz-adv-x="1165" 
d="M645 330q-12 15 -39.5 63.5t-42.5 65.5l-24 24l14 -32q6 -13 14 -23t11 -10q4 0 17 -20t27 -43t19 -27l18 -15q-6 7 -14 17zM459 598q0 6 15 17t15 12q0 4 -28 4h-37l22 -45q37 -68 43 -68q5 0 5 14q0 13 -17.5 35.5t-17.5 30.5zM305 631q-16 0 -50.5 -37.5t-64.5 -93.5
t-30 -99q0 -45 41 -81t90 -53t104 -35t70 -27q110 0 110 14q0 11 -47 41q-76 51 -147 51q-33 0 -64 -14q-23 -10 -32 -10q-4 0 -4 2q0 5 3.5 8.5t8.5 3.5q15 0 29 76.5t14 150.5q0 103 -31 103zM711 1163q2 10 2 25q0 10 -4.5 14t-16.5 4q-1 0 -4.5 -1t-5.5 -1
q-13 0 -24 -3.5t-11 -8.5t-15 -13t-36 -14q-96 -24 -96 -123q0 -27 6 -57l16 -80l56 35q63 38 92 86.5t41 136.5zM770 360q9 0 14.5 18t7.5 55.5t2.5 64t0.5 75.5q0 120 -11 146l-4 12h2q3 0 29 -20q39 -31 53 -31q20 0 23 43q3 33 6 33q1 0 8 -13q7 -18 22 -30.5t25 -12.5
q6 0 6 7q0 1 -1 5.5t-1 6.5q0 6 9 6q20 0 60 -15.5t58 -31.5q9 -8 30 -17.5t35.5 -18t14.5 -17.5q0 -15 -47 -35q-79 -33 -134 -85.5t-99 -139.5l-54 -107l31 -53q16 -29 56.5 -75.5t86.5 -92.5t89.5 -88t72.5 -69l29 -27q-2 0 -11.5 5t-13.5 9q-15 15 -94 64t-88 49h-2
q0 -21 5 -55.5t5 -41.5q0 -10 -4 -10q-11 0 -110 154q-6 10 -19.5 17t-26.5 7q-30 0 -57 43q-20 31 -36 43.5t-38 12.5q-19 0 -65 -17q-3 -1 -62.5 -37.5t-87.5 -36.5q-20 0 -30 23q-6 16 -35 16q-68 0 -156 43.5t-157.5 106t-92.5 117.5q-18 47 -18 86q0 60 42 120t134 134
q15 13 23 29.5t9.5 31.5t4 49t6.5 62l16 110l-65 51q-51 42 -51 49q0 5 18 5q54 0 89.5 29.5t47.5 82.5q25 116 101 162q17 9 29 21t12 18q0 29 96 29q13 0 16.5 -6.5t5.5 -30.5q3 -25 5 -25q1 0 4 12q3 20 20.5 23.5t112.5 3.5q91 0 110 -4t19 -21q0 -23 12 -47t12 -77
q0 -74 -18 -115q-26 -59 -240 -252l-51 -45l12 -98q11 -99 17 -105h4q19 0 91 23t87 35q11 8 16 8q7 0 7 -6q0 -13 -19 -35q-22 -28 -22 -86q0 -72 41 -162q16 -32 16 -53q0 -11 4 -11z" />
    <glyph glyph-name="quotesingle" unicode="'" horiz-adv-x="409" 
d="M315 1346q37 -3 37 -19q0 -12 -21 -27t-52 -28q-57 -23 -79 -66t-24 -129q-1 -55 -7 -156.5t-7 -142.5v-16q-3 0 -8.5 35.5t-11.5 92t-9 109.5q-3 55 -29 207t-26 160q0 1 -6 12t-10.5 23.5t-0.5 17.5q4 7 10 9t9 -3q8 -9 107 -42.5t128 -36.5z" />
    <glyph glyph-name="parenleft" unicode="(" horiz-adv-x="491" 
d="M285 1214v-2q3 0 10.5 18t7.5 27v3l-2 2q-5 0 -10.5 -16t-5.5 -29v-3zM326 1331q-15 -36 -15 -47v-2q5 0 23 38.5t18 51.5v2l-2 2q-6 0 -24 -45zM395 1440q6 18 6 26q0 4 -2 4q-5 0 -16.5 -19.5t-11.5 -29.5q0 -6 6 -6q11 0 18 25zM365 1468q0 15 55.5 80.5t66.5 65.5h2
v-2q0 -20 -53 -174q-30 -90 -42.5 -131t-30 -124.5t-17.5 -144.5q0 -120 62 -188l26 -29l-53 -30q-46 -27 -96 -99q-34 -51 -61 -176t-27 -231q0 -40 2 -58q6 -55 23.5 -109t50 -115t50.5 -90.5t60 -94.5q72 -110 72 -115l-2 -2q-1 0 -25 16q-44 30 -106 94t-62 78
q0 7 -3.5 12t-6.5 5q-9 0 -34.5 54t-25.5 75q0 24 -10 24q-11 0 -18 56q-12 92 -57.5 189t-106.5 161q-39 39 -39 51q0 7 14 14q27 16 98.5 89t71.5 96q0 32 35.5 200t52.5 211q54 145 99 246q35 75 35 96z" />
    <glyph glyph-name="parenright" unicode=")" horiz-adv-x="493" 
d="M207 102q-3 0 -11 -18t-8 -27v-2l2 -2q5 0 11 16t6 29v4zM164 -16q16 39 16 47v2q-5 0 -23 -37.5t-18 -50.5v-4l2 -2q5 0 23 45zM96 -125q-6 -18 -6 -27q0 -4 2 -4q5 0 16 20t11 30q0 2 -4 6q-12 0 -19 -25zM125 -154q0 -15 -55 -80t-66 -65h-2v2q0 20 53 174
q30 92 42.5 131.5t30 123t17.5 144.5q0 125 -61 191l-27 29l52 28q49 29 98 99q34 51 61 176t27 231q0 39 -2 57q-6 55 -23.5 109.5t-50 115t-51 91t-59.5 94.5q-72 110 -72 115l2 2q2 0 5 -2.5t8.5 -7t10.5 -7.5q44 -30 106 -94t62 -78q0 -16 9 -16t35 -54t26 -75
q0 -23 10 -23t17 -57q12 -92 58 -188.5t108 -161.5q38 -38 38 -51q0 -8 -14 -15q-27 -16 -98.5 -88.5t-71.5 -95.5q0 -32 -35.5 -200.5t-52.5 -211.5q-57 -153 -98 -245q-37 -80 -37 -97z" />
    <glyph glyph-name="asterisk" unicode="*" 
d="M383 1159q5 0 28 9t23 12q-2 2 -4 2q-5 0 -28 -9t-23 -12q2 -2 4 -2zM408 1427q0 13 4 13q6 0 6 -10q0 -11 -8 -24t-15 -13q-4 0 -4 -2q0 -5 15 -11q14 -5 18 -10.5t4 -23.5q0 -2 -4 -60l-8 -84l41 25q62 38 124 69t74 31q2 -2 2 -4q0 -12 -14 -59l-18 -58l-68 -8
q-42 -4 -60 -12.5t-32 -28.5l-23 -31l50 -28q31 -17 40.5 -36t14 -45.5t18.5 -47.5q17 -25 17 -39q0 -6 -7 -6q-16 0 -65 43q-9 8 -21.5 19t-19.5 17t-16 14t-14 12t-12 9t-11.5 7.5t-9.5 5t-9 3.5t-8 1q-18 0 -53 -39q-5 -5 -15 -16l-8 -9q-48 -55 -59 -55q-10 0 -10 70
q0 51 -4.5 60t-28.5 11q-12 0 -12 4q0 6 51 23l69 24l-98 21q-168 39 -168 59q0 3 8 6q24 6 53 27.5t29 32.5q0 7 9.5 9.5t37.5 2.5q39 0 49.5 -5.5t22.5 -33.5q19 -43 31 -49q9 -6 35 -6q43 0 43 8q0 11 -43 78q-60 92 -60 121q0 6 2 6q12 0 33 -8t33 -8q18 0 35 10
q37 19 37 28z" />
    <glyph glyph-name="plus" unicode="+" horiz-adv-x="1038" 
d="M281 541q-213 0 -213 12q0 8 24 8q27 0 40.5 7.5t15 16t13 16t36.5 7.5t35 3.5t12 9t5.5 24t12.5 37.5q31 74 43 125q11 49 17 49q5 0 8 -22q6 -35 44 -78.5t81 -65.5q46 -22 51 -22q6 0 6 16q0 28 -14 53q-6 9 -6 25q0 18 10 53t10 45q0 32 12 -2q9 -24 31 -24
q28 0 57 36l33 37q-2 -13 -8 -41t-8 -41l30 43q27 37 39 37q4 0 4 -6q0 -13 -20 -49q-26 -44 -64 -133q-26 -65 -26 -76q0 -6 6 -6t12 2q178 41 215 41q13 0 85.5 -52t72.5 -71q0 -2 -4 -6q-8 -4 -33 -4q-26 0 -124 4t-144 4q-90 0 -90 -12q0 -2 2 -4q8 -11 59 -122t51 -118
q0 -2 -45 -2h-2q-34 0 -77.5 -17t-55.5 -36l-2 -4q-2 0 -2 12v47q0 27 -6 27q-3 0 -16 -19q-12 -16 -13 -16q-2 0 -2 18q0 31 2 62q7 89 15 139l8 45l-105 -6q-85 -6 -118 -6z" />
    <glyph glyph-name="comma" unicode="," horiz-adv-x="436" 
d="M150 205q27 26 68.5 47.5t76.5 21.5q45 0 65 -41q15 -30 15 -98q0 -45 -8 -84t-21 -51q-21 -19 -45 -62.5t-37 -60.5q-23 -32 -40 -41t-74 -18q-35 -6 -78 -6q-37 0 -37 8q0 6 24 18q34 19 103 84l69 64l-79 102q-62 77 -62 92q0 2 2 2h2q26 -7 56 23z" />
    <glyph glyph-name="hyphen" unicode="-" 
d="M172 563q8 4 17.5 8.5t14 7t10 4t9.5 1.5q11 0 35 -17q21 -18 178 -18q106 0 115 12q6 12 16 12q22 0 45 -63l25 -66l-37 7q-19 4 -197 24q-108 12 -147 12q-40 0 -98 -12q-82 -16 -90 -16q-7 0 -7 2q0 3 29 22q41 25 41 43q0 6 12.5 18t28.5 19z" />
    <glyph glyph-name="period" unicode="." horiz-adv-x="448" 
d="M82 266q-4 16 -4 19q0 6 4 6q12 0 24 -35q11 -31 41 -31q32 0 52 27q15 18 43 18q12 0 27.5 -4t27.5 -9t29 -14.5t24.5 -14.5t23.5 -15l15 -10q2 -4 2 -6q0 -21 -15.5 -79.5t-21.5 -58.5q-9 0 -35 -53q-29 -59 -57 -59q-29 0 -60 55t-59 118t-45 73q-6 4 -8.5 16.5
t-4 30.5t-3.5 26z" />
    <glyph glyph-name="slash" unicode="/" horiz-adv-x="858" 
d="M668 1223q0 -14 37 -21q63 -10 96 -29.5t33 -56.5q0 -26 -21 -67q-30 -56 -60 -99t-94 -119q-61 -73 -79.5 -110.5t-18.5 -89.5q0 -66 37 -193q3 -9 -8 -15t-37 -11q-46 -8 -84.5 -27t-48.5 -41q-8 -16 -94 -72t-95 -71q-23 -38 -66.5 -86.5t-70.5 -83.5q-55 -74 -69 -74
q-2 0 -2 4q0 12 20 69.5t20 69.5q0 16 23 35q31 28 31 105q0 35 -4 53l-11 51h39q30 0 50 1t45 5.5t41 16t22 28.5q13 37 87.5 165.5t90.5 172.5q1 4 39.5 98t63 168t24.5 111q0 2 -1 6t-1 6q-3 24 1 33t18 12q8 2 19.5 16t19.5 27z" />
    <glyph glyph-name="zero" unicode="0" horiz-adv-x="983" 
d="M881 612q18 77 18 95q0 6 -4 6q-8 0 -16.5 -36t-12.5 -87l-8 -72zM774 961q-21 12 -63 12q-70 0 -133 -29q-46 -22 -90.5 -67.5t-71.5 -100.5q-13 -23 -13 -33q0 -14 25 -49q39 -58 56 -77.5t36 -30.5q15 -8 15 -10q-1 -3 -31 -3q-34 0 -85.5 -35t-74.5 -73
q-18 -30 -18 -84q0 -55 18 -76q15 -20 86 -26q3 0 9.5 -1.5t9.5 -1.5q72 0 136.5 40t109.5 104t75.5 133t46.5 139q6 27 6 74q0 68 -12.5 125.5t-36.5 69.5zM582 1141q62 20 123 20q52 0 77 -10q76 -29 111 -117.5t35 -251.5q0 -89 -11.5 -191.5t-23.5 -119.5
q-10 -15 -27 -68q-18 -54 -58 -109t-118 -136q-82 -86 -94 -113q-15 -41 -283 -41h-26q-74 0 -89.5 4.5t-15.5 24.5q0 28 -20 55q-109 141 -109 361q0 129 48 224t180 230q197 200 301 238z" />
    <glyph glyph-name="one" unicode="1" horiz-adv-x="473" 
d="M324 303q0 -5 70.5 -132t70.5 -130q0 -6 -57 -6q-6 0 -21 1t-22 1h-54q-31 0 -41.5 -4t-15.5 -17q-14 -39 -164 -57l-63 -8l22 24q26 30 62 93q8 16 8 18q0 7 -27 12l-35 8l45 60q49 60 56 88q2 8 2 47q0 61 -16.5 272.5t-16.5 276.5v4v88l43 -80l8 33q2 4 2 16
q0 25 -30 93q-51 110 -78 110q-6 0 -15 -6q-8 -8 -12 -8l4 8q2 2 2 8q0 10 -20 19q-17 6 -17 8q0 1 7.5 4t7.5 6q0 4 -2 6t-2 4q0 6 6 6q1 0 2 -1t2 -1h2q15 0 54 20t46 32q1 2 54 14.5t114.5 24.5t81.5 12l6 -2q0 -6 -18 -35q-38 -56 -60 -154t-22 -198q0 -126 33 -199
q25 -57 63.5 -106.5t61.5 -55.5q26 -7 26 -18q0 -6 -8 -6h-20q-9 0 -11 -2t-2 -7q0 -9 29.5 -12t30.5 -6v-4q0 -8 -19 -8q-43 0 -98 -60.5t-55 -93.5z" />
    <glyph glyph-name="two" unicode="2" horiz-adv-x="962" 
d="M240 1051q27 80 102 137t178 57q25 0 55 -6q41 -6 137.5 -53t116.5 -70q26 -29 41 -70t15 -79q0 -36 -17 -60q-16 -23 -22 -67q-18 -110 -107 -166l-53 -33l4 -102q6 -101 25 -133q18 -27 18 -35q0 -4 -4 -4q-5 0 -27 10t-30 10q-31 0 -104.5 -41t-108.5 -78l-47 -47
l30 -22q105 -80 183 -80q51 0 106 27t154 92q27 18 37 18q9 0 18 -31q6 -21 6 -143q0 -127 -8 -127q-7 0 -82 33l-78 35q-105 -2 -317 -6.5t-318 -6.5q18 17 56.5 50t56.5 51l-23 127q-14 80 -14 106q0 18 8 18q6 0 10.5 -6.5t4.5 -15.5q0 -25 20 -25t51 -28l33 -31l25 57
q72 164 161 285q73 99 114.5 185.5t41.5 140.5q0 41 -7 57.5t-36 42.5q-48 45 -113 45q-66 0 -129 -44t-92 -103q-26 -54 -26 -76q0 -1 1 -3t1 -3q10 -17 10 -80q0 -35 -6 -35q-7 0 -83 77.5t-112 119.5q-5 6 -31.5 23.5t-50.5 31.5l-24 14q2 3 125.5 29.5t124.5 30.5z" />
    <glyph glyph-name="three" unicode="3" horiz-adv-x="937" 
d="M692 561l-22 -7q-23 -6 -59.5 -16.5t-82.5 -22.5t-97 -24.5t-98 -23t-89 -17t-68 -6.5q-39 0 -39 17q0 18 25 29.5t92 27.5q92 22 175 99t83 161q0 29 4 29q9 0 37.5 -29.5t44.5 -29.5q12 0 20 10q37 45 37 98q0 60 -45.5 109t-111.5 67q-27 6 -56 6q-98 0 -184 -59
l-57 -39l-6 -86q-6 -88 -25 -88q-10 0 -35 31q-18 21 -18 39q0 11 10 41q6 18 6 34q0 22 -11 34.5t-30 12.5q-10 0 -16 -2q-11 -3 -16 2.5t-5 20.5q0 21 14 55t15 53q3 34 24 64.5t42 30.5q26 0 47 41q21 37 26 37q2 0 2 -7q0 -13 -6 -51q-8 -49 1 -51l9 2q17 7 119 18
q58 7 98 7q100 0 178.5 -25t130.5 -85t52 -148v-11q-3 -73 -19.5 -153t-35.5 -107q-9 -13 -9 -18q0 -17 68 -80q121 -115 121 -199q0 -38 -29 -67q-24 -24 -24 -35q0 -13 10 -33l18 -39l-137 -143l-1 -1l-1 -1l-1 -1l-1 -1l-1 -1l-1 -1l-1 -1l-1 -1l-1 -1l-1 -1l-1 -1l-1 -1
l-1 -1l-2 -2q-93 -96 -111 -105q-5 -3 -9 -3q-5 0 -8.5 4.5t-6 18t-4 23.5t-4.5 36q-5 49 -18 49q-7 0 -25 -12q-27 -19 -63 -19q-13 0 -107 -32.5t-135 -32.5q-38 0 -43 24q-8 41 -61 41q-33 0 -51.5 46t-18.5 104q0 78 27 98q39 29 63 29q28 0 51 -33q36 -48 92 -99.5
t76 -54.5h13q52 0 145 35q32 12 41 23t14 39q8 44 56 135q65 128 65 182q0 45 -41 45z" />
    <glyph glyph-name="four" unicode="4" horiz-adv-x="931" 
d="M537 612q-29 38 -44.5 51t-35.5 13q-15 0 -62 -14q-52 -19 -65 -37t-13 -74v-66l109 -20q70 -12 113 -12q22 0 30 2l35 10q-14 7 -41 22.5t-41 22.5l39 2q31 3 31 14q0 17 -55 86zM449 948l157 271q9 -43 14.5 -56.5t14.5 -13.5q8 0 12 2q13 3 16.5 -1.5t-1.5 -19.5
q-15 -48 -28 -66.5t-42 -31.5q-39 -16 -39 -59q0 -19 8.5 -64t11.5 -71q10 -94 25 -140q8 -21 8 -32q0 -9 -6 -9q-5 0 -23.5 10t-31.5 13q-33 7 -33 4q-1 -3 12 -18q47 -47 78 -72q36 -29 62 -29q61 0 61 160q0 69 -14 158l-6 47l16 -35q11 -27 27.5 -44t27.5 -17q4 0 8 4
q6 7 30.5 88.5t27.5 87.5l2 2q6 0 6 -90q0 -134 -12 -228q-4 -27 -4 -51q0 -10 4 -10q6 0 18 6q20 10 25 10q6 0 6 -8q0 -5 -15 -59q-15 -60 -28 -162t-13 -168q0 -42 9 -66t45 -77q43 -62 43 -72q0 -6 -19 -6q-26 0 -26 -12q0 -13 27.5 -43.5t27.5 -32.5t-2 -2
q-8 0 -42 28.5t-44 44.5q-16 26 -53 21l-35 -6q0 -31 -1 -95t-1 -96l-23 70q-22 71 -22 90q0 7 -34.5 18t-68.5 18l-34 7q1 2 9 14t24 35.5t28 42.5l57 86l-37 49q-20 28 -32 37.5t-27 9.5q-1 0 -3.5 -1t-4.5 -1q-30 -3 -91 -32.5t-102 -61.5q-43 -30 -59 -30q-23 0 -23 63
v61l-38 -6q-13 -3 -119 -12q-8 -1 -18 -1.5t-15.5 -1t-11.5 -1t-9 -0.5q-14 0 -14 2q0 1 23.5 16t23.5 27q0 2 -1 8.5t-0.5 10t5.5 3.5q11 0 11 11t-35 18.5t-82 7.5h-47l53 47q67 59 202.5 227t203.5 275z" />
    <glyph glyph-name="five" unicode="5" horiz-adv-x="907" 
d="M735 303q3 7 6 15t5 13t3.5 10t2.5 7t0 2q-6 0 -50 -65q-26 -37 -44.5 -54.5t-39.5 -23.5q-16 -4 -28 -15.5t-12 -19.5t14 -8q22 0 76.5 53t66.5 86zM293 1141q0 4 -9.5 8t-24 8.5t-15.5 5.5q-6 2 -13 2q-8 0 -8 -4q0 -7 14 -15.5t31 -8.5q25 0 25 4zM129 1260
q-3 25 -2 26l10 -20q22 -54 37 -54q6 0 10 7q11 17 11 0q0 -11 11 -8t11 -3q0 -17 65.5 -34.5t145.5 -22.5l113 -8q38 20 112.5 61t112.5 60l6 -41q6 -42 23 -59.5t53 -18.5q31 0 31 -2q0 -1 -43 -10l-56 -13l8 -106q3 -38 3 -62q0 -39 -7 -39q-3 0 -26.5 14t-58.5 35.5
t-68 42t-63.5 40t-35.5 22.5q-8 4 -16 4q-45 0 -136 -56t-91 -79v-4q14 -14 78 -14q26 0 26 6q0 12 31 12q38 0 91.5 -15t74.5 -34q17 -17 69 -31q102 -27 162 -138.5t60 -254.5q0 -185 -90 -330q-23 -38 -23 -53q0 -33 -88 -33q-21 0 -32.5 -6t-18.5 -23q-15 -30 -31 -30
q-18 0 -12 -27q5 -18 1 -17q-3 2 -12 13q-14 20 -63 20q-50 0 -72 25q-14 14 -29 19.5t-49 5.5h-34q-9 0 -21 -1t-16 -1q-31 0 -40 4t-9 16q0 19 -58 70q-59 52 -75 88q-17 39 -17 90q0 54 14.5 96.5t36.5 42.5q16 0 35 -31q24 -38 87 -119t83 -98q15 -12 25 -12
q17 0 110 59q3 2 8 5q54 34 66 51q15 23 21 99q1 10 3 33q2 25 3 40q11 157 22 164q2 0 2 4q0 22 -45 86.5t-71 74.5q-3 3 -11 3q-33 0 -149 -84q-56 -43 -80 -43q-4 0 -16 4q-19 8 -25 5t-6 -20q0 -20 -1.5 -20.5t-8.5 18.5q-16 39 -115 39q-53 0 -53 25q0 14 22 53
q50 86 68 122t18 58q0 20 -18 45q-31 45 -31 72q0 28 27 47q28 20 28 49q0 31 -26 60q-15 16 -11 17q2 0 11 -3q11 -5 14 0t0 25z" />
    <glyph glyph-name="six" unicode="6" horiz-adv-x="919" 
d="M336 109q-21 43 -45 112l-25 76l-26 -41q-25 -41 -25 -61q0 -19 32.5 -55.5t61.5 -51.5q29 -16 37 -16q4 0 4 4q0 5 -14 33zM741 375q0 11 -11 18q-10 2 -11 -12q0 -19 10 -19q4 0 8 4t4 9zM600 602q-19 11 -58.5 22.5t-90 22.5t-64.5 15q-6 2 -16 2q-18 0 -25.5 -18
t-7.5 -60q0 -23 8.5 -38t30.5 -34l39 -33l-37 -18q-31 -15 -31 -33q0 -19 49 -104q85 -146 178 -174l54 -17q14 16 41.5 45t40.5 45l-29 13q-27 10 -41 10q-6 0 -6 102q0 154 18 154q9 0 28 -26.5t24 -26.5h2q2 2 2 6q0 21 -39.5 74.5t-69.5 70.5zM631 1024q8 7 11.5 10t3 5
t-5.5 2.5t-17 0.5q-30 0 -37 -18q-2 -4 -2 -8q0 -8 8 -8q18 0 39 16zM719 25q0 -30 -37 -50t-80 -20q-2 0 -7 1t-7 1h-31q-21 0 -33 -7t-35 -30q-21 -22 -32.5 -29.5t-28.5 -7.5q-15 0 -25 2q-41 6 -97.5 43.5t-76.5 71.5q-9 15 -23 25t-26.5 14t-24.5 15t-18 30
q-23 65 -45 121q-39 98 -39 217q0 84 21 186q28 136 93 242t206 244q64 62 102 86t74 24q3 0 9 -1t9 -1q133 -18 133 -35q0 -2 -0.5 -7t-0.5 -7t2.5 -4t7.5 -2q14 0 67 78l53 80l7 -142q7 -134 16 -166q4 -15 1 -20.5t-17 -5.5q-25 0 -25 -13t-17 2l-3 3q-20 17 -134 26
l-110 8l-43 -51q-43 -50 -43 -59q0 -2 -53.5 -98t-53.5 -99q1 -3 8.5 -3t21 3t28.5 8q46 15 104 15q85 0 169 -26.5t126 -68.5q34 -34 46.5 -81.5t12.5 -145.5q0 -184 -59 -264q-23 -31 -23 -55q0 -15 -6.5 -20t-27.5 -5t-28 -4.5t-7 -17.5z" />
    <glyph glyph-name="seven" unicode="7" horiz-adv-x="917" 
d="M594 592q-6 -18 -6 -25l2 -2q3 0 10.5 14t7.5 21l-2 4q-6 3 -12 -12zM721 909q8 39 0 39q-12 0 -43 -29t-37 -45q-4 -12 2 -14.5t29 2.5q32 6 37 10.5t12 36.5zM236 1008q-13 -10 -13 -13h2q7 0 28 9t21 12q-2 2 -4 2q-17 0 -34 -10zM573 1141v24q0 43 11 43q12 0 24 -49
q17 -61 30 -75t56 -17h25q19 0 26 5t13 24l12 32l16 -30q6 -14 11 -19.5t14 -5.5q15 0 25 4q38 10 45 10q6 0 6 -4t-23 -24q-20 -17 -20 -25t20 -8q2 0 12 1t15 1q17 0 20 -39q0 -3 1 -8.5t1 -7.5q0 -18 -7.5 -26t-31.5 -17q-25 -10 -36 -24.5t-23 -49.5q-19 -56 -39 -63
q-17 -5 -52.5 -63.5t-109.5 -207.5q-36 -72 -48.5 -103.5t-12.5 -53.5q0 -16 10 -39q4 -12 4 -17q0 -9 -11 -15.5t-40 -17.5q-43 -15 -64 -45.5t-71 -146.5q-6 -15 -16 -26t-17 -11q-12 0 -34 -33.5t-33 -33.5t-23 26q-9 20 -22 24.5t-60 4.5q-45 0 -57.5 3.5t-12.5 18.5
q0 24 -10 31q-12 6 -12 16q0 25 61 46q72 26 146 62.5t74 45.5q0 8 -13 12q111 301 121 324q6 15 6 37q0 46 -23.5 100t-54.5 72l-30 18l28 -6q28 -4 41 -4q29 0 29 12q0 14 -35 35q-32 21 -67 29.5t-131 19.5q-72 8 -117 13.5t-71 10t-36 8.5t-10 9q0 10 37 17q42 8 58 14
t16 16q0 14 -41 58q-17 17 -17 26q0 10 16.5 15t59.5 12q8 2 39 2q78 0 218.5 -10t168.5 -17q4 -2 8 -2q10 0 10 23q0 3 -1 16.5t-1 22.5z" />
    <glyph glyph-name="eight" unicode="8" horiz-adv-x="940" 
d="M414 612q-3 3 -9 -1.5t-14 -15t-16 -24.5q-92 -159 -92 -215q0 -27 13.5 -48.5t47.5 -53.5q73 -70 119 -70q15 0 26 11q13 13 13 114q0 81 -26 172.5t-62 130.5zM645 995q-21 25 -35 25q-31 -3 -100.5 -34t-69.5 -42q0 -2 2 -2q11 -4 11 -65q0 -4 -1 -12.5t-1 -12.5v-39
q0 -39 4.5 -54.5t17.5 -15.5q14 0 41 17q39 22 43 22q7 0 -39 -43l-49 -45l53 -51q57 -53 64 -74q3 -6 4 -6q11 0 39 86q39 113 39 236q0 84 -23 110zM313 1049q87 50 164 77t164 27q93 0 197 -35q68 -23 86 -33.5t18 -29.5q0 -28 -32 -88t-70 -99q-109 -118 -109 -135
q0 -10 -35 -61q-34 -49 -61 -113l-25 -61l66 -60q112 -103 112 -219v-26q-3 -43 -24 -89t-25 -67l-8 -33q-91 1 -274.5 3t-274.5 3l-12 84q-8 62 -8 88q0 24 4 60q13 86 60.5 188.5t107.5 179.5l35 45l-64 64q-45 45 -97.5 80t-78.5 35q-19 0 -41 18q-14 10 -14 12t2 2
q7 0 78 -18l28 -8l-22 28q-54 63 -123 97q-31 15 -32 17h12q3 0 12 -1q12 -2 37 -2q57 0 124.5 19t122.5 51z" />
    <glyph glyph-name="nine" unicode="9" horiz-adv-x="970" 
d="M580 995q-10 13 -66 13q-58 0 -117 -17q-150 -48 -174 -186q-4 -24 -4 -27q0 -14 12 -14q17 0 84 33q103 50 103 112q0 14 29 0q6 -3 14 -8q30 -18 45 -18q6 0 53 14q32 10 42.5 15.5t10.5 13.5q0 2 -8 22q-16 37 -24 47zM571 537q22 0 53 43.5t31 70.5q0 39 -6 39
q-5 0 -51 -22q-35 -18 -115.5 -37t-120.5 -43q-63 -39 -100 -39q-26 0 -100.5 39.5t-93.5 64.5q-23 33 -23 101q0 50 12 96q58 203 357 250q33 6 100 6q157 0 215 -64q25 -28 41 -28q10 0 10 16q0 25 -26 92q-7 19 14 -2l14 -14q30 -35 52 -35q1 0 3 1t3 1h6
q18 0 34.5 -29.5t16.5 -60.5q0 -9 -4 -25q-8 -24 -8 -100q0 -70 6 -252t6 -241q0 -76 -6 -76q-7 0 -21 -41q-8 -21 -58 -79t-56 -79q-5 -17 -59.5 -32t-59.5 -29q-9 -26 -51.5 -36.5t-139.5 -10.5q-84 0 -106 3.5t-31 18.5t-27.5 20t-72.5 5h-86l-17 43q-18 49 -18 118
q0 51 10 84q3 15 15 15t37.5 -19.5t58 -46.5t69.5 -54.5t83 -47t88 -19.5q39 0 69 13q25 11 38 27t28 57q24 63 24 84q0 13 10.5 27t10.5 32q0 26 -12 30q-7 3 -7 -5q0 -3 2 -7q3 -10 -10 -10q-8 0 -8 6q0 7 27 56q26 48 26 59q0 9 -14 23q-22 18 -41 18q-13 0 -24 15
q-8 10 3 10z" />
    <glyph glyph-name="colon" unicode=":" horiz-adv-x="448" 
d="M82 983q-4 16 -4 18q0 7 4 7q12 0 24 -35q11 -31 41 -31q32 0 52 27q15 18 43 18q12 0 27.5 -4t27.5 -9t29 -14.5t24.5 -14.5t23.5 -15l15 -10q2 -5 2 -7q0 -21 -15.5 -79t-21.5 -58q-9 0 -35 -53q-29 -59 -57 -59q-22 0 -47 34.5t-43.5 77.5t-39 83.5t-34.5 49.5
q-6 4 -8.5 16.5t-4 31t-3.5 26.5zM82 266q-4 16 -4 19q0 6 4 6q12 0 24 -35q11 -31 41 -31q32 0 52 27q15 18 43 18q12 0 27.5 -4t27.5 -9t29 -14.5t24.5 -14.5t23.5 -15l15 -10q2 -4 2 -6q0 -21 -15.5 -79.5t-21.5 -58.5q-9 0 -35 -53q-29 -59 -57 -59q-29 0 -60 55
t-59 118t-45 73q-6 4 -8.5 16.5t-4 30.5t-3.5 26z" />
    <glyph glyph-name="semicolon" unicode=";" horiz-adv-x="436" 
d="M82 983q-4 16 -4 18q0 7 4 7q12 0 24 -35q11 -31 41 -31q32 0 52 27q15 18 43 18q12 0 27.5 -4t27.5 -9t29 -14.5t24.5 -14.5t23.5 -15l15 -10q2 -5 2 -7q0 -21 -15.5 -79t-21.5 -58q-9 0 -35 -53q-29 -59 -57 -59q-22 0 -47 34.5t-43.5 77.5t-39 83.5t-34.5 49.5
q-6 4 -8.5 16.5t-4 31t-3.5 26.5zM150 205q27 26 68.5 47.5t76.5 21.5q45 0 65 -41q15 -30 15 -98q0 -45 -8 -84t-21 -51q-21 -19 -45 -62.5t-37 -60.5q-23 -32 -40 -41t-74 -18q-35 -6 -78 -6q-37 0 -37 8q0 6 24 18q34 19 103 84l69 64l-79 102q-62 77 -62 92q0 2 2 2h2
q26 -7 56 23z" />
    <glyph glyph-name="less" unicode="&#x3c;" horiz-adv-x="565" 
d="M365 874l6 74l59 -43q64 -48 105 -78l45 -34l-25 -27q-14 -15 -87.5 -57t-86.5 -54q-7 -7 -107 -73l-86 -56l52 -47q28 -26 58 -34t53.5 -17t45.5 -41q13 -19 25.5 -33t15.5 -14q7 0 37.5 -86t30.5 -111q0 -4 -2 -4q-9 0 -80 50.5t-162 123.5q-7 6 -31.5 20.5t-42.5 27
t-18 18.5t-12.5 13t-29.5 14t-22 12q-14 14 -53 14q-27 0 -45 -2l-80 -6l29 22q4 3 30 27t51 44t34 20q14 0 55 6q30 6 52.5 23t64.5 67q67 78 91 125.5t30 115.5z" />
    <glyph glyph-name="equal" unicode="=" horiz-adv-x="747" 
d="M6 774q4 2 6 2q19 0 84 -20q77 -25 117 -25h20q10 2 56 2q86 0 200 -6q141 -6 176 -11t54 -24q22 -22 22 -37q0 -13 -6 -34q-11 -39 -24 -39h-6q-179 71 -361 80q-78 4 -86 4q-30 0 -40 -4.5t-19 -16.5q-11 -14 -17 -14q-11 0 -70 47q-4 4 -6.5 5.5t-6.5 4.5t-7 6
q-86 68 -86 80zM190 446q52 35 56 35q0 -7 -49 -63q-17 -20 -17 -25q0 -4 29 -20q36 -19 115 -19q42 0 57 11q10 10 168 14l153 6v-90h-133q-134 0 -137 10q-2 2 -6 2q-48 0 -203.5 -43.5t-177.5 -77.5q-3 -6 -8 -6t-13 8.5t-10 8.5t-2 -7q0 -10 -4 -10q-2 2 -2 4
q0 22 31 131l37 129l35 -16q20 -10 28 -10q12 0 53 28z" />
    <glyph glyph-name="greater" unicode="&#x3e;" horiz-adv-x="577" 
d="M197 193l-7 -74l-59 43q-83 63 -104 78l-45 34l24 25q14 15 87.5 58t86.5 55q11 11 105 73l86 56l-52 45q-28 25 -57.5 34t-52.5 18.5t-45 41.5q-13 19 -25.5 33t-15.5 14q-7 0 -37.5 85t-30.5 110q0 6 2 6q9 0 78.5 -50t161.5 -124q7 -5 32 -20.5t43.5 -28.5t18.5 -19
t12.5 -13t29.5 -14t22 -12q14 -14 53 -14q9 0 45 4l80 6l-31 -25q-4 -3 -29.5 -26.5t-50 -43.5t-33.5 -20l-2 2q-2 0 -9 -1t-20.5 -3t-23.5 -4q-30 -6 -52.5 -23t-64.5 -67q-67 -78 -90.5 -124.5t-29.5 -114.5z" />
    <glyph glyph-name="question" unicode="?" horiz-adv-x="694" 
d="M340 586q33 33 29 37q-1 1 -11 -8.5t-22 -24.5l-29 -35zM303 1493q56 33 88 33q29 0 60 -31q27 -27 36 -27q3 0 25 15q15 12 31 12q26 0 26 -39q0 -9 4 -15.5t9 -6.5q12 0 12 -33q0 -31 53 -84q41 -38 57.5 -72.5t16.5 -87.5q0 -45 -8 -94q-13 -97 -50.5 -159
t-107.5 -122q-55 -48 -55 -59q47 22 63 22q4 0 4 -4q0 -8 -30 -34q-105 -89 -139 -132t-58 -120q-6 -19 -11.5 -39.5t-8.5 -32t-7 -21.5t-9.5 -14t-14.5 -4q-17 0 -60 18q-41 17 -57 17q-10 0 -15.5 -5t-13.5 -19.5t-16 -24.5q-12 -15 -14 -16.5t-1 3.5q1 3 5 19q6 25 27 68
t26 55q12 28 120.5 166t121.5 166q27 60 57.5 172.5t30.5 154.5q0 44 -41.5 104t-91.5 60q-19 0 -35 -8q-28 -14 -91 -62t-75 -65q-5 -7 -21 -82l-14 -70l-39 9q-2 0 -6 1t-6 1q-17 0 -34 -10.5t-21 -10.5q-12 0 -23 31q-8 21 -8 51q0 45 21.5 94t58 108t47.5 81
q26 49 37 61t35 12q35 0 43 19q7 18 67 51zM117 88l69 105l68 -37q68 -37 68 -45q0 -6 -23 -29q-14 -11 -14 -27q0 -26 47 -26q22 0 22 -6q0 -9 -112.5 -41.5t-114.5 -36.5q-7 -11 -49 -11q-12 0 -42.5 -8t-37.5 -8q-6 0 -6 4q0 7 26 33q20 17 99 133z" />
    <glyph glyph-name="at" unicode="@" horiz-adv-x="1417" 
d="M817 631q-28 0 -94.5 32.5t-81.5 36.5q-20 5 -23 5q-52 0 -89 -62t-37 -127q0 -86 63 -86q34 0 80 25q57 33 136 93.5t79 72.5q0 10 -33 10zM553 1425q81 9 113 9q77 0 77 -23q0 -20 41 -30t106 -17t135.5 -17.5t140.5 -38.5t110 -73q7 -8 18 -20.5t15 -17t11 -13
t9.5 -11.5t6.5 -9t5.5 -9l4.5 -9t5 -11t5 -13q28 -71 28 -200q0 -183 -53 -269q-19 -31 -37 -110q-22 -91 -65 -150.5t-115 -99.5q-88 -51 -137 -51q-44 0 -66 37q-25 41 -32 108q-6 51 -15 51q-6 0 -24 -76q-17 -83 -54 -83q-10 0 -14 2q-14 6 -14 30q0 25 14.5 68
t35.5 89.5t23 51.5q1 2 2 5q3 8 2.5 9t-9.5 -7q-7 -6 -11 -9q-29 -25 -78 -94q-41 -59 -100.5 -93t-128.5 -34q-63 0 -125 29q-51 23 -51 116q0 119 71 232q38 60 113.5 127t104.5 67q38 0 87.5 -16t61.5 -31q9 -12 8 -12.5t-16 10.5q-6 5 -6 3q3 -6 26 -29q43 -43 56 -43
q11 0 47 45q20 24 26.5 37.5t6.5 31.5q0 14 -3 29q-2 12 -2 27q0 14 5 14t16.5 -21.5t11.5 -25.5q0 -6 17.5 -3.5t17.5 -11.5q0 -12 12 -12q16 0 68.5 23.5t64.5 23.5q7 0 7 -6q0 -14 -48 -67q-81 -91 -98 -129.5t-20 -131.5l-4 -108h38q73 0 167.5 74.5t131.5 160.5
q7 16 18.5 41t15.5 36t9.5 32t7 46.5t1.5 64.5q0 78 -5 101t-32 60q-33 48 -64 69t-106 48q-25 9 -94.5 37t-125 43.5t-137.5 26.5q-41 6 -79 6q-115 0 -213 -43q-43 -19 -117.5 -90t-97.5 -115q-56 -106 -77.5 -191t-21.5 -239q0 -38 4 -156q8 -153 14 -190t33 -90
q37 -70 37 -91q0 -4 -2 -4q-4 0 -20 19q-17 20 -23 20v-2q0 -9 29 -63q19 -34 31.5 -47t27.5 -13q24 0 43 -26q10 -18 27.5 -22.5t77.5 -4.5q54 0 205.5 26.5t207.5 26.5h7q63 0 63 -4q0 -2 -35 -8q-37 -8 -58 -22.5t-46 -22.5q-25 -9 -88 -52.5t-82 -51.5q-73 -29 -127 -29
q-117 0 -246 113q-17 15 -42 19.5t-89 6.5h-18q-16 0 -38 -1t-28 -1q-27 0 -27 12q0 10 13 39l9 18l10.5 21t9 20t9 24t6.5 22t5.5 25t1.5 24q0 24 -10 51q-25 71 -25 215q0 151 28.5 311t76.5 254q41 80 121.5 180t160 171t117.5 75z" />
    <glyph glyph-name="A" unicode="A" horiz-adv-x="1484" 
d="M1204 268q-13 18 -28 30.5t-23 12.5t-8 -2q0 -4 8 -12.5t24 -21.5t19 -15l39 -35zM870 463q6 0 12.5 6.5t6.5 11.5q0 6 -12 6q-17 0 -17 -12t10 -12zM868 555q-7 19 -14 27t-23 8q-20 0 -118 -31l-35 -10l47 -8q96 -14 102 -15l54 -6zM301 633q0 76 -6 76q-3 0 -49 -138
q0 -1 -1 -2t-1 -2q0 -10 26 -10q22 0 26.5 10.5t4.5 65.5zM1008 588q2 -2 4 -2q4 0 4 4q0 25 -62 149.5t-69 124.5q0 -6 2 -10q21 -67 59.5 -159t61.5 -107zM580 1102q8 39 8 65q0 19 -4 19q-6 0 -11 -19q-5 -16 -61 -133q-20 -42 -37.5 -83.5t-29 -69.5t-26.5 -72.5
t-21 -62.5t-23.5 -71.5t-22.5 -70.5q-2 -6 -2 -12q0 -10 12 -10q26 0 168 45q137 43 181 43q34 0 94 -29l33 -16l-33 61q-13 25 -27 42t-20 17q-10 0 -10 3q0 1 1 4.5t1 5.5q0 18 -66.5 58t-116.5 40q-16 0 -24 -2q-12 -4 -15 -4q-4 0 -4 4q0 2 4 18q5 18 11.5 62.5
t13.5 64.5q14 38 27 103zM608 1317q1 6 3.5 14.5t2.5 11.5l-2 7q-18 0 -76.5 -83.5t-58.5 -107.5l2 -4q12 0 67.5 69.5t61.5 92.5zM1257 -49q-3 0 -84 61l-81 62q-47 26 -78 26q-27 0 -27 -26q0 -19 -10 -19q-12 0 -19 66q-4 39 -17.5 64t-57.5 83q-48 61 -90 121l-27 37
l41 8q43 9 43 19q0 5 -10.5 10t-32 9.5t-49.5 6.5q-18 2 -58 2q-116 0 -235 -43q-58 -22 -83.5 -42.5t-47.5 -63.5t-33 -43q-4 0 -12.5 13.5t-17.5 34.5t-17.5 41.5t-15.5 39t-9 22.5q-11 25 -20 25q-19 0 -19 -168v-10l-2 -150q-18 15 -41 31q-32 22 -55 22h-12q-2 0 -5 -1
t-5 -1q-27 0 -52.5 25.5t-25.5 52.5q0 43 14 81t28 57t40 49q55 63 70.5 105t15.5 118q0 54 -5.5 79.5t-23.5 55.5q-29 53 -29 55q0 4 17 4q13 0 39.5 36.5t36.5 43.5q34 24 34 43q0 8 8.5 13.5t20.5 5.5q35 0 100.5 79.5t116.5 184.5q58 122 96 174q36 47 41 47q2 0 2 -2
t-2.5 -8t-3.5 -10q-2 -4 -2 -13q0 -7 6 -8.5t25 -1.5t47.5 7t30.5 7q4 0 4 -2q0 -8 -47 -55l-49 -49l22 -33l131 -244v5q0 25 -33 112q-57 137 -57 162q0 6 4 6q8 0 29 -24l37 -37l-6 41l-2 12t-2 9t-1 5h3q1 0 1.5 -3t3 -12.5t5.5 -19.5q10 -30 26.5 -63t27 -66t17.5 -88
q7 -51 10.5 -73t14.5 -50.5t17.5 -37.5t32.5 -28.5t45.5 -29.5t70.5 -35q25 -12 33.5 -17t20.5 -13.5t15 -17.5t3 -23q0 -16 -21 -109q-31 -121 -31 -151q0 -17 11 -17t21 -19t20 -26l26 -18l-6 78q-2 27 -2 55q0 12 2 12t12 -14q36 -52 121.5 -153t93.5 -101q7 0 7 -4
q0 -1 -3 -4q-2 -2 -2 -6q0 -14 29 -34t68 -30q22 -6 44 -7t32 -4t18 -16q4 -8 4 -12q0 -21 -82 -98q-77 -74 -94 -74q-6 0 -8 4q-5 8 -9 8q-8 0 -16 -28q-12 -34 -32.5 -57t-37.5 -23z" />
    <glyph glyph-name="B" unicode="B" horiz-adv-x="1370" 
d="M1143 219q29 0 71.5 62.5t42.5 117.5q0 15 -2 23q-6 24 -12 24q-7 0 -24 -53q-10 -34 -47 -77.5t-60 -51.5q-10 -2 -10 -12q0 -9 17.5 -21t23.5 -12zM449 557q0 12 -17 12q-12 0 -12 -10q0 -6 6 -13t12 -7q11 0 11 18zM496 575q0 -6 41 -116.5t41 -116.5
q0 -10 -87.5 -31.5t-87.5 -40.5q0 -20 68 -41q49 -16 100 -16q32 0 64 6t74.5 18t62.5 17q40 9 85.5 43.5t45.5 54.5q0 17 17 10h6q18 0 33.5 43t15.5 84q0 38 -17 41q-1 0 -3 1t-3 1q-24 0 -47.5 -27t-23.5 -56v-35l-31 37q-27 33 -71.5 56t-127.5 48q-86 27 -137 27
q-18 0 -18 -7zM539 676q11 -6 35 1q10 4 -5 5h-10q-27 -1 -20 -6zM723 1206q-24 60 -49.5 84.5t-67.5 24.5q-30 0 -114 -25q-37 -12 -98.5 -45t-61.5 -41q0 -22 17.5 -129t17.5 -145q0 -87 21 -127.5t73 -40.5q45 0 137 39q197 82 197 200q0 31 -15 68q-4 9 -15.5 36
t-22.5 53.5t-19 47.5zM213 1522q3 8 6 8q7 0 13 -31t6 -49q0 -25 2.5 -33t11.5 -8q10 0 18 2q188 35 279 35q93 0 168 -21q94 -26 183.5 -64t127.5 -67q50 -38 83.5 -101t33.5 -118q0 -19 -8 -43q-10 -25 -43.5 -77t-58.5 -101t-25 -84q0 -61 84 -80q29 -6 100 -75.5
t119 -137.5q34 -49 60 -126.5t26 -127.5q0 -3 -1 -9t-1 -9q-10 -63 -90.5 -105t-235.5 -67q-120 -19 -184 -19q-35 0 -67 4t-54 9t-53.5 17.5t-47.5 19.5t-55.5 26.5t-58.5 28.5q-90 46 -90 57q0 10 -14.5 20.5t-28.5 10.5q-2 0 -2 -2q0 -8 31.5 -60.5t31.5 -68.5v-13
q0 -28 10 -51q15 -37 15 -45q0 -6 -2 -6q-8 0 -30.5 28t-22.5 34q0 10 -7 10q-9 0 -45 -31l-35 -31l15 -69q10 -48 10 -68l-2 -8q-6 0 -17.5 28t-11.5 46q0 12 -16 12q-21 0 -61 -18.5t-46 -26.5q-15 -19 -18 -10q0 12 -20 12q-7 0 -39 -4q-52 -6 -53 0q0 2 3 6q0 1 15.5 19
t31.5 38.5t30 42.5t14 31q0 4 -2 6q-9 6 -9 31q0 15 4.5 65t4.5 78v19q-3 85 -8.5 114t-24.5 52q-27 39 -27 47q0 13 29 32q20 12 24.5 28t4.5 67q0 19 -2 36.5t-4.5 27t-4.5 9.5q-8 0 -4 41q0 2 1 6.5t1 6.5q0 19 -15 38.5t-71 75.5l-88 88l43 39q94 81 94 119q0 26 -39 62
q-47 38 -71 38q-15 0 -15 2q0 9 41 35q33 23 45.5 37.5t12.5 30.5q0 20 -8.5 24.5t-47.5 4.5q-55 0 -55 6q0 8 57 39l60 30l-41 58q-33 44 -33 55q0 7 14 14q8 4 45.5 14t69 21.5t35.5 22.5z" />
    <glyph glyph-name="C" unicode="C" horiz-adv-x="1273" 
d="M174 893q7 0 20 27.5t13 40.5q0 4 -2 4q-10 0 -22.5 -22t-12.5 -40q0 -10 4 -10zM375 1339q85 37 207 37t221.5 -38t124.5 -109q21 -64 116 -64q25 0 37 2l70 9q-2 -11 -7 -32.5t-7 -33.5l106 2q11 0 28.5 1t22.5 1q41 0 41 -6q0 -3 -6 -6q-51 -31 -121.5 -91.5
t-79.5 -80.5q-9 -22 -72.5 -82t-88.5 -60q-11 0 -11 15v18q0 31 -10 31q-5 0 -14 -12q-7 -11 -10.5 -13.5t-5.5 0.5t-3 15q0 14 -2 14q-3 0 -7.5 -14t-7.5 -28l-3 -13q-6 0 -12.5 -9t-13.5 -24.5t-12.5 -29.5t-12 -31t-8.5 -23l-23 -51v184v37q0 95 -4 124t-16 38
q-29 23 -93 44t-104 21q-35 0 -55 -11t-68 -56l-72 -68l45 -84q48 -89 80 -102q21 -8 21 -12q0 -2 -7.5 -9t-7.5 -14q0 -9 17 -29q12 -14 4 -15l-27 1q-1 0 -4 1t-4 1q-41 0 -71.5 -45.5t-44.5 -108.5t-15 -129v-102l51 -47q38 -33 111.5 -62.5t116.5 -29.5q24 0 61 37
q32 32 43 32q6 0 6 -16q0 -14 12 -14q14 0 48.5 21.5t37.5 21.5q1 0 8 -18.5t14 -37.5t9 -20h2q16 0 73 46t109 103q59 64 82 64q5 0 9 -2q8 -3 8 -12q0 -31 -60.5 -113t-83.5 -105l-32 -30l22 -21q22 -21 40 -59t18 -68q0 -49 -101 -49q-69 0 -166 25q-49 14 -69 14
q-18 0 -58 -12q-77 -27 -170 -27q-108 0 -241 37q-33 10 -66 10q-24 0 -51 -6q-18 -4 -47 -4q-21 0 -27 6q-5 5 -11 76t-9 160q-8 209 -33 323q-23 91 -23 107q0 6 2 6q1 0 13 -8q17 -14 28 6q6 12 11 12q12 0 26 -123q5 -40 10.5 -72t10 -46.5t6.5 -14.5q4 0 4 29
q0 32 -2 57q-5 83 -26 155t-21 173q0 6 1 20t1 21q3 133 19 190t65 109t66.5 83.5t17.5 65.5q0 32 3.5 36t25.5 -5q12 -6 24 -6q24 0 72 22z" />
    <glyph glyph-name="D" unicode="D" horiz-adv-x="1257" 
d="M1020 467q6 6 1 22q-4 12 -6 -3l-1 -5q2 -16 6 -14zM1028 563q0 -21 3 -22q5 -1 5 24q0 7 -2 13q-5 14 -6 -5v-10zM899 309q34 39 73.5 112.5t39.5 131.5v18q-4 15 -6 15q-5 0 -66 -144q-23 -58 -61 -118q-19 -32 -19 -41q0 -4 2 -4q7 0 37 30zM958 825q0 -18 3 -17
q5 2 4 23q-1 5 -2 9q-4 8 -5 -4v-11zM727 1128q-49 21 -129 21h-25q-130 -3 -164 -9t-40 -28q-9 -30 -9 -65q0 -64 22.5 -137t61.5 -134q31 -48 85 -98.5t75 -50.5q11 0 -4 -8l-22 -9q-76 -28 -122.5 -86t-78.5 -166q-23 -84 -23 -92q0 -10 17 -24q52 -43 202 -43
q109 0 170 28q31 15 41.5 37.5t38.5 128.5q39 156 39 187q0 36 -25 87.5t-53 73.5l-26 23q20 3 59.5 8t59.5 8l-9 60q-8 65 -47 145q-41 84 -41 102q0 6 -16 19t-37 22zM350 1386q0 -11 29 -40t29 -43q0 -17 14 -17q12 0 39 6q46 8 149 8h54q115 -3 163.5 -17t116.5 -64
q23 -17 51 -17q46 0 82 39q22 25 27 25q2 0 2 -2q0 -4 -16 -47q-17 -43 -17 -60q0 -40 57 -117q64 -87 86.5 -168t22.5 -223v-10q0 -161 -19.5 -228.5t-84.5 -127.5q-66 -62 -111 -82l-47 -21q1 -28 4 -86t4 -86l-22 31q-19 28 -61 47.5t-85 19.5q-64 0 -92 -47
q-12 -20 -29 -23t-102 -3q-78 0 -97.5 3.5t-19.5 16.5q0 9 -8.5 19.5t-19.5 15.5q-20 8 -24 5t-7 -30l-4 -36l-29 53q-13 25 -29.5 38t-29.5 13q-18 0 -21 -25q-1 -15 -12.5 -20t-50.5 -8q-14 -1 -31.5 -3.5t-22.5 -2.5q-12 0 -12 8q0 3 2.5 9t7 16t7.5 20q16 50 16 94
q0 43 -12 119q-20 136 -73.5 264.5t-115.5 190.5l-43 43l33 18q48 25 77 82.5t29 132.5q0 52 6 82.5t23 67.5l31 61l-25 61q-22 61 -22 74q0 2 6 2q11 0 49 -8t45 -8h4q24 7 51 -29l31 -37v35q0 17 7.5 26t17.5 9q8 0 15 -6t7 -13z" />
    <glyph glyph-name="E" unicode="E" horiz-adv-x="1212" 
d="M313 248q0 26 -24 26q-11 0 -35.5 -6.5t-28.5 -7.5q-18 -5 -18 -10q0 -6 25.5 -14t51.5 -12l25 -5q4 0 4 29zM301 406q10 20 10 47v8q0 12 -6 12t-15 -31t-9 -49q0 -10 4 -10q5 0 16 23zM319 1464l11 66l10 -90q8 -63 13.5 -76.5t25.5 -13.5q28 0 51 45l23 47h204
q94 0 141 -3t63 -9.5t24 -13.5t41 -18t98 -20q122 -18 188 -18q70 0 70 -10q0 -5 -14.5 -11t-41.5 -10t-57 -4q-13 0 -54 -15.5t-56 -15.5h-8l-2 2q-10 0 -16.5 -57t-18.5 -57q-8 0 -13 8q-11 13 -29 13.5t-34 15.5q-26 25 -99.5 48t-123.5 23q-97 0 -262 -84l-76 -39
l-4 -59v-8q0 -91 76 -348q3 -9 10 -9q14 0 59.5 45.5t54.5 45.5h5q2 -2 24 -46q10 -21 19.5 -28.5t29.5 -7.5q27 0 129 24q62 15 84 15q10 0 10 -5q0 -6 -38 -26q-18 -9 -84 -53l-47 -33l75 -35q72 -31 144 -51q73 -18 73 -27q0 -4 -12 -4q-5 0 -37 4q-47 6 -213 25l-155 18
q-16 -14 -50 -41.5t-51 -42.5v-100q0 -58 -6 -88.5t-22 -61.5q-19 -38 -19 -53q0 -4 2 -6q8 -8 236 -8h14h240l16 112q4 29 9 56t9.5 42t6.5 15t9 -7t18 -21t20 -29q40 -66 78 -99q15 -13 26.5 -28t11.5 -19q0 -15 24.5 -29t59.5 -20l50 -8l-37 -14q-31 -13 -31 -27
q0 -5 8 -23.5t8 -33.5q0 -8 -3 -12t-18.5 -8t-39 -6t-72.5 -5q-23 -2 -98 -12.5t-98 -10.5q-19 0 -21 4h-2q-20 0 -105.5 -39t-125.5 -67t-60 -61l-20 -35v51q0 39 -26 92.5t-48 61.5l-6 1q-6 1 -12 1q-45 0 -217 -11q-160 -10 -199 -10q-31 0 -31 4q0 1 23 8q20 5 20 19
q0 10 178 10q193 0 193 8q0 3 -22 16t-61.5 33t-84.5 39q-153 68 -176 68q-16 0 -27 -8q-5 -3 -11.5 -7t-9.5 -6t-5 -2l-2 2q0 8 67 72q58 55 94 122.5t43 137.5l6 58l-49 18q-11 4 -34 8t-40.5 6t-17.5 4q0 5 7 9t16 4q20 0 50 37.5t56 97.5q21 44 45.5 145.5t24.5 136.5
q0 13 -2 13q-10 3 -10 22q0 17 -19 68l-18 49l-72 -49q-76 -52 -102 -82q-24 -27 -33 -27q-2 0 -2 2q0 12 29 67t58 104l30 49q0 5 27.5 18.5t27.5 19.5q0 3 -4.5 13t-12.5 27.5t-14 31.5l-24 60h47q30 0 38.5 -4t8.5 -19q0 -25 24 -35q6 -2 17 -2q12 0 18.5 18.5t15.5 75.5
z" />
    <glyph glyph-name="F" unicode="F" horiz-adv-x="1230" 
d="M352 430q2 4 2 16q0 9 -3.5 20t-7.5 20t-11.5 21.5t-11.5 18.5t-12 17t-9 12q-13 18 -20 18q-5 0 -5 -6q0 -23 29 -82t43 -59q4 0 6 4zM276 1384q5 -10 7 -10q4 0 4 12t-3.5 25.5t-7.5 13.5q-10 0 -10 -8q0 -6 10 -33zM287 262q0 53 -71.5 113.5t-149.5 60.5h-15
q-5 0 -14 -1t-12 -1q-19 0 -19 6q0 5 21 17q13 7 65.5 95.5t52.5 102.5q0 7 -28 7h-31l39 38l7 7l8.5 8.5l8.5 8.5t8.5 9t7.5 9.5t7.5 10.5t6 9.5t5 10.5l3 10t1.5 10q0 19 -18 34q-7 5 -21.5 9.5t-25 8.5t-10.5 7q0 4 20 10q105 31 105 148q0 41 -13 104q-9 47 -16 58.5
t-27 11.5h-8q-8 0 -97 -30t-91 -30q0 4 92 66q75 51 101 88.5t26 95.5q0 39 8 39q6 0 16.5 -26.5t17.5 -52.5l7 -27q6 0 6 22q0 25 -9 87t-9 65v2q4 -5 6 -15q7 -23 53 -35t111 -12q146 0 190 35q15 12 28.5 30t16.5 30q6 26 19 26q10 0 10 -24q0 -9 9 -25t20 -27
q20 -20 38 -24t84 -4q97 0 103 -17q15 -43 221 -51q149 -8 160 -12l2 -2q0 -9 -112 -34.5t-224 -43.5q-33 -5 -143 -30t-170 -25q-36 0 -91 10q-64 12 -112 12q-21 0 -27 -2l-43 -8l8 -137q6 -103 30.5 -199t49.5 -113q11 -8 70 -8q71 0 227 17q115 14 137 14l7 -2h2
q0 -7 -74 -43q-58 -28 -79 -53t-21 -70q0 -29 2 -45q2 -12 2 -31q0 -28 -13 -28q-9 0 -34 18q-17 12 -107.5 40t-112.5 28h-2q-34 -12 -34 -152q0 -84 20 -211q29 -181 29 -199q0 -8 -2 -8t-4 2q-21 21 -70 205q-22 92 -31 92q-3 0 -10 -14q-2 -4 -2 -16q0 -29 10 -62
q14 -47 14 -117v-18q-3 -58 -9 -70t-34 -20q-36 -11 -36 -27q0 -11 -35.5 -39.5t-70.5 -51.5l-36 -23q0 7 52.5 181.5t52.5 186.5z" />
    <glyph glyph-name="G" unicode="G" horiz-adv-x="1093" 
d="M436 395q-187 168 -198 168q0 -6 18 -51q26 -64 91 -117.5t136 -68.5q16 -4 19 -4q4 0 4 4q0 5 -70 69zM598 1413q-1 13 -3.5 36t-2.5 32q0 26 10 26q11 0 51 -43l49 -55l216 6q2 -18 7 -53t7 -53l86 -33q65 -25 65 -31t-14 -6q-31 -3 -31 -12q0 -7 19 -29l14 -18
q-6 0 -31 14q-40 20 -75 20h-37l8 -98q2 -20 15.5 -89.5t13.5 -84.5l-2 -8q-4 0 -68 82q-43 58 -67.5 75.5t-102.5 51.5q-59 25 -83.5 40.5t-25.5 28.5q-3 11 -14 11q-20 0 -64 -25.5t-78 -51t-36 -28.5q-69 -91 -78 -315q0 -10 -1 -31.5t-1 -30.5q0 -130 35.5 -214.5
t122.5 -170.5l51 -51l96 12q98 15 107 21q10 5 10 20q0 25 -34 57t-75 42q-14 3 -25 11t-11 15q0 15 41 15h47l-35 65q-12 26 -62 107q-16 26 -16 30q0 7 8 7q5 0 68 -17q44 -12 161 -22.5t201 -10.5q66 0 80 7l8 4l2 -2q0 -7 -29.5 -34.5t-56.5 -43.5l-41 -25l9 -102
q8 -113 36 -273q29 -176 29 -206q0 -25 -6 -25q-15 0 -45 53q-17 28 -41 58t-37 53q-13 22 -20 22q-15 0 -15 -49q0 -26 -10 -108q-3 -37 -8 -37q-7 0 -35 137l-33 160l-104 -53q-110 -58 -211 -58q-62 0 -162 27q-49 13 -76 30.5t-75 65.5q-11 11 -25 26t-20.5 21t-15 13
t-15 9.5t-15.5 2.5q-16 0 -57 -15l-45 -16l25 25q31 32 41 65.5t10 99.5v58q-3 86 -8 107.5t-23 29.5q-18 6 -18 10q0 2 22 2q23 0 23 4q0 1 -17 15q-19 16 -57 16l-37 2l47 21q44 21 62.5 43t54.5 98q61 128 161 235t206 160q80 41 98 41q10 0 10 29q0 28 -2 53z" />
    <glyph glyph-name="H" unicode="H" horiz-adv-x="1026" 
d="M250 1303q5 14 40 38.5t50 24.5q19 -6 37 -14l35 -15l-56 -118q-7 -15 -21.5 -44t-21.5 -44t-16 -37.5t-12.5 -41.5t-3.5 -38q0 -52 26 -92q37 -57 67.5 -89t63.5 -32q32 0 62 30q39 39 45 91q5 36 10 36q3 0 6 -10q12 -29 43.5 -58.5t50.5 -29.5q28 0 63.5 36.5
t84.5 115.5q34 54 44.5 77t10.5 50q0 15 -18 114q-9 40 -9 66v10h3q2 0 41 -22.5t49 -22.5q41 0 41 -61q0 -37 -13 -60q-20 -39 -28 -209l-9 -174l37 35q25 25 39 25q6 0 6 -6q0 -11 -18 -35q-66 -81 -66 -230q0 -166 86 -352q23 -50 23 -65q0 -7 -8 -27q-11 -19 -19 -19
t-23.5 18.5t-23.5 18.5q-2 0 -2 -18q0 -27 2 -43l6 -62l-14 70q-14 57 -16 57v-2q0 -4 -6 -4q-9 0 -45 13.5t-44 13.5q-5 0 -15.5 -1t-14.5 -1q-37 0 -51.5 4t-14.5 20q0 26 47 99l45 69l-28 76q-29 74 -29 119q0 26 -8 42.5t-31 39.5l-39 37q-62 -2 -183 -7.5t-183 -7.5
l-7 -34q-8 -46 -8 -58q0 -36 22 -77.5t91 -141.5l27 -41l-25 -45q-22 -46 -31 -162l-8 -112l-16 88q-6 35 -14.5 70t-16.5 56t-12 21t-4 -10q0 -9 8 -39.5t8 -44.5q0 -10 -2 -14q-4 -11 -6 -11q-6 0 -15 31l-14 39h-119h-55q-29 0 -40 2.5t-11 11.5q0 11 53 93l39 59
l-29 104q-42 153 -56.5 193.5t-37.5 66.5l-33 35q25 4 75.5 11.5t74.5 11.5l-2 90q-3 84 -38 175.5t-81 139.5l-43 43h53h2q49 0 117.5 33.5t79.5 61.5z" />
    <glyph glyph-name="I" unicode="I" horiz-adv-x="567" 
d="M-43 795q176 194 176 198q0 8 -22 8q-24 0 -30 12q-4 7 8 10q5 1 13 1q35 0 54.5 14t58.5 66q26 35 35.5 55t9.5 49q0 23 -14 109q-8 47 -8 82q0 3 1 6t1 4q40 -59 63 -59q7 0 10 8q2 9 13 -11q4 -8 8 -20l14 -47l23 29q7 10 12 10q8 0 8 -92q0 -5 -4 -305
q-4 -270 -4 -291q0 -127 16 -146q12 -13 12 -21.5t-12 -27.5q-12 -17 -12 -61q0 -29 2 -47l6 -80l119 -96q31 -24 60.5 -48.5t46 -39.5t16.5 -17q0 -4 -59 -4q-60 0 -97 2l-159 8l-3 -47q0 -22 -5 -53t-9 -31q-6 0 -6 53v74h-47q-31 0 -41 -5t-14 -24q-7 -30 -17 -30h-2
q-8 0 -8 12q0 13 23 148q22 141 22 165q0 25 -10 25h-6q-14 -6 -47.5 -12t-47.5 -6h-6q0 1 23 53q24 51 54 139t30 111q0 19 7 19q2 0 3 -1q2 -2 6 -2t4 6q0 13 -17 44t-38 52q-63 66 -135 66q-31 0 -78 -14z" />
    <glyph glyph-name="J" unicode="J" horiz-adv-x="827" 
d="M492 1227q16 8 139 23.5t137 15.5q0 -18 66 -254q0 -2 1 -6t1 -5q0 -12 -9 -12q-5 0 -8.5 6t-3.5 13q0 17 -32.5 47t-61.5 39l-31 10l2 -219q3 -220 21 -289q18 -66 36.5 -185t18.5 -169q0 -56 -12 -56q-14 0 -29 60q-5 16 -9.5 37.5t-7 32t-5.5 10.5q-4 0 -13 -54
q-5 -41 -29.5 -106.5t-29.5 -91.5q-3 -16 -14 -27.5t-19 -11.5t-8 14q0 12 -14 12q-12 0 -27 -8t-21 -20q-5 -13 -8.5 -17.5t-21.5 -8.5t-45 -4.5t-90 -0.5q-26 0 -63.5 -1t-49.5 -1q-48 0 -70.5 11t-40.5 48q-7 14 -32 59.5t-38 78.5t-20 75q-13 70 -37 148q-32 95 -32 106
q0 4 2 4t16 -14q15 -12 25 -12q4 0 10 6q8 8 28 8q22 0 46 -11t30 -26q8 -15 20.5 -20.5t43.5 -5.5q57 0 84 10q12 6 16 6l2 -2l-29 -29q-30 -26 -30 -73q0 -36 21 -63.5t52 -27.5q15 0 33 9q58 31 133.5 130t75.5 179q0 13 -4 33q-26 95 -75.5 164t-92.5 69q-8 0 -14 6
t-6 13q0 8 -11 15.5t-26 10.5l-35 6l47 21q76 34 138.5 94t62.5 100l-93 20q-94 19 -94 25q0 5 11 5q141 9 141 26q0 8 -16 8q-7 0 -18 -1t-13 -1h-2q0 6 31 19z" />
    <glyph glyph-name="K" unicode="K" horiz-adv-x="1105" 
d="M584 588q0 3 -17 12t-40.5 17t-37.5 8q-13 0 -16 -9q-6 -12 -6 -20q0 -18 59 -18q16 0 29.5 1.5t21 4t7.5 4.5zM344 991q-4 -66 -4 -78q0 -51 10 -51q6 0 14 24.5t13.5 62.5t5.5 71q0 56 -12 70q-5 8 -11 8q-8 0 -16 -107zM944 1378q37 70 47 70q2 0 2 -2q4 -21 15 -21
q5 0 8.5 -8t3.5 -18q0 -28 39.5 -153t62.5 -171q12 -26 15.5 -35.5t-0.5 -13.5q-9 0 -88 31q-72 28 -154 51l-76 22l-67 -102q-43 -67 -84 -167t-41 -171q0 -100 92 -100q49 0 63 14q15 15 15 0q0 -8 16 -8q35 0 74 25q23 14 25 5q0 -9 -17 -24q-16 -13 -16 -65
q0 -37 -13 -109q-8 -40 -8 -45q0 -12 5.5 -20.5t21.5 -26.5q21 -23 89 -108t95 -113q43 -46 43 -56t-29 -10q-28 0 -47 29q-16 22 -26 22q-15 0 -15 -28q0 -15 -13.5 -19t-68.5 -4q-45 0 -66 -6t-25 -14.5t-17 -25t-37 -30.5q-55 -30 -70 -30q-4 0 -4 4q0 6 4 10
q15 20 38.5 99.5t23.5 111.5q0 30 -24.5 62t-129.5 137q-58 59 -105 101t-55 42q0 -1 -1 -4.5t-1 -5.5q0 -21 14.5 -47.5t26.5 -26.5q15 0 23 -12q3 -5 -6 -7q-11 -2 -31 -1l-45 2l-25 -142q-35 -199 -42 -217q-6 -12 -19 -12h-4q-7 0 -12.5 5t-8 10t-4.5 8.5t-4.5 1.5
t-5.5 -13q-5 -17 -6.5 -18.5t-1.5 2.5l-2 26q-1 51 -50 92.5t-106 47.5l-67 6l22 28q14 18 14 56q0 29 43 117q28 59 38.5 94t13.5 82l4 77l-60 39q-111 67 -116 70l-58 31l58 8q4 1 11 1q70 10 85 22q20 15 26 75q2 14 5 52l2 20q4 58 4 65q0 25 -5.5 39.5t-23.5 38.5
q-35 53 -57 62q-33 17 -33 32q0 16 14 33q21 26 21 41q0 7 -5 14.5t-5 8.5q0 4 28 16q27 10 45 10q20 0 57.5 -9t55.5 -9q25 0 43 -25.5t27.5 -58t23.5 -68.5t29 -51q33 -33 96 -33q72 0 182 39q105 37 172.5 98t118.5 158z" />
    <glyph glyph-name="L" unicode="L" horiz-adv-x="960" 
d="M371 379q6 -6 10 -6q14 0 14 51q0 34 -5.5 80t-8.5 57q-6 19 -8 19q-4 0 -15 -35q-22 -82 -22 -144q0 -12 2 -12h2q2 2 6 2q13 0 25 -12zM268 1133q-1 8 -2 22q-3 43 -10 43q-4 0 -33 -29q-28 -31 -28 -34q0 -6 16 -19q42 -31 51 -31q8 0 8 17q0 19 -2 31zM369 1100
q2 0 22 57.5t39 119.5t19 73v2q-7 0 -71 -46t-77 -59q-2 -2 -2 -8q0 -25 29 -82t41 -57zM303 1399q29 19 82.5 29t103.5 10q3 0 3 -6q0 -12 -5 -31t-12 -27q-4 -8 -4 -80q0 -90 2 -143q4 -124 11.5 -177t23 -75t51.5 -29l39 -8l-33 -10q-22 -8 -22 -18q0 -9 20 -17t33 -8
t34 -16t21 -25q-108 -31 -112 -35q-13 -10 -13 -18q0 -16 45 -86q45 -71 76.5 -99t67.5 -28q24 0 24 -6q0 -5 -13.5 -11t-29.5 -6q-54 0 -118 -49.5t-70 -95.5q0 -4 -1 -10t-1 -9q0 -13 7 -20.5t26 -13.5q13 -5 26 -5q35 0 58 58l14 35l2 -37q0 -37 23 -64l22 -26l102 61
q101 62 129 86q20 17 25 17q3 0 6 -9q6 -19 19.5 -118.5t17.5 -163.5l6 -78l-80 2q-4 0 -69.5 4t-151.5 8t-139 4q-74 0 -74 -8q0 -12 -80 -12q-58 0 -94 8q-29 6 -29 12q0 3 13.5 12t13.5 15q0 2 -4 6t-6 4q-4 0 -11 -8t-10 -8t-8 10q-7 18 -33 18h-24l22 27q17 19 22 68
t11 258q10 273 10 432l2 133l-45 16q-18 6 -36.5 17.5t-26.5 21.5q-27 37 -91.5 106.5t-88.5 86.5q-33 23 -33 33q0 2 4 2q10 0 29 -11q36 -18 106 -18q45 0 67 5.5t46 23.5q12 9 21 25t13.5 28t6.5 12q16 0 61 29z" />
    <glyph glyph-name="M" unicode="M" horiz-adv-x="1390" 
d="M1237 389q13 -67 16 -67q2 2 2 4q0 15 -7 54.5t-11 43.5l-2 2q-2 0 -2 -8q0 -5 4 -29zM227 1395q1 0 1 1t1 1q10 0 19.5 -12.5t21 -31.5t21.5 -28q44 -39 102 -111q39 -45 59.5 -61t47.5 -16q23 0 92 16q49 12 74 12h6l2 -2q0 -4 -10 -4q-5 0 -9.5 -7t-10.5 -18t-13 -18
q-45 -39 -45 -100q0 -60 41 -113l20 -26l76 45q78 45 98.5 60.5t20.5 33.5q0 12 -6 33q-14 45 -29 63q-6 6 -6 10q0 8 47 8q36 0 104 23.5t68 34.5q0 2 -4 2q-15 6 -15 14q0 6 13 6q1 0 4 -1t4 -1h6q21 0 58.5 29.5t72 65t69 65t48.5 29.5q4 0 8 -4q6 -9 10 -9t14.5 10.5
t20.5 10.5q8 0 11 -2.5t3 -11.5q0 -19 -8 -60q-13 -60 -25 -250.5t-12 -310.5q0 -74 7 -78q14 -4 14 -47q0 -6 8 -56t8 -69q0 -12 -4 -16q-25 -15 -28 -232l-3 -131l56 -57q55 -55 55 -64q0 -4 -33 -4q-31 0 -100 3.5t-74 3.5q-53 0 -64 4.5t-14 27.5l-4 33l-2 -33
q-2 -22 -8.5 -27t-34.5 -5q-11 0 -20.5 1.5t-15 4t-5.5 4.5q0 3 9 62.5t18.5 129.5t9.5 99q0 14 -4 18q-33 23 -71 40t-56 17q-20 0 -20 2q0 4 16 9q25 11 59 52t54 85q16 37 16 51q0 23 -31 23q-10 0 -16 4.5t-6 9.5q0 10 14 10l4 2q0 1 -7 5t-7 7q0 4 6 7q4 4 4 6
q0 13 -67 37q-13 3 -13 8q0 3 31 12q164 45 164 232q0 51 -7 84.5t-16 33.5q-2 0 -4 -2q-10 -10 -64.5 -100.5t-78.5 -136.5q-37 -70 -51 -70q-15 0 -21 39q-9 51 -16 51q-8 0 -36 -54t-46 -106q-8 -28 -8 -32q0 -17 31 -58q0 -1 16 -22q13 -17 34.5 -39t32.5 -35.5
t11 -21.5q0 -3 -7 -3q-18 0 -67 15.5t-80 30.5q-10 6 -25 6q-12 0 -20.5 -18.5t-22.5 -18.5q-10 0 -63 78q-249 366 -305 385l-41 14v-66q0 -54 35 -217q32 -131 32 -159v-2q-5 0 -32 90q-33 107 -39 123l-4 2q-2 0 -2 -17q0 -38 11 -135t23 -168q17 -93 17 -158
q0 -30 -3.5 -61.5t-7.5 -51.5t-13 -58.5t-13 -59.5q-6 -29 -29 -29q-11 0 -21.5 8.5t-11.5 22.5q-3 23 -16 23h-8q-1 0 -4 -1t-4 -1q-9 0 -12.5 13t-6.5 54q-6 100 -65.5 199t-114.5 102l-4 2q0 3 23.5 16.5t23.5 16.5q0 12 -28 29.5t-48 17.5q-12 0 -12 2q0 4 22 12
q57 25 114.5 113t101.5 219q18 52 18 70q0 14 -16 67q-33 95 -33 127q0 26 20 39q17 10 21 31t4 92q0 68 3.5 86t16.5 21zM360 498q0 12 2 12t4.5 -5t2.5 -11q0 -7 -4 -11q-5 0 -5 13v2z" />
    <glyph glyph-name="N" unicode="N" horiz-adv-x="1155" 
d="M256 799q0 3 1 9t1 9q0 84 -10 84t-10 -37q0 -44 8 -104q6 -41 8 -41t2 80zM963 1233q0 145 6 145q1 0 4 -12q7 -27 47 -115l35 -69h145l-184 -185l8 -79q1 -6 14 -189t28 -293.5t32 -116.5q11 -4 14 -9.5t-2.5 -10.5t-17.5 -8q-22 -6 -37 -72q-8 -31 -8 -61
q0 -33 26 -103q2 -6 2 -14q0 -6 -2 -6q-11 0 -31 33q-23 38 -106.5 75t-159.5 43l-84 7l37 75q18 37 24.5 51t13.5 34.5t7 35.5q0 23 -16 46t-56 57q-38 33 -67.5 60t-52 46.5t-72.5 58.5q-93 77 -117 103q-33 37 -41 37q-2 0 -2.5 -7t0.5 -19t4 -26q8 -44 8 -118
q0 -115 -20 -215q-12 -58 -12 -117q0 -97 30 -211q5 -19 2 -21t-20 7q-24 12 -37 12q-22 0 -22 -31q0 -22 -7 -22q-2 0 -11.5 12t-14.5 12q-1 0 -2 -1t-2 -1q-6 -4 -9 8l-1 13q0 23 -52.5 127t-91.5 159q-14 21 -30.5 36.5t-22.5 15.5q-11 0 -25 17t-34 17q-22 0 -23 3
q0 3 27 15q1 1 2 1q67 29 123 170q20 53 37.5 129.5t17.5 114.5q0 14 -2 18q-2 2 -2 10q0 9 9 53.5t11 85.5q6 103 17 158l10 37l37 -18q35 -17 125 -113.5t141 -171.5q65 -95 83 -111q22 -21 67 -23q3 0 47 -1q3 0 8 -1t8 -1q84 0 104 14q20 13 20 9q0 -3 -11 -27
q-13 -26 -13 -66v-12l4 -43l21 43q18 41 18 76q0 23 25 79q43 83 56.5 153t15.5 208z" />
    <glyph glyph-name="O" unicode="O" horiz-adv-x="1325" 
d="M307 838q23 112 23 135q0 10 -2 10q-7 0 -25.5 -52.5t-34.5 -119t-16 -100.5q0 -15 2 -19q3 -10 8 -10q12 0 45 156zM1180 913q7 0 14.5 61t7.5 107q0 33 -4 33q-2 0 -8 -14q-14 -40 -14 -146q0 -41 4 -41zM420 1182q22 19 22 20.5t-20 1.5q-27 0 -49 -49
q-17 -36 -15 -37q2 0 13 15q29 34 49 49zM1112 1192q-73 25 -92 31q-32 8 -33 8q-10 0 -10 -6q0 -3 3 -8.5t9 -11.5t10.5 -11t11.5 -11.5t9 -8.5q21 -21 37 -21t43 8l53 17zM885 1169q-95 82 -135 82q-1 0 -4.5 -1t-4.5 -1q-6 -2 -98 -6l-88 -4l-80 -78
q-66 -66 -94.5 -106.5t-28.5 -69.5q0 -42 -6 -65l-10 -37l22 30q27 38 63.5 81.5t41.5 43.5q4 0 4 -8q0 -10 -37 -151.5t-37 -221.5q0 -52 19 -92q48 -94 139 -94h16q2 0 7.5 1t7.5 1q32 0 32 -18q0 -14 -16.5 -35.5t-38.5 -45t-27 -30.5l-40 -59l38 -35q46 -43 85.5 -59.5
t115.5 -22.5h23q48 0 91.5 22t104.5 78q66 60 66 86q0 21 28 104.5t52 135.5q10 22 10 84q0 97 -25 158q-22 51 -73 106.5t-101 81.5q-80 44 -80 63q0 13 31 19q64 11 64 22q0 9 -37 41zM1112 1520q0 24 8 24q10 0 10 -49q0 -54 39 -169.5t56 -115.5h2q10 4 11 1.5t-7 -11.5
q-4 -4 -4 -12q0 -23 26 -97.5t29 -93.5q2 -10 2 -34q0 -48 -12 -109t-29 -94q-12 -23 -16 -64t-6 -137v-45q0 -117 6 -117q10 0 25.5 10t35 25.5t27.5 20.5l35 20l-31 -51q-20 -34 -81.5 -117.5t-82.5 -120.5q-28 -48 -68 -75q-22 -12 -31.5 -28.5t-11 -27.5t-19 -21
t-56.5 -14q-59 -6 -301 -6h-232l-10 27q-11 26 -76 80q-86 69 -128.5 170.5t-76.5 318.5q-19 117 -49 209q-26 80 -26 123q0 42 -18 87.5t-44 66.5q-17 13 -17 15t15 -3q41 -14 62 -14q17 0 27.5 13t31.5 56q30 62 57 96t68 62q21 14 30.5 31.5t12.5 27.5t22.5 17.5
t61.5 7.5q57 0 67.5 -4t10.5 -25q0 -26 10 -26q22 0 41 61q3 10 10.5 13t30.5 3q4 0 86 -4q87 -6 107 -11.5t40 -29.5q21 -27 35.5 -38t32.5 -11q21 0 76 25q64 30 125 83.5t61 80.5z" />
    <glyph glyph-name="P" unicode="P" horiz-adv-x="1361" 
d="M1001 1014q-51 79 -150.5 121.5t-232.5 42.5q-21 0 -75 -4q-60 -6 -92 -35q-30 -28 -40 -48.5t-10 -60.5t9 -125q9 -99 16 -130t23 -42q26 -17 142.5 -60.5t151.5 -49.5l39 -7v76q0 76 -22 121q-23 48 -23 49l2 2q7 0 21 -14q38 -35 123 -35q88 0 125 37q22 22 22 66
q0 51 -29 96zM240 104q-10 0 -34 -34.5t-32 -34.5t-8 8q0 14 46 101t46 122q0 19 -8 27q-19 23 -72 41l-51 20l28.5 38l28.5 38l-32 31q-31 31 -64 31q-31 0 -31 12q0 10 23 10q22 0 23.5 11t-17.5 26q-4 3 -37 3.5t-63.5 2.5t-30.5 8q0 8 35 19q27 9 29.5 13.5t-15.5 16.5
q-13 9 -15 12t2 4t21 1q33 0 64 45q98 143 155 250l29 53l-29 47q-49 79 -122 123q-23 14 -22 19q0 1 3 1q18 0 54 36t36 52q0 5 -2 5q-1 1 -2.5 2t-2.5 2t-1 2q0 9 35 16.5t72 7.5q26 0 38 -2q27 -6 39 -6q18 0 21 21l3 9q1 -1 3 -18v-6q3 -35 12 -35q8 0 41 33
q85 88 305 88q168 0 326.5 -52.5t208.5 -131.5q84 -135 84 -283q0 -58 -14 -110q-5 -18 -22.5 -60t-32.5 -75.5t-15 -34.5q25 -17 45 -31l41 -27l-39 7q-2 0 -6.5 1t-7.5 1q-34 0 -148 -54q-88 -42 -119 -49.5t-112 -7.5h-109l-55 -72q-37 -47 -52 -58t-46 -11
q-52 0 -89.5 51t-127.5 242l-19 41v-216l43 -26q61 -37 106.5 -79t45.5 -62q0 -43 -142 -84q-17 -5 -33 -11t-24 -11t-8 -7q0 -9 96 -98l96 -88l-94 -11q-96 -8 -137 -24q-29 -13 -94 -13q-71 0 -84 13q-5 5 16 57q33 73 33 92q0 10 -12 10z" />
    <glyph glyph-name="Q" unicode="Q" horiz-adv-x="1230" 
d="M815 2q0 -16 2 -16q6 0 6 20q0 6 -2 10l-2 4q-4 0 -4 -18zM692 150v2q0 10 -18 32q-16 19 -29 19q-11 0 -61 -15q-86 -22 -152 -28q-65 -6 -65 -13q0 -3 12 -6q58 -20 158 -20q61 0 106 8t49 21zM1044 430q37 72 37 102q0 3 -2 3q-15 0 -90 -78q-74 -77 -74 -97
q0 -16 54 -16h2q22 0 33.5 14t39.5 72zM137 684q25 121 25 135q0 4 -2 4q-9 0 -26.5 -69.5t-20.5 -122.5q-4 -46 -4 -47l2 -9q2 0 26 109zM877 1092q-31 33 -46.5 41t-48.5 8h-22q-220 -7 -273 -39q-105 -68 -172 -187t-67 -239q0 -110 45.5 -215t107.5 -137q30 -13 54 -13
q43 0 92 19q26 9 26 18q0 2 -14 27q-21 31 -70 84l-47 51l45 -8q12 -2 29 -2q10 0 10 4v2q-2 2 -2 6q0 2 2 2q3 0 28.5 -12.5t35.5 -12.5q6 0 10 7q3 6 12 6q10 0 50 -19l51 -26l30 39q19 25 36.5 68t17.5 79q0 29 -13 49q-14 20 -14 31q0 6 4 6q7 0 21 -14q19 -19 51 -19
q34 0 61 27q66 69 66 156q0 114 -96 213zM625 1245q2 0 2 4q0 6 -19.5 16.5t-29.5 12.5q-2 0 -6.5 1t-6.5 1q-13 0 -30 -14.5t-52 -53.5l-61 -71l98 51q23 13 49 26t40.5 19.5t15.5 7.5zM618 1438q22 22 31 22q10 0 10 -22q0 -19 9 -19q4 0 6 2h2h2q0 -2 -16.5 -27.5
t-16.5 -33.5q0 -6 6 -6q8 0 8 -2t-11 -9.5t-11 -9.5q0 -4 8 -4q31 0 78.5 -21t80 -41t84.5 -56.5t60 -41.5q45 -29 120 -107.5t97 -119.5q60 -114 60 -252q0 -8 -2 -25t-2 -26q-8 -153 -51.5 -251t-155.5 -206l-39 -39l29 -10h4q11 0 57 12.5t59 12.5q9 0 9 -6
q0 -11 -31 -35q-48 -42 -62 -70q-4 -6 -4 -24q0 -38 34.5 -110t69 -133.5t34.5 -74.5l-3 -6h-4q-11 0 -26 6q-55 26 -137.5 58t-94.5 32h-2q0 -6 50.5 -108.5t50.5 -106.5v-2q-4 0 -39 31q-19 18 -62.5 52t-70 64.5t-50.5 79.5q-46 91 -57 91q-6 0 -6 4q0 2 8 14q8 8 8 31
q0 14 -2 22l-8 35h-549l-8 31q-7 32 -28.5 66t-32.5 34q-3 0 -5 -2q-5 -8 -18 -8q-6 0 -10 2q-15 6 -15 10q0 5 11 23q10 17 10 26q0 13 -14 41q-62 130 -62 260q0 128 52.5 247.5t144.5 254.5l33 49l-43 -24q-36 -19 -43 -19q-5 0 -5 2q0 11 41 31q42 22 82.5 61t94 105
t71.5 86q60 68 72 98q11 23 20.5 30t32.5 7q36 0 57 25z" />
    <glyph glyph-name="R" unicode="R" horiz-adv-x="1355" 
d="M901 696q0 -12 6 -12q14 0 44 36.5t30 49.5q0 4 -2 4q-9 0 -43.5 -34t-34.5 -44zM348 850q0 8 -6.5 16t-15.5 11q-15 3 -20 -4.5t-5 -34.5q0 -50 13 -89.5t30 -39.5q14 0 14 36q0 23 -5 62.5t-5 42.5zM1194 1092q0 62 -10 75q-2 2 -4 2q-6 0 -6 -36q0 -46 10 -84
q3 -13 6 -13q4 0 4 56zM995 1069q-36 126 -70 172.5t-128 95.5l-78 39l-111 -28q-98 -23 -174 -58q-39 -18 -50 -26t-11 -21q0 -4 4 -20q6 -33 13 -82t11.5 -71t20 -59t43.5 -79q68 -98 100 -119q23 -14 23 -20q0 -7 -13 -7q-39 0 -94 25l-73 39v-166h116q88 0 106 -4.5
t38 -30.5q10 -15 24 -25t23 -10q18 0 58 26.5t86.5 64t55.5 43.5q101 66 101 196q0 46 -21 125zM313 1458l1 14l5 -14q2 -7 10 -10.5t34.5 -5.5t76.5 -2q11 0 285 4q254 4 276 4q77 0 100 -2.5t23 -9.5q0 -16 74 -90q182 -177 182 -330q0 -125 -120 -236q-66 -62 -66 -78
q0 -20 16 -53t37 -57q19 -23 10 -25q-12 0 -16 11q-5 12 -53.5 29.5t-81.5 17.5q-38 0 -115 -41q-49 -27 -61 -36.5t-12 -23.5q0 -4 4 -20q4 -26 26 -93.5t27 -74.5q4 -4 55 -25q53 -22 76 -69q46 -90 78 -130.5t69 -54.5q47 -17 47 -43q0 -22 15 -30q6 -3 6 -9
q0 -18 -96 -18h-2q-51 0 -103 21t-65 47q-9 17 -27.5 20.5t-89.5 3.5q-73 0 -90.5 4.5t-26.5 24.5q-13 29 -49 35l-37 8l37 51q35 52 35 57q0 2 -4 2q-14 0 -54.5 -20.5t-60.5 -38.5q-22 -18 -22 -17q-1 1 6 17q14 35 14 98q0 66 -12 90q-21 48 -21 50q0 5 -15 23.5
t-36 37.5q-29 29 -54 43t-63 23q-48 10 -51 10q-6 0 -6 -4t8 -15q19 -26 52.5 -46.5t56.5 -20.5q10 0 18 -3.5t8 -8.5q0 -11 -39 -11q-38 0 -88 -37l-49 -34v-146q0 -149 -6 -164q-5 -12 -29 -16t-96 -4q-70 0 -92 4.5t-22 24.5q0 13 28 88q29 74 29 82q0 11 -108.5 89
t-125.5 78q-10 0 7 8l30 11q53 17 88.5 63t71.5 148q37 102 37 104t-39 29q-28 19 -19 19q2 0 5 -1q43 -13 46 -4q0 2 -1 8q-6 24 -13 240l-6 221q-36 29 -106.5 91t-106.5 92l172 2q116 3 144.5 7t29.5 17z" />
    <glyph glyph-name="S" unicode="S" horiz-adv-x="1040" 
d="M176 -29q0 14 -26.5 19t-53 11.5t-26.5 23.5q0 25 -29 67q-31 45 -31 88q0 65 66 137q37 43 59 43q1 0 4 -1t4 -1q103 -21 103 -45q0 -16 45 -16q29 0 44.5 -10t43.5 -47q48 -64 77.5 -90.5t53.5 -26.5q2 0 6 1t6 1q24 6 25 0q2 -5 -12 -12q-8 -4 -15 -4q-18 0 -3 -17
l9 -10q27 -27 92 -27t115 29q16 10 28.5 21t12.5 14q0 10 -104 58t-129 50q-18 0 -14 3.5t30 9.5q145 35 145 151v23q-6 44 -73.5 115t-110.5 79q-52 9 -99 41.5t-69 73.5q-12 23 -42.5 53.5t-57.5 54t-48.5 57.5t-21.5 68q0 28 19 64q25 46 143 144.5t176 121.5
q53 21 115 21q111 0 220 -55.5t159 -141.5q32 -59 32 -82q0 -33 -49 -63q-8 -5 -57 -42t-93.5 -67t-58.5 -31q-6 0 -28 37q-28 47 -71 105.5t-52 58.5q-7 0 -14 -36t-11 -36l-4 7q-7 22 -53 55l-45 33l-25 -31q-24 -31 -24 -53q0 -35 51 -101q61 -81 85 -103.5t81 -51.5
q52 -28 116 -83.5t64 -72.5q0 -10 41 -72q23 -34 57.5 -121.5t42.5 -103.5q37 -81 37 -174v-70l-47 4q-44 3 -49 -2q-35 -53 -35 -133q0 -73 31 -155q6 -15 4 -15t-14 17q-28 38 -96.5 60.5t-206.5 37.5q-280 33 -396 102q-49 29 -49 43z" />
    <glyph glyph-name="T" unicode="T" horiz-adv-x="1454" 
d="M831 1079q-6 7 -24 15t-27 8q-6 0 -6 -2l17 -43q39 -83 43 -166v-37l12 37q6 18 6 55q0 41 -6 82t-15 51zM551 1227q0 10 -90 10q-65 0 -86.5 -6t-59.5 -37q-45 -36 -63.5 -62.5t-18.5 -56.5q0 -25 13 -27q7 -1 12 11q4 12 107.5 71.5t140.5 71.5q45 14 45 25zM1104 1393
q0 6 -39 6q-57 0 -57 -29q0 -8 2 -12q12 -27 26 -27q12 0 40 25.5t28 36.5zM1151 1489q0 24 4 24q5 0 16 -38l17 -50h262q0 -71 1 -212t1 -212l-45 82q-47 84 -68 95q-20 10 -79 10q-76 0 -156.5 -13.5t-102.5 -35.5q-6 -6 15 -47q18 -36 49.5 -58t67.5 -22q30 0 30 -11
q0 -5 -7.5 -8.5t-16.5 -3.5q-35 0 -103.5 -79t-103.5 -162q-6 -12 -6 -25q0 -24 23.5 -37.5t54.5 -15.5q28 -2 30 -13q1 -5 -5 -7q-4 -1 -11 -1q-22 0 -46 -22.5t-24 -46.5q0 -14 6 -24.5t13 -10.5q8 0 8 16q0 17 10 17q12 0 12 -46q0 -74 38.5 -194t86.5 -197
q25 -42 25 -47q0 -6 -6 -6q-5 0 -64 18q-53 17 -80 17q-44 0 -59 -27q-7 -13 -22 -17.5t-50 -4.5q-56 0 -65 -23q-14 -43 -17 -43q-5 0 -8 21l-4 34l-72 -8q-18 -2 -61 -14t-53 -12h-6q-2 2 -2 6q0 11 18 25t35 14q22 0 53.5 40.5t54.5 98.5q17 44 17 70q0 29 -17 118
q-11 60 -31.5 147.5t-29 149.5t-8.5 154q0 51 2 82q4 106 4 125q0 48 -7 64t-30 16q-17 0 -55 -6q-60 -10 -158 -53t-174 -81t-86 -38l-2 2q-5 5 33 43q28 32 28 41q0 5 -10 22q-21 30 -48 45t-50.5 19t-46.5 10.5t-43.5 27t-34.5 60.5q-10 30 -10 41q0 9 3.5 14t13.5 8
t20 5t32 6.5t41 9.5q77 20 101.5 31.5t31.5 35.5q2 5 21.5 8.5t76.5 7t162 7.5t275 8q353 8 373 25q18 14 18 51z" />
    <glyph glyph-name="U" unicode="U" horiz-adv-x="1384" 
d="M1264 416q0 6 -21 157l-20 136l-9 -80q-4 -50 -4 -56q0 -32 13 -45q12 -14 13 -20.5t-11 -15.5q-19 -16 -19 -35q0 -9 7.5 -17t17.5 -8q9 0 16.5 -6t9.5 -14q2 -11 4 -12q3 2 3 16zM1100 690q14 28 14 51t-12 23t-23 -37q-12 -41 -12 -59q0 -13 6 -13q10 0 27 35z
M1133 1350l34 219q2 0 2 -51v-68l-4 -119l37 -10q6 -2 56.5 -35t60.5 -33l2 2h2q9 0 23 -88q10 -62 10 -80q0 -37 -35 -163q-29 -106 -34 -157t-5 -232q0 -242 10 -242q2 0 3 -3t1 -8.5t-2 -11.5v-10q0 -31 25 -92.5t49 -87.5q16 -19 16 -29q0 -20 -55 -20q-31 0 -97 8
t-81 8q-14 0 -14 59q0 57 -33 113l-31 53l-24 -32q-7 -9 -45 -51.5t-70 -82.5t-37 -57q-4 -17 -17 -21.5t-55 -4.5q-41 0 -52 -4t-11 -19q0 -20 -35.5 -45t-73.5 -33q-19 -5 -29.5 -17.5t-19.5 -43.5q-11 -36 -14 -36q-2 0 -2 11q-2 47 -16 66.5t-58 34.5q-58 21 -92 55
q-31 31 -74 31q-28 0 -41.5 15.5t-22.5 42.5t-20 40q-59 71 -76 276q-6 68 -28.5 192t-24.5 238q-4 164 -10 195q-7 36 -49 104t-64 80q-9 4 -15.5 13.5t-6.5 15.5q0 16 -15 20l-2 2q0 6 70 17.5t109 11.5h12q41 -3 63 -35q14 -19 17.5 -45t3.5 -110v-56q0 -43 -5 -107.5
t-5 -82.5q0 -40 14 -51l8 -4q6 0 8.5 12.5t7.5 54.5q16 174 84 359q40 106 46 106q4 0 4 -16q0 -11 -2 -32t-5.5 -57.5t-5.5 -68.5q-6 -94 -6 -180q0 -45 2 -55q6 -46 34 -99.5t64 -90.5t64 -38q19 -2 18.5 -4t-22.5 -8q-74 -22 -74 -41q0 -6 2 -8q15 -15 -22 -29
q-37 -16 -54 -57q-10 -23 -10 -51q0 -25 25 -150q13 -63 225 -63q65 0 139 8q28 4 33 4q25 0 25 -10q0 -8 -24 -31.5t-28 -30.5q-11 -18 -79 -53q-52 -25 -52 -33q0 -4 13 -4q20 0 103 37.5t163 90.5t80 87q0 8 -23.5 36t-23.5 36q0 2 4 6q2 2 2 4q0 13 -34.5 39.5
t-53.5 26.5q-8 0 -14.5 4t-6.5 8q0 14 15 10q3 0 10 -1t10 -1q44 0 94 47q33 30 42.5 54t23.5 110q12 70 12 108q0 42 -14.5 65.5t-52.5 55.5q-31 28 -31 33q0 4 6 4q12 0 20 -2q2 0 5.5 -1t5.5 -1q16 0 22 12t6 37q0 16 -3.5 59.5t-4.5 69.5l-6 162l-41 33q-24 19 -24 33
q0 8 20 8q12 0 29.5 -3t29 -6t11.5 -4q4 -10 32 -24t43 -14q5 0 7 2z" />
    <glyph glyph-name="V" unicode="V" horiz-adv-x="1374" 
d="M1108 831q43 97 43 121q0 2 -2 2q-4 0 -16 -19.5t-32 -62.5t-42 -100q-26 -67 -41.5 -98t-35.5 -65t-44 -83q-29 -60 -29 -65q0 -3 3 0q0 1 1 2q24 30 91.5 157t103.5 211zM455 924q6 0 22.5 42.5t16.5 47.5l-2 2q-9 0 -24 -29t-15 -49q0 -14 2 -14zM186 1094q7 -7 23 0
q10 4 -3 6h-5q-17 -1 -15 -6zM205 1122q0 13 -10 13t-11 -4q-3 -7 10 -13q11 -5 11 4zM651 545q0 -15 31.5 -139.5t38.5 -124.5q4 0 49.5 30.5t65.5 46.5q5 5 51 177q55 207 55 364q0 134 -43 180q-12 14 -8 14q4 1 33 -8q21 -6 43 -6q23 0 47 8q41 11 41 21q0 2 -2 4.5
t-5.5 7t-5.5 8.5q-16 26 -16 33q0 8 35 8t35 11q0 9 -49 90.5t-58 87.5q-6 5 -20.5 30.5t-14.5 32.5q0 6 207 6h205l-8 -36q-8 -42 -35 -97q-27 -62 -27 -75q0 -16 13.5 -24.5t48.5 -18.5q61 -17 61 -31q0 -3 -2 -7t-7 -9.5l-10 -11t-14 -14t-16 -16.5q-65 -71 -105 -123.5
t-40 -66.5q0 -16 -6 -22.5t-13.5 -1t-11.5 21.5q-6 23 -14 23q-7 0 -15.5 -12.5t-19.5 -40.5t-18.5 -50t-22 -66t-21.5 -65q-61 -179 -127 -347t-90 -204q-16 -22 -16 -45q0 -14 -21 -22q-17 -5 -27 -21.5t-11.5 -32.5t-3 -28.5t-3.5 -12.5q-5 0 -32 60q-49 98 -66 98
q-8 0 -8 -23q0 -7 8 -65q8 -41 8 -72q0 -16 -4 -16q-5 0 -10 31q-7 29 -27.5 64.5t-34.5 80.5q-22 74 -61 154q-35 72 -35 82q0 15 -24 65q-22 45 -65.5 70.5t-98.5 25.5h-47l63 64l-47 20q-52 21 -80 21l-35 2l37 22q23 13 66 66t43 67q0 5 -64 76q-57 61 -133 113.5
t-108 52.5q-26 0 -52 17q-10 7 -10 10q0 4 51 10q45 4 73 23.5t28 44.5q0 10 -2 14q0 1 -1 3t-1 3q0 19 43 19h26q6 0 6 14t-5 39.5t-12.5 53.5t-14.5 53t-13 43.5t-6 19.5q-2 6 -2 16q0 14 6 14q7 0 19 -16.5t20 -42.5q15 -45 74.5 -109.5t85.5 -64.5q9 0 36 14t54 33
q51 37 62 37q4 0 4 -2q0 -4 -7 -16.5t-17 -30t-15 -31.5l-19 -49l43 12q41 11 95 33q36 16 43 16h2q0 -4 -9 -16q-3 -4 -25 -35.5t-36 -52.5l-47 -64l31 -69q32 -77 45 -142q13 -67 22 -67q4 0 10 8t16 19.5t21 17.5q17 9 16 4q-2 -7 -24 -37l-33 -45l37 35q31 27 39 27
q4 0 4 -5q0 -10 -19.5 -48.5t-19.5 -41.5q0 -5 53.5 -6t53.5 -6q0 -4 -25 -12q-22 -8 -52 -54.5t-30 -74.5z" />
    <glyph glyph-name="W" unicode="W" horiz-adv-x="1900" 
d="M453 268q16 0 16 13q0 7 -5.5 18t-15 23t-20.5 24t-23 24l-21 21l-16 16l-8 7q-19 16 -22 16q-4 0 -4 -10q0 -1 1 -3t1 -3q0 -49 36 -97.5t81 -48.5zM924 438q-2 -6 -2 -12v-2q5 0 36.5 46t59.5 92l29 46q-6 0 -61.5 -76.5t-61.5 -93.5zM1446 545q0 18 1 37.5t1 23.5
q0 15 -6 15q-4 0 -13 -2.5t-25.5 -7t-33.5 -7.5q-20 -3 -20 -29q0 -15 6 -61q6 -60 12 -83t16 -23t31 24q20 24 25.5 44.5t5.5 68.5zM1399 907q43 0 102.5 29.5t101.5 68t42 64.5q0 15 -50 80q-143 181 -143 192q0 2 10 2q25 0 124.5 -18.5t109.5 -19.5q13 -1 30 -4t23 -3
q18 0 24 5.5t13 21.5q12 31 24 31q7 0 7 -10q0 -11 -2 -17q-1 -2 -2 -5t-2 -5t-1 -4q0 -10 12 -14t50 -9q16 -2 45 -2q11 0 22 2t13 2q0 -8 -90 -98q-91 -94 -114 -131.5t-67 -167.5q-45 -129 -59 -264q-44 -438 -94 -498q-4 -4 -4 -8q0 -13 47 -49l55 -43l-143 8
q-41 2 -92 2q-50 0 -50 -10q0 -6 -36 -6t-70.5 8t-34.5 22q0 8 -14 27t-33 35l-45 39l12 102q8 52 8 82q0 25 -6 31q-13 13 -64.5 26t-90.5 13q-17 0 -29 -4q-29 -11 -33 -11t-4 7q0 2 4 18q2 6 2 14q0 4 -2 4q-3 0 -24 -24q-31 -36 -31 -99q0 -45 14 -88.5t33 -58.5
q14 -11 14 -16q0 -4 -2 -4q-8 0 -8 -5q0 -1 1 -4.5t1 -5.5q0 -6 -8 -6q-10 0 -18 2q-48 11 -119 17l-82 10l51 -51q53 -53 53 -64q0 -10 -116 -10q-62 0 -84.5 2t-32 8t-17.5 23q-15 34 -30 34q-12 0 -15 -22q-1 -17 -11.5 -23t-37.5 -8q-29 -3 -36 -9.5t-7 -29.5
q0 -33 -12 -33q-10 0 -10 17q0 14 -21 35q-16 16 -65 184q-27 97 -46 143t-46 84q-37 51 -79 87t-79 46q-23 7 -23 9t15 2q29 2 66.5 27t37.5 51q0 6 -7 41t-7 55q0 26 12 26q16 0 16 15q0 2 -4 22q-19 88 -51.5 187.5t-56.5 140.5q-35 62 -35 70q0 4 2 4q5 0 25 -13
q26 -16 55 -16q21 0 36.5 9t18.5 24q3 20 8 20q7 0 31 -37q33 -51 33 -67q0 -4 -4 -4q-1 0 -4.5 1t-5.5 1q-11 0 -11 -135v-144l27 51q27 53 53 56q27 4 27 6q0 1 -4.5 16.5t-14.5 48.5t-18 60q-35 122 -35 184q0 30 10 47q7 10 11 10q5 0 10 -10q3 -6 123 -139
q74 -79 116 -112t70 -33q14 0 23 6t16 6q8 0 8 -6q0 -10 -18 -19q-11 -6 -11 -14q0 -10 13.5 -19.5t32.5 -9.5q30 0 30 -10t-18 -10q-29 0 -71 -50t-64 -110q-17 -47 -22 -84t-5 -117v-30q0 -124 11 -184t38 -85q18 -14 25 -14q10 0 55 29q63 40 156.5 139t93.5 125
q0 3 -17.5 72.5t-17.5 91.5q0 10 4 10l4 4q0 4 -8 4h-4q0 6 35 23q38 17 62 50t24 68q0 17 8 17h6q6 0 6 6t-2 12t-2 23q0 37 15 74.5t32 37.5q22 0 33.5 -41.5t21 -82.5t25.5 -41q5 0 17 8q9 6 12 6q2 0 2 -6q0 -16 -10 -47q-6 -18 -6 -37q0 -16 14 -60q10 -30 15 -39.5
t14 -9.5t24 6q31 9 45 9q58 0 98 -35l25 -23l21 29q9 14 26.5 32t27 32.5t9.5 29.5q0 28 -35 66l-26 28h51z" />
    <glyph glyph-name="X" unicode="X" horiz-adv-x="1497" 
d="M913 791q0 -3 2 -3q6 0 14.5 11.5t8.5 17.5q0 2 -2 2q-9 0 -17 -8t-8 -16q0 -2 2 -4zM684 831q0 7 -18 38.5t-21 31.5v-2q0 -7 18 -37.5t21 -30.5zM1343 1223v10q0 41 -4 41q-2 0 -22 -27q-12 -14 -12 -37q0 -24 22 -32q1 0 2 -1t2 -1q12 0 12 47zM102 1255
q0 7 53.5 65.5t53.5 72.5q0 15 10 18.5t53 3.5q66 0 66 -10q0 -8 36 -51t38 -49q9 -27 41 -27q31 0 55 27l24 32l15 -45q42 -175 45 -188q21 -85 34 -120.5t31 -55.5q8 -9 26.5 -37t36 -44t38.5 -16q20 0 39 21.5t71 101.5q63 98 107.5 137t146.5 85q50 23 69 37t19 32
q0 11 -14 43q-6 15 -34.5 51.5t-28.5 67.5v35l32 -27q14 -11 34 -36.5t32 -47.5q7 -14 16 -27.5t14.5 -20.5t6.5 -7q11 0 30.5 31t42.5 61.5t41 30.5q16 0 27 -19q9 -16 23 -146t28 -157q13 -26 13 -39q0 -18 -15 -18q-18 0 -45 27q-20 23 -90 73l-63 43l-25 -28
q-72 -91 -72 -201q0 -42 -2.5 -51t-15.5 -9h-25q-18 0 -30 -2q-44 -6 -79 -36.5t-75 -98.5q-21 -37 -21 -47q0 -4 7 -8q8 -3 8 -6t-8 -8q-7 -4 -7 -13q0 -12 19 -55q30 -67 120.5 -153.5t180.5 -131.5q84 -43 189.5 -130.5t105.5 -114.5q0 -9 3.5 -16t8.5 -7q4 0 8 -3.5
t4 -8.5q0 -6 -24 -6q-71 0 -109 20q-12 6 -14 6t-2 -2q0 -4 2 -6q0 -1 1 -1t1 -1q0 -6 -14 -6q-3 0 -31 4q-29 4 -52 17t-57 44l-59 54l51 -54q49 -53 49 -61q0 -4 -14 -4q-19 0 -29 2q-44 6 -88 53q-47 47 -55 47q-10 0 -41 -39l-31 -39l9 54v18q0 38 -19 67t-47 44
q-8 4 -12 4q-6 0 -6 -8q0 -13 18 -49q6 -9 26.5 -68.5t20.5 -69.5q0 -8 -16 -8q-6 0 -33 47.5t-57 112.5q-55 117 -118 223.5t-77 106.5q-59 -27 -97 -45.5t-90.5 -47.5t-86 -53t-71 -57.5t-59 -66t-35.5 -73.5t-14 -85q0 -23 7 -58q8 -58 8 -69t-2 -13t-6 -2q-12 0 -31 17
t-19 30q0 21 -96 21q-33 0 -85.5 -3t-57.5 -3l-6 2q8 18 20 41q17 35 75 98.5t103 97.5q21 16 27 24.5t6 26.5q0 8 -4 48q-7 63 -35 108q-18 27 -18 37q0 4 2 4q6 0 22 -16q15 -15 103 -15q87 0 165 37.5t130 93.5l49 52l-51 63q-76 98 -195 98h-31l-49 -4l31 29
q18 18 40.5 56.5t22.5 66.5q0 17 -10 27t-14 10q0 -2 2 -4q4 -6 4 -11q0 -2 -2 -2q-9 0 -82 56q-105 76 -131 90q-41 24 -41 35q0 4 8 10.5t8 11.5q0 9 -14 23q-25 25 -25 32z" />
    <glyph glyph-name="Y" unicode="Y" horiz-adv-x="1523" 
d="M862 590q5 0 11.5 12t-5.5 12q-4 0 -8 -4t-4 -8q0 -12 6 -12zM1264 1333l-41 115h376l-20 -27l-12 -11q-12 -12 -22 -22.5t-22.5 -24t-20 -24t-7.5 -16.5q0 -7 -60.5 -140t-60.5 -139q0 -14 -28 -34q-23 -15 -36.5 -50.5t-13.5 -74.5q0 -37 13 -66q15 -37 8 -35
q-2 0 -4 2q-15 15 -72 15q-67 0 -117 -17q-32 -11 -51 -33.5t-35 -55t-30 -48.5q-14 -15 -15.5 -31t-13.5 -26q-16 -13 -16 -31q0 -16 -13 -16q-10 0 -24 -66l-13 -65l58 -62q43 -45 82 -100t39 -72q0 -8 -46.5 -30t-46.5 -23q0 -2 40 -69t40 -68q0 -4 -8 -4q-18 0 -56 19.5
t-44 33.5q-8 18 -25 18q-5 0 -20 -3t-25 -3q-13 0 -17.5 -8.5t-4.5 -34.5l-2 -45l-13 45q-8 32 -19 42.5t-40 10.5q-9 0 -49 -4q-38 -4 -51 -10t-13 -18q0 -21 -18 -43q-14 -17 -16 -10l-1 32q0 32 -6.5 37.5t-40.5 5.5q-53 0 -53 35q0 33 35 72q28 31 33.5 55.5t11.5 138.5
l8 154l-59 26q-59 25 -82 25q-9 0 -17 4t-8 8q0 6 15 6q12 0 31.5 -3t39.5 -7t23 -4q29 -4 35.5 -2t1.5 16q-5 11 -3 13t11 -2h4q8 0 8 28q0 14 -2 33.5t-4.5 38t-5 35t-4.5 27.5l-2 10q-9 25 -85.5 67t-119.5 47h-29q-100 0 -160 -51q-28 -22 -32 -22q-2 0 -2 2q0 8 18 35
q12 18 19.5 71.5t7.5 108.5q0 74 -13 90q-28 34 -117.5 95t-121.5 69l-47 12l32 16q13 6 23 15.5t10 15.5q0 12 29 23.5t55 11.5q15 0 19 -2q25 -10 96 -17l76 -6l10 -49q6 -34 29.5 -60.5t111.5 -99.5q206 -172 307 -301q45 -59 60 -59q9 0 42.5 63t76.5 164q26 60 32 60
v-4q0 -30 -32 -125q-33 -95 -33 -119q0 -6 2 -6q5 0 20 24q25 39 146 152.5t176 148.5q70 44 70 70q0 30 -39 137z" />
    <glyph glyph-name="Z" unicode="Z" horiz-adv-x="1202" 
d="M608 455q-59 -34 -59 -39v-2q13 0 85.5 35t72.5 43q0 2 -7 2q-26 0 -92 -39zM477 1354q7 0 43.5 1t63.5 1q489 0 497 35q6 22 15 22q11 0 14 -24q3 -26 33 -33q35 -9 35 -45q0 -58 -93 -168q-74 -87 -99.5 -131.5t-43.5 -108.5q-31 -121 -31 -190q0 -60 21 -60q5 0 14 6
q11 11 21 11q6 0 6 -6q0 -14 -17 -31q-18 -21 -18 -29q0 -2 8 -14l8 -10l-12 8q-13 10 -24 10q-15 0 -15 -23q0 -15 9 -30t20 -15q10 0 10 -12q0 -6 -6 -6q-4 0 -16 6q-21 12 -43 12q-38 0 -70 -32q-41 -38 -166 -78q-17 -6 -44.5 -13.5t-44 -12.5t-34 -12.5t-25.5 -15.5
t-8 -18q0 -16 17 -33q29 -29 49 -42t47 -13q28 0 74 21q63 30 102 58.5t39 45.5q0 16 12 16q3 0 5.5 -18t6 -47.5t7.5 -46.5q24 -103 65 -103q4 0 8 1t9 3t9 4t9.5 6t9 6.5t10.5 8.5t9.5 8t10.5 9.5t11 9.5q49 42 103.5 79t68.5 37l4 -2q3 -3 3 -18q0 -19 -7 -59l-10 -66h35
q31 0 31 -12q0 -7 -2 -13q-1 -3 -5 -55.5t-11.5 -96.5t-18.5 -44q-2 0 -4 2q-6 6 -17 6q-3 0 -10 -4t-14 -4q-14 0 -29 10q-38 25 -125 25q-67 0 -81 3t-21 23q-14 41 -107 41q-20 0 -78 -4q-51 -4 -69 -10.5t-23 -20.5q-6 -20 -30 -20q-14 0 -26.5 9t-16.5 24
q-3 14 -9.5 19t-25.5 5q-4 0 -62 -4q-98 -8 -207 -8q-89 0 -106.5 -3.5t-26.5 -25.5q-12 -28 -24 -28q-6 0 -6 14q0 8 2 14t2 15q0 10 -9 12t-43 2q-49 0 -49 10v2q5 8 115 84q70 48 107 76.5t63.5 62t38.5 58.5t36 83l4.5 10.5t4 10t4.5 11.5l35 83l59 7q54 6 93.5 37
t117.5 129q11 13 39.5 48.5t39 49.5t32.5 44t32.5 50.5t25.5 50.5t24.5 61.5t17.5 67.5q10 48 10 97v14q-2 27 -6 36t-16 9q-2 0 -6 -1t-6 -1q-73 -10 -180 -71t-136 -109q-15 -27 -22 -27q-2 0 -2 12q0 49 -62 97.5t-125 48.5q-52 0 -87.5 -31.5t-35.5 -77.5v-4l2 -45
q-8 19 -23.5 56t-23.5 55l25 36q16 21 16 35q0 9 -13.5 25t-16.5 35q0 3 -1 7.5t-1 6.5q0 12 12 16t55 9q58 6 260 6z" />
    <glyph glyph-name="bracketleft" unicode="[" horiz-adv-x="503" 
d="M106 1231v80q0 167 11.5 257.5t48.5 90.5q64 0 140.5 -16.5t120.5 -32.5l44 -17q0 -6 -17.5 -52.5t-17.5 -59.5q0 -19 -16.5 -24.5t-95.5 -14.5q-131 -16 -131 -31q0 -6 36 -6q21 0 33 -6.5t12 -16.5q0 -6 -11 -17t-11 -19q0 -2 1 -5.5t1 -5.5q0 -26 -35 -108l-41 -97
v-311q0 -283 19 -450q7 -57 9.5 -134.5t8.5 -136t23 -112.5q22 -75 22 -76q-2 0 -15 3t-16 3q-4 0 -4 -2q0 -6 59.5 -22.5t106.5 -24.5q66 -13 66 -92q0 -36 -66 -55t-133 -19q-38 0 -58 12t-34 41q-17 34 -41.5 127.5t-24.5 120.5q0 8 4 8q5 0 5 -8q0 -10 6 -10
q18 0 18 125q0 148 -18 225q-74 287 -74 332q0 18 6.5 30.5t16.5 32t19.5 55.5t16 120.5t6.5 209.5v109z" />
    <glyph glyph-name="backslash" unicode="\" horiz-adv-x="858" 
d="M190 1223q30 -52 48 -56q11 -3 14.5 -7.5t3.5 -16.5q0 -13 -2 -21v-12q0 -37 24.5 -111t63 -168t39.5 -98q16 -43 90 -171.5t88 -166.5q12 -33 52 -42t106 -9h39l-11 -51q-6 -27 -6 -53q0 -75 33 -105q23 -19 23 -35q0 -11 20.5 -68.5t20.5 -70.5q0 -6 -2 -6
q-13 0 -70 76q-27 35 -70.5 83.5t-66.5 86.5q-9 15 -95 71t-94 72q-10 22 -48.5 41t-84.5 27q-45 9 -45 22v4q37 127 37 193q0 52 -18.5 89.5t-79.5 110.5q-64 76 -94 119t-60 99q-20 39 -20 67q0 37 33 56.5t96 29.5q36 7 36 21z" />
    <glyph glyph-name="bracketright" unicode="]" horiz-adv-x="505" 
d="M399 129v-82q0 -55 -0.5 -89t-2 -79.5t-5.5 -73t-10 -54t-16 -38.5t-23 -12q-64 0 -141 15.5t-121 31.5l-45 16q0 6 17.5 53t17.5 60q0 19 16.5 24.5t95.5 14.5q38 5 69.5 11t47.5 12t16 10q0 6 -39 6q-45 0 -45 22q0 5 11.5 15.5t11.5 19.5q0 2 -1 5.5t-1 5.5
q0 26 35 108l41 98v310q0 302 -17 452q-6 56 -9.5 134t-10 135t-23.5 112q-22 75 -22 78q2 0 14.5 -4t15.5 -4q5 0 5 2q0 6 -59.5 24t-106.5 25q-66 13 -66 90q0 36 67.5 56t133.5 20q38 0 57 -11.5t33 -41.5q17 -34 41.5 -127.5t24.5 -120.5q0 -8 -5 -8q-4 0 -4 8t-6 8
q-11 0 -13.5 -29t-2.5 -94q0 -158 16 -227q74 -287 74 -330q0 -21 -10.5 -40t-22.5 -43.5t-22.5 -118t-10.5 -246.5v-109z" />
    <glyph glyph-name="asciicircum" unicode="^" horiz-adv-x="942" 
d="M479 1300l2 -2q14 0 82.5 61.5t71.5 61.5q4 0 4 -8q0 -11 -7 -30t-14 -29q-2 -4 -2 -13q0 -17 17 -38t37 -27q24 -9 24 -49q0 -39 33 -78q81 -97 123 -184l29 -60l-138 127q-163 150 -215 150q-16 0 -30 -17q-14 -21 -81.5 -107t-90.5 -112q-17 -20 -19 -20v2l4 16
q2 4 2 10q0 7 -8 7q-9 0 -92 -25q-20 -6 -55.5 -20.5t-61.5 -24.5t-31 -10h-2v2q0 9 60 54t129 93t78 57q112 97 112 107q0 4 -10 4q-8 0 -8 6q0 9 25.5 45.5t25.5 44.5q0 1 -1 3t-1 3l2 3z" />
    <glyph glyph-name="underscore" unicode="_" 
d="M172 10q8 4 17.5 8.5t14 7t10 4t9.5 1.5q11 0 35 -17q21 -18 178 -18q106 0 115 12q6 12 16 12q22 0 45 -63l25 -66l-37 7q-19 4 -197 24q-108 12 -147 12q-40 0 -98 -12q-82 -16 -90 -16q-7 0 -7 2q0 3 29 22q41 25 41 43q0 6 12.5 18t28.5 19z" />
    <glyph glyph-name="grave" unicode="`" horiz-adv-x="552" 
d="M195 1411q23 23 30 23q13 0 13 -41q0 -23 -7 -54q-6 -24 -6 -47q0 -41 23.5 -76t77.5 -75q42 -32 120.5 -97t114.5 -92q10 -8 10 -10v-2q-8 0 -73 38t-131 81q-67 43 -184.5 103.5t-135.5 60.5q-5 0 -8.5 3.5t-3.5 8.5t-24 5.5t-27 10.5q-2 4 -2 9q0 10 6 10
q12 0 99.5 59.5t107.5 81.5z" />
    <glyph glyph-name="a" unicode="a" horiz-adv-x="1046" 
d="M684 737q-41 25 -143 25q-57 0 -84 -8q-64 -21 -130 -77t-89 -112t-23 -96q0 -70 76 -70q51 0 121 31t123 74q40 32 40 53q0 22 -38 33q-31 9 -31 14q0 6 35 6q2 0 6.5 -1t7.5 -1q43 0 95 34t52 67q0 16 -18 28zM819 862q0 8 -6 8q-8 0 -35 -6q-37 -8 -37 -33q0 -4 4 -24
l9 -33l32 39q33 42 33 49zM1032 1014q41 20 55 20q9 0 9 -4q0 -7 -16.5 -20.5t-41.5 -24.5q-65 -28 -92 -67q-49 -66 -65.5 -125.5t-36.5 -247.5q-21 -198 -21 -244q0 -11 101.5 -68t101.5 -65t-41 -18q-41 -9 -67.5 -35t-26.5 -56q0 -19 -5.5 -25.5t-19.5 -6.5
q-15 0 -25.5 -43t-15.5 -43t-14 20q-14 28 -14 47q0 11 -21.5 15t-83.5 4h-106l22 67q18 57 35 90q14 31 24.5 89t10.5 100q0 41 -10 41q-5 0 -58 -82q-33 -51 -61.5 -85.5t-68 -66.5t-89.5 -49t-112 -20h-15q-108 0 -165.5 75t-57.5 195q0 218 16 250q18 32 132.5 181
t121.5 149q0 -4 -17.5 -41.5t-17.5 -47.5q0 -12 13 -12q12 0 78 41q82 49 145 49q36 0 76 -16q36 -16 92 -16q85 0 190.5 32.5t161.5 63.5z" />
    <glyph glyph-name="b" unicode="b" horiz-adv-x="1314" 
d="M791 727q-75 43 -125 61l-62 25l-49 -37q-75 -55 -147 -153q-9 -14 -20.5 -22t-18.5 -5q-1 0 -3.5 1t-3.5 1q-4 0 -4 -4q0 -8 21 -30t41 -32q32 -18 69 -51q73 -66 174.5 -125t139.5 -59q56 0 97.5 81t41.5 163q0 28 -6 49q-13 44 -38 67.5t-107 69.5zM950 801
q-56 39 -71 39q-2 0 -2 -2q0 -11 36 -50q80 -91 86 -98l27 -35l-8 47q-6 43 -15 56t-53 43zM319 43q0 11 -23.5 22.5t-23.5 26.5q0 16 -16 70l-16 47l-13 -33q-12 -36 -12 -39q0 -14 -38 -104t-44 -90q-10 0 -23.5 32.5t-13.5 57.5q0 28 -16 28q-12 0 -12 23q0 51 53 166
l47 102q-3 79 -8 236.5t-8 236.5l-37 56q-15 23 -37 45t-37 30l-39 19l33 6q31 7 63 39q23 23 23 43q0 30 -49 139q-40 87 -90 129l-52 45l45 -6q12 -2 33 -2q37 0 37 23q0 15 -22 61q-29 60 -29 64q0 2 8 2q19 0 51.5 -16.5t36.5 -28.5q6 -23 29 -23q11 0 19.5 8t11.5 21
t2.5 35t3 32t16.5 10t37 -12q12 -6 16 -6q13 0 21 74l8 78l8 -103q3 -39 7.5 -67.5t8 -41.5t12 -39t13.5 -42q5 -17 72 -48t67 -42q0 -15 -75 -66q-54 -35 -68 -47.5t-14 -28.5q0 -6 4 -22q2 -13 9.5 -138.5t15.5 -245.5t12 -126q9 -12 14 -12q10 0 27 57q13 45 73 108
q23 24 37.5 44t16.5 25.5t15.5 15.5t33.5 19.5t71 31.5q176 75 291 75q27 0 37 -2q28 -4 32.5 -1t-1.5 22q-5 16 -4 17l8 -9l10 -14q29 -38 60 -56q58 -35 118 -150t82 -231q7 -38 16.5 -60t23.5 -44.5t24 -46.5q10 -27 10 -33q0 -14 -18 -14q-3 0 -15 1t-18 1q-8 0 -15 -49
q-9 -60 -37 -115.5t-65 -87.5q-45 -41 -57 -41q-11 0 -15 -27q-3 -18 -18.5 -21.5t-104.5 -6.5q-16 0 -38.5 -1t-28.5 -1q-35 0 -44 3.5t-9 16.5q0 9 -10.5 22.5t-24.5 22.5q-32 22 -139 117q-219 201 -252 201h-4q-7 -3 -22 -24.5t-26 -47.5l-30 -66l24 -96
q28 -114 31 -227q2 -35 2 -74q0 -20 -2 -20q-3 0 -6 22q-4 23 -32 84.5t-28 81.5z" />
    <glyph glyph-name="c" unicode="c" horiz-adv-x="962" 
d="M870 883l76 57l6 -43q3 -21 15 -45t12 -31q0 -18 -49 -37q-68 -24 -68 -51q0 -11 12 -20q17 -14 17 -19q0 -9 -35 -20q-20 -6 -32.5 -21t-28.5 -49l-27 -59l-41 35q-25 22 -55 45t-74.5 47t-73.5 24q-12 0 -16 -2q-44 -11 -55 -6q-1 0 -2 1t-2 1q-20 0 -61 -50t-66 -105
q-33 -70 -33 -154q0 -139 88 -203q41 -29 134.5 -73t115.5 -44q19 0 141 36t162 53q4 2 10 2q4 0 4 -5q0 -4 -22 -53q-29 -63 -29 -78q0 -14 -29 -14q-30 0 -30 -14q0 -42 -77.5 -66t-168.5 -24q-77 0 -105 14q-11 6 -52.5 17.5t-73 25.5t-35.5 31t-14 22.5t-36 5.5
q-31 0 -40.5 9t-24.5 53q-32 91 -44.5 148t-15.5 130q-5 81 -46.5 185t-86.5 143q-27 23 -17 21q3 0 9 -3q23 -10 90 -10q54 0 62 8q4 4 4 13q0 21 -17.5 59t-38.5 59l-30 33l41 -16q59 -26 114 -39l72 -19l43 33q54 41 148 41q41 0 71 -12q10 -4 29 -4t38 15.5t30 15.5
q22 0 51 -29t47 -29q16 0 39 14t71 50z" />
    <glyph glyph-name="d" unicode="d" horiz-adv-x="1273" 
d="M821 541q-14 43 -26 51q-6 4 -6 -1q0 -4 4 -13q8 -24 8 -62q0 -41 -8 -49q-1 -1 -2.5 1.5t-4.5 6.5t-6.5 10.5t-7.5 14t-8 16.5q-30 64 -92 64q-50 0 -107 -35l-39 -23l21 -35q7 -13 16.5 -22.5t14.5 -9.5q8 0 8 -13q0 -8 -15.5 -4.5t-15.5 -5.5q0 -4 -24.5 -14.5
t-56.5 -22.5t-40 -16q-33 -18 -53 -41t-53 -84q-43 -79 -43 -96q0 -10 10 -17q15 -12 55 -12q82 0 166 35q75 31 155 103.5t124 150.5q34 59 34 86q0 16 -8 37zM281 551q28 61 28 65v2q-3 0 -20 -20q-44 -49 -76.5 -135.5t-32.5 -149.5q0 -27 4 -37l11 -28v33q1 38 29 124.5
t57 145.5zM936 1411q5 53 10 53q2 0 9 -63.5t18 -63.5q3 0 12 19q12 30 23 30q16 0 16 -77q0 -68 12 -95.5t41 -27.5q11 0 15.5 -0.5t8 -3t3.5 -8.5q0 -16 -35 -91q-43 -90 -43 -125q0 -20 11.5 -36.5t39.5 -42.5q18 -18 56.5 -68.5t72.5 -80.5t72 -32q25 -2 30 -12
q-4 -6 -14 -8q-20 0 -59.5 -35.5t-56.5 -69.5t-17 -45q0 -16 33 -16q12 0 13 -2q1 -3 -10 -10l-17 -11q-37 -23 -49 -49.5t-31 -122.5q-12 -63 -27.5 -120.5t-25.5 -112.5q-13 -68 -27 -68q-8 0 -8 29q0 30 -50.5 176.5t-54.5 165.5q-9 50 -24 90l-13 31v-31q0 -21 -5 -19
q-2 1 -5 5q-2 2 -4 2q-12 0 -39 -64q-21 -48 -76.5 -122.5t-106.5 -141t-63 -100.5q-7 -21 -30 -21q-25 0 -31 -26q-6 -28 -39.5 -42.5t-112.5 -25.5q-36 -4 -55 -4q-69 0 -117.5 20.5t-48.5 59.5q0 7 -6.5 12.5t-15.5 5.5q-15 0 -26 33t-21 86.5t-13 65.5q-22 83 -22 153
q0 79 20 160q35 149 144.5 239t275.5 93l98 2l-24 37q-39 53 -39 71q0 7 2 7q8 0 39 -23q45 -32 115 -65t92 -33q30 0 30 -8q0 -7 29 -22t43 -15l6 2q4 4 15 90q6 47 6 65q0 17 -4 24t-17 15l-26 17l20 59q10 26 27.5 59.5t24.5 59.5t12 76q9 98 14 147z" />
    <glyph glyph-name="e" unicode="e" horiz-adv-x="917" 
d="M694 588q-9 76 -33.5 116t-76.5 68q-19 11 -23 6t-4 -37q0 -43 33 -79q20 -21 43.5 -75.5t23.5 -76.5q0 -8 -4 -8q-5 0 -32 26.5t-58 61.5q-58 65 -75.5 76.5t-59.5 11.5q-59 0 -115 -36t-84 -93q-26 -54 -26 -68q0 -31 129 -73q73 -25 125 -25q93 0 182 80l63 57z
M190 -2q0 12 -29.5 31t-29.5 30q0 18 -29 74q-59 118 -59 270q0 101 27 190t81.5 152.5t127.5 79.5q35 8 159 138l125 129v-64q0 -162 117 -162q30 0 47.5 -9.5t50.5 -45.5q111 -120 111 -240q0 -47 -21 -84q-20 -33 -76.5 -82t-74.5 -49q-4 0 -4 2q-5 13 -33 -12
q-22 -20 -81 -31.5t-202 -23.5l-102 -8l-19 -52q-10 -25 -10 -45q0 -12 17 -43q19 -32 63.5 -49.5t153.5 -36.5l102 -16l158 53q151 51 160 51q4 0 4 -4q0 -9 -30 -58.5t-30 -55.5q0 -9 -5.5 -16t-12.5 -7q-19 0 -19 -16q0 -19 -43 -47q-50 -33 -190 -50q-119 -14 -131 -14
q-38 0 -90 14q-64 17 -123.5 52t-59.5 55z" />
    <glyph glyph-name="f" unicode="f" horiz-adv-x="602" 
d="M293 1317q0 10 33 10q8 0 82 -4q98 -8 129.5 -13.5t31.5 -17.5q0 -5 -6 -14q-8 -13 -8 -23q0 -5 4 -8.5t17 -10t22 -11.5l39 -25l-53 6q-24 4 -29 4q-21 0 -27.5 -20.5t-17.5 -104.5l-10 -69q-18 26 -53 75t-52 74l-35 -39q-57 -65 -73.5 -117.5t-16.5 -183.5v-10
q0 -151 9 -174q5 -10 22 -10q32 0 195 31l41 8l14 -76q2 -7 16 -56.5t25.5 -98.5t11.5 -72q0 -18 -6 -21q-15 -10 -35 29q-22 41 -58 71.5t-59 30.5q-18 0 -18 -22q0 -12 -6.5 -17t-27 -7.5t-27.5 -4.5q-44 -10 -59 -42t-15 -114q0 -67 5 -86t30 -47q9 -9 17.5 -20
t12.5 -17.5t4 -7.5q0 -4 -34 -4h-35v-121q0 -102 -6 -102q-5 0 -11 22q-16 46 -26 111q-5 47 -8 47q-1 0 -6 -7.5t-15.5 -15t-25.5 -8.5q-23 -1 -31.5 -9t-13.5 -30l-3 -6q-8 0 -8 92q-1 94 -14.5 150.5t-13.5 128.5q0 45 2 76q7 168 16 168q10 0 10 106q0 108 -43.5 192
t-109.5 93q-29 3 -29 14q0 12 43 27q50 17 106 60.5t66 72.5q4 11 62.5 82t58.5 86z" />
    <glyph glyph-name="g" unicode="g" horiz-adv-x="956" 
d="M496 143q-15 28 -23 27q-4 -1 -4 -10q0 -11 20 -27q14 -11 15 -9.5t-8 19.5zM618 721q-6 85 -15 99q-7 11 -23 11q-14 0 -76 -20q-75 -25 -137 -93t-62 -126q0 -52 56 -88.5t124 -36.5q61 0 97 33q39 39 39 137q0 35 -3 84zM698 1071q18 13 90.5 55.5t90.5 42.5l4 -2
q2 -2 2 -6q0 -22 -83 -140.5t-83 -137.5q0 -12 46.5 -58.5t86.5 -74.5q58 -40 80 -72t22 -78q0 -37 -14 -59.5t-78 -91.5q-74 -83 -151 -146q-66 -51 -111 -112.5t-45 -94.5q0 -15 10 -20q6 -3 34 -27t44 -24q21 0 33 20q16 23 31 23q22 0 22 -35q0 -17 6 -23t25 -6
q21 0 24 -5.5t-2 -31.5q-2 -8 -2 -22q0 -21 31 -37q45 -23 45 -84q0 -85 -74 -150q-124 -108 -288 -108q-70 0 -140 24q-9 3 -69.5 22.5t-111.5 39t-110 47t-94 62t-35 69.5q0 41 43 78q13 12 37 24t39 23.5t19 26.5q3 13 15 17.5t46 4.5q38 0 57 -9.5t64 -49.5
q62 -58 76 -58q10 0 10 29t12 29q5 0 9 -7t4 -16q0 -18 30.5 -37.5t57.5 -19.5q21 0 45 18l28 21l-45 20q-46 21 -64.5 77.5t-25.5 148.5l-8 92h-43q-102 0 -173 62.5t-71 158.5q0 26 15 80q10 31 10 61q0 22 -9.5 59t-9.5 60q0 33 13 68q17 48 44.5 91.5t39.5 43.5
q9 0 16 -66l8 -65l68 59q56 48 95 70.5t81 31.5q39 8 39 17q0 3 45.5 26t94 46t52.5 26z" />
    <glyph glyph-name="h" unicode="h" horiz-adv-x="1267" 
d="M338 444q6 54 6 62q0 6 -1 14t-1 10q0 11 -4 11t-10 -56q-4 -27 -4 -65q0 -23 2 -23q6 0 12 47zM395 666q2 4 2 8q0 39 -16 151l-8 60l-13 -74q-6 -40 -6 -57q0 -25 15 -52q22 -36 26 -36zM119 1667q0 4 8 4q33 0 156.5 -61t130.5 -84q4 -12 4 -31q0 -13 -4 -41
q-19 -97 -19 -391q0 -145 6 -244q8 -119 16.5 -161t28.5 -42q3 0 5.5 0.5t6.5 2.5t7 4t8 5.5t8.5 6.5t10 8t10.5 8.5t12 10t12 10.5q193 168 287 233.5t145 65.5q13 0 19 -2q32 -7 59.5 -70.5t36.5 -148.5l10 -86l88 -58q93 -59 119 -59q4 0 11 -1q10 0 10 -1l-12 -4l-13 -4
q-74 -21 -145 -109q-54 -67 -54 -287q0 -31 5 -143l8 -154l-25 47q-5 11 -31 48.5t-26 58.5q0 11 -9.5 14.5t-37.5 3.5q-32 0 -42.5 -5.5t-17.5 -26.5q-23 -62 -28 -62q-4 0 -4 15q0 3 1 11t1 13q2 12 2 31q0 16 -4.5 20t-16.5 4q-17 0 -17 5q0 7 17 34q20 32 30 100
t14.5 183t6.5 135q7 79 7 105q0 51 -15.5 80.5t-62.5 78.5q-44 47 -78 47q-27 0 -60.5 -25.5t-91.5 -86.5q-54 -57 -73 -80.5t-19 -36.5q0 -12 33 -35q52 -33 76 -33q23 0 45 -7t22 -15q0 -10 -43 -10h-6l-2 2q-34 0 -76.5 -14t-78 -45t-35.5 -70v-13q2 -10 2 -34
q0 -104 -31 -195q-14 -37 -42.5 -47t-123.5 -10q-61 0 -71.5 3.5t-10.5 26.5q0 27 39 91l37 59l-41 35q-21 18 -103 76.5t-102 76.5q-7 7 -18 12t-18 8t-7 5q0 4 27 12q71 26 142 121.5t71 196.5q0 48 -21 98q-32 72 -32 154q0 78 32 235q31 151 31 178q0 29 4 29
q8 0 39.5 -295t38.5 -295q6 0 19 64.5t24 144.5q2 16 2 49q0 137 -59 309t-121 211q-43 24 -43 33z" />
    <glyph glyph-name="i" unicode="i" horiz-adv-x="516" 
d="M219 1593q-4 16 -4 23q0 18 6 18q11 0 17 -37q8 -39 38 -73q32 -37 90 -160.5t58 -155.5q0 -40 -36.5 -72t-82.5 -32q-30 0 -47 6.5t-35 26.5q-19 20 -28.5 24.5t-20.5 -2.5q-17 -10 -27 -10q-30 0 -30 55q0 56 33 121q29 59 49 132t20 118v18zM305 889q23 10 35 10
q29 0 29 -41q0 -17 -6 -55t-7 -51l-8 -86l53 8q18 3 59 14.5t64 11.5h2q21 -1 4 -7q-22 -8 -23 -10q-2 -2 11 -3h2q18 0 21 -13q1 -11 -13 -12q-25 0 -65.5 -42t-65.5 -93q-35 -79 -35 -135q0 -23 9 -23q1 0 2 1.5t2 1.5q3 0 8 -57t9 -121t5 -72l9 -64h-56q-54 0 -67 -14.5
t-20 -68.5q0 -7 -1 -11q-13 -96 -22 -96q-7 0 -7 28q0 51 -15 96t-46 52l-35 6q8 9 26.5 27.5t26.5 27.5h-26q-27 0 -41 -35q-12 -34 -31 -34q-12 0 -12 20q0 21 24 55q55 78 76 139.5t27 188.5q4 86 4 96q0 40 -5 58t-22 47q-26 47 -75 96q-42 39 -64 39q-15 0 -55 -16
q-13 -4 -12 -1q0 4 18 27q24 30 24 43q0 10 -20 10q-10 0 3 9l24 12q23 9 138.5 18t139.5 19z" />
    <glyph glyph-name="j" unicode="j" horiz-adv-x="514" 
d="M299 1444l41 61q6 0 6 -88q0 -56 -2.5 -140t-5.5 -140l-2 -56l-12 -24l-52 24q-34 18 -94 56l-45 28l27 31q23 25 17 25q-2 0 -9 -2q-2 -1 -5 -2t-5 -2t-4 -1q-7 0 -7 7q0 9 56 86q46 60 96 137zM276 -172q0 12 -4 12q-5 0 -12.5 -12t4.5 -12q4 0 8 4t4 8zM371 51
q0 18 -11 125q-6 49 -8 49t-2 -84v-16q0 -96 10 -109q8 -12 10 10zM301 866q0 10 39 2q28 -6 33 -15t8 -60q2 -38 5.5 -52t16.5 -14q9 0 58 18h6q2 0 2 -4q0 -9 -25 -55l-38 -68l14 -208q12 -209 29 -236q22 -37 11 -38q-4 0 -11 3h-3q-26 0 -26 -209v-108q22 -22 67 -65
t68 -66l-37 -2q-115 -3 -151 -45q-55 -64 -189 -64q-105 0 -194 47q-72 38 -112 71.5t-40 55.5q0 27 59 27q49 0 109 43.5t88 85.5l29 39q14 -17 43.5 -50.5t44.5 -50.5l20 46q29 71 29 129q0 35 -8 71t-25.5 92t-25.5 88q-35 132 -35 160q0 12 6 12q10 0 16 -4q6 -3 12 -5
t9.5 -3t3.5 0q0 10 -33.5 92t-44.5 97q-16 22 -16 34q0 20 43 23l43 4l-33 39q-39 43 -76 61q-32 15 -31 23q1 2 4 2q18 1 79 23t96 22q63 0 63 12z" />
    <glyph glyph-name="k" unicode="k" horiz-adv-x="1146" 
d="M219 584q31 84 31 202q0 56 -12 99l-15 53l-8 -84q-6 -68 -14 -211l-6 -129zM1182 27q-6 0 -100 64.5t-105 64.5q-24 0 -85 -24.5t-81 -27.5q-20 -4 -25 -4q-19 0 -39 16t-77 74q-95 95 -123 95q-20 0 -19 4q1 2 11 6q12 6 12 12q0 12 -28.5 25.5t-43.5 13.5h-2
q-21 -2 -19 1q0 2 3 3q14 6 14 17q0 13 -35 28q-29 11 -49 11q-41 0 -57 -29q-6 -9 -6 -23q0 -27 29.5 -67t64.5 -74.5t64.5 -73t29.5 -63.5q0 -27 -19.5 -37t-58.5 -10q-14 0 -57.5 2t-73.5 2h-4h-180l8 35q3 16 50.5 132t47.5 146q0 2 -4 2q-21 0 -107.5 -54t-125.5 -93
q-23 -23 -33 -23q-12 0 -12 8q0 17 41 47q69 52 123 222q5 16 14 45.5t11.5 38.5t8.5 29t8 31t6 30t7.5 41t7.5 49t10 67l27 179l-37 122q-47 156 -47 299q0 44 6 68q6 23 12 23q2 0 5.5 -6t8.5 -15.5t11 -15.5q25 -25 31 -82q10 -62 18 -62t14 33v17q0 59 -33.5 177.5
t-54.5 131.5q-10 7 -10 26q0 18 39 -24q40 -43 57 -43q12 0 17 10l4 4q6 0 23 -17.5t26 -17.5q4 0 10 6q3 7 6 7q17 0 17 -207v-47v-39q0 -110 7.5 -163.5t26 -82t60.5 -55.5q58 -35 94 -35h43l-30 -16q-15 -9 -15 -13t12 -4q2 0 56 4q36 3 254.5 45.5t269.5 42.5h2l62 -2
l-41 -16q-41 -18 -72 -53q-22 -25 -33 -28q-4 -1 -10 -1q-20 0 -53 8q-50 8 -58 8q-20 0 -47 -10q-34 -13 -134 -88t-157 -129q-38 -38 -82 -63q-16 -10 -16 -23q0 -8 6 -13t15 -5q17 0 34 20q24 31 45 31t37.5 -27t31.5 -69.5t20 -51.5q19 -33 100 -95t106 -62
q17 0 37 -15.5t56 -56.5q79 -88 147 -156q86 -86 86 -106q0 -6 -12 -6z" />
    <glyph glyph-name="l" unicode="l" horiz-adv-x="559" 
d="M334 344q0 -18 2 -18q4 0 4 20q0 8 -2 12l-2 4q-2 0 -2 -18zM264 920q0 -31 2 -31q4 0 4 39q0 3 -1 9.5t-1 8.5l-2 6q-2 0 -2 -32zM434 1642q9 9 10 9v-2q0 -8 -36 -58q-44 -61 -71.5 -146t-27.5 -155q0 -43 8 -67q22 -64 91 -130.5t137 -66.5h39l-37 -22
q-62 -34 -62 -72q0 -20 19 -39q35 -32 67 -41q27 -9 27 -10q0 -4 -23 -4q-31 -1 -84.5 -36.5t-64.5 -60.5q-11 -27 -32 -155t-25 -201q0 -6 -1 -17t-1 -16q0 -51 8 -71q100 -202 100 -269q0 -2 -1 -5t-1 -5l-8 -41l-8 33q-5 18 -11 24.5t-20 6.5q-2 0 -7.5 -1t-8.5 -1
q-27 -3 -32.5 -9.5t-8.5 -36.5q-3 -43 -15 -43q-5 0 -23 20.5t-28 20.5q-1 0 -2 -1t-2 -1q-12 -4 -23 -4q-20 0 -35.5 10.5t-15.5 24.5t-10.5 18.5t-42.5 4.5q-53 0 -53 2q0 1 4.5 13.5t14 38t16.5 46.5q61 167 61 336q0 225 -125 289l-45 22l43 8q40 7 49 21q2 2 2 10
q0 35 -64.5 112t-103.5 95q-24 12 -24 14t16 2q62 3 137 84q84 93 84 205q0 108 -75 211l-35 47l65 2q25 0 57.5 12.5t34.5 12.5h2q1 0 5 -1t6 -1q30 0 106.5 13.5t83.5 20.5z" />
    <glyph glyph-name="m" unicode="m" horiz-adv-x="1513" 
d="M598 1004q36 8 92 8q72 0 109 -15q29 -12 40 -33t11 -61q0 -27 -2 -43t-2 -37q0 -16 8 -16q4 0 8 2q46 20 109 20q23 0 68 -4t67 -4q48 0 84 10q63 17 92 17q62 0 86.5 -43t24.5 -141v-113l49 -51q46 -49 69 -49q20 0 27 -13q-2 -10 -18 -12q-58 0 -111 -72
q-22 -29 -25.5 -59.5t-3.5 -171.5v-191h-43q-7 0 -66.5 -11t-76.5 -11q-10 0 -10 4q0 20 20 92q13 48 17 86.5t4 118.5v137l-4 252l-33 41q-41 53 -82 53q-58 0 -164 -106q-66 -66 -74 -66q-6 0 -6 15q0 16 -13 30.5t-13 22.5q0 4 4 12q13 24 9 28t-32 -5q-61 -20 -61 -174
q0 -61 20 -216t29 -174q7 -13 14.5 -73.5t7.5 -96.5q0 -18 -4 -18q-1 0 -17.5 41.5t-34.5 84t-21 44.5q-15 6 -95 6q-42 0 -56.5 2.5t-14.5 9.5q0 5 2 9q84 212 84 249q0 47 -74.5 164t-122.5 133q-33 11 -33 21q0 4 17 4h18q2 0 10.5 -1t14.5 -1q23 0 51 4l41 8l-23 43
q-59 117 -133 117q-48 0 -92 -53q-24 -28 -37.5 -122.5t-16.5 -209.5t-3 -226.5t-1 -186t-7 -74.5q-5 0 -11 34l-16 70l4 -63l4 -46q0 -8 -2 -8t-12 23q-9 20 -14 41.5t-6.5 29.5t-14 16.5t-38 10.5t-77.5 2q-64 0 -78 4t-14 21q0 15 52 87t106 130q20 23 20 80
q0 50 -14 110.5t-29 89.5q-13 27 -35.5 58t-37.5 45q-39 35 -39 37q0 4 34 0h13q25 0 47 28q29 37 84 74t80 37q30 0 57 20q45 31 137 79.5t119 54.5z" />
    <glyph glyph-name="n" unicode="n" horiz-adv-x="1325" 
d="M434 698q0 -10 4 -10q9 0 34 30t46 60l21 29l-4 2q-15 0 -58 -50.5t-43 -60.5zM991 811q-44 78 -59 78q-4 0 -4 -6q0 -27 43 -76l55 -57zM692 903q19 6 42.5 20t23.5 19h-2q-10 0 -51 -24q-26 -15 -27 -17l10 1q2 0 4 1zM928 1071q35 6 67 6q83 0 117 -30
q28 -27 40 -79.5t22 -203.5q12 -178 28 -199q19 -26 75.5 -64t78.5 -40q13 0 2 -6l-25 -9q-44 -10 -94 -43l-47 -32l-6 -205q-7 -197 -17 -232q-6 -14 -10 -14q-11 0 -27 41.5t-16 48.5q0 17 -137 17h-139l61 61q143 146 143 397q0 71 -12 148q-22 121 -158 121
q-116 0 -272 -78q-124 -62 -145 -80q-30 -23 -34 -65q-1 -12 -3 -64q-2 -59 -2 -143q0 -87 10 -127t41 -86l45 -72l-43 -4q-28 -2 -37 -8t-10 -27q-1 -14 -10.5 -22.5t-21.5 -12t-36 -11.5t-45 -20l-86 -47l54 154q43 122 43 188q0 53 -26.5 95.5t-90.5 105.5
q-120 114 -203 117q-37 0 -37 8q0 9 39 23q30 11 122.5 68.5t115.5 80.5q21 20 55.5 38.5t48.5 18.5h6q9 -7 8 7q0 5 -2 12q-3 11 -12 98q-2 20 -2 43q0 10 2 10l12 -15q12 -15 21 -15h4l2 2q14 0 14 -105v-106l43 49q86 96 237.5 191.5t248.5 115.5z" />
    <glyph glyph-name="o" unicode="o" horiz-adv-x="1005" 
d="M758 545q0 31 -26 72t-82.5 104t-59.5 67q-22 29 -44 50.5t-28 21.5q-17 0 -91 -60.5t-87 -86.5q-16 -32 -16 -66q0 -48 24 -69l29 -25l-31 8h-12q-26 0 -58 -35q-34 -37 -34 -86q0 -56 40.5 -113.5t90.5 -88.5q65 -41 143 -41q65 0 118.5 28t78.5 80q18 37 18 78
q0 68 -39 84q-26 10 -26 19t26 3q2 0 6.5 -1t6.5 -1q22 0 37.5 17.5t15.5 40.5zM408 969q6 11 13 14.5t28 3.5q40 0 73 -2q16 -1 36.5 -2.5t31.5 -2.5t22.5 -2.5t16 -4t4.5 -6.5q0 -10 -33 -33l-45 -33l70 -14q49 -12 112.5 -53t83.5 -50q79 -38 117.5 -116.5t38.5 -178.5
q0 -109 -42.5 -213t-111.5 -157q-26 -20 -47 -42.5t-24 -33.5q-13 -45 -160 -45q-35 0 -78.5 2t-99.5 5.5t-88 4.5q-95 4 -119.5 9.5t-24.5 21.5q0 24 -28 59q-26 35 -39.5 79.5t-32.5 156.5q-8 49 -19 85.5t-16.5 63t-5.5 72.5q0 36 9 65.5t36 79.5q35 65 82 104.5
t160 100.5q27 15 51 34t29 28z" />
    <glyph glyph-name="p" unicode="p" horiz-adv-x="1236" 
d="M348 -37q0 64 -4 64q-18 0 -18 -54q0 -38 10 -53q8 -12 11 10q1 11 1 33zM629 197q0 28 -19 28q-13 0 -26 -16q-8 -9 -5.5 -15.5t15.5 -13.5q25 -13 30 -10.5t5 27.5zM1051 496q-4 76 -21.5 120t-56.5 89q-23 30 -39 30q-3 0 -35 -12q-33 -14 -151 -53
q-124 -40 -165.5 -64.5t-76.5 -79.5q-49 -76 -49 -110q0 -26 32 -66q29 -31 37 -31q2 0 10 2.5t13 2.5q12 0 37 -11l43 -16l-11 31q-10 23 -10 28q0 6 4 6q6 0 21 -24q15 -23 72 -47l55 -23l127 51q112 45 139 65.5t27 68.5q0 5 -1 20t-1 23zM403 567q1 -2 3 -2
q12 0 52 50.5t74 100.5l35 50q-19 -4 -116 -78q-38 -28 -51 -42.5t-13 -27.5q0 -8 2 -14q7 -30 14 -37zM877 776q-46 19 -84 19q-62 0 -122.5 -32t-105.5 -77l-33 -35l70 23q159 50 262 67l66 11zM326 918l26 49l8 -33q1 -2 4.5 -41.5t6.5 -77t4 -37.5q2 0 46 19.5t98 44
t79 37.5q29 16 53 16q20 0 81 25t79 28q31 6 37.5 3.5t1.5 -17.5q-5 -14 3.5 -20.5t37.5 -10.5q97 -15 177 -81t114 -158q26 -68 26 -177q0 -81 -15 -151t-42 -100q-16 -16 -16 -31t-44.5 -54t-86.5 -61q-58 -30 -58 -53q0 -17 -18.5 -20t-114.5 -3q-93 0 -117 -3.5
t-39 -20.5l-20 -25l-10 25q-6 15 -18 19.5t-48 4.5q-23 0 -47.5 3t-28.5 3q-13 0 -19.5 -12t-19.5 -53q-12 -43 -12 -72q0 -32 15.5 -73.5t58.5 -135.5q51 -107 51 -112q-2 -2 -6 -2q-22 0 -98.5 13.5t-112.5 23.5q-53 14 -112.5 39.5t-77.5 39.5q-9 9 -9 11q0 6 11 16
t43 34q19 14 30 23q49 37 49 47q0 5 -6 5q-11 0 -57 -19l-55 -24l6 36q43 245 43 383q0 77 -12 101q-22 42 -81 90.5t-114 48.5q-33 0 -33 10q0 11 27 11q19 0 69 43.5t50 60.5q0 8 -18.5 12.5t-18.5 5.5q0 3 28 11q38 11 62.5 42.5t83.5 147.5q14 27 76 146z" />
    <glyph glyph-name="q" unicode="q" horiz-adv-x="1142" 
d="M975 4q6 61 6 119q0 7 -1 17t-1 12l-2 12q-6 0 -12 -88q-4 -47 -4 -123v-25l2 -4q5 0 12 80zM610 717q-101 55 -118 55q-22 0 -85.5 -35t-101.5 -69q-46 -40 -87 -111t-48 -125l-6 -47l51 -23q12 -5 50 -25t70.5 -34t49.5 -14q38 0 97 80.5t59 128.5q0 2 -1 5t-1 5
q-7 29 4 29q8 0 16 -25q4 -19 42.5 -39t68.5 -20q28 0 70.5 15t62.5 32l26 20l-24 49q-21 42 -54 66.5t-141 81.5zM918 877q-1 20 -4 44t-3 29q0 13 2 13q3 0 13 -21q19 -43 41 -43q2 0 6 1t6 1q13 0 18 -41v-26q0 -28 -15 -59.5t-19 -57.5q-1 -5 -2 -10.5t-2 -9t-1 -5.5
l3 -4q2 0 38 62q24 43 45 70t37 57q19 38 23 38q-84 -325 -84 -368q0 -22 67 -29q50 -8 50 -16q0 -6 -4 -10q-11 -13 -8 -14q1 0 8 3q14 7 14 -4q0 -4 -5.5 -8t-11.5 -4q-14 0 -77 -25l-62 -26l6 -72q2 -27 10 -91.5t12.5 -120.5t4.5 -105q0 -48 -6 -95q-10 -65 -10 -88
q0 -31 13 -55.5t57 -82.5q4 -4 5.5 -6.5t4.5 -7t6 -7.5l63 -86l-94 -25q-91 -25 -119 -45q-26 -16 -35 -16q-8 0 -8 18q0 17 2 29q7 40 3 40q-2 0 -15 -16q-28 -31 -103 -31q-6 0 -19.5 1.5t-20.5 1.5l-39 2l24 47q98 189 98 334q0 69 -26 139q-23 58 -33.5 76t-26.5 18
q-17 0 -75 -39q-74 -50 -101 -59q-20 -7 -32 -35q-7 -15 -23 -20t-74 -5q-12 0 -51 1t-67 1q-140 3 -171.5 6.5t-31.5 16.5q0 14 -37 74q-62 89 -62 194q0 54 29 161t55 146q35 57 118 133.5t151 114.5q60 34 88.5 40.5t118.5 6.5h4q74 0 113.5 -10.5t80 -36t70.5 -37.5
q10 -4 24.5 -18t25.5 -25.5t13 -11.5q9 0 9 49q0 37 -2 60z" />
    <glyph glyph-name="r" unicode="r" horiz-adv-x="937" 
d="M606 1327q-3 5 -1.5 8.5t5.5 3.5q5 0 11.5 -8.5t9.5 -21.5q7 -33 61.5 -152.5t73.5 -144.5l22 -27l21 31q22 36 25 123q3 96 16 96q8 0 14 -57q6 -55 27 -158q12 -62 12 -80q0 -20 -18 -57l-25 -47l49 -93q37 -70 37 -79q0 -7 -4 -7q-1 0 -3 1t-3 1q-74 29 -199 29
q-31 0 -45 -2q-50 -4 -61 -4q-19 0 -19 2q0 9 27 51q30 47 72 129l41 84l-37 68q-8 15 -18 34t-15 29t-6 11l-2 2q-9 0 -65.5 -40.5t-127.5 -97.5q-23 -18 -35 -28.5t-26 -29.5t-19.5 -30.5t-13 -42.5t-10 -55t-5.5 -78t-4 -101t-3 -134q-7 -317 -17 -330
q-7 -10 -64.5 -31.5t-60.5 -40.5q-3 -24 -37 -24q-20 0 -38 9.5t-19 22.5q-2 14 -13.5 21t-24.5 8t-23.5 4.5t-10.5 11.5q0 14 27 41q37 43 90 121q30 48 38.5 67t8.5 44q0 23 -2 39q-7 83 -63.5 171.5t-100.5 88.5q-16 0 -27 14q-8 10 6 10h7q28 -4 37 -4q49 0 49 29
q0 25 -32.5 57.5t-55.5 32.5h-6q-6 -2 -15 -2q-8 0 -8 4q0 10 39 35q46 27 103 27q34 0 53 3t27.5 6.5t27.5 14t41 19.5q72 29 134 79.5t97 108.5q29 46 52.5 110.5t23.5 94.5q0 8 -2 10z" />
    <glyph glyph-name="s" unicode="s" horiz-adv-x="831" 
d="M74 76q0 17 -30 93t-30 89q0 22 69.5 69t80.5 68q21 41 31 41q2 0 2 -4q0 -10 -4 -20q-13 -29 -13 -64t13 -61q10 -17 14 -17q8 0 39 31l39 37l6 -35q7 -34 43.5 -70.5t68.5 -44.5q1 0 4 -1t5 -1q35 0 91 35.5t56 57.5q0 4 -2 6q-3 4 -36.5 105t-37.5 106q-2 2 -108 16
q-232 28 -232 47t-32 19q-13 0 -31 -7q-12 -4 -19 -4q-12 0 -12 21q0 11 14 76q19 77 42 115t98 116q96 102 131 102q9 0 14 -8q60 -8 101 -8q43 0 43 10q0 7 -11 15q-14 11 -14 18q0 10 17.5 15t35.5 5q14 0 19 5t2 14q-2 4 -2 10t10 6q14 0 63 -14q24 -7 42 -20
t29.5 -26.5t25 -26.5t35 -21t51.5 -8h32l-16 -64q-10 -45 -10 -51q0 -16 14 -27q16 -12 13 -13q-2 -1 -13 3q-1 0 -3 1t-3 1q-15 0 -23 -61l-8 -66l-24 31q-25 32 -43 20q-2 -2 -6 -2q-8 0 -21.5 15t-42.5 53q-38 55 -53.5 65.5t-55.5 10.5h-2q-38 0 -82.5 -10.5
t-58.5 -22.5q-2 -2 -2 -10q0 -20 10 -62q13 -53 60.5 -107.5t97.5 -76.5q41 -17 99 -74.5t73 -95.5q16 -40 16 -101q0 -109 -34 -149q-33 -37 -33 -47q0 -7 -23.5 -39.5t-23.5 -44.5q0 -14 -11 -18.5t-47 -4.5q-35 0 -47.5 -4.5t-15.5 -17.5q-4 -20 -45 -32.5t-92 -12.5
q-38 0 -68 6q-16 4 -31.5 9t-23.5 9.5t-8 6.5q0 4 -19 4h-37q-28 0 -28 8q0 9 -11.5 6t-11.5 6q0 4 -9.5 12.5t-21.5 14.5q-28 14 -28 45z" />
    <glyph glyph-name="t" unicode="t" horiz-adv-x="765" 
d="M377 297q-4 16 -6.5 23.5t-5.5 9t-6 -2.5t-9 -14q-7 -12 -5.5 -18.5t15.5 -15.5q16 -9 19 -6t-2 24zM430 524q0 13 -6 13q-5 0 -12 -13q-3 -11 6 -12q4 0 8 4t4 8zM260 1260q-4 50 -4 53q0 18 4 18q1 0 4 -6q4 -7 14.5 -11t16.5 -1h4q10 0 10 -70v-59v-54q0 -53 4 -76
t17 -46q12 -19 29 -27t26 -19.5t10 -46.5q0 -32 7 -43.5t30 -11.5q20 0 100 17q147 32 197 32q39 0 68 -26q26 -23 26 -31q0 -14 -94 -25q-35 -4 -104.5 -29.5t-98.5 -25.5q-24 0 -24 -10q0 -12 28 -12q22 0 24 -12.5t24 -12.5h20q16 2 16 -5q-1 -8 -17 -15q-6 -3 -11 -3
q-19 0 -52 -27.5t-67 -70.5l-37 -47l25 -45q22 -46 22 -74q0 -18 -12 -24q-12 -8 -12 -113v-47q0 -45 19 -56.5t111 -25.5q33 -5 52 -8q33 -5 63 -11t46 -11t16 -7q0 -10 -69 -27.5t-107 -17.5h-11l-36 6l24 -26q14 -17 14 -25q0 -4 -13 -11.5t-13 -21.5q0 -12 -37 -22
t-74 -10h-14q-62 6 -84 14.5t-29 30.5q-7 17 -18 21.5t-41 4.5h-2q-31 0 -39 9t-8 53q0 49 2 84q0 9 1 20.5t1 15.5q0 31 -8.5 45.5t-40.5 45.5q-38 36 -43 47q-4 9 -4 22q0 9 4 37q0 4 1 12t1 11q0 42 -24.5 58.5t-72.5 18.5q-40 0 -40 13q0 6 18 6q8 0 47 31t78 76t39 75
q0 13 -10 23q-7 7 -7 14q0 19 26.5 41t43.5 22q14 0 18.5 13t4.5 67v80v58q0 105 12 112q12 6 12 41q0 33 -2 58z" />
    <glyph glyph-name="u" unicode="u" horiz-adv-x="1052" 
d="M860 944q6 17 12 17q17 0 17 -103q0 -57 -15 -149q-6 -34 -6 -99q0 -101 11.5 -216.5t25.5 -143.5q19 -38 19 -49q0 -5 26.5 -29t61.5 -49l88 -66l-111 -12q1 -16 3 -47t3 -47l-30 51q-22 36 -33.5 42.5t-54.5 6.5h-60v62q0 59 -24 59q-14 0 -34.5 -22t-33.5 -48
q-23 -45 -34.5 -53t-53.5 -8q-34 0 -44.5 -4.5t-10.5 -18.5q0 -20 -33 -28t-111 -8q-129 0 -129 47q0 17 -14.5 19.5t-95.5 2.5h-113l37 80q25 52 31 81t6 107v58q0 106 -5 148t-22 85q-23 60 -61.5 114t-69.5 69t-6 16q14 0 38.5 13.5t24.5 19.5q0 2 -6 2l-4 2q0 3 18.5 8
t45.5 8.5t47 3.5h4q53 0 72 -27.5t24 -88.5l4 -58l68 -26q61 -23 106 -31q29 -5 30 -9q1 -3 -11 -8q-20 -10 -8 -10q16 -1 15 -10q-2 -13 -28 -18q-25 -6 -65 -72q-47 -80 -47 -164q0 -66 34.5 -107.5t102.5 -41.5q36 0 54.5 5.5t41.5 24.5q32 28 86.5 101t54.5 88t-49.5 58
t-83.5 58l-37 17h35q26 0 88.5 32.5t81.5 55.5q6 6 6 16q0 17 -20 58q-25 47 -57 75t-64 29q-26 2 -29 12q-1 5 7 7q5 2 14 2q41 0 152 45t118 65z" />
    <glyph glyph-name="v" unicode="v" horiz-adv-x="968" 
d="M358 367q-14 29 -47.5 71.5t-40.5 42.5v-2q0 -4 2 -8q119 -301 164 -301q21 0 21 6q0 12 -33 68q-42 74 -66 123zM45 825q74 -41 84 -41q21 0 35 -18q11 -14 53 -14h23l59 4l43 -125q20 -58 47 -121.5t61.5 -138.5t47.5 -105l22 -53l70 68q63 63 63 92q0 23 -47 73
l-28 31h26q140 2 264 228q57 104 66 104q10 0 10 -27q0 -56 -65 -301.5t-72 -292.5q-19 -120 -35 -129q-16 -10 -16 -26q0 -23 -18.5 -39.5t-43.5 -16.5h-12q-19 3 -26 1t-7 -11q0 -13 -20 -45l-19 -26l-30 28q-14 14 -33 24.5t-31 21.5t-22 34q-6 15 -16.5 26t-18.5 11
q-18 0 -62 86q-198 396 -352 553l-68 68q20 1 60 4t59 4l-24 30q-27 35 -27 39z" />
    <glyph glyph-name="w" unicode="w" horiz-adv-x="1505" 
d="M1319 850q3 0 10.5 31.5t15.5 71t9 42.5q9 29 14 29q4 0 7 -14.5t6 -40.5t5 -37q10 -63 25 -172q19 -156 86 -223q25 -25 25 -29h-2q-11 0 -48.5 22.5t-46.5 34.5q-10 13 -14 13q-12 0 -31 -105q-20 -109 -68.5 -194t-133.5 -162q-27 -24 -44.5 -47.5t-17.5 -34.5
q0 -13 -7 -17t-34 -4q-43 0 -82 2l-123 7q-46 40 -137 119.5t-137 119.5l-68 -39q-63 -35 -125.5 -93t-62.5 -81q0 -13 -8 -17.5t-33 -4.5q-27 0 -34 4t-7 22q0 32 -43 62q-53 40 -85 128t-32 193q0 50 15 131q10 46 10 95q0 80 -64 174q-59 83 -59 114q0 4 4 4q8 0 180 -77
q17 -7 33.5 -22t24.5 -15q19 0 45 26q20 18 20 41v17q0 18 8 30q3 7 9 7q4 0 4 -37q0 -34 11 -54t30 -20q8 0 12 2q1 0 3 1t3 1q12 0 12 -35q0 -76 -30 -76q-17 0 -17 -10t19 -17t47 -7h28q-10 -9 -31.5 -28t-31.5 -28l47 -90q39 -71 39 -80l-2 -2q-3 0 -38 53.5t-36 53.5
q-2 0 -2 -13q0 -18 9 -42.5t18 -24.5q16 0 16 -12q0 -10 -12 -13q-2 0 -2 -6q0 -13 20 -43l31 -45q33 1 98.5 2t98.5 2l12 51q12 58 12 215q0 166 10 166q11 0 37 -48t55 -112.5t33 -72.5q36 -68 96.5 -137.5t82.5 -69.5q4 0 6 2q6 6 6 23q0 18 -6 34.5t-15 16.5
q-10 0 -10 10q0 4 8 4q10 0 25 -6q8 -4 33 -4q62 0 127 36.5t65 86.5q0 44 -24 90q-26 47 -87.5 135t-97.5 127q-42 49 -51 66q-6 9 -6 14q0 4 10 4q3 0 35 -4q58 -9 141 -51t113 -78q36 -41 41 -41z" />
    <glyph glyph-name="x" unicode="x" horiz-adv-x="1261" 
d="M879 369q-9 18 -37 34l-25 13l25 -37q33 -45 45 -45q4 0 4 4q0 10 -12 31zM-74 -141q0 6 58.5 70t58.5 75q0 13 11 18t42 5q34 0 44 4.5t14 21.5q6 26 70.5 71t160.5 89q71 33 92 49.5t47 61.5q38 65 45 65q2 0 2 -6q0 -5 -4 -29t-4 -26q0 -9 2 -9q6 0 41 58t35 67
q0 6 -99 16.5t-139 10.5q-3 0 -8 -1t-6 -1q-8 -2 -18 -2q-6 0 -6 4q0 6 24 27q19 16 19 22q0 3 -9 12q-11 11 -12 11q-2 0 -2 -13q-6 0 -49 105q-32 81 -47 104.5t-45 38.5q-28 15 -65 50.5t-70 50.5q-37 18 -37 22q0 1 22 4q31 3 31 19q0 7 -5.5 18.5t-16 30t-17.5 33.5
q-33 68 -33 77q5 0 64 -63q60 -66 90 -66q27 0 74 -30q49 -35 168 -35h61q27 0 27 -4q0 -3 -23 -47l-20 -41l43 -33q19 -14 41.5 -41t35.5 -53l12 -24t9 -18.5t6 -12t5.5 -7.5t6.5 -2q5 0 47 25q48 29 54 67q8 50 8 86q0 76 -12 82q-13 9 -13 21q0 4 4 4q3 0 19 -12
q40 -37 112 -37q20 0 60 8q57 12 137 73t138.5 116t64.5 55l2 -2v-2q0 -19 -6 -46q-9 -42 -61.5 -105t-223.5 -239q-186 -193 -186 -202q0 -25 107.5 -47.5t191.5 -22.5h20q27 2 68 2h24q0 -1 -4.5 -4t-13 -7t-16.5 -7q-20 -7 -62.5 -54t-42.5 -59q0 -2 4 -2v-2
q0 -3 -30.5 -44.5t-30.5 -43.5q295 -154 295 -168q0 -2 -2 -2q-27 0 -27 -21q0 -27 -119 -57t-228.5 -46.5t-121.5 -16.5q-33 0 -33 16q0 8 17 35t22 41q7 18 59 90.5t52 111.5q0 45 -17 62q-13 13 -75 90q-55 65 -71 75q-10 7 -20 7q-24 0 -97 -91q-6 -7 -9 -11
q-75 -94 -92.5 -139.5t-18.5 -159.5v-70l-37 31q-40 32 -88 32q-57 0 -116 -41q-51 -34 -178 -78t-168 -44q-13 0 -13 6z" />
    <glyph glyph-name="y" unicode="y" horiz-adv-x="1132" 
d="M1034 924q0 27 11 25q10 -5 12 -23q0 -18 27.5 -44t45.5 -26h5q10 4 14 -3t4 -32t-7.5 -38t-27.5 -27q-23 -15 -82.5 -113t-93.5 -176q-19 -42 -56.5 -136.5t-37.5 -99.5q1 -3 4 -2t10 4q5 2 3 -1q-1 -5 -13 -19q-24 -27 -44 -73t-20 -74q0 -29 -16 -35q-6 -3 -13.5 -20
t-10.5 -36q-5 -34 -13 -34q-2 0 -6.5 4t-7.5 4q-5 0 -14 -15q-11 -19 -11 -40q0 -40 33 -115q8 -20 17 -42t13.5 -33.5t4.5 -12.5q0 -6 -61.5 -21t-128 -33.5t-76.5 -33.5q-16 -23 -39 -23q-19 0 -43 17q-15 11 -15 16q0 10 35 45q50 52 113 143.5t63 139.5q0 22 16 57
l15 35q0 11 -24 -10l-9 -9q-19 -24 -55 -24q-33 0 -93 29.5t-69 31.5q-51 11 -51 33q0 19 -29 72q-21 38 -68.5 187t-66.5 185q-7 14 -17 34.5t-15.5 31.5t-6.5 14q-3 11 -73.5 76t-96.5 80q-16 11 -9 11q5 1 24 -3q1 0 3.5 -1t4.5 -1q28 0 57 19t29 38v9q0 11 33.5 23.5
t62.5 12.5q14 0 14 15q0 33 17 33q20 0 41 -35q45 -70 105 -147.5t71 -82.5h4q6 0 26 5.5t25 5.5q4 0 4 -4t-20 -21q-15 -12 -11 -12l17 2q28 6 26 -4q-1 -9 -26 -19q-27 -12 -47.5 -58t-20.5 -93q0 -15 4 -35q6 -24 93 -104.5t96 -94.5q25 -42 43 -33q10 7 10 19
q0 32 -43 77t-86 54q-33 7 -33 14q0 2 3.5 4.5t11 4.5t16.5 2q37 0 111 43q40 23 55.5 37t15.5 28t-32 51l-27 27l61 -4q4 0 11.5 -1t11.5 -1q49 0 88.5 22.5t105.5 85.5q119 112 119 271z" />
    <glyph glyph-name="z" unicode="z" horiz-adv-x="1040" 
d="M612 911l13 2q0 2 -68 2q-70 0 -70 -2q5 -2 13 -2q14 -2 57 -2q41 0 55 2zM195 872q-20 0 -41 -53.5t-21 -81.5q0 -11 -16 -35q-3 -6 -8 -6q-18 0 -57 129t-54 129t-25 15q-7 10 5 10q5 0 10 -2q2 0 5.5 -1t4.5 -1q12 0 12 10q0 9 -7.5 24.5t-14.5 27.5l-8 12q0 2 2 2
q15 0 124 -52l125 -59l195 8q159 6 240 6q42 0 67 25q21 21 22 12q1 -2 1 -8q0 -14 43 -14q41 0 137 16q2 0 6 1t6 1q27 0 27 -31q0 -48 -61 -137t-142 -149q-39 -29 -61 -57t-49 -81l-44 -90q20 -40 59 -119.5t60 -119.5l90 -47q85 -47 103 -47q6 0 44 111.5t44 111.5
q8 0 8 -70q0 -58 8 -156l8 -88l-51 -22q-53 -22 -121 -68q-61 -41 -71 -41q-6 0 35 35q27 23 51 57t24 48l-2 6q-10 10 -123.5 17t-117.5 24q-3 12 -27 23.5t-47 11.5q-35 0 -43 -31q-7 -29 -23 -29q-6 0 -11 -8t-5 -18q0 -39 -23 -39q-12 0 -24 14t-12 29t-11 18.5t-53 3.5
q-39 0 -53 5t-19 20q-6 22 -18 22q-11 0 -27 -22q-17 -27 -53 -27q-16 0 -26.5 6.5t-10.5 18.5q0 16 -34.5 65t-34.5 64t32 24.5t72.5 15t48.5 9.5q18 11 58 86q14 27 24.5 42t18.5 22.5t19.5 10.5t21.5 3.5t30 2.5t41 7l33 8l-57 66q-4 4 -9.5 10.5t-8.5 9.5t-7 8t-6.5 8
t-5.5 7t-4.5 7l-3 6t-2 5.5t-0.5 5.5q0 14 20.5 27.5t75.5 38.5q56 26 102.5 68t46.5 67q0 17 -90 57q-12 5 -30.5 13t-26.5 11t-20.5 6t-26.5 3q-17 0 -40 -3t-76.5 -11t-92.5 -13q-8 -2 -19 -2q-20 0 -20 13q0 3 2 10t2 10q0 12 -18 12z" />
    <glyph glyph-name="braceleft" unicode="{" horiz-adv-x="655" 
d="M449 1493q15 35 24 43t35 8q76 0 76 -28q0 -6 13 -17t30 -18l43 -21l-41 -14q-64 -23 -88.5 -38.5t-63.5 -57.5q-50 -53 -71.5 -114t-61.5 -259q-36 -184 -63 -240l-25 -53q20 -8 47 -16q23 -8 32 -15t9 -20q0 -4 -6 -24.5t-6 -35.5q0 -13 33 -59q24 -30 30 -48t6 -60
v-35q-1 -54 -20 -148.5t-19 -140.5q0 -40 15.5 -72.5t34.5 -32.5q13 0 126.5 -43.5t139.5 -58.5q15 -9 15 -11q1 -1 -5 1h-4q-11 0 -25.5 -19.5t-30 -45.5t-22.5 -33q-23 -23 -39 -29t-51 -6q-36 0 -51.5 7.5t-44.5 37.5q-41 44 -56.5 97t-37.5 224q-30 225 -56.5 329
t-64.5 134q-16 13 -25.5 32.5t-24.5 30t-53 15.5q-46 6 -86.5 21.5t-40.5 27.5q0 24 136 103q56 32 69.5 46t16.5 42q6 49 16 49q12 0 20 -25q15 -35 25 -35q9 0 31 19q18 15 18 43q0 17 -10 102q-8 63 -8 123q0 31 4 59q9 52 44 127.5t50 75.5q6 1 1.5 4.5t-14.5 7t-7 7
t24 4.5q23 0 34 9.5t24 43.5z" />
    <glyph glyph-name="bar" unicode="|" horiz-adv-x="391" 
d="M68 1432q2 -5 12 -5q9 0 26 7q57 26 87 26q36 0 52.5 -30.5t18.5 -94.5v-45q0 -96 -24 -284q-15 -118 -15 -148q0 -64 27 -129q17 -39 40 -74t79 -110q2 -2 2 -8q0 -18 -27 -48q-42 -48 -57.5 -86t-26.5 -91.5t-33 -104.5q-19 -45 -27 -77t-13.5 -74.5t-12.5 -73.5
q-7 -42 -22 -185q-11 -123 -23 -123q-5 0 -10.5 39t-11.5 85t-11 57q-2 4 -2 16q0 15 4 35q2 8 2 24q0 75 -53 160l-31 49l31 23q28 22 45 37t37.5 45.5t20.5 58.5v12q-7 68 -7 164v144q0 103 -6 165q-2 18 -9 82.5t-13.5 120.5t-15 120t-18.5 110t-20 63q-16 29 -16 39
q0 12 8 20q13 15 13 87v2z" />
    <glyph glyph-name="braceright" unicode="}" horiz-adv-x="673" 
d="M207 -217q-15 -35 -24.5 -43t-35.5 -8q-77 0 -77 28q0 6 -12 17t-29 18l-43 21l39 14q65 23 90 39t63 57q49 52 70 112t61 261q15 74 34 145.5t30 94.5l24 53q-18 8 -45 16q-24 8 -33.5 15t-9.5 20q0 4 7.5 24t7.5 35q0 14 -33 60q-24 30 -30.5 48t-6.5 60v35
q1 54 20 148.5t19 140.5q0 40 -15 72t-34 32q-13 0 -126.5 44t-140.5 59q-15 9 -15 11q-1 1 5 -1h2q11 0 26 19.5t31 45.5t23 33q23 23 38.5 29t49.5 6q35 0 52.5 -8t46.5 -39q41 -44 55.5 -95.5t36.5 -223.5q29 -223 57 -327.5t66 -135.5q16 -13 25.5 -32.5t24 -30
t52.5 -15.5q46 -6 86.5 -21.5t40.5 -27.5q0 -24 -135 -103q-56 -32 -69.5 -46t-16.5 -42q-6 -49 -17 -49q-12 0 -20 25q-15 35 -25 35q-8 0 -30 -19q-7 -6 -10.5 -10t-6 -12t-2.5 -21q0 -34 8 -102q9 -70 9 -123q0 -25 -5 -60q-9 -52 -44 -127t-50 -75q-9 -1 7 -8
q21 -10 11 -13l-20 -2q-23 0 -33 -9.5t-24 -43.5z" />
    <glyph glyph-name="asciitilde" unicode="~" horiz-adv-x="911" 
d="M707 733l104 -65q0 -4 9.5 -12.5t21.5 -14.5q19 -9 22.5 -20.5t3.5 -63.5q0 -3 1 -10.5t1 -11.5q0 -78 -10 -78q-3 0 -7.5 7.5t-11.5 19t-14 18.5q-8 8 -12 8t-4 -16q0 -24 14 -27q2 0 2 -4q0 -16 -50.5 -64.5t-69.5 -48.5q-32 0 -84 30t-88 69q-25 26 -72 53t-68 57
l-26 37l-7 -33q-3 -18 -19 -32.5t-58 -38.5q-8 -5 -20 -11.5t-18 -10t-14 -8t-11.5 -7.5t-7.5 -7t-5.5 -8t-1.5 -8q0 -15 37 -61q26 -36 26 -43q0 -2 -4 -2q-7 0 -53.5 30.5t-58.5 30.5q-7 0 -22 20t-26 46q-49 109 -49 127q0 9 6 12q11 7 11 35q0 26 10 26q11 0 37 -20
q24 -17 29 -17q4 0 20 19q13 16 32 22t70 7q56 2 101.5 20t58.5 18q39 0 115 -53q60 -40 86.5 -52.5t56.5 -12.5q53 0 53 32q0 16 -18 57.5t-18 59.5z" />
    </font>
</defs>
</svg>
